<?xml version="1.0" encoding="us-ascii" standalone="no"?><svg xmlns="http://www.w3.org/2000/svg" xmlns:xlink="http://www.w3.org/1999/xlink" contentStyleType="text/css" height="767px" preserveAspectRatio="none" style="width:562px;height:767px;background:#FFFFFF;" version="1.1" viewBox="0 0 562 767" width="562px" zoomAndPan="magnify"><defs/><g><ellipse cx="371.75" cy="20" fill="#222222" rx="10" ry="10" style="stroke:#222222;stroke-width:1.0;"/><polygon fill="#F1F1F1" points="308.25,50,435.25,50,447.25,62,435.25,74,308.25,74,296.25,62,308.25,50" style="stroke:#181818;stroke-width:0.5;"/><text fill="#000000" font-family="sans-serif" font-size="11" lengthAdjust="spacing" textLength="127" x="308.25" y="65.8081">isFirstTimeUser is true</text><text fill="#000000" font-family="sans-serif" font-size="11" lengthAdjust="spacing" textLength="23" x="273.25" y="59.4058">true</text><text fill="#000000" font-family="sans-serif" font-size="11" lengthAdjust="spacing" textLength="28" x="447.25" y="59.4058">false</text><rect fill="#F1F1F1" height="33.9688" rx="12.5" ry="12.5" style="stroke:#181818;stroke-width:0.5;" width="351" x="58" y="84"/><text fill="#000000" font-family="sans-serif" font-size="12" lengthAdjust="spacing" textLength="331" x="68" y="105.1387">Render Welcome Message, Buttons: "Okay" and "Skip"</text><polygon fill="#F1F1F1" points="182.5,137.9688,284.5,137.9688,296.5,149.9688,284.5,161.9688,182.5,161.9688,170.5,149.9688,182.5,137.9688" style="stroke:#181818;stroke-width:0.5;"/><text fill="#000000" font-family="sans-serif" font-size="11" lengthAdjust="spacing" textLength="102" x="182.5" y="153.7769">user clicks "Okay"</text><text fill="#000000" font-family="sans-serif" font-size="11" lengthAdjust="spacing" textLength="23" x="147.5" y="147.3745">true</text><text fill="#000000" font-family="sans-serif" font-size="11" lengthAdjust="spacing" textLength="28" x="296.5" y="147.3745">false</text><rect fill="#F1F1F1" height="33.9688" rx="12.5" ry="12.5" style="stroke:#181818;stroke-width:0.5;" width="221" x="11" y="171.9688"/><text fill="#000000" font-family="sans-serif" font-size="12" lengthAdjust="spacing" textLength="201" x="21" y="193.1074">Set showBackgroundInput to true</text><rect fill="#F1F1F1" height="33.9688" rx="12.5" ry="12.5" style="stroke:#181818;stroke-width:0.5;" width="187" x="252" y="171.9688"/><text fill="#000000" font-family="sans-serif" font-size="12" lengthAdjust="spacing" textLength="167" x="262" y="193.1074">Set isFirstTimeUser to false</text><polygon fill="#F1F1F1" points="233.5,211.9375,245.5,223.9375,233.5,235.9375,221.5,223.9375,233.5,211.9375" style="stroke:#181818;stroke-width:0.5;"/><rect fill="#F1F1F1" height="33.9688" rx="12.5" ry="12.5" style="stroke:#181818;stroke-width:0.5;" width="82" x="469" y="84"/><text fill="#000000" font-family="sans-serif" font-size="12" lengthAdjust="spacing" textLength="62" x="479" y="105.1387">Return null</text><polygon fill="#F1F1F1" points="371.75,241.9375,383.75,253.9375,371.75,265.9375,359.75,253.9375,371.75,241.9375" style="stroke:#181818;stroke-width:0.5;"/><rect fill="#F1F1F1" height="33.9688" rx="12.5" ry="12.5" style="stroke:#181818;stroke-width:0.5;" width="207" x="268.25" y="334.3398"/><text fill="#000000" font-family="sans-serif" font-size="12" lengthAdjust="spacing" textLength="187" x="278.25" y="355.4785">Render Background Input Form</text><rect fill="#F1F1F1" height="33.9688" rx="12.5" ry="12.5" style="stroke:#181818;stroke-width:0.5;" width="160" x="291.75" y="444.019"/><text fill="#000000" font-family="sans-serif" font-size="12" lengthAdjust="spacing" textLength="140" x="301.75" y="465.1577">User answers question</text><rect fill="#F1F1F1" height="33.9688" rx="12.5" ry="12.5" style="stroke:#181818;stroke-width:0.5;" width="170" x="286.75" y="507.0854"/><text fill="#000000" font-family="sans-serif" font-size="12" lengthAdjust="spacing" textLength="150" x="296.75" y="528.2241">Store response in Redux</text><polygon fill="#F1F1F1" points="314.25,388.3086,429.25,388.3086,441.25,400.3086,429.25,412.3086,314.25,412.3086,302.25,400.3086,314.25,388.3086" style="stroke:#181818;stroke-width:0.5;"/><text fill="#000000" font-family="sans-serif" font-size="11" lengthAdjust="spacing" textLength="28" x="375.75" y="422.519">false</text><text fill="#000000" font-family="sans-serif" font-size="11" lengthAdjust="spacing" textLength="115" x="314.25" y="404.1167">questions answered</text><text fill="#000000" font-family="sans-serif" font-size="11" lengthAdjust="spacing" textLength="23" x="279.25" y="397.7144">true</text><rect fill="#F1F1F1" height="33.9688" rx="12.5" ry="12.5" style="stroke:#181818;stroke-width:0.5;" width="187" x="278.25" y="583.0542"/><text fill="#000000" font-family="sans-serif" font-size="12" lengthAdjust="spacing" textLength="167" x="288.25" y="604.1929">Set isFirstTimeUser to false</text><polygon fill="#F1F1F1" points="290.25,285.9375,453.25,285.9375,465.25,297.9375,453.25,309.9375,290.25,309.9375,278.25,297.9375,290.25,285.9375" style="stroke:#181818;stroke-width:0.5;"/><text fill="#000000" font-family="sans-serif" font-size="11" lengthAdjust="spacing" textLength="23" x="375.75" y="320.1479">true</text><text fill="#000000" font-family="sans-serif" font-size="11" lengthAdjust="spacing" textLength="163" x="290.25" y="301.7456">showBackgroundInput is true</text><text fill="#000000" font-family="sans-serif" font-size="11" lengthAdjust="spacing" textLength="28" x="465.25" y="295.3433">false</text><polygon fill="#F1F1F1" points="371.75,637.0229,383.75,649.0229,371.75,661.0229,359.75,649.0229,371.75,637.0229" style="stroke:#181818;stroke-width:0.5;"/><rect fill="#F1F1F1" height="33.9688" rx="12.5" ry="12.5" style="stroke:#181818;stroke-width:0.5;" width="91" x="326.25" y="681.0229"/><text fill="#000000" font-family="sans-serif" font-size="12" lengthAdjust="spacing" textLength="71" x="336.25" y="702.1616">Render App</text><ellipse cx="371.75" cy="745.9917" fill="none" rx="11" ry="11" style="stroke:#222222;stroke-width:1.0;"/><ellipse cx="371.75" cy="745.9917" fill="#222222" rx="6" ry="6" style="stroke:#222222;stroke-width:1.0;"/><line style="stroke:#181818;stroke-width:1.0;" x1="170.5" x2="121.5" y1="149.9688" y2="149.9688"/><line style="stroke:#181818;stroke-width:1.0;" x1="121.5" x2="121.5" y1="149.9688" y2="171.9688"/><polygon fill="#181818" points="117.5,161.9688,121.5,171.9688,125.5,161.9688,121.5,165.9688" style="stroke:#181818;stroke-width:1.0;"/><line style="stroke:#181818;stroke-width:1.0;" x1="296.5" x2="345.5" y1="149.9688" y2="149.9688"/><line style="stroke:#181818;stroke-width:1.0;" x1="345.5" x2="345.5" y1="149.9688" y2="171.9688"/><polygon fill="#181818" points="341.5,161.9688,345.5,171.9688,349.5,161.9688,345.5,165.9688" style="stroke:#181818;stroke-width:1.0;"/><line style="stroke:#181818;stroke-width:1.0;" x1="121.5" x2="121.5" y1="205.9375" y2="223.9375"/><line style="stroke:#181818;stroke-width:1.0;" x1="121.5" x2="221.5" y1="223.9375" y2="223.9375"/><polygon fill="#181818" points="211.5,219.9375,221.5,223.9375,211.5,227.9375,215.5,223.9375" style="stroke:#181818;stroke-width:1.0;"/><line style="stroke:#181818;stroke-width:1.0;" x1="345.5" x2="345.5" y1="205.9375" y2="223.9375"/><line style="stroke:#181818;stroke-width:1.0;" x1="345.5" x2="245.5" y1="223.9375" y2="223.9375"/><polygon fill="#181818" points="255.5,219.9375,245.5,223.9375,255.5,227.9375,251.5,223.9375" style="stroke:#181818;stroke-width:1.0;"/><line style="stroke:#181818;stroke-width:1.0;" x1="233.5" x2="233.5" y1="117.9688" y2="137.9688"/><polygon fill="#181818" points="229.5,127.9688,233.5,137.9688,237.5,127.9688,233.5,131.9688" style="stroke:#181818;stroke-width:1.0;"/><line style="stroke:#181818;stroke-width:1.0;" x1="296.25" x2="233.5" y1="62" y2="62"/><line style="stroke:#181818;stroke-width:1.0;" x1="233.5" x2="233.5" y1="62" y2="84"/><polygon fill="#181818" points="229.5,74,233.5,84,237.5,74,233.5,78" style="stroke:#181818;stroke-width:1.0;"/><line style="stroke:#181818;stroke-width:1.0;" x1="447.25" x2="510" y1="62" y2="62"/><line style="stroke:#181818;stroke-width:1.0;" x1="510" x2="510" y1="62" y2="84"/><polygon fill="#181818" points="506,74,510,84,514,74,510,78" style="stroke:#181818;stroke-width:1.0;"/><line style="stroke:#181818;stroke-width:1.0;" x1="233.5" x2="233.5" y1="235.9375" y2="253.9375"/><line style="stroke:#181818;stroke-width:1.0;" x1="233.5" x2="359.75" y1="253.9375" y2="253.9375"/><polygon fill="#181818" points="349.75,249.9375,359.75,253.9375,349.75,257.9375,353.75,253.9375" style="stroke:#181818;stroke-width:1.0;"/><line style="stroke:#181818;stroke-width:1.0;" x1="510" x2="510" y1="117.9688" y2="253.9375"/><line style="stroke:#181818;stroke-width:1.0;" x1="510" x2="383.75" y1="253.9375" y2="253.9375"/><polygon fill="#181818" points="393.75,249.9375,383.75,253.9375,393.75,257.9375,389.75,253.9375" style="stroke:#181818;stroke-width:1.0;"/><line style="stroke:#181818;stroke-width:1.0;" x1="371.75" x2="371.75" y1="30" y2="50"/><polygon fill="#181818" points="367.75,40,371.75,50,375.75,40,371.75,44" style="stroke:#181818;stroke-width:1.0;"/><line style="stroke:#181818;stroke-width:1.0;" x1="371.75" x2="371.75" y1="477.9878" y2="507.0854"/><polygon fill="#181818" points="367.75,497.0854,371.75,507.0854,375.75,497.0854,371.75,501.0854" style="stroke:#181818;stroke-width:1.0;"/><line style="stroke:#181818;stroke-width:1.0;" x1="371.75" x2="371.75" y1="412.3086" y2="444.019"/><polygon fill="#181818" points="367.75,434.019,371.75,444.019,375.75,434.019,371.75,438.019" style="stroke:#181818;stroke-width:1.0;"/><line style="stroke:#181818;stroke-width:1.0;" x1="371.75" x2="371.75" y1="541.0542" y2="551.0542"/><line style="stroke:#181818;stroke-width:1.0;" x1="371.75" x2="468.75" y1="551.0542" y2="551.0542"/><polygon fill="#181818" points="464.75,487.0854,468.75,477.0854,472.75,487.0854,468.75,483.0854" style="stroke:#181818;stroke-width:1.0;"/><line style="stroke:#181818;stroke-width:1.0;" x1="468.75" x2="468.75" y1="400.3086" y2="551.0542"/><line style="stroke:#181818;stroke-width:1.0;" x1="468.75" x2="441.25" y1="400.3086" y2="400.3086"/><polygon fill="#181818" points="451.25,396.3086,441.25,400.3086,451.25,404.3086,447.25,400.3086" style="stroke:#181818;stroke-width:1.0;"/><line style="stroke:#181818;stroke-width:1.0;" x1="302.25" x2="274.75" y1="400.3086" y2="400.3086"/><polygon fill="#181818" points="270.75,473.0854,274.75,483.0854,278.75,473.0854,274.75,477.0854" style="stroke:#181818;stroke-width:1.0;"/><line style="stroke:#181818;stroke-width:1.0;" x1="274.75" x2="274.75" y1="400.3086" y2="563.0542"/><line style="stroke:#181818;stroke-width:1.0;" x1="274.75" x2="371.75" y1="563.0542" y2="563.0542"/><line style="stroke:#181818;stroke-width:1.0;" x1="371.75" x2="371.75" y1="563.0542" y2="583.0542"/><polygon fill="#181818" points="367.75,573.0542,371.75,583.0542,375.75,573.0542,371.75,577.0542" style="stroke:#181818;stroke-width:1.0;"/><line style="stroke:#181818;stroke-width:1.0;" x1="371.75" x2="371.75" y1="368.3086" y2="388.3086"/><polygon fill="#181818" points="367.75,378.3086,371.75,388.3086,375.75,378.3086,371.75,382.3086" style="stroke:#181818;stroke-width:1.0;"/><line style="stroke:#181818;stroke-width:1.0;" x1="371.75" x2="371.75" y1="309.9375" y2="334.3398"/><polygon fill="#181818" points="367.75,324.3398,371.75,334.3398,375.75,324.3398,371.75,328.3398" style="stroke:#181818;stroke-width:1.0;"/><line style="stroke:#181818;stroke-width:1.0;" x1="465.25" x2="485.25" y1="297.9375" y2="297.9375"/><polygon fill="#181818" points="481.25,467.0854,485.25,477.0854,489.25,467.0854,485.25,471.0854" style="stroke:#181818;stroke-width:1.0;"/><line style="stroke:#181818;stroke-width:1.0;" x1="485.25" x2="485.25" y1="297.9375" y2="649.0229"/><line style="stroke:#181818;stroke-width:1.0;" x1="485.25" x2="383.75" y1="649.0229" y2="649.0229"/><polygon fill="#181818" points="393.75,645.0229,383.75,649.0229,393.75,653.0229,389.75,649.0229" style="stroke:#181818;stroke-width:1.0;"/><line style="stroke:#181818;stroke-width:1.0;" x1="371.75" x2="371.75" y1="617.0229" y2="637.0229"/><polygon fill="#181818" points="367.75,627.0229,371.75,637.0229,375.75,627.0229,371.75,631.0229" style="stroke:#181818;stroke-width:1.0;"/><line style="stroke:#181818;stroke-width:1.0;" x1="371.75" x2="371.75" y1="265.9375" y2="285.9375"/><polygon fill="#181818" points="367.75,275.9375,371.75,285.9375,375.75,275.9375,371.75,279.9375" style="stroke:#181818;stroke-width:1.0;"/><line style="stroke:#181818;stroke-width:1.0;" x1="371.75" x2="371.75" y1="661.0229" y2="681.0229"/><polygon fill="#181818" points="367.75,671.0229,371.75,681.0229,375.75,671.0229,371.75,675.0229" style="stroke:#181818;stroke-width:1.0;"/><line style="stroke:#181818;stroke-width:1.0;" x1="371.75" x2="371.75" y1="714.9917" y2="734.9917"/><polygon fill="#181818" points="367.75,724.9917,371.75,734.9917,375.75,724.9917,371.75,728.9917" style="stroke:#181818;stroke-width:1.0;"/><!--SRC=[ZL2zJiCm4Dxz5ATCgSGJD1CTAZ4Wf1R4RCMNnefZkxwp0c-FOoTGDKZWnJTy_yGoi12wWrhJKGVYLptY6s40JS0XuWwuHmjrlWMajp-XLGdmZgPr8y8p4iaBFi0XCZjBUwXU1lbPWRGAglEWVTLaukmIP-dMw7QW1ROro2PdPA3UJGVP3fVWebLFraS6TZbMKKH327KdqtT7lM-JQ1csyApIdTYmKpEEmOADnZIYWF8slmNvSvyV0XJ6qOMn-4-zDidw6f5OfydIL3HXGBMRPJU5SeC28LX9pKrXTW4X8FcaXQ0jd535Z- -kYzrDn7zCbAuroBB4MkpH-mQ487R-2m00]--></g></svg>