<?xml version="1.0" encoding="us-ascii" standalone="no"?><svg xmlns="http://www.w3.org/2000/svg" xmlns:xlink="http://www.w3.org/1999/xlink" contentStyleType="text/css" height="763px" preserveAspectRatio="none" style="width:562px;height:763px;background:#FFFFFF;" version="1.1" viewBox="0 0 562 763" width="562px" zoomAndPan="magnify"><defs/><g><ellipse cx="371.75" cy="20" fill="#222222" rx="10" ry="10" style="stroke:#222222;stroke-width:1.0;"/><polygon fill="#F1F1F1" points="308.25,50,435.25,50,447.25,62,435.25,74,308.25,74,296.25,62,308.25,50" style="stroke:#181818;stroke-width:0.5;"/><text fill="#000000" font-family="sans-serif" font-size="11" lengthAdjust="spacing" textLength="127" x="308.25" y="65.8081">isFirstTimeUser is true</text><rect fill="#F1F1F1" height="33.9688" rx="12.5" ry="12.5" style="stroke:#181818;stroke-width:0.5;" width="351" x="58" y="84"/><text fill="#000000" font-family="sans-serif" font-size="12" lengthAdjust="spacing" textLength="331" x="68" y="105.1387">Render Welcome Message, Buttons: "Okay" and "Skip"</text><polygon fill="#F1F1F1" points="182.5,137.9688,284.5,137.9688,296.5,149.9688,284.5,161.9688,182.5,161.9688,170.5,149.9688,182.5,137.9688" style="stroke:#181818;stroke-width:0.5;"/><text fill="#000000" font-family="sans-serif" font-size="11" lengthAdjust="spacing" textLength="102" x="182.5" y="153.7769">user clicks "Okay"</text><rect fill="#F1F1F1" height="33.9688" rx="12.5" ry="12.5" style="stroke:#181818;stroke-width:0.5;" width="221" x="11" y="171.9688"/><text fill="#000000" font-family="sans-serif" font-size="12" lengthAdjust="spacing" textLength="201" x="21" y="193.1074">Set showBackgroundInput to true</text><rect fill="#F1F1F1" height="33.9688" rx="12.5" ry="12.5" style="stroke:#181818;stroke-width:0.5;" width="187" x="252" y="171.9688"/><text fill="#000000" font-family="sans-serif" font-size="12" lengthAdjust="spacing" textLength="167" x="262" y="193.1074">Set isFirstTimeUser to false</text><polygon fill="#F1F1F1" points="233.5,211.9375,245.5,223.9375,233.5,235.9375,221.5,223.9375,233.5,211.9375" style="stroke:#181818;stroke-width:0.5;"/><rect fill="#F1F1F1" height="33.9688" rx="12.5" ry="12.5" style="stroke:#181818;stroke-width:0.5;" width="82" x="469" y="84"/><text fill="#000000" font-family="sans-serif" font-size="12" lengthAdjust="spacing" textLength="62" x="479" y="105.1387">Return null</text><polygon fill="#F1F1F1" points="371.75,241.9375,383.75,253.9375,371.75,265.9375,359.75,253.9375,371.75,241.9375" style="stroke:#181818;stroke-width:0.5;"/><rect fill="#F1F1F1" height="33.9688" rx="12.5" ry="12.5" style="stroke:#181818;stroke-width:0.5;" width="207" x="268.25" y="329.9375"/><text fill="#000000" font-family="sans-serif" font-size="12" lengthAdjust="spacing" textLength="187" x="278.25" y="351.0762">Render Background Input Form</text><rect fill="#F1F1F1" height="33.9688" rx="12.5" ry="12.5" style="stroke:#181818;stroke-width:0.5;" width="160" x="291.75" y="439.6167"/><text fill="#000000" font-family="sans-serif" font-size="12" lengthAdjust="spacing" textLength="140" x="301.75" y="460.7554">User answers question</text><rect fill="#F1F1F1" height="33.9688" rx="12.5" ry="12.5" style="stroke:#181818;stroke-width:0.5;" width="170" x="286.75" y="502.6831"/><text fill="#000000" font-family="sans-serif" font-size="12" lengthAdjust="spacing" textLength="150" x="296.75" y="523.8218">Store response in Redux</text><polygon fill="#F1F1F1" points="303.25,383.9063,440.25,383.9063,452.25,395.9063,440.25,407.9063,303.25,407.9063,291.25,395.9063,303.25,383.9063" style="stroke:#181818;stroke-width:0.5;"/><text fill="#000000" font-family="sans-serif" font-size="11" lengthAdjust="spacing" textLength="23" x="375.75" y="418.1167">true</text><text fill="#000000" font-family="sans-serif" font-size="11" lengthAdjust="spacing" textLength="137" x="303.25" y="399.7144">questions not answered</text><rect fill="#F1F1F1" height="33.9688" rx="12.5" ry="12.5" style="stroke:#181818;stroke-width:0.5;" width="187" x="278.25" y="578.6519"/><text fill="#000000" font-family="sans-serif" font-size="12" lengthAdjust="spacing" textLength="167" x="288.25" y="599.7905">Set isFirstTimeUser to false</text><polygon fill="#F1F1F1" points="290.25,285.9375,453.25,285.9375,465.25,297.9375,453.25,309.9375,290.25,309.9375,278.25,297.9375,290.25,285.9375" style="stroke:#181818;stroke-width:0.5;"/><text fill="#000000" font-family="sans-serif" font-size="11" lengthAdjust="spacing" textLength="163" x="290.25" y="301.7456">showBackgroundInput is true</text><polygon fill="#F1F1F1" points="371.75,632.6206,383.75,644.6206,371.75,656.6206,359.75,644.6206,371.75,632.6206" style="stroke:#181818;stroke-width:0.5;"/><rect fill="#F1F1F1" height="33.9688" rx="12.5" ry="12.5" style="stroke:#181818;stroke-width:0.5;" width="91" x="326.25" y="676.6206"/><text fill="#000000" font-family="sans-serif" font-size="12" lengthAdjust="spacing" textLength="71" x="336.25" y="697.7593">Render App</text><ellipse cx="371.75" cy="741.5894" fill="none" rx="11" ry="11" style="stroke:#222222;stroke-width:1.0;"/><ellipse cx="371.75" cy="741.5894" fill="#222222" rx="6" ry="6" style="stroke:#222222;stroke-width:1.0;"/><line style="stroke:#181818;stroke-width:1.0;" x1="170.5" x2="121.5" y1="149.9688" y2="149.9688"/><line style="stroke:#181818;stroke-width:1.0;" x1="121.5" x2="121.5" y1="149.9688" y2="171.9688"/><polygon fill="#181818" points="117.5,161.9688,121.5,171.9688,125.5,161.9688,121.5,165.9688" style="stroke:#181818;stroke-width:1.0;"/><line style="stroke:#181818;stroke-width:1.0;" x1="296.5" x2="345.5" y1="149.9688" y2="149.9688"/><line style="stroke:#181818;stroke-width:1.0;" x1="345.5" x2="345.5" y1="149.9688" y2="171.9688"/><polygon fill="#181818" points="341.5,161.9688,345.5,171.9688,349.5,161.9688,345.5,165.9688" style="stroke:#181818;stroke-width:1.0;"/><line style="stroke:#181818;stroke-width:1.0;" x1="121.5" x2="121.5" y1="205.9375" y2="223.9375"/><line style="stroke:#181818;stroke-width:1.0;" x1="121.5" x2="221.5" y1="223.9375" y2="223.9375"/><polygon fill="#181818" points="211.5,219.9375,221.5,223.9375,211.5,227.9375,215.5,223.9375" style="stroke:#181818;stroke-width:1.0;"/><line style="stroke:#181818;stroke-width:1.0;" x1="345.5" x2="345.5" y1="205.9375" y2="223.9375"/><line style="stroke:#181818;stroke-width:1.0;" x1="345.5" x2="245.5" y1="223.9375" y2="223.9375"/><polygon fill="#181818" points="255.5,219.9375,245.5,223.9375,255.5,227.9375,251.5,223.9375" style="stroke:#181818;stroke-width:1.0;"/><line style="stroke:#181818;stroke-width:1.0;" x1="233.5" x2="233.5" y1="117.9688" y2="137.9688"/><polygon fill="#181818" points="229.5,127.9688,233.5,137.9688,237.5,127.9688,233.5,131.9688" style="stroke:#181818;stroke-width:1.0;"/><line style="stroke:#181818;stroke-width:1.0;" x1="296.25" x2="233.5" y1="62" y2="62"/><line style="stroke:#181818;stroke-width:1.0;" x1="233.5" x2="233.5" y1="62" y2="84"/><polygon fill="#181818" points="229.5,74,233.5,84,237.5,74,233.5,78" style="stroke:#181818;stroke-width:1.0;"/><line style="stroke:#181818;stroke-width:1.0;" x1="447.25" x2="510" y1="62" y2="62"/><line style="stroke:#181818;stroke-width:1.0;" x1="510" x2="510" y1="62" y2="84"/><polygon fill="#181818" points="506,74,510,84,514,74,510,78" style="stroke:#181818;stroke-width:1.0;"/><line style="stroke:#181818;stroke-width:1.0;" x1="233.5" x2="233.5" y1="235.9375" y2="253.9375"/><line style="stroke:#181818;stroke-width:1.0;" x1="233.5" x2="359.75" y1="253.9375" y2="253.9375"/><polygon fill="#181818" points="349.75,249.9375,359.75,253.9375,349.75,257.9375,353.75,253.9375" style="stroke:#181818;stroke-width:1.0;"/><line style="stroke:#181818;stroke-width:1.0;" x1="510" x2="510" y1="117.9688" y2="253.9375"/><line style="stroke:#181818;stroke-width:1.0;" x1="510" x2="383.75" y1="253.9375" y2="253.9375"/><polygon fill="#181818" points="393.75,249.9375,383.75,253.9375,393.75,257.9375,389.75,253.9375" style="stroke:#181818;stroke-width:1.0;"/><line style="stroke:#181818;stroke-width:1.0;" x1="371.75" x2="371.75" y1="30" y2="50"/><polygon fill="#181818" points="367.75,40,371.75,50,375.75,40,371.75,44" style="stroke:#181818;stroke-width:1.0;"/><line style="stroke:#181818;stroke-width:1.0;" x1="371.75" x2="371.75" y1="473.5854" y2="502.6831"/><polygon fill="#181818" points="367.75,492.6831,371.75,502.6831,375.75,492.6831,371.75,496.6831" style="stroke:#181818;stroke-width:1.0;"/><line style="stroke:#181818;stroke-width:1.0;" x1="371.75" x2="371.75" y1="407.9063" y2="439.6167"/><polygon fill="#181818" points="367.75,429.6167,371.75,439.6167,375.75,429.6167,371.75,433.6167" style="stroke:#181818;stroke-width:1.0;"/><line style="stroke:#181818;stroke-width:1.0;" x1="371.75" x2="371.75" y1="536.6519" y2="546.6519"/><line style="stroke:#181818;stroke-width:1.0;" x1="371.75" x2="468.75" y1="546.6519" y2="546.6519"/><polygon fill="#181818" points="464.75,482.6831,468.75,472.6831,472.75,482.6831,468.75,478.6831" style="stroke:#181818;stroke-width:1.0;"/><line style="stroke:#181818;stroke-width:1.0;" x1="468.75" x2="468.75" y1="395.9063" y2="546.6519"/><line style="stroke:#181818;stroke-width:1.0;" x1="468.75" x2="452.25" y1="395.9063" y2="395.9063"/><polygon fill="#181818" points="462.25,391.9063,452.25,395.9063,462.25,399.9063,458.25,395.9063" style="stroke:#181818;stroke-width:1.0;"/><line style="stroke:#181818;stroke-width:1.0;" x1="291.25" x2="274.75" y1="395.9063" y2="395.9063"/><polygon fill="#181818" points="270.75,468.6831,274.75,478.6831,278.75,468.6831,274.75,472.6831" style="stroke:#181818;stroke-width:1.0;"/><line style="stroke:#181818;stroke-width:1.0;" x1="274.75" x2="274.75" y1="395.9063" y2="558.6519"/><line style="stroke:#181818;stroke-width:1.0;" x1="274.75" x2="371.75" y1="558.6519" y2="558.6519"/><line style="stroke:#181818;stroke-width:1.0;" x1="371.75" x2="371.75" y1="558.6519" y2="578.6519"/><polygon fill="#181818" points="367.75,568.6519,371.75,578.6519,375.75,568.6519,371.75,572.6519" style="stroke:#181818;stroke-width:1.0;"/><line style="stroke:#181818;stroke-width:1.0;" x1="371.75" x2="371.75" y1="363.9063" y2="383.9063"/><polygon fill="#181818" points="367.75,373.9063,371.75,383.9063,375.75,373.9063,371.75,377.9063" style="stroke:#181818;stroke-width:1.0;"/><line style="stroke:#181818;stroke-width:1.0;" x1="371.75" x2="371.75" y1="309.9375" y2="329.9375"/><polygon fill="#181818" points="367.75,319.9375,371.75,329.9375,375.75,319.9375,371.75,323.9375" style="stroke:#181818;stroke-width:1.0;"/><line style="stroke:#181818;stroke-width:1.0;" x1="465.25" x2="485.25" y1="297.9375" y2="297.9375"/><polygon fill="#181818" points="481.25,462.6831,485.25,472.6831,489.25,462.6831,485.25,466.6831" style="stroke:#181818;stroke-width:1.0;"/><line style="stroke:#181818;stroke-width:1.0;" x1="485.25" x2="485.25" y1="297.9375" y2="644.6206"/><line style="stroke:#181818;stroke-width:1.0;" x1="485.25" x2="383.75" y1="644.6206" y2="644.6206"/><polygon fill="#181818" points="393.75,640.6206,383.75,644.6206,393.75,648.6206,389.75,644.6206" style="stroke:#181818;stroke-width:1.0;"/><line style="stroke:#181818;stroke-width:1.0;" x1="371.75" x2="371.75" y1="612.6206" y2="632.6206"/><polygon fill="#181818" points="367.75,622.6206,371.75,632.6206,375.75,622.6206,371.75,626.6206" style="stroke:#181818;stroke-width:1.0;"/><line style="stroke:#181818;stroke-width:1.0;" x1="371.75" x2="371.75" y1="265.9375" y2="285.9375"/><polygon fill="#181818" points="367.75,275.9375,371.75,285.9375,375.75,275.9375,371.75,279.9375" style="stroke:#181818;stroke-width:1.0;"/><line style="stroke:#181818;stroke-width:1.0;" x1="371.75" x2="371.75" y1="656.6206" y2="676.6206"/><polygon fill="#181818" points="367.75,666.6206,371.75,676.6206,375.75,666.6206,371.75,670.6206" style="stroke:#181818;stroke-width:1.0;"/><line style="stroke:#181818;stroke-width:1.0;" x1="371.75" x2="371.75" y1="710.5894" y2="730.5894"/><polygon fill="#181818" points="367.75,720.5894,371.75,730.5894,375.75,720.5894,371.75,724.5894" style="stroke:#181818;stroke-width:1.0;"/><!--SRC=[ZP2zRiCm38HtFGNXoG7w1F7K304w50MI5fq5Yuu5ovGYKd3xzfKjvwT52vGhxpxoZaL7KSfsK5lUsyZoQaTyOunW6IGct83qI0hoR0z89c_UqRL-H7X6Pdt21zWb4K-yXUfbq9yLQ39G7GSRgcOnplWqCrjdsu5NsHrveHzHW7i_xNGxdA9FP9ue907nooC5XOxnk-NdtrdUwQnQzMHifwwk745I9A3aNAFASad_s-6_6xWfeKZtFexbuDHRXr2V4xBON0gGbrm8JnZHR6PcNQ2t5ClRHS9mCJPtASL7X8WSCW_14XpGf8zhmEMa-aSXQzvBYiSG6b2AnOSl]--></g></svg>