<?xml version="1.0" encoding="us-ascii" standalone="no"?><svg xmlns="http://www.w3.org/2000/svg" xmlns:xlink="http://www.w3.org/1999/xlink" contentStyleType="text/css" height="352px" preserveAspectRatio="none" style="width:313px;height:352px;background:#FFFFFF;" version="1.1" viewBox="0 0 313 352" width="313px" zoomAndPan="magnify"><defs/><g><ellipse cx="156.5" cy="20" fill="#222222" rx="10" ry="10" style="stroke:#222222;stroke-width:1.0;"/><rect fill="#F1F1F1" height="33.9688" rx="12.5" ry="12.5" style="stroke:#181818;stroke-width:0.5;" width="172" x="70.5" y="50"/><text fill="#000000" font-family="sans-serif" font-size="12" lengthAdjust="spacing" textLength="152" x="80.5" y="71.1387">Get Course Data from API</text><rect fill="#F1F1F1" height="33.9688" rx="12.5" ry="12.5" style="stroke:#181818;stroke-width:0.5;" width="291" x="11" y="103.9688"/><text fill="#000000" font-family="sans-serif" font-size="12" lengthAdjust="spacing" textLength="271" x="21" y="125.1074">Get Course Progress data from LocalStorage</text><rect fill="#F1F1F1" height="33.9688" rx="12.5" ry="12.5" style="stroke:#181818;stroke-width:0.5;" width="247" x="33" y="157.9375"/><text fill="#000000" font-family="sans-serif" font-size="12" lengthAdjust="spacing" textLength="227" x="43" y="179.0762">Map Course data on to progress data</text><rect fill="#F1F1F1" height="33.9688" rx="12.5" ry="12.5" style="stroke:#181818;stroke-width:0.5;" width="266" x="23.5" y="211.9063"/><text fill="#000000" font-family="sans-serif" font-size="12" lengthAdjust="spacing" textLength="246" x="33.5" y="233.0449">Pass mapped course data to Component</text><rect fill="#F1F1F1" height="33.9688" rx="12.5" ry="12.5" style="stroke:#181818;stroke-width:0.5;" width="136" x="88.5" y="265.875"/><text fill="#000000" font-family="sans-serif" font-size="12" lengthAdjust="spacing" textLength="116" x="98.5" y="287.0137">Render Component</text><ellipse cx="156.5" cy="330.8438" fill="none" rx="11" ry="11" style="stroke:#222222;stroke-width:1.0;"/><ellipse cx="156.5" cy="330.8438" fill="#222222" rx="6" ry="6" style="stroke:#222222;stroke-width:1.0;"/><line style="stroke:#181818;stroke-width:1.0;" x1="156.5" x2="156.5" y1="30" y2="50"/><polygon fill="#181818" points="152.5,40,156.5,50,160.5,40,156.5,44" style="stroke:#181818;stroke-width:1.0;"/><line style="stroke:#181818;stroke-width:1.0;" x1="156.5" x2="156.5" y1="83.9688" y2="103.9688"/><polygon fill="#181818" points="152.5,93.9688,156.5,103.9688,160.5,93.9688,156.5,97.9688" style="stroke:#181818;stroke-width:1.0;"/><line style="stroke:#181818;stroke-width:1.0;" x1="156.5" x2="156.5" y1="137.9375" y2="157.9375"/><polygon fill="#181818" points="152.5,147.9375,156.5,157.9375,160.5,147.9375,156.5,151.9375" style="stroke:#181818;stroke-width:1.0;"/><line style="stroke:#181818;stroke-width:1.0;" x1="156.5" x2="156.5" y1="191.9063" y2="211.9063"/><polygon fill="#181818" points="152.5,201.9063,156.5,211.9063,160.5,201.9063,156.5,205.9063" style="stroke:#181818;stroke-width:1.0;"/><line style="stroke:#181818;stroke-width:1.0;" x1="156.5" x2="156.5" y1="245.875" y2="265.875"/><polygon fill="#181818" points="152.5,255.875,156.5,265.875,160.5,255.875,156.5,259.875" style="stroke:#181818;stroke-width:1.0;"/><line style="stroke:#181818;stroke-width:1.0;" x1="156.5" x2="156.5" y1="299.8438" y2="319.8438"/><polygon fill="#181818" points="152.5,309.8438,156.5,319.8438,160.5,309.8438,156.5,313.8438" style="stroke:#181818;stroke-width:1.0;"/><!--SRC=[LSj12a8n30JGVK-HS-XAlY22Gj4JXD_uDxOJadX_Ww3KtJ3pneCjIjcT96Z1orpeoC7qC7GwrFF-Rwg6pSITsizSiFBp7Z3U9F6LzOi_1eC2fFClLUNCdLMbqJhff0kwOiY8P3SPJMokYWVq3G00]--></g></svg>