<?xml version="1.0" encoding="us-ascii" standalone="no"?><svg xmlns="http://www.w3.org/2000/svg" xmlns:xlink="http://www.w3.org/1999/xlink" contentStyleType="text/css" height="665px" preserveAspectRatio="none" style="width:1039px;height:665px;background:#FFFFFF;" version="1.1" viewBox="0 0 1039 665" width="1039px" zoomAndPan="magnify"><defs/><g><!--class Course--><g id="elem_Course"><rect codeLine="1" fill="#F1F1F1" height="113.1875" id="Course" rx="2.5" ry="2.5" style="stroke:#181818;stroke-width:0.5;" width="145" x="472" y="7"/><ellipse cx="515.8" cy="23" fill="#ADD1B2" rx="11" ry="11" style="stroke:#181818;stroke-width:1.0;"/><path d="M518.1438,18.6719 C517.2063,18.2344 516.6125,18.0938 515.7375,18.0938 C513.1125,18.0938 511.1125,20.1719 511.1125,22.8906 L511.1125,24.0156 C511.1125,26.5938 513.2219,28.4844 516.1125,28.4844 C517.3313,28.4844 518.4875,28.1875 519.2375,27.6406 C519.8156,27.2344 520.1438,26.7813 520.1438,26.3906 C520.1438,25.9375 519.7531,25.5469 519.2844,25.5469 C519.0656,25.5469 518.8625,25.625 518.675,25.8125 C518.2219,26.2969 518.2219,26.2969 518.0344,26.3906 C517.6125,26.6563 516.925,26.7813 516.1594,26.7813 C514.1125,26.7813 512.8156,25.6875 512.8156,23.9844 L512.8156,22.8906 C512.8156,21.1094 514.0656,19.7969 515.8,19.7969 C516.3781,19.7969 516.9875,19.9531 517.4563,20.2031 C517.9406,20.4844 518.1125,20.7031 518.2063,21.1094 C518.2688,21.5156 518.3,21.6406 518.4406,21.7656 C518.5813,21.9063 518.8156,22.0156 519.0344,22.0156 C519.3,22.0156 519.5656,21.875 519.7375,21.6563 C519.8469,21.5 519.8781,21.3125 519.8781,20.8906 L519.8781,19.4688 C519.8781,19.0313 519.8625,18.9063 519.7688,18.75 C519.6125,18.4844 519.3313,18.3438 519.0344,18.3438 C518.7375,18.3438 518.5344,18.4375 518.3156,18.75 L518.1438,18.6719 Z " fill="#000000"/><text fill="#000000" font-family="sans-serif" font-size="14" lengthAdjust="spacing" textLength="49" x="536.2" y="27.8467">Course</text><line style="stroke:#181818;stroke-width:0.5;" x1="473" x2="616" y1="39" y2="39"/><text fill="#000000" font-family="sans-serif" font-size="14" lengthAdjust="spacing" textLength="64" x="478" y="55.9951">id: string</text><text fill="#000000" font-family="sans-serif" font-size="14" lengthAdjust="spacing" textLength="82" x="478" y="72.292">title: string</text><text fill="#000000" font-family="sans-serif" font-size="14" lengthAdjust="spacing" textLength="133" x="478" y="88.5889">description: string</text><text fill="#000000" font-family="sans-serif" font-size="14" lengthAdjust="spacing" textLength="108" x="478" y="104.8857">stages: Stage[]</text><line style="stroke:#181818;stroke-width:0.5;" x1="473" x2="616" y1="112.1875" y2="112.1875"/></g><!--class Stage--><g id="elem_Stage"><rect codeLine="8" fill="#F1F1F1" height="96.8906" id="Stage" rx="2.5" ry="2.5" style="stroke:#181818;stroke-width:0.5;" width="209" x="440" y="197"/><ellipse cx="519.25" cy="213" fill="#ADD1B2" rx="11" ry="11" style="stroke:#181818;stroke-width:1.0;"/><path d="M521.5938,208.6719 C520.6563,208.2344 520.0625,208.0938 519.1875,208.0938 C516.5625,208.0938 514.5625,210.1719 514.5625,212.8906 L514.5625,214.0156 C514.5625,216.5938 516.6719,218.4844 519.5625,218.4844 C520.7813,218.4844 521.9375,218.1875 522.6875,217.6406 C523.2656,217.2344 523.5938,216.7813 523.5938,216.3906 C523.5938,215.9375 523.2031,215.5469 522.7344,215.5469 C522.5156,215.5469 522.3125,215.625 522.125,215.8125 C521.6719,216.2969 521.6719,216.2969 521.4844,216.3906 C521.0625,216.6563 520.375,216.7813 519.6094,216.7813 C517.5625,216.7813 516.2656,215.6875 516.2656,213.9844 L516.2656,212.8906 C516.2656,211.1094 517.5156,209.7969 519.25,209.7969 C519.8281,209.7969 520.4375,209.9531 520.9063,210.2031 C521.3906,210.4844 521.5625,210.7031 521.6563,211.1094 C521.7188,211.5156 521.75,211.6406 521.8906,211.7656 C522.0313,211.9063 522.2656,212.0156 522.4844,212.0156 C522.75,212.0156 523.0156,211.875 523.1875,211.6563 C523.2969,211.5 523.3281,211.3125 523.3281,210.8906 L523.3281,209.4688 C523.3281,209.0313 523.3125,208.9063 523.2188,208.75 C523.0625,208.4844 522.7813,208.3438 522.4844,208.3438 C522.1875,208.3438 521.9844,208.4375 521.7656,208.75 L521.5938,208.6719 Z " fill="#000000"/><text fill="#000000" font-family="sans-serif" font-size="14" lengthAdjust="spacing" textLength="42" x="539.75" y="217.8467">Stage</text><line style="stroke:#181818;stroke-width:0.5;" x1="441" x2="648" y1="229" y2="229"/><text fill="#000000" font-family="sans-serif" font-size="14" lengthAdjust="spacing" textLength="64" x="446" y="245.9951">id: string</text><text fill="#000000" font-family="sans-serif" font-size="14" lengthAdjust="spacing" textLength="82" x="446" y="262.292">title: string</text><text fill="#000000" font-family="sans-serif" font-size="14" lengthAdjust="spacing" textLength="197" x="446" y="278.5889">blocks: CourseStageBlock[]</text><line style="stroke:#181818;stroke-width:0.5;" x1="441" x2="648" y1="285.8906" y2="285.8906"/></g><!--class CourseStageBlock--><g id="elem_CourseStageBlock"><rect codeLine="14" fill="#F1F1F1" height="96.8906" id="CourseStageBlock" rx="2.5" ry="2.5" style="stroke:#181818;stroke-width:0.5;" width="622" x="233.5" y="371"/><ellipse cx="474.75" cy="387" fill="#ADD1B2" rx="11" ry="11" style="stroke:#181818;stroke-width:1.0;"/><path d="M477.0938,382.6719 C476.1563,382.2344 475.5625,382.0938 474.6875,382.0938 C472.0625,382.0938 470.0625,384.1719 470.0625,386.8906 L470.0625,388.0156 C470.0625,390.5938 472.1719,392.4844 475.0625,392.4844 C476.2813,392.4844 477.4375,392.1875 478.1875,391.6406 C478.7656,391.2344 479.0938,390.7813 479.0938,390.3906 C479.0938,389.9375 478.7031,389.5469 478.2344,389.5469 C478.0156,389.5469 477.8125,389.625 477.625,389.8125 C477.1719,390.2969 477.1719,390.2969 476.9844,390.3906 C476.5625,390.6563 475.875,390.7813 475.1094,390.7813 C473.0625,390.7813 471.7656,389.6875 471.7656,387.9844 L471.7656,386.8906 C471.7656,385.1094 473.0156,383.7969 474.75,383.7969 C475.3281,383.7969 475.9375,383.9531 476.4063,384.2031 C476.8906,384.4844 477.0625,384.7031 477.1563,385.1094 C477.2188,385.5156 477.25,385.6406 477.3906,385.7656 C477.5313,385.9063 477.7656,386.0156 477.9844,386.0156 C478.25,386.0156 478.5156,385.875 478.6875,385.6563 C478.7969,385.5 478.8281,385.3125 478.8281,384.8906 L478.8281,383.4688 C478.8281,383.0313 478.8125,382.9063 478.7188,382.75 C478.5625,382.4844 478.2813,382.3438 477.9844,382.3438 C477.6875,382.3438 477.4844,382.4375 477.2656,382.75 L477.0938,382.6719 Z " fill="#000000"/><text fill="#000000" font-family="sans-serif" font-size="14" lengthAdjust="spacing" textLength="131" x="495.25" y="391.8467">CourseStageBlock</text><line style="stroke:#181818;stroke-width:0.5;" x1="234.5" x2="854.5" y1="403" y2="403"/><text fill="#000000" font-family="sans-serif" font-size="14" lengthAdjust="spacing" textLength="252" x="239.5" y="419.9951">blockType: CourseStageBlockType</text><text fill="#000000" font-family="sans-serif" font-size="14" lengthAdjust="spacing" textLength="64" x="239.5" y="436.292">id: string</text><text fill="#000000" font-family="sans-serif" font-size="14" lengthAdjust="spacing" textLength="610" x="239.5" y="452.5889">content: TextOptions &amp; AIOptions &amp; ButtonOptions &amp; ImageOptions &amp; VideoOptions</text><line style="stroke:#181818;stroke-width:0.5;" x1="234.5" x2="854.5" y1="459.8906" y2="459.8906"/></g><!--class CourseStageBlockType--><g id="elem_CourseStageBlockType"><rect codeLine="20" fill="#F1F1F1" height="129.4844" id="CourseStageBlockType" rx="2.5" ry="2.5" style="stroke:#181818;stroke-width:0.5;" width="199" x="7" y="529"/><ellipse cx="22" cy="545" fill="#EB937F" rx="11" ry="11" style="stroke:#181818;stroke-width:1.0;"/><path d="M20.7969,545.875 L22.25,545.875 L22.25,545.9844 C22.25,546.3906 22.2813,546.5469 22.3594,546.7031 C22.5156,546.9531 22.7969,547.1094 23.0938,547.1094 C23.3438,547.1094 23.6094,546.9688 23.7656,546.75 C23.8906,546.5938 23.9219,546.4375 23.9219,545.9844 L23.9219,544.0625 C23.9219,543.9063 23.9219,543.8594 23.9063,543.7031 C23.8438,543.2344 23.5313,542.9219 23.0781,542.9219 C22.8281,542.9219 22.5625,543.0625 22.3906,543.2813 C22.2813,543.4531 22.25,543.6094 22.25,544.0625 L22.25,544.1875 L20.7969,544.1875 L20.7969,541.7813 L24.7813,541.7813 L24.7813,542.6406 C24.7813,543.0469 24.8125,543.2188 24.8906,543.375 C25.0625,543.625 25.3438,543.7813 25.625,543.7813 C25.8906,543.7813 26.1563,543.6406 26.3281,543.4219 C26.4375,543.25 26.4688,543.1094 26.4688,542.6406 L26.4688,540.0938 L18.8438,540.0938 C18.4063,540.0938 18.2813,540.1094 18.125,540.2031 C17.875,540.3594 17.7188,540.6563 17.7188,540.9375 C17.7188,541.2188 17.8594,541.4688 18.0781,541.6406 C18.2344,541.75 18.4219,541.7813 18.8438,541.7813 L19.0938,541.7813 L19.0938,548.2969 L18.8438,548.2969 C18.4375,548.2969 18.2813,548.3125 18.125,548.4219 C17.875,548.5938 17.7188,548.8594 17.7188,549.1563 C17.7188,549.4219 17.8594,549.6719 18.0781,549.8281 C18.2188,549.9531 18.4531,550 18.8438,550 L26.8438,550 L26.8438,547.4219 C26.8438,546.9844 26.8125,546.8438 26.7344,546.6875 C26.5625,546.4375 26.2813,546.2813 26,546.2813 C25.7344,546.2813 25.4688,546.3906 25.2969,546.6406 C25.1875,546.7969 25.1563,546.9375 25.1563,547.4219 L25.1563,548.2969 L20.7969,548.2969 L20.7969,545.875 Z " fill="#000000"/><text fill="#000000" font-family="sans-serif" font-size="14" lengthAdjust="spacing" textLength="167" x="36" y="549.8467">CourseStageBlockType</text><line style="stroke:#181818;stroke-width:0.5;" x1="8" x2="205" y1="561" y2="561"/><text fill="#000000" font-family="sans-serif" font-size="14" lengthAdjust="spacing" textLength="91" x="13" y="577.9951">AIGenerated</text><text fill="#000000" font-family="sans-serif" font-size="14" lengthAdjust="spacing" textLength="33" x="13" y="594.292">Text</text><text fill="#000000" font-family="sans-serif" font-size="14" lengthAdjust="spacing" textLength="50" x="13" y="610.5889">Button</text><text fill="#000000" font-family="sans-serif" font-size="14" lengthAdjust="spacing" textLength="44" x="13" y="626.8857">Image</text><text fill="#000000" font-family="sans-serif" font-size="14" lengthAdjust="spacing" textLength="41" x="13" y="643.1826">Video</text><line style="stroke:#181818;stroke-width:0.5;" x1="8" x2="205" y1="650.4844" y2="650.4844"/></g><!--class TextOptions--><g id="elem_TextOptions"><rect codeLine="28" fill="#F1F1F1" height="96.8906" id="TextOptions" rx="2.5" ry="2.5" style="stroke:#181818;stroke-width:0.5;" width="123" x="241" y="545"/><ellipse cx="256.45" cy="561" fill="#ADD1B2" rx="11" ry="11" style="stroke:#181818;stroke-width:1.0;"/><path d="M258.7938,556.6719 C257.8563,556.2344 257.2625,556.0938 256.3875,556.0938 C253.7625,556.0938 251.7625,558.1719 251.7625,560.8906 L251.7625,562.0156 C251.7625,564.5938 253.8719,566.4844 256.7625,566.4844 C257.9813,566.4844 259.1375,566.1875 259.8875,565.6406 C260.4656,565.2344 260.7938,564.7813 260.7938,564.3906 C260.7938,563.9375 260.4031,563.5469 259.9344,563.5469 C259.7156,563.5469 259.5125,563.625 259.325,563.8125 C258.8719,564.2969 258.8719,564.2969 258.6844,564.3906 C258.2625,564.6563 257.575,564.7813 256.8094,564.7813 C254.7625,564.7813 253.4656,563.6875 253.4656,561.9844 L253.4656,560.8906 C253.4656,559.1094 254.7156,557.7969 256.45,557.7969 C257.0281,557.7969 257.6375,557.9531 258.1063,558.2031 C258.5906,558.4844 258.7625,558.7031 258.8563,559.1094 C258.9188,559.5156 258.95,559.6406 259.0906,559.7656 C259.2313,559.9063 259.4656,560.0156 259.6844,560.0156 C259.95,560.0156 260.2156,559.875 260.3875,559.6563 C260.4969,559.5 260.5281,559.3125 260.5281,558.8906 L260.5281,557.4688 C260.5281,557.0313 260.5125,556.9063 260.4188,556.75 C260.2625,556.4844 259.9813,556.3438 259.6844,556.3438 C259.3875,556.3438 259.1844,556.4375 258.9656,556.75 L258.7938,556.6719 Z " fill="#000000"/><text fill="#000000" font-family="sans-serif" font-size="14" lengthAdjust="spacing" textLength="90" x="270.55" y="565.8467">TextOptions</text><line style="stroke:#181818;stroke-width:0.5;" x1="242" x2="363" y1="577" y2="577"/><text fill="#000000" font-family="sans-serif" font-size="14" lengthAdjust="spacing" textLength="82" x="247" y="593.9951">text: string</text><text fill="#000000" font-family="sans-serif" font-size="14" lengthAdjust="spacing" textLength="111" x="247" y="610.292">courseId: string</text><text fill="#000000" font-family="sans-serif" font-size="14" lengthAdjust="spacing" textLength="104" x="247" y="626.5889">stageId: string</text><line style="stroke:#181818;stroke-width:0.5;" x1="242" x2="363" y1="633.8906" y2="633.8906"/></g><!--class AIOptions--><g id="elem_AIOptions"><rect codeLine="34" fill="#F1F1F1" height="113.1875" id="AIOptions" rx="2.5" ry="2.5" style="stroke:#181818;stroke-width:0.5;" width="124" x="399.5" y="537"/><ellipse cx="423.95" cy="553" fill="#ADD1B2" rx="11" ry="11" style="stroke:#181818;stroke-width:1.0;"/><path d="M426.2938,548.6719 C425.3563,548.2344 424.7625,548.0938 423.8875,548.0938 C421.2625,548.0938 419.2625,550.1719 419.2625,552.8906 L419.2625,554.0156 C419.2625,556.5938 421.3719,558.4844 424.2625,558.4844 C425.4813,558.4844 426.6375,558.1875 427.3875,557.6406 C427.9656,557.2344 428.2938,556.7813 428.2938,556.3906 C428.2938,555.9375 427.9031,555.5469 427.4344,555.5469 C427.2156,555.5469 427.0125,555.625 426.825,555.8125 C426.3719,556.2969 426.3719,556.2969 426.1844,556.3906 C425.7625,556.6563 425.075,556.7813 424.3094,556.7813 C422.2625,556.7813 420.9656,555.6875 420.9656,553.9844 L420.9656,552.8906 C420.9656,551.1094 422.2156,549.7969 423.95,549.7969 C424.5281,549.7969 425.1375,549.9531 425.6063,550.2031 C426.0906,550.4844 426.2625,550.7031 426.3563,551.1094 C426.4188,551.5156 426.45,551.6406 426.5906,551.7656 C426.7313,551.9063 426.9656,552.0156 427.1844,552.0156 C427.45,552.0156 427.7156,551.875 427.8875,551.6563 C427.9969,551.5 428.0281,551.3125 428.0281,550.8906 L428.0281,549.4688 C428.0281,549.0313 428.0125,548.9063 427.9188,548.75 C427.7625,548.4844 427.4813,548.3438 427.1844,548.3438 C426.8875,548.3438 426.6844,548.4375 426.4656,548.75 L426.2938,548.6719 Z " fill="#000000"/><text fill="#000000" font-family="sans-serif" font-size="14" lengthAdjust="spacing" textLength="71" x="440.05" y="557.8467">AIOptions</text><line style="stroke:#181818;stroke-width:0.5;" x1="400.5" x2="522.5" y1="569" y2="569"/><text fill="#000000" font-family="sans-serif" font-size="14" lengthAdjust="spacing" textLength="107" x="405.5" y="585.9951">prompt: string</text><text fill="#000000" font-family="sans-serif" font-size="14" lengthAdjust="spacing" textLength="112" x="405.5" y="602.292">provider: string</text><text fill="#000000" font-family="sans-serif" font-size="14" lengthAdjust="spacing" textLength="111" x="405.5" y="618.5889">courseId: string</text><text fill="#000000" font-family="sans-serif" font-size="14" lengthAdjust="spacing" textLength="104" x="405.5" y="634.8857">stageId: string</text><line style="stroke:#181818;stroke-width:0.5;" x1="400.5" x2="522.5" y1="642.1875" y2="642.1875"/></g><!--class ButtonOptions--><g id="elem_ButtonOptions"><rect codeLine="41" fill="#F1F1F1" height="96.8906" id="ButtonOptions" rx="2.5" ry="2.5" style="stroke:#181818;stroke-width:0.5;" width="139" x="559" y="545"/><ellipse cx="574" cy="561" fill="#ADD1B2" rx="11" ry="11" style="stroke:#181818;stroke-width:1.0;"/><path d="M576.3438,556.6719 C575.4063,556.2344 574.8125,556.0938 573.9375,556.0938 C571.3125,556.0938 569.3125,558.1719 569.3125,560.8906 L569.3125,562.0156 C569.3125,564.5938 571.4219,566.4844 574.3125,566.4844 C575.5313,566.4844 576.6875,566.1875 577.4375,565.6406 C578.0156,565.2344 578.3438,564.7813 578.3438,564.3906 C578.3438,563.9375 577.9531,563.5469 577.4844,563.5469 C577.2656,563.5469 577.0625,563.625 576.875,563.8125 C576.4219,564.2969 576.4219,564.2969 576.2344,564.3906 C575.8125,564.6563 575.125,564.7813 574.3594,564.7813 C572.3125,564.7813 571.0156,563.6875 571.0156,561.9844 L571.0156,560.8906 C571.0156,559.1094 572.2656,557.7969 574,557.7969 C574.5781,557.7969 575.1875,557.9531 575.6563,558.2031 C576.1406,558.4844 576.3125,558.7031 576.4063,559.1094 C576.4688,559.5156 576.5,559.6406 576.6406,559.7656 C576.7813,559.9063 577.0156,560.0156 577.2344,560.0156 C577.5,560.0156 577.7656,559.875 577.9375,559.6563 C578.0469,559.5 578.0781,559.3125 578.0781,558.8906 L578.0781,557.4688 C578.0781,557.0313 578.0625,556.9063 577.9688,556.75 C577.8125,556.4844 577.5313,556.3438 577.2344,556.3438 C576.9375,556.3438 576.7344,556.4375 576.5156,556.75 L576.3438,556.6719 Z " fill="#000000"/><text fill="#000000" font-family="sans-serif" font-size="14" lengthAdjust="spacing" textLength="107" x="588" y="565.8467">ButtonOptions</text><line style="stroke:#181818;stroke-width:0.5;" x1="560" x2="697" y1="577" y2="577"/><text fill="#000000" font-family="sans-serif" font-size="14" lengthAdjust="spacing" textLength="82" x="565" y="593.9951">text: string</text><text fill="#000000" font-family="sans-serif" font-size="14" lengthAdjust="spacing" textLength="111" x="565" y="610.292">courseId: string</text><text fill="#000000" font-family="sans-serif" font-size="14" lengthAdjust="spacing" textLength="104" x="565" y="626.5889">stageId: string</text><line style="stroke:#181818;stroke-width:0.5;" x1="560" x2="697" y1="633.8906" y2="633.8906"/></g><!--class ImageOptions--><g id="elem_ImageOptions"><rect codeLine="47" fill="#F1F1F1" height="96.8906" id="ImageOptions" rx="2.5" ry="2.5" style="stroke:#181818;stroke-width:0.5;" width="134" x="733.5" y="545"/><ellipse cx="748.95" cy="561" fill="#ADD1B2" rx="11" ry="11" style="stroke:#181818;stroke-width:1.0;"/><path d="M751.2938,556.6719 C750.3563,556.2344 749.7625,556.0938 748.8875,556.0938 C746.2625,556.0938 744.2625,558.1719 744.2625,560.8906 L744.2625,562.0156 C744.2625,564.5938 746.3719,566.4844 749.2625,566.4844 C750.4813,566.4844 751.6375,566.1875 752.3875,565.6406 C752.9656,565.2344 753.2938,564.7813 753.2938,564.3906 C753.2938,563.9375 752.9031,563.5469 752.4344,563.5469 C752.2156,563.5469 752.0125,563.625 751.825,563.8125 C751.3719,564.2969 751.3719,564.2969 751.1844,564.3906 C750.7625,564.6563 750.075,564.7813 749.3094,564.7813 C747.2625,564.7813 745.9656,563.6875 745.9656,561.9844 L745.9656,560.8906 C745.9656,559.1094 747.2156,557.7969 748.95,557.7969 C749.5281,557.7969 750.1375,557.9531 750.6063,558.2031 C751.0906,558.4844 751.2625,558.7031 751.3563,559.1094 C751.4188,559.5156 751.45,559.6406 751.5906,559.7656 C751.7313,559.9063 751.9656,560.0156 752.1844,560.0156 C752.45,560.0156 752.7156,559.875 752.8875,559.6563 C752.9969,559.5 753.0281,559.3125 753.0281,558.8906 L753.0281,557.4688 C753.0281,557.0313 753.0125,556.9063 752.9188,556.75 C752.7625,556.4844 752.4813,556.3438 752.1844,556.3438 C751.8875,556.3438 751.6844,556.4375 751.4656,556.75 L751.2938,556.6719 Z " fill="#000000"/><text fill="#000000" font-family="sans-serif" font-size="14" lengthAdjust="spacing" textLength="101" x="763.05" y="565.8467">ImageOptions</text><line style="stroke:#181818;stroke-width:0.5;" x1="734.5" x2="866.5" y1="577" y2="577"/><text fill="#000000" font-family="sans-serif" font-size="14" lengthAdjust="spacing" textLength="122" x="739.5" y="593.9951">imageURL: string</text><text fill="#000000" font-family="sans-serif" font-size="14" lengthAdjust="spacing" textLength="111" x="739.5" y="610.292">courseId: string</text><text fill="#000000" font-family="sans-serif" font-size="14" lengthAdjust="spacing" textLength="104" x="739.5" y="626.5889">stageId: string</text><line style="stroke:#181818;stroke-width:0.5;" x1="734.5" x2="866.5" y1="633.8906" y2="633.8906"/></g><!--class VideoOptions--><g id="elem_VideoOptions"><rect codeLine="53" fill="#F1F1F1" height="96.8906" id="VideoOptions" rx="2.5" ry="2.5" style="stroke:#181818;stroke-width:0.5;" width="130" x="902.5" y="545"/><ellipse cx="917.5" cy="561" fill="#ADD1B2" rx="11" ry="11" style="stroke:#181818;stroke-width:1.0;"/><path d="M919.8438,556.6719 C918.9063,556.2344 918.3125,556.0938 917.4375,556.0938 C914.8125,556.0938 912.8125,558.1719 912.8125,560.8906 L912.8125,562.0156 C912.8125,564.5938 914.9219,566.4844 917.8125,566.4844 C919.0313,566.4844 920.1875,566.1875 920.9375,565.6406 C921.5156,565.2344 921.8438,564.7813 921.8438,564.3906 C921.8438,563.9375 921.4531,563.5469 920.9844,563.5469 C920.7656,563.5469 920.5625,563.625 920.375,563.8125 C919.9219,564.2969 919.9219,564.2969 919.7344,564.3906 C919.3125,564.6563 918.625,564.7813 917.8594,564.7813 C915.8125,564.7813 914.5156,563.6875 914.5156,561.9844 L914.5156,560.8906 C914.5156,559.1094 915.7656,557.7969 917.5,557.7969 C918.0781,557.7969 918.6875,557.9531 919.1563,558.2031 C919.6406,558.4844 919.8125,558.7031 919.9063,559.1094 C919.9688,559.5156 920,559.6406 920.1406,559.7656 C920.2813,559.9063 920.5156,560.0156 920.7344,560.0156 C921,560.0156 921.2656,559.875 921.4375,559.6563 C921.5469,559.5 921.5781,559.3125 921.5781,558.8906 L921.5781,557.4688 C921.5781,557.0313 921.5625,556.9063 921.4688,556.75 C921.3125,556.4844 921.0313,556.3438 920.7344,556.3438 C920.4375,556.3438 920.2344,556.4375 920.0156,556.75 L919.8438,556.6719 Z " fill="#000000"/><text fill="#000000" font-family="sans-serif" font-size="14" lengthAdjust="spacing" textLength="98" x="931.5" y="565.8467">VideoOptions</text><line style="stroke:#181818;stroke-width:0.5;" x1="903.5" x2="1031.5" y1="577" y2="577"/><text fill="#000000" font-family="sans-serif" font-size="14" lengthAdjust="spacing" textLength="117" x="908.5" y="593.9951">videoURL: string</text><text fill="#000000" font-family="sans-serif" font-size="14" lengthAdjust="spacing" textLength="111" x="908.5" y="610.292">courseId: string</text><text fill="#000000" font-family="sans-serif" font-size="14" lengthAdjust="spacing" textLength="104" x="908.5" y="626.5889">stageId: string</text><line style="stroke:#181818;stroke-width:0.5;" x1="903.5" x2="1031.5" y1="633.8906" y2="633.8906"/></g><!--link Course to Stage--><g id="link_Course_Stage"><path codeLine="59" d="M544.5,120.466 C544.5,144.925 544.5,173.317 544.5,196.76 " fill="none" id="Course-Stage" style="stroke:#181818;stroke-width:1.0;"/><text fill="#000000" font-family="sans-serif" font-size="13" lengthAdjust="spacing" textLength="54" x="545.5" y="163.0669">contains</text><text fill="#000000" font-family="sans-serif" font-size="13" lengthAdjust="spacing" textLength="8" x="536.0125" y="140.3864">1</text><text fill="#000000" font-family="sans-serif" font-size="13" lengthAdjust="spacing" textLength="37" x="504.8984" y="185.9352">many</text></g><!--link Stage to CourseStageBlock--><g id="link_Stage_CourseStageBlock"><path codeLine="60" d="M544.5,294.412 C544.5,318.268 544.5,347.024 544.5,370.845 " fill="none" id="Stage-CourseStageBlock" style="stroke:#181818;stroke-width:1.0;"/><text fill="#000000" font-family="sans-serif" font-size="13" lengthAdjust="spacing" textLength="54" x="545.5" y="337.0669">contains</text><text fill="#000000" font-family="sans-serif" font-size="13" lengthAdjust="spacing" textLength="8" x="535.9625" y="314.0755">1</text><text fill="#000000" font-family="sans-serif" font-size="13" lengthAdjust="spacing" textLength="37" x="504.8984" y="360.0321">many</text></g><!--link CourseStageBlock to CourseStageBlockType--><g id="link_CourseStageBlock_CourseStageBlockType"><path codeLine="61" d="M386.128,468.058 C333.639,485.391 275.392,506.347 223.5,529 C217.781,531.496 211.967,534.173 206.142,536.963 " fill="none" id="CourseStageBlock-CourseStageBlockType" style="stroke:#181818;stroke-width:1.0;"/><text fill="#000000" font-family="sans-serif" font-size="13" lengthAdjust="spacing" textLength="8" x="355.2944" y="488.0251">1</text><text fill="#000000" font-family="sans-serif" font-size="13" lengthAdjust="spacing" textLength="8" x="214.0771" y="529.1136">1</text></g><!--link CourseStageBlock to TextOptions--><g id="link_CourseStageBlock_TextOptions"><path codeLine="62" d="M470.105,468.002 C441.961,486.495 409.885,508.21 381.5,529 C374.686,533.991 367.65,539.343 360.714,544.745 " fill="none" id="CourseStageBlock-TextOptions" style="stroke:#181818;stroke-width:1.0;"/><text fill="#000000" font-family="sans-serif" font-size="13" lengthAdjust="spacing" textLength="8" x="451.0807" y="487.9612">1</text><text fill="#000000" font-family="sans-serif" font-size="13" lengthAdjust="spacing" textLength="8" x="360.3378" y="533.9181">1</text></g><!--link CourseStageBlock to AIOptions--><g id="link_CourseStageBlock_AIOptions"><path codeLine="63" d="M521.38,468.412 C511.115,489.683 498.97,514.851 488.31,536.942 " fill="none" id="CourseStageBlock-AIOptions" style="stroke:#181818;stroke-width:1.0;"/><text fill="#000000" font-family="sans-serif" font-size="13" lengthAdjust="spacing" textLength="8" x="509.7358" y="488.0755">1</text><text fill="#000000" font-family="sans-serif" font-size="13" lengthAdjust="spacing" textLength="8" x="483.2325" y="525.798">1</text></g><!--link CourseStageBlock to ButtonOptions--><g id="link_CourseStageBlock_ButtonOptions"><path codeLine="64" d="M567.899,468.412 C579.549,492.268 593.593,521.024 605.227,544.845 " fill="none" id="CourseStageBlock-ButtonOptions" style="stroke:#181818;stroke-width:1.0;"/><text fill="#000000" font-family="sans-serif" font-size="13" lengthAdjust="spacing" textLength="8" x="562.5057" y="488.0755">1</text><text fill="#000000" font-family="sans-serif" font-size="13" lengthAdjust="spacing" textLength="8" x="593.3917" y="534.0321">1</text></g><!--link CourseStageBlock to ImageOptions--><g id="link_CourseStageBlock_ImageOptions"><path codeLine="65" d="M622.351,468.149 C651.853,486.659 685.538,508.347 715.5,529 C722.78,534.018 730.318,539.387 737.762,544.798 " fill="none" id="CourseStageBlock-ImageOptions" style="stroke:#181818;stroke-width:1.0;"/><text fill="#000000" font-family="sans-serif" font-size="13" lengthAdjust="spacing" textLength="8" x="624.7363" y="488.1289">1</text><text fill="#000000" font-family="sans-serif" font-size="13" lengthAdjust="spacing" textLength="8" x="720.377" y="533.9785">1</text></g><!--link CourseStageBlock to VideoOptions--><g id="link_CourseStageBlock_VideoOptions"><path codeLine="66" d="M733.116,468.019 C783.702,484.131 837.397,504.419 884.5,529 C893.186,533.533 901.9,538.979 910.245,544.751 " fill="none" id="CourseStageBlock-VideoOptions" style="stroke:#181818;stroke-width:1.0;"/><text fill="#000000" font-family="sans-serif" font-size="13" lengthAdjust="spacing" textLength="8" x="751.0776" y="487.9806">1</text><text fill="#000000" font-family="sans-serif" font-size="13" lengthAdjust="spacing" textLength="8" x="893.631" y="533.9249">1</text></g><!--SRC=[fLEnJiGm3Dtx5LO7jXjkxNR7W2eX8N472s8eZNMAQ9CgSH4dnB-JkENgjgSYbIbzB_Qp7R-MLU4ztDhMUOIl142h33mvRKu1aAOA1LReIwSRqjO8rbDnGf_18PulhybtafGioyJVgc-LBTz3VjS59-qZ9QMcTwpAYSTpW_FSo4xhbjOG6ihWY9_qm5Duk85TFdplMo9h1fpNGN20prgXxM7i3KrRNotDxUtoEpJe2a8LK2mQZgv2-63fSBBcCAZiBOfGmACPOh5SJPzVC1UfOR0er3XRDr8g41-XjbkfFdwgVxOwUcSsJ2IU7kzNwib5iLwSrAxHwt-DT9l2PWDfNPXpsXixOqSLEdYX8yP1CykA-DdTR-eslMxbfGHXcSMuYnyMeqPxNOoKIriCbDlu0G00]--></g></svg>