<?xml version="1.0" encoding="us-ascii" standalone="no"?><svg xmlns="http://www.w3.org/2000/svg" xmlns:xlink="http://www.w3.org/1999/xlink" contentStyleType="text/css" height="350px" preserveAspectRatio="none" style="width:565px;height:350px;background:#FFFFFF;" version="1.1" viewBox="0 0 565 350" width="565px" zoomAndPan="magnify"><defs/><g><ellipse cx="285" cy="20" fill="#222222" rx="10" ry="10" style="stroke:#222222;stroke-width:1.0;"/><rect fill="#F1F1F1" height="33.9688" rx="12.5" ry="12.5" style="stroke:#181818;stroke-width:0.5;" width="67" x="251.5" y="50"/><text fill="#000000" font-family="sans-serif" font-size="12" lengthAdjust="spacing" textLength="47" x="261.5" y="71.1387">getData</text><rect fill="#F1F1F1" height="33.9688" rx="12.5" ry="12.5" style="stroke:#181818;stroke-width:0.5;" width="290" x="140" y="103.9688"/><text fill="#000000" font-family="sans-serif" font-size="12" lengthAdjust="spacing" textLength="270" x="150" y="125.1074">StageRenderer : determine the type of the b</text><rect fill="#555555" height="6" rx="2.5" ry="2.5" style="stroke:#555555;stroke-width:1.0;" width="543" x="11" y="157.9375"/><rect fill="#F1F1F1" height="33.9688" rx="12.5" ry="12.5" style="stroke:#181818;stroke-width:0.5;" width="111" x="23" y="183.9375"/><text fill="#000000" font-family="sans-serif" font-size="12" lengthAdjust="spacing" textLength="91" x="33" y="205.0762">VideoRenderer</text><rect fill="#F1F1F1" height="33.9688" rx="12.5" ry="12.5" style="stroke:#181818;stroke-width:0.5;" width="114" x="162" y="183.9375"/><text fill="#000000" font-family="sans-serif" font-size="12" lengthAdjust="spacing" textLength="94" x="172" y="205.0762">ButtonRenderer</text><rect fill="#F1F1F1" height="33.9688" rx="12.5" ry="12.5" style="stroke:#181818;stroke-width:0.5;" width="113" x="304" y="183.9375"/><text fill="#000000" font-family="sans-serif" font-size="12" lengthAdjust="spacing" textLength="93" x="314" y="205.0762">ImageRenderer</text><rect fill="#F1F1F1" height="33.9688" rx="12.5" ry="12.5" style="stroke:#181818;stroke-width:0.5;" width="102" x="440" y="183.9375"/><text fill="#000000" font-family="sans-serif" font-size="12" lengthAdjust="spacing" textLength="82" x="450" y="205.0762">TextRenderer</text><rect fill="#555555" height="6" rx="2.5" ry="2.5" style="stroke:#555555;stroke-width:1.0;" width="543" x="11" y="237.9063"/><rect fill="#F1F1F1" height="33.9688" rx="12.5" ry="12.5" style="stroke:#181818;stroke-width:0.5;" width="98" x="236" y="263.9063"/><text fill="#000000" font-family="sans-serif" font-size="12" lengthAdjust="spacing" textLength="78" x="246" y="285.0449">render block</text><ellipse cx="285" cy="328.875" fill="none" rx="11" ry="11" style="stroke:#222222;stroke-width:1.0;"/><ellipse cx="285" cy="328.875" fill="#222222" rx="6" ry="6" style="stroke:#222222;stroke-width:1.0;"/><line style="stroke:#181818;stroke-width:1.0;" x1="285" x2="285" y1="30" y2="50"/><polygon fill="#181818" points="281,40,285,50,289,40,285,44" style="stroke:#181818;stroke-width:1.0;"/><line style="stroke:#181818;stroke-width:1.0;" x1="285" x2="285" y1="83.9688" y2="103.9688"/><polygon fill="#181818" points="281,93.9688,285,103.9688,289,93.9688,285,97.9688" style="stroke:#181818;stroke-width:1.0;"/><line style="stroke:#181818;stroke-width:1.0;" x1="78.5" x2="78.5" y1="163.9375" y2="183.9375"/><polygon fill="#181818" points="74.5,173.9375,78.5,183.9375,82.5,173.9375,78.5,177.9375" style="stroke:#181818;stroke-width:1.0;"/><line style="stroke:#181818;stroke-width:1.0;" x1="219" x2="219" y1="163.9375" y2="183.9375"/><polygon fill="#181818" points="215,173.9375,219,183.9375,223,173.9375,219,177.9375" style="stroke:#181818;stroke-width:1.0;"/><line style="stroke:#181818;stroke-width:1.0;" x1="360.5" x2="360.5" y1="163.9375" y2="183.9375"/><polygon fill="#181818" points="356.5,173.9375,360.5,183.9375,364.5,173.9375,360.5,177.9375" style="stroke:#181818;stroke-width:1.0;"/><line style="stroke:#181818;stroke-width:1.0;" x1="491" x2="491" y1="163.9375" y2="183.9375"/><polygon fill="#181818" points="487,173.9375,491,183.9375,495,173.9375,491,177.9375" style="stroke:#181818;stroke-width:1.0;"/><line style="stroke:#181818;stroke-width:1.0;" x1="78.5" x2="78.5" y1="217.9063" y2="237.9063"/><polygon fill="#181818" points="74.5,227.9063,78.5,237.9063,82.5,227.9063,78.5,231.9063" style="stroke:#181818;stroke-width:1.0;"/><line style="stroke:#181818;stroke-width:1.0;" x1="219" x2="219" y1="217.9063" y2="237.9063"/><polygon fill="#181818" points="215,227.9063,219,237.9063,223,227.9063,219,231.9063" style="stroke:#181818;stroke-width:1.0;"/><line style="stroke:#181818;stroke-width:1.0;" x1="360.5" x2="360.5" y1="217.9063" y2="237.9063"/><polygon fill="#181818" points="356.5,227.9063,360.5,237.9063,364.5,227.9063,360.5,231.9063" style="stroke:#181818;stroke-width:1.0;"/><line style="stroke:#181818;stroke-width:1.0;" x1="491" x2="491" y1="217.9063" y2="237.9063"/><polygon fill="#181818" points="487,227.9063,491,237.9063,495,227.9063,491,231.9063" style="stroke:#181818;stroke-width:1.0;"/><line style="stroke:#181818;stroke-width:1.0;" x1="285" x2="285" y1="137.9375" y2="157.9375"/><polygon fill="#181818" points="281,147.9375,285,157.9375,289,147.9375,285,151.9375" style="stroke:#181818;stroke-width:1.0;"/><line style="stroke:#181818;stroke-width:1.0;" x1="285" x2="285" y1="243.9063" y2="263.9063"/><polygon fill="#181818" points="281,253.9063,285,263.9063,289,253.9063,285,257.9063" style="stroke:#181818;stroke-width:1.0;"/><line style="stroke:#181818;stroke-width:1.0;" x1="285" x2="285" y1="297.875" y2="317.875"/><polygon fill="#181818" points="281,307.875,285,317.875,289,307.875,285,311.875" style="stroke:#181818;stroke-width:1.0;"/><!--SRC=[ROt12i8m44Jl-nNx7SbDl7XLyRursnXgisKxWlrxOr5Ky33mcCSmCyJ15B9YAv18uG39kjUQrDKvS5AeZwKguzAoJChMhzn5wis7jZwLfFRUl5h9KYg5pGsm-j_jng-hNtNKEpwc0Jyj1Lyxxgvs7YBDiEa1]--></g></svg>