<?xml version="1.0" encoding="us-ascii" standalone="no"?><svg xmlns="http://www.w3.org/2000/svg" xmlns:xlink="http://www.w3.org/1999/xlink" contentStyleType="text/css" height="793px" preserveAspectRatio="none" style="width:766px;height:793px;background:#FFFFFF;" version="1.1" viewBox="0 0 766 793" width="766px" zoomAndPan="magnify"><defs/><g><!--cluster DC--><g id="cluster_DC"><path d="M8.5,6 L125.5,6 A3.75,3.75 0 0 1 128,8.5 L135,28.2969 L756.5,28.2969 A2.5,2.5 0 0 1 759,30.7969 L759,783.5 A2.5,2.5 0 0 1 756.5,786 L8.5,786 A2.5,2.5 0 0 1 6,783.5 L6,8.5 A2.5,2.5 0 0 1 8.5,6 " fill="none" style="stroke:#000000;stroke-width:1.5;"/><line style="stroke:#000000;stroke-width:1.5;" x1="6" x2="135" y1="28.2969" y2="28.2969"/><text fill="#000000" font-family="sans-serif" font-size="14" font-weight="bold" lengthAdjust="spacing" textLength="116" x="10" y="20.9951">Data Contract</text></g><!--cluster Courses JSON Schema 1--><g id="cluster_Courses JSON Schema 1"><path d="M459.5,73.5 L650.5,73.5 A3.75,3.75 0 0 1 653,76 L660,95.7969 L732.5,95.7969 A2.5,2.5 0 0 1 735,98.2969 L735,759.5 A2.5,2.5 0 0 1 732.5,762 L459.5,762 A2.5,2.5 0 0 1 457,759.5 L457,76 A2.5,2.5 0 0 1 459.5,73.5 " fill="none" style="stroke:#000000;stroke-width:1.5;"/><line style="stroke:#000000;stroke-width:1.5;" x1="457" x2="660" y1="95.7969" y2="95.7969"/><text fill="#000000" font-family="sans-serif" font-size="14" font-weight="bold" lengthAdjust="spacing" textLength="190" x="461" y="88.4951">Courses JSON Schema 1</text></g><!--cluster 0--><g id="cluster_0"><path d="M483.5,116.5 L494.5,116.5 A3.75,3.75 0 0 1 497,119 L504,138.7969 L708.5,138.7969 A2.5,2.5 0 0 1 711,141.2969 L711,735.5 A2.5,2.5 0 0 1 708.5,738 L483.5,738 A2.5,2.5 0 0 1 481,735.5 L481,119 A2.5,2.5 0 0 1 483.5,116.5 " fill="none" style="stroke:#000000;stroke-width:1.5;"/><line style="stroke:#000000;stroke-width:1.5;" x1="481" x2="504" y1="138.7969" y2="138.7969"/><text fill="#000000" font-family="sans-serif" font-size="14" font-weight="bold" lengthAdjust="spacing" textLength="10" x="485" y="131.4951">0</text></g><!--cluster 0--><g id="cluster_0"><rect fill="none" height="554.5" rx="2.5" ry="2.5" style="stroke:#181818;stroke-width:1.0;" width="182" x="505" y="159.5"/><text fill="#000000" font-family="sans-serif" font-size="14" font-weight="bold" lengthAdjust="spacing" textLength="10" x="591" y="174.4951">0</text></g><!--cluster Prompt JSON Schema2 1--><g id="cluster_Prompt JSON Schema2 1"><path d="M32.5,49 L229.5,49 A3.75,3.75 0 0 1 232,51.5 L239,71.2969 L430.5,71.2969 A2.5,2.5 0 0 1 433,73.7969 L433,535.5 A2.5,2.5 0 0 1 430.5,538 L32.5,538 A2.5,2.5 0 0 1 30,535.5 L30,51.5 A2.5,2.5 0 0 1 32.5,49 " fill="none" style="stroke:#000000;stroke-width:1.5;"/><line style="stroke:#000000;stroke-width:1.5;" x1="30" x2="239" y1="71.2969" y2="71.2969"/><text fill="#000000" font-family="sans-serif" font-size="14" font-weight="bold" lengthAdjust="spacing" textLength="196" x="34" y="63.9951">Prompt JSON Schema2 1</text></g><!--cluster 0--><g id="cluster_0"><path d="M56.5,92 L67.5,92 A3.75,3.75 0 0 1 70,94.5 L77,114.2969 L406.5,114.2969 A2.5,2.5 0 0 1 409,116.7969 L409,511.5 A2.5,2.5 0 0 1 406.5,514 L56.5,514 A2.5,2.5 0 0 1 54,511.5 L54,94.5 A2.5,2.5 0 0 1 56.5,92 " fill="none" style="stroke:#000000;stroke-width:1.5;"/><line style="stroke:#000000;stroke-width:1.5;" x1="54" x2="77" y1="114.2969" y2="114.2969"/><text fill="#000000" font-family="sans-serif" font-size="14" font-weight="bold" lengthAdjust="spacing" textLength="10" x="58" y="106.9951">0</text></g><!--cluster 0--><g id="cluster_0"><rect fill="none" height="355" rx="2.5" ry="2.5" style="stroke:#181818;stroke-width:1.0;" width="307" x="78" y="135"/><text fill="#000000" font-family="sans-serif" font-size="14" font-weight="bold" lengthAdjust="spacing" textLength="10" x="226.5" y="149.9951">0</text></g><!--class Course--><g id="elem_Course"><rect codeLine="3" fill="#F1F1F1" height="96.8906" id="Course" rx="2.5" ry="2.5" style="stroke:#181818;stroke-width:0.5;" width="149" x="521.5" y="194.5"/><ellipse cx="567.25" cy="210.5" fill="#ADD1B2" rx="11" ry="11" style="stroke:#181818;stroke-width:1.0;"/><path d="M569.5938,206.1719 C568.6563,205.7344 568.0625,205.5938 567.1875,205.5938 C564.5625,205.5938 562.5625,207.6719 562.5625,210.3906 L562.5625,211.5156 C562.5625,214.0938 564.6719,215.9844 567.5625,215.9844 C568.7813,215.9844 569.9375,215.6875 570.6875,215.1406 C571.2656,214.7344 571.5938,214.2813 571.5938,213.8906 C571.5938,213.4375 571.2031,213.0469 570.7344,213.0469 C570.5156,213.0469 570.3125,213.125 570.125,213.3125 C569.6719,213.7969 569.6719,213.7969 569.4844,213.8906 C569.0625,214.1563 568.375,214.2813 567.6094,214.2813 C565.5625,214.2813 564.2656,213.1875 564.2656,211.4844 L564.2656,210.3906 C564.2656,208.6094 565.5156,207.2969 567.25,207.2969 C567.8281,207.2969 568.4375,207.4531 568.9063,207.7031 C569.3906,207.9844 569.5625,208.2031 569.6563,208.6094 C569.7188,209.0156 569.75,209.1406 569.8906,209.2656 C570.0313,209.4063 570.2656,209.5156 570.4844,209.5156 C570.75,209.5156 571.0156,209.375 571.1875,209.1563 C571.2969,209 571.3281,208.8125 571.3281,208.3906 L571.3281,206.9688 C571.3281,206.5313 571.3125,206.4063 571.2188,206.25 C571.0625,205.9844 570.7813,205.8438 570.4844,205.8438 C570.1875,205.8438 569.9844,205.9375 569.7656,206.25 L569.5938,206.1719 Z " fill="#000000"/><text fill="#000000" font-family="sans-serif" font-size="14" lengthAdjust="spacing" textLength="49" x="587.75" y="215.3467">Course</text><line style="stroke:#181818;stroke-width:0.5;" x1="522.5" x2="669.5" y1="226.5" y2="226.5"/><text fill="#000000" font-family="sans-serif" font-size="14" lengthAdjust="spacing" textLength="49" x="527.5" y="243.4951">_id: int</text><text fill="#000000" font-family="sans-serif" font-size="14" lengthAdjust="spacing" textLength="86" x="527.5" y="259.792">Title: String</text><text fill="#000000" font-family="sans-serif" font-size="14" lengthAdjust="spacing" textLength="137" x="527.5" y="276.0889">Description: String</text><line style="stroke:#181818;stroke-width:0.5;" x1="522.5" x2="669.5" y1="283.3906" y2="283.3906"/></g><!--class Stage--><g id="elem_Stage"><rect codeLine="9" fill="#F1F1F1" height="80.5938" id="Stage" rx="2.5" ry="2.5" style="stroke:#181818;stroke-width:0.5;" width="98" x="547" y="393"/><ellipse cx="572.8" cy="409" fill="#ADD1B2" rx="11" ry="11" style="stroke:#181818;stroke-width:1.0;"/><path d="M575.1438,404.6719 C574.2063,404.2344 573.6125,404.0938 572.7375,404.0938 C570.1125,404.0938 568.1125,406.1719 568.1125,408.8906 L568.1125,410.0156 C568.1125,412.5938 570.2219,414.4844 573.1125,414.4844 C574.3313,414.4844 575.4875,414.1875 576.2375,413.6406 C576.8156,413.2344 577.1438,412.7813 577.1438,412.3906 C577.1438,411.9375 576.7531,411.5469 576.2844,411.5469 C576.0656,411.5469 575.8625,411.625 575.675,411.8125 C575.2219,412.2969 575.2219,412.2969 575.0344,412.3906 C574.6125,412.6563 573.925,412.7813 573.1594,412.7813 C571.1125,412.7813 569.8156,411.6875 569.8156,409.9844 L569.8156,408.8906 C569.8156,407.1094 571.0656,405.7969 572.8,405.7969 C573.3781,405.7969 573.9875,405.9531 574.4563,406.2031 C574.9406,406.4844 575.1125,406.7031 575.2063,407.1094 C575.2688,407.5156 575.3,407.6406 575.4406,407.7656 C575.5813,407.9063 575.8156,408.0156 576.0344,408.0156 C576.3,408.0156 576.5656,407.875 576.7375,407.6563 C576.8469,407.5 576.8781,407.3125 576.8781,406.8906 L576.8781,405.4688 C576.8781,405.0313 576.8625,404.9063 576.7688,404.75 C576.6125,404.4844 576.3313,404.3438 576.0344,404.3438 C575.7375,404.3438 575.5344,404.4375 575.3156,404.75 L575.1438,404.6719 Z " fill="#000000"/><text fill="#000000" font-family="sans-serif" font-size="14" lengthAdjust="spacing" textLength="42" x="589.2" y="413.8467">Stage</text><line style="stroke:#181818;stroke-width:0.5;" x1="548" x2="644" y1="425" y2="425"/><text fill="#000000" font-family="sans-serif" font-size="14" lengthAdjust="spacing" textLength="49" x="553" y="441.9951">_id: int</text><text fill="#000000" font-family="sans-serif" font-size="14" lengthAdjust="spacing" textLength="86" x="553" y="458.292">Title: String</text><line style="stroke:#181818;stroke-width:0.5;" x1="548" x2="644" y1="465.5938" y2="465.5938"/></g><!--class Block--><g id="elem_Block"><rect codeLine="14" fill="#F1F1F1" height="96.8906" id="Block" rx="2.5" ry="2.5" style="stroke:#181818;stroke-width:0.5;" width="141" x="525.5" y="601"/><ellipse cx="571.75" cy="617" fill="#ADD1B2" rx="11" ry="11" style="stroke:#181818;stroke-width:1.0;"/><path d="M574.0938,612.6719 C573.1563,612.2344 572.5625,612.0938 571.6875,612.0938 C569.0625,612.0938 567.0625,614.1719 567.0625,616.8906 L567.0625,618.0156 C567.0625,620.5938 569.1719,622.4844 572.0625,622.4844 C573.2813,622.4844 574.4375,622.1875 575.1875,621.6406 C575.7656,621.2344 576.0938,620.7813 576.0938,620.3906 C576.0938,619.9375 575.7031,619.5469 575.2344,619.5469 C575.0156,619.5469 574.8125,619.625 574.625,619.8125 C574.1719,620.2969 574.1719,620.2969 573.9844,620.3906 C573.5625,620.6563 572.875,620.7813 572.1094,620.7813 C570.0625,620.7813 568.7656,619.6875 568.7656,617.9844 L568.7656,616.8906 C568.7656,615.1094 570.0156,613.7969 571.75,613.7969 C572.3281,613.7969 572.9375,613.9531 573.4063,614.2031 C573.8906,614.4844 574.0625,614.7031 574.1563,615.1094 C574.2188,615.5156 574.25,615.6406 574.3906,615.7656 C574.5313,615.9063 574.7656,616.0156 574.9844,616.0156 C575.25,616.0156 575.5156,615.875 575.6875,615.6563 C575.7969,615.5 575.8281,615.3125 575.8281,614.8906 L575.8281,613.4688 C575.8281,613.0313 575.8125,612.9063 575.7188,612.75 C575.5625,612.4844 575.2813,612.3438 574.9844,612.3438 C574.6875,612.3438 574.4844,612.4375 574.2656,612.75 L574.0938,612.6719 Z " fill="#000000"/><text fill="#000000" font-family="sans-serif" font-size="14" lengthAdjust="spacing" textLength="40" x="592.25" y="621.8467">Block</text><line style="stroke:#181818;stroke-width:0.5;" x1="526.5" x2="665.5" y1="633" y2="633"/><text fill="#000000" font-family="sans-serif" font-size="14" lengthAdjust="spacing" textLength="49" x="531.5" y="649.9951">_id: int</text><text fill="#000000" font-family="sans-serif" font-size="14" lengthAdjust="spacing" textLength="129" x="531.5" y="666.292">BlockType: String</text><text fill="#000000" font-family="sans-serif" font-size="14" lengthAdjust="spacing" textLength="113" x="531.5" y="682.5889">Content: String</text><line style="stroke:#181818;stroke-width:0.5;" x1="526.5" x2="665.5" y1="689.8906" y2="689.8906"/></g><!--class Prompt--><g id="elem_Prompt"><rect codeLine="25" fill="#F1F1F1" height="145.7813" id="Prompt" rx="2.5" ry="2.5" style="stroke:#181818;stroke-width:0.5;" width="149" x="124.5" y="170"/><ellipse cx="167.4" cy="186" fill="#ADD1B2" rx="11" ry="11" style="stroke:#181818;stroke-width:1.0;"/><path d="M169.7438,181.6719 C168.8063,181.2344 168.2125,181.0938 167.3375,181.0938 C164.7125,181.0938 162.7125,183.1719 162.7125,185.8906 L162.7125,187.0156 C162.7125,189.5938 164.8219,191.4844 167.7125,191.4844 C168.9313,191.4844 170.0875,191.1875 170.8375,190.6406 C171.4156,190.2344 171.7438,189.7813 171.7438,189.3906 C171.7438,188.9375 171.3531,188.5469 170.8844,188.5469 C170.6656,188.5469 170.4625,188.625 170.275,188.8125 C169.8219,189.2969 169.8219,189.2969 169.6344,189.3906 C169.2125,189.6563 168.525,189.7813 167.7594,189.7813 C165.7125,189.7813 164.4156,188.6875 164.4156,186.9844 L164.4156,185.8906 C164.4156,184.1094 165.6656,182.7969 167.4,182.7969 C167.9781,182.7969 168.5875,182.9531 169.0563,183.2031 C169.5406,183.4844 169.7125,183.7031 169.8063,184.1094 C169.8688,184.5156 169.9,184.6406 170.0406,184.7656 C170.1813,184.9063 170.4156,185.0156 170.6344,185.0156 C170.9,185.0156 171.1656,184.875 171.3375,184.6563 C171.4469,184.5 171.4781,184.3125 171.4781,183.8906 L171.4781,182.4688 C171.4781,182.0313 171.4625,181.9063 171.3688,181.75 C171.2125,181.4844 170.9313,181.3438 170.6344,181.3438 C170.3375,181.3438 170.1344,181.4375 169.9156,181.75 L169.7438,181.6719 Z " fill="#000000"/><text fill="#000000" font-family="sans-serif" font-size="14" lengthAdjust="spacing" textLength="55" x="187.6" y="190.8467">Prompt</text><line style="stroke:#181818;stroke-width:0.5;" x1="125.5" x2="272.5" y1="202" y2="202"/><text fill="#000000" font-family="sans-serif" font-size="14" lengthAdjust="spacing" textLength="49" x="130.5" y="218.9951">_id: int</text><text fill="#000000" font-family="sans-serif" font-size="14" lengthAdjust="spacing" textLength="86" x="130.5" y="235.292">Title: String</text><text fill="#000000" font-family="sans-serif" font-size="14" lengthAdjust="spacing" textLength="108" x="130.5" y="251.5889">Prompt: String</text><text fill="#000000" font-family="sans-serif" font-size="14" lengthAdjust="spacing" textLength="137" x="130.5" y="267.8857">Description: String</text><text fill="#000000" font-family="sans-serif" font-size="14" lengthAdjust="spacing" textLength="84" x="130.5" y="284.1826">Tool: String</text><text fill="#000000" font-family="sans-serif" font-size="14" lengthAdjust="spacing" textLength="89" x="130.5" y="300.4795">ToolLink: Url</text><line style="stroke:#181818;stroke-width:0.5;" x1="125.5" x2="272.5" y1="307.7813" y2="307.7813"/></g><!--class PromptPattern--><g id="elem_PromptPattern"><rect codeLine="34" fill="#F1F1F1" height="80.5938" id="PromptPattern" rx="2.5" ry="2.5" style="stroke:#181818;stroke-width:0.5;" width="142" x="94" y="393"/><ellipse cx="109" cy="409" fill="#ADD1B2" rx="11" ry="11" style="stroke:#181818;stroke-width:1.0;"/><path d="M111.3438,404.6719 C110.4063,404.2344 109.8125,404.0938 108.9375,404.0938 C106.3125,404.0938 104.3125,406.1719 104.3125,408.8906 L104.3125,410.0156 C104.3125,412.5938 106.4219,414.4844 109.3125,414.4844 C110.5313,414.4844 111.6875,414.1875 112.4375,413.6406 C113.0156,413.2344 113.3438,412.7813 113.3438,412.3906 C113.3438,411.9375 112.9531,411.5469 112.4844,411.5469 C112.2656,411.5469 112.0625,411.625 111.875,411.8125 C111.4219,412.2969 111.4219,412.2969 111.2344,412.3906 C110.8125,412.6563 110.125,412.7813 109.3594,412.7813 C107.3125,412.7813 106.0156,411.6875 106.0156,409.9844 L106.0156,408.8906 C106.0156,407.1094 107.2656,405.7969 109,405.7969 C109.5781,405.7969 110.1875,405.9531 110.6563,406.2031 C111.1406,406.4844 111.3125,406.7031 111.4063,407.1094 C111.4688,407.5156 111.5,407.6406 111.6406,407.7656 C111.7813,407.9063 112.0156,408.0156 112.2344,408.0156 C112.5,408.0156 112.7656,407.875 112.9375,407.6563 C113.0469,407.5 113.0781,407.3125 113.0781,406.8906 L113.0781,405.4688 C113.0781,405.0313 113.0625,404.9063 112.9688,404.75 C112.8125,404.4844 112.5313,404.3438 112.2344,404.3438 C111.9375,404.3438 111.7344,404.4375 111.5156,404.75 L111.3438,404.6719 Z " fill="#000000"/><text fill="#000000" font-family="sans-serif" font-size="14" lengthAdjust="spacing" textLength="110" x="123" y="413.8467">PromptPattern</text><line style="stroke:#181818;stroke-width:0.5;" x1="95" x2="235" y1="425" y2="425"/><text fill="#000000" font-family="sans-serif" font-size="14" lengthAdjust="spacing" textLength="49" x="100" y="441.9951">_id: int</text><text fill="#000000" font-family="sans-serif" font-size="14" lengthAdjust="spacing" textLength="86" x="100" y="458.292">Title: String</text><line style="stroke:#181818;stroke-width:0.5;" x1="95" x2="235" y1="465.5938" y2="465.5938"/></g><!--class Sector--><g id="elem_Sector"><rect codeLine="39" fill="#F1F1F1" height="80.5938" id="Sector" rx="2.5" ry="2.5" style="stroke:#181818;stroke-width:0.5;" width="98" x="271" y="393"/><ellipse cx="294.1" cy="409" fill="#ADD1B2" rx="11" ry="11" style="stroke:#181818;stroke-width:1.0;"/><path d="M296.4438,404.6719 C295.5063,404.2344 294.9125,404.0938 294.0375,404.0938 C291.4125,404.0938 289.4125,406.1719 289.4125,408.8906 L289.4125,410.0156 C289.4125,412.5938 291.5219,414.4844 294.4125,414.4844 C295.6313,414.4844 296.7875,414.1875 297.5375,413.6406 C298.1156,413.2344 298.4438,412.7813 298.4438,412.3906 C298.4438,411.9375 298.0531,411.5469 297.5844,411.5469 C297.3656,411.5469 297.1625,411.625 296.975,411.8125 C296.5219,412.2969 296.5219,412.2969 296.3344,412.3906 C295.9125,412.6563 295.225,412.7813 294.4594,412.7813 C292.4125,412.7813 291.1156,411.6875 291.1156,409.9844 L291.1156,408.8906 C291.1156,407.1094 292.3656,405.7969 294.1,405.7969 C294.6781,405.7969 295.2875,405.9531 295.7563,406.2031 C296.2406,406.4844 296.4125,406.7031 296.5063,407.1094 C296.5688,407.5156 296.6,407.6406 296.7406,407.7656 C296.8813,407.9063 297.1156,408.0156 297.3344,408.0156 C297.6,408.0156 297.8656,407.875 298.0375,407.6563 C298.1469,407.5 298.1781,407.3125 298.1781,406.8906 L298.1781,405.4688 C298.1781,405.0313 298.1625,404.9063 298.0688,404.75 C297.9125,404.4844 297.6313,404.3438 297.3344,404.3438 C297.0375,404.3438 296.8344,404.4375 296.6156,404.75 L296.4438,404.6719 Z " fill="#000000"/><text fill="#000000" font-family="sans-serif" font-size="14" lengthAdjust="spacing" textLength="48" x="309.9" y="413.8467">Sector</text><line style="stroke:#181818;stroke-width:0.5;" x1="272" x2="368" y1="425" y2="425"/><text fill="#000000" font-family="sans-serif" font-size="14" lengthAdjust="spacing" textLength="49" x="277" y="441.9951">_id: int</text><text fill="#000000" font-family="sans-serif" font-size="14" lengthAdjust="spacing" textLength="86" x="277" y="458.292">Title: String</text><line style="stroke:#181818;stroke-width:0.5;" x1="272" x2="368" y1="465.5938" y2="465.5938"/></g><!--link Course to Stage--><g id="link_Course_Stage"><path codeLine="20" d="M596,299.567 C596,330.868 596,345.361 596,374.905 " fill="none" id="Course-Stage" style="stroke:#181818;stroke-width:1.0;"/><line style="stroke:#181818;stroke-width:1.0;" x1="592" x2="600" y1="295.567" y2="295.567"/><line style="stroke:#181818;stroke-width:1.0;" x1="592" x2="600" y1="298.567" y2="298.567"/><line style="stroke:#181818;stroke-width:1.0;" x1="596" x2="596" y1="299.567" y2="291.567"/><line style="stroke:#181818;stroke-width:1.0;" x1="596" x2="602" y1="384.905" y2="392.905"/><line style="stroke:#181818;stroke-width:1.0;" x1="596" x2="590" y1="384.905" y2="392.905"/><line style="stroke:#181818;stroke-width:1.0;" x1="596" x2="596" y1="384.905" y2="392.905"/><ellipse cx="596" cy="378.905" fill="none" rx="4" ry="4" style="stroke:#181818;stroke-width:1.0;"/><text fill="#000000" font-family="sans-serif" font-size="13" lengthAdjust="spacing" textLength="23" x="597" y="359.0669">has</text></g><!--link Stage to Block--><g id="link_Stage_Block"><path codeLine="21" d="M596,482 C596,517.748 596,544.485 596,582.62 " fill="none" id="Stage-Block" style="stroke:#181818;stroke-width:1.0;"/><line style="stroke:#181818;stroke-width:1.0;" x1="592" x2="600" y1="478" y2="478"/><line style="stroke:#181818;stroke-width:1.0;" x1="592" x2="600" y1="481" y2="481"/><line style="stroke:#181818;stroke-width:1.0;" x1="596" x2="596" y1="482" y2="474"/><line style="stroke:#181818;stroke-width:1.0;" x1="596" x2="602" y1="592.62" y2="600.62"/><line style="stroke:#181818;stroke-width:1.0;" x1="596" x2="590" y1="592.62" y2="600.62"/><line style="stroke:#181818;stroke-width:1.0;" x1="596" x2="596" y1="592.62" y2="600.62"/><ellipse cx="596" cy="586.62" fill="none" rx="4" ry="4" style="stroke:#181818;stroke-width:1.0;"/><text fill="#000000" font-family="sans-serif" font-size="13" lengthAdjust="spacing" textLength="23" x="597" y="567.0669">has</text></g><!--link Prompt to PromptPattern--><g id="link_Prompt_PromptPattern"><path codeLine="44" d="M182.8054,333.7851 C178.0994,359.8721 177.5759,362.776 173.5599,385.044 " fill="none" id="Prompt-PromptPattern" style="stroke:#181818;stroke-width:1.0;"/><line style="stroke:#181818;stroke-width:1.0;" x1="184.5808" x2="180.0963" y1="323.9439" y2="315.0058"/><line style="stroke:#181818;stroke-width:1.0;" x1="184.5808" x2="191.9057" y1="323.9439" y2="317.1362"/><line style="stroke:#181818;stroke-width:1.0;" x1="184.5808" x2="186.001" y1="323.9439" y2="316.071"/><ellipse cx="183.5156" cy="329.8486" fill="none" rx="4" ry="4" style="stroke:#181818;stroke-width:1.0;"/><line style="stroke:#181818;stroke-width:1.0;" x1="176.7864" x2="168.9134" y1="389.6904" y2="388.2706"/><line style="stroke:#181818;stroke-width:1.0;" x1="177.3189" x2="169.4459" y1="386.7381" y2="385.3182"/><line style="stroke:#181818;stroke-width:1.0;" x1="173.5599" x2="172.14" y1="385.044" y2="392.917"/><text fill="#000000" font-family="sans-serif" font-size="13" lengthAdjust="spacing" textLength="23" x="181" y="359.0669">has</text></g><!--link Prompt to Sector--><g id="link_Prompt_Sector"><path codeLine="45" d="M249.5846,322.8033 C266.3306,348.8903 275.9752,363.9168 290.2702,386.1848 " fill="none" id="Prompt-Sector" style="stroke:#181818;stroke-width:1.0;"/><line style="stroke:#181818;stroke-width:1.0;" x1="249.5846" x2="238.5307" y1="322.8033" y2="316.071"/><line style="stroke:#181818;stroke-width:1.0;" x1="249.5846" x2="251.9953" y1="322.8033" y2="316.071"/><line style="stroke:#181818;stroke-width:1.0;" x1="249.5846" x2="245.263" y1="322.8033" y2="316.071"/><line style="stroke:#181818;stroke-width:1.0;" x1="295.7972" x2="289.065" y1="387.39" y2="391.7118"/><line style="stroke:#181818;stroke-width:1.0;" x1="294.1766" x2="287.4444" y1="384.8655" y2="389.1872"/><line style="stroke:#181818;stroke-width:1.0;" x1="290.2702" x2="294.592" y1="386.1848" y2="392.917"/><text fill="#000000" font-family="sans-serif" font-size="13" lengthAdjust="spacing" textLength="23" x="275" y="359.0669">has</text></g><!--SRC=[fL6nJiCm4Dtp5QVigGfZL7KWcH222fSPdOoLMd5jopu6bEJVIHmdjBG2IhtvthrtxzvPv3LM0j8I2Q4mcXnoIW4zb4MJs0akpBlpmiCzUte4ndTYZt2pM2wMAQnMpu8Jwag9zHgQ1Fh75NeF8ocMXlSgttAGckR2Lf8IEJ1oKbTpjHIUEsb96ds4TSc1EAF1s4NQH_mxPNZz0ptWsmzxQcz8IMWw9nqtRjiiCqsqcCCEVK37VmI3VWHxzfpqnfczfSEWRtzFEf8kJdha_Va0GSWOTRRu87MTmujJfrcFOpP899o-ucQiNz-uVmd4X3gJPMtxpT3NXQQkq1IdJIVgFW40]--></g></svg>