<?xml version="1.0" encoding="us-ascii" standalone="no"?><svg xmlns="http://www.w3.org/2000/svg" xmlns:xlink="http://www.w3.org/1999/xlink" contentStyleType="text/css" height="627px" preserveAspectRatio="none" style="width:291px;height:627px;background:#FFFFFF;" version="1.1" viewBox="0 0 291 627" width="291px" zoomAndPan="magnify"><defs/><g><!--cluster Courses JSON Schema 1--><g id="cluster_Courses JSON Schema 1"><path d="M8.5,6 L199.5,6 A3.75,3.75 0 0 1 202,8.5 L209,28.2969 L281.5,28.2969 A2.5,2.5 0 0 1 284,30.7969 L284,617.5 A2.5,2.5 0 0 1 281.5,620 L8.5,620 A2.5,2.5 0 0 1 6,617.5 L6,8.5 A2.5,2.5 0 0 1 8.5,6 " fill="none" style="stroke:#000000;stroke-width:1.5;"/><line style="stroke:#000000;stroke-width:1.5;" x1="6" x2="209" y1="28.2969" y2="28.2969"/><text fill="#000000" font-family="sans-serif" font-size="14" font-weight="bold" lengthAdjust="spacing" textLength="190" x="10" y="20.9951">Courses JSON Schema 1</text></g><!--cluster 0--><g id="cluster_0"><path d="M32.5,49 L43.5,49 A3.75,3.75 0 0 1 46,51.5 L53,71.2969 L257.5,71.2969 A2.5,2.5 0 0 1 260,73.7969 L260,593.5 A2.5,2.5 0 0 1 257.5,596 L32.5,596 A2.5,2.5 0 0 1 30,593.5 L30,51.5 A2.5,2.5 0 0 1 32.5,49 " fill="none" style="stroke:#000000;stroke-width:1.5;"/><line style="stroke:#000000;stroke-width:1.5;" x1="30" x2="53" y1="71.2969" y2="71.2969"/><text fill="#000000" font-family="sans-serif" font-size="14" font-weight="bold" lengthAdjust="spacing" textLength="10" x="34" y="63.9951">0</text></g><!--cluster 0--><g id="cluster_0"><rect fill="none" height="480" rx="2.5" ry="2.5" style="stroke:#181818;stroke-width:1.0;" width="182" x="54" y="92"/><text fill="#000000" font-family="sans-serif" font-size="14" font-weight="bold" lengthAdjust="spacing" textLength="10" x="140" y="106.9951">0</text></g><!--class Course--><g id="elem_Course"><rect codeLine="2" fill="#F1F1F1" height="96.8906" id="Course" rx="2.5" ry="2.5" style="stroke:#181818;stroke-width:0.5;" width="149" x="70.5" y="127"/><ellipse cx="116.25" cy="143" fill="#ADD1B2" rx="11" ry="11" style="stroke:#181818;stroke-width:1.0;"/><path d="M118.5938,138.6719 C117.6563,138.2344 117.0625,138.0938 116.1875,138.0938 C113.5625,138.0938 111.5625,140.1719 111.5625,142.8906 L111.5625,144.0156 C111.5625,146.5938 113.6719,148.4844 116.5625,148.4844 C117.7813,148.4844 118.9375,148.1875 119.6875,147.6406 C120.2656,147.2344 120.5938,146.7813 120.5938,146.3906 C120.5938,145.9375 120.2031,145.5469 119.7344,145.5469 C119.5156,145.5469 119.3125,145.625 119.125,145.8125 C118.6719,146.2969 118.6719,146.2969 118.4844,146.3906 C118.0625,146.6563 117.375,146.7813 116.6094,146.7813 C114.5625,146.7813 113.2656,145.6875 113.2656,143.9844 L113.2656,142.8906 C113.2656,141.1094 114.5156,139.7969 116.25,139.7969 C116.8281,139.7969 117.4375,139.9531 117.9063,140.2031 C118.3906,140.4844 118.5625,140.7031 118.6563,141.1094 C118.7188,141.5156 118.75,141.6406 118.8906,141.7656 C119.0313,141.9063 119.2656,142.0156 119.4844,142.0156 C119.75,142.0156 120.0156,141.875 120.1875,141.6563 C120.2969,141.5 120.3281,141.3125 120.3281,140.8906 L120.3281,139.4688 C120.3281,139.0313 120.3125,138.9063 120.2188,138.75 C120.0625,138.4844 119.7813,138.3438 119.4844,138.3438 C119.1875,138.3438 118.9844,138.4375 118.7656,138.75 L118.5938,138.6719 Z " fill="#000000"/><text fill="#000000" font-family="sans-serif" font-size="14" lengthAdjust="spacing" textLength="49" x="136.75" y="147.8467">Course</text><line style="stroke:#181818;stroke-width:0.5;" x1="71.5" x2="218.5" y1="159" y2="159"/><text fill="#000000" font-family="sans-serif" font-size="14" lengthAdjust="spacing" textLength="49" x="76.5" y="175.9951">_id: int</text><text fill="#000000" font-family="sans-serif" font-size="14" lengthAdjust="spacing" textLength="86" x="76.5" y="192.292">Title: String</text><text fill="#000000" font-family="sans-serif" font-size="14" lengthAdjust="spacing" textLength="137" x="76.5" y="208.5889">Description: String</text><line style="stroke:#181818;stroke-width:0.5;" x1="71.5" x2="218.5" y1="215.8906" y2="215.8906"/></g><!--class Stage--><g id="elem_Stage"><rect codeLine="8" fill="#F1F1F1" height="80.5938" id="Stage" rx="2.5" ry="2.5" style="stroke:#181818;stroke-width:0.5;" width="98" x="96" y="301"/><ellipse cx="121.8" cy="317" fill="#ADD1B2" rx="11" ry="11" style="stroke:#181818;stroke-width:1.0;"/><path d="M124.1438,312.6719 C123.2063,312.2344 122.6125,312.0938 121.7375,312.0938 C119.1125,312.0938 117.1125,314.1719 117.1125,316.8906 L117.1125,318.0156 C117.1125,320.5938 119.2219,322.4844 122.1125,322.4844 C123.3313,322.4844 124.4875,322.1875 125.2375,321.6406 C125.8156,321.2344 126.1438,320.7813 126.1438,320.3906 C126.1438,319.9375 125.7531,319.5469 125.2844,319.5469 C125.0656,319.5469 124.8625,319.625 124.675,319.8125 C124.2219,320.2969 124.2219,320.2969 124.0344,320.3906 C123.6125,320.6563 122.925,320.7813 122.1594,320.7813 C120.1125,320.7813 118.8156,319.6875 118.8156,317.9844 L118.8156,316.8906 C118.8156,315.1094 120.0656,313.7969 121.8,313.7969 C122.3781,313.7969 122.9875,313.9531 123.4563,314.2031 C123.9406,314.4844 124.1125,314.7031 124.2063,315.1094 C124.2688,315.5156 124.3,315.6406 124.4406,315.7656 C124.5813,315.9063 124.8156,316.0156 125.0344,316.0156 C125.3,316.0156 125.5656,315.875 125.7375,315.6563 C125.8469,315.5 125.8781,315.3125 125.8781,314.8906 L125.8781,313.4688 C125.8781,313.0313 125.8625,312.9063 125.7688,312.75 C125.6125,312.4844 125.3313,312.3438 125.0344,312.3438 C124.7375,312.3438 124.5344,312.4375 124.3156,312.75 L124.1438,312.6719 Z " fill="#000000"/><text fill="#000000" font-family="sans-serif" font-size="14" lengthAdjust="spacing" textLength="42" x="138.2" y="321.8467">Stage</text><line style="stroke:#181818;stroke-width:0.5;" x1="97" x2="193" y1="333" y2="333"/><text fill="#000000" font-family="sans-serif" font-size="14" lengthAdjust="spacing" textLength="49" x="102" y="349.9951">_id: int</text><text fill="#000000" font-family="sans-serif" font-size="14" lengthAdjust="spacing" textLength="86" x="102" y="366.292">Title: String</text><line style="stroke:#181818;stroke-width:0.5;" x1="97" x2="193" y1="373.5938" y2="373.5938"/></g><!--class Block--><g id="elem_Block"><rect codeLine="13" fill="#F1F1F1" height="96.8906" id="Block" rx="2.5" ry="2.5" style="stroke:#181818;stroke-width:0.5;" width="141" x="74.5" y="459"/><ellipse cx="120.75" cy="475" fill="#ADD1B2" rx="11" ry="11" style="stroke:#181818;stroke-width:1.0;"/><path d="M123.0938,470.6719 C122.1563,470.2344 121.5625,470.0938 120.6875,470.0938 C118.0625,470.0938 116.0625,472.1719 116.0625,474.8906 L116.0625,476.0156 C116.0625,478.5938 118.1719,480.4844 121.0625,480.4844 C122.2813,480.4844 123.4375,480.1875 124.1875,479.6406 C124.7656,479.2344 125.0938,478.7813 125.0938,478.3906 C125.0938,477.9375 124.7031,477.5469 124.2344,477.5469 C124.0156,477.5469 123.8125,477.625 123.625,477.8125 C123.1719,478.2969 123.1719,478.2969 122.9844,478.3906 C122.5625,478.6563 121.875,478.7813 121.1094,478.7813 C119.0625,478.7813 117.7656,477.6875 117.7656,475.9844 L117.7656,474.8906 C117.7656,473.1094 119.0156,471.7969 120.75,471.7969 C121.3281,471.7969 121.9375,471.9531 122.4063,472.2031 C122.8906,472.4844 123.0625,472.7031 123.1563,473.1094 C123.2188,473.5156 123.25,473.6406 123.3906,473.7656 C123.5313,473.9063 123.7656,474.0156 123.9844,474.0156 C124.25,474.0156 124.5156,473.875 124.6875,473.6563 C124.7969,473.5 124.8281,473.3125 124.8281,472.8906 L124.8281,471.4688 C124.8281,471.0313 124.8125,470.9063 124.7188,470.75 C124.5625,470.4844 124.2813,470.3438 123.9844,470.3438 C123.6875,470.3438 123.4844,470.4375 123.2656,470.75 L123.0938,470.6719 Z " fill="#000000"/><text fill="#000000" font-family="sans-serif" font-size="14" lengthAdjust="spacing" textLength="40" x="141.25" y="479.8467">Block</text><line style="stroke:#181818;stroke-width:0.5;" x1="75.5" x2="214.5" y1="491" y2="491"/><text fill="#000000" font-family="sans-serif" font-size="14" lengthAdjust="spacing" textLength="49" x="80.5" y="507.9951">_id: int</text><text fill="#000000" font-family="sans-serif" font-size="14" lengthAdjust="spacing" textLength="129" x="80.5" y="524.292">BlockType: String</text><text fill="#000000" font-family="sans-serif" font-size="14" lengthAdjust="spacing" textLength="113" x="80.5" y="540.5889">Content: String</text><line style="stroke:#181818;stroke-width:0.5;" x1="75.5" x2="214.5" y1="547.8906" y2="547.8906"/></g><!--link Course to Stage--><g id="link_Course_Stage"><path codeLine="19" d="M145,232.376 C145,256.674 145,259.838 145,282.86 " fill="none" id="Course-Stage" style="stroke:#181818;stroke-width:1.0;"/><line style="stroke:#181818;stroke-width:1.0;" x1="141" x2="149" y1="228.376" y2="228.376"/><line style="stroke:#181818;stroke-width:1.0;" x1="141" x2="149" y1="231.376" y2="231.376"/><line style="stroke:#181818;stroke-width:1.0;" x1="145" x2="145" y1="232.376" y2="224.376"/><line style="stroke:#181818;stroke-width:1.0;" x1="145" x2="151" y1="292.86" y2="300.86"/><line style="stroke:#181818;stroke-width:1.0;" x1="145" x2="139" y1="292.86" y2="300.86"/><line style="stroke:#181818;stroke-width:1.0;" x1="145" x2="145" y1="292.86" y2="300.86"/><ellipse cx="145" cy="286.86" fill="none" rx="4" ry="4" style="stroke:#181818;stroke-width:1.0;"/><text fill="#000000" font-family="sans-serif" font-size="13" lengthAdjust="spacing" textLength="23" x="146" y="267.0669">has</text></g><!--link Stage to Block--><g id="link_Stage_Block"><path codeLine="20" d="M145,390.2 C145,413.33 145,416.645 145,440.996 " fill="none" id="Stage-Block" style="stroke:#181818;stroke-width:1.0;"/><line style="stroke:#181818;stroke-width:1.0;" x1="141" x2="149" y1="386.2" y2="386.2"/><line style="stroke:#181818;stroke-width:1.0;" x1="141" x2="149" y1="389.2" y2="389.2"/><line style="stroke:#181818;stroke-width:1.0;" x1="145" x2="145" y1="390.2" y2="382.2"/><line style="stroke:#181818;stroke-width:1.0;" x1="145" x2="151" y1="450.996" y2="458.996"/><line style="stroke:#181818;stroke-width:1.0;" x1="145" x2="139" y1="450.996" y2="458.996"/><line style="stroke:#181818;stroke-width:1.0;" x1="145" x2="145" y1="450.996" y2="458.996"/><ellipse cx="145" cy="444.996" fill="none" rx="4" ry="4" style="stroke:#181818;stroke-width:1.0;"/><text fill="#000000" font-family="sans-serif" font-size="13" lengthAdjust="spacing" textLength="23" x="146" y="425.0669">has</text></g><!--SRC=[bOyn2uCm48LtVyNXhjXLnA5swb2XSIyXFJIO9i5SXwB-zrODKcafz6ttFjxZdUMYvJL2M9Xxvz31aPKdOAB16uTTdCH925bsHa5Srmhp7Fe0NXAAEmTBo5kJBlAQWjIq6fKaXIamwgIkL_U0JdJIaZHwmyRWhPpHDEolxar-huneVyHdNZtivxp2Q49DtwhznyCGHQRt4rDek9lfSdiuztiuFW40]--></g></svg>