<?xml version="1.0" encoding="us-ascii" standalone="no"?><svg xmlns="http://www.w3.org/2000/svg" xmlns:xlink="http://www.w3.org/1999/xlink" contentStyleType="text/css" height="394px" preserveAspectRatio="none" style="width:708px;height:394px;background:#FFFFFF;" version="1.1" viewBox="0 0 708 394" width="708px" zoomAndPan="magnify"><defs/><g><text fill="#000000" font-family="sans-serif" font-size="14" font-weight="bold" lengthAdjust="spacing" textLength="208" x="251.5" y="27.9951">Prompt Library Data Flow</text><line style="stroke:#181818;stroke-width:0.5;stroke-dasharray:5.0,5.0;" x1="23" x2="23" y1="118.5938" y2="313.3906"/><line style="stroke:#181818;stroke-width:0.5;stroke-dasharray:5.0,5.0;" x1="209.5" x2="209.5" y1="118.5938" y2="313.3906"/><line style="stroke:#181818;stroke-width:0.5;stroke-dasharray:5.0,5.0;" x1="395.5" x2="395.5" y1="118.5938" y2="313.3906"/><line style="stroke:#181818;stroke-width:0.5;stroke-dasharray:5.0,5.0;" x1="665" x2="665" y1="118.5938" y2="313.3906"/><text fill="#000000" font-family="sans-serif" font-size="14" lengthAdjust="spacing" textLength="31" x="5" y="115.292">User</text><ellipse cx="23.5" cy="50.7969" fill="#E3E3E3" rx="8" ry="8" style="stroke:#181818;stroke-width:0.5;"/><path d="M23.5,58.7969 L23.5,85.7969 M10.5,66.7969 L36.5,66.7969 M23.5,85.7969 L10.5,100.7969 M23.5,85.7969 L36.5,100.7969 " fill="none" style="stroke:#181818;stroke-width:0.5;"/><text fill="#000000" font-family="sans-serif" font-size="14" lengthAdjust="spacing" textLength="31" x="5" y="325.3857">User</text><ellipse cx="23.5" cy="337.1875" fill="#E3E3E3" rx="8" ry="8" style="stroke:#181818;stroke-width:0.5;"/><path d="M23.5,345.1875 L23.5,372.1875 M10.5,353.1875 L36.5,353.1875 M23.5,372.1875 L10.5,387.1875 M23.5,372.1875 L36.5,387.1875 " fill="none" style="stroke:#181818;stroke-width:0.5;"/><rect fill="#E3E3E3" height="30.2969" rx="2.5" ry="2.5" style="stroke:#181818;stroke-width:0.5;" width="130" x="144.5" y="87.2969"/><text fill="#000000" font-family="sans-serif" font-size="14" lengthAdjust="spacing" textLength="116" x="151.5" y="107.292">React Front End</text><rect fill="#E3E3E3" height="30.2969" rx="2.5" ry="2.5" style="stroke:#181818;stroke-width:0.5;" width="130" x="144.5" y="312.3906"/><text fill="#000000" font-family="sans-serif" font-size="14" lengthAdjust="spacing" textLength="116" x="151.5" y="332.3857">React Front End</text><rect fill="#E3E3E3" height="30.2969" rx="2.5" ry="2.5" style="stroke:#181818;stroke-width:0.5;" width="102" x="344.5" y="87.2969"/><text fill="#000000" font-family="sans-serif" font-size="14" lengthAdjust="spacing" textLength="88" x="351.5" y="107.292">Datafetcher</text><rect fill="#E3E3E3" height="30.2969" rx="2.5" ry="2.5" style="stroke:#181818;stroke-width:0.5;" width="102" x="344.5" y="312.3906"/><text fill="#000000" font-family="sans-serif" font-size="14" lengthAdjust="spacing" textLength="88" x="351.5" y="332.3857">Datafetcher</text><text fill="#000000" font-family="sans-serif" font-size="14" lengthAdjust="spacing" textLength="77" x="624" y="115.292">Wordpress</text><path d="M647.5,66.2969 C647.5,56.2969 665.5,56.2969 665.5,56.2969 C665.5,56.2969 683.5,56.2969 683.5,66.2969 L683.5,92.2969 C683.5,102.2969 665.5,102.2969 665.5,102.2969 C665.5,102.2969 647.5,102.2969 647.5,92.2969 L647.5,66.2969 " fill="#E3E3E3" style="stroke:#181818;stroke-width:1.5;"/><path d="M647.5,66.2969 C647.5,76.2969 665.5,76.2969 665.5,76.2969 C665.5,76.2969 683.5,76.2969 683.5,66.2969 " fill="none" style="stroke:#181818;stroke-width:1.5;"/><text fill="#000000" font-family="sans-serif" font-size="14" lengthAdjust="spacing" textLength="77" x="624" y="325.3857">Wordpress</text><path d="M647.5,338.6875 C647.5,328.6875 665.5,328.6875 665.5,328.6875 C665.5,328.6875 683.5,328.6875 683.5,338.6875 L683.5,364.6875 C683.5,374.6875 665.5,374.6875 665.5,374.6875 C665.5,374.6875 647.5,374.6875 647.5,364.6875 L647.5,338.6875 " fill="#E3E3E3" style="stroke:#181818;stroke-width:1.5;"/><path d="M647.5,338.6875 C647.5,348.6875 665.5,348.6875 665.5,348.6875 C665.5,348.6875 683.5,348.6875 683.5,338.6875 " fill="none" style="stroke:#181818;stroke-width:1.5;"/><polygon fill="#181818" points="197.5,145.7266,207.5,149.7266,197.5,153.7266,201.5,149.7266" style="stroke:#181818;stroke-width:1.0;"/><line style="stroke:#181818;stroke-width:1.0;stroke-dasharray:2.0,2.0;" x1="23.5" x2="203.5" y1="149.7266" y2="149.7266"/><text fill="#000000" font-family="sans-serif" font-size="13" lengthAdjust="spacing" textLength="152" x="30.5" y="144.6606">Request Prompt Library</text><polygon fill="#181818" points="383.5,174.8594,393.5,178.8594,383.5,182.8594,387.5,178.8594" style="stroke:#181818;stroke-width:1.0;"/><line style="stroke:#181818;stroke-width:1.0;stroke-dasharray:2.0,2.0;" x1="209.5" x2="389.5" y1="178.8594" y2="178.8594"/><text fill="#000000" font-family="sans-serif" font-size="13" lengthAdjust="spacing" textLength="152" x="216.5" y="173.7935">Request Prompt Library</text><polygon fill="#181818" points="653.5,203.9922,663.5,207.9922,653.5,211.9922,657.5,207.9922" style="stroke:#181818;stroke-width:1.0;"/><line style="stroke:#181818;stroke-width:1.0;stroke-dasharray:2.0,2.0;" x1="395.5" x2="659.5" y1="207.9922" y2="207.9922"/><text fill="#000000" font-family="sans-serif" font-size="13" lengthAdjust="spacing" textLength="246" x="402.5" y="202.9263">Authenticated Request Prompt Library</text><polygon fill="#181818" points="406.5,233.125,396.5,237.125,406.5,241.125,402.5,237.125" style="stroke:#181818;stroke-width:1.0;"/><line style="stroke:#181818;stroke-width:1.0;stroke-dasharray:2.0,2.0;" x1="400.5" x2="664.5" y1="237.125" y2="237.125"/><text fill="#000000" font-family="sans-serif" font-size="13" lengthAdjust="spacing" textLength="162" x="412.5" y="232.0591">Response Prompt Library</text><polygon fill="#181818" points="220.5,262.2578,210.5,266.2578,220.5,270.2578,216.5,266.2578" style="stroke:#181818;stroke-width:1.0;"/><line style="stroke:#181818;stroke-width:1.0;stroke-dasharray:2.0,2.0;" x1="214.5" x2="394.5" y1="266.2578" y2="266.2578"/><text fill="#000000" font-family="sans-serif" font-size="13" lengthAdjust="spacing" textLength="162" x="226.5" y="261.1919">Response Prompt Library</text><polygon fill="#181818" points="34.5,291.3906,24.5,295.3906,34.5,299.3906,30.5,295.3906" style="stroke:#181818;stroke-width:1.0;"/><line style="stroke:#181818;stroke-width:1.0;stroke-dasharray:2.0,2.0;" x1="28.5" x2="208.5" y1="295.3906" y2="295.3906"/><text fill="#000000" font-family="sans-serif" font-size="13" lengthAdjust="spacing" textLength="162" x="40.5" y="290.3247">Response Prompt Library</text><!--SRC=[TOv12i9034NtSuhGVI_WGX3KbGiHn7NQIUcWdHcJ3CNRcvOkLEmo_xyyljn3pCWum91YQdjE0u5o8QT17mHd2xB2AJIC_88zAiBnaKQ7hIQ6wYh45Q10SQRHq8QCKQ6wa05mv6J78VePwUYRcMGTQTil2jyvRr63Gb3T4llC939NOtQkG5rlJG8RkD2paEZFEcVTXFXk7R5kGiPioAveJz7se99VUp3omoavHQ4LwJBjFxDiA-l86m00]--></g></svg>