<?xml version="1.0" encoding="us-ascii" standalone="no"?><svg xmlns="http://www.w3.org/2000/svg" xmlns:xlink="http://www.w3.org/1999/xlink" contentStyleType="text/css" height="726px" preserveAspectRatio="none" style="width:718px;height:726px;background:#FFFFFF;" version="1.1" viewBox="0 0 718 726" width="718px" zoomAndPan="magnify"><defs/><g><!--cluster Courses JSON Schema 1--><g id="cluster_Courses JSON Schema 1"><path d="M8.5,30.5 L199.5,30.5 A3.75,3.75 0 0 1 202,33 L209,52.7969 L281.5,52.7969 A2.5,2.5 0 0 1 284,55.2969 L284,716.5 A2.5,2.5 0 0 1 281.5,719 L8.5,719 A2.5,2.5 0 0 1 6,716.5 L6,33 A2.5,2.5 0 0 1 8.5,30.5 " fill="none" style="stroke:#000000;stroke-width:1.5;"/><line style="stroke:#000000;stroke-width:1.5;" x1="6" x2="209" y1="52.7969" y2="52.7969"/><text fill="#000000" font-family="sans-serif" font-size="14" font-weight="bold" lengthAdjust="spacing" textLength="190" x="10" y="45.4951">Courses JSON Schema 1</text></g><!--cluster 0--><g id="cluster_0"><path d="M32.5,73.5 L43.5,73.5 A3.75,3.75 0 0 1 46,76 L53,95.7969 L257.5,95.7969 A2.5,2.5 0 0 1 260,98.2969 L260,692.5 A2.5,2.5 0 0 1 257.5,695 L32.5,695 A2.5,2.5 0 0 1 30,692.5 L30,76 A2.5,2.5 0 0 1 32.5,73.5 " fill="none" style="stroke:#000000;stroke-width:1.5;"/><line style="stroke:#000000;stroke-width:1.5;" x1="30" x2="53" y1="95.7969" y2="95.7969"/><text fill="#000000" font-family="sans-serif" font-size="14" font-weight="bold" lengthAdjust="spacing" textLength="10" x="34" y="88.4951">0</text></g><!--cluster 0--><g id="cluster_0"><rect fill="none" height="554.5" rx="2.5" ry="2.5" style="stroke:#181818;stroke-width:1.0;" width="182" x="54" y="116.5"/><text fill="#000000" font-family="sans-serif" font-size="14" font-weight="bold" lengthAdjust="spacing" textLength="10" x="140" y="131.4951">0</text></g><!--cluster Prompt JSON Schema2 1--><g id="cluster_Prompt JSON Schema2 1"><path d="M310.5,6 L507.5,6 A3.75,3.75 0 0 1 510,8.5 L517,28.2969 L708.5,28.2969 A2.5,2.5 0 0 1 711,30.7969 L711,492.5 A2.5,2.5 0 0 1 708.5,495 L310.5,495 A2.5,2.5 0 0 1 308,492.5 L308,8.5 A2.5,2.5 0 0 1 310.5,6 " fill="none" style="stroke:#000000;stroke-width:1.5;"/><line style="stroke:#000000;stroke-width:1.5;" x1="308" x2="517" y1="28.2969" y2="28.2969"/><text fill="#000000" font-family="sans-serif" font-size="14" font-weight="bold" lengthAdjust="spacing" textLength="196" x="312" y="20.9951">Prompt JSON Schema2 1</text></g><!--cluster 0--><g id="cluster_0"><path d="M334.5,49 L345.5,49 A3.75,3.75 0 0 1 348,51.5 L355,71.2969 L684.5,71.2969 A2.5,2.5 0 0 1 687,73.7969 L687,468.5 A2.5,2.5 0 0 1 684.5,471 L334.5,471 A2.5,2.5 0 0 1 332,468.5 L332,51.5 A2.5,2.5 0 0 1 334.5,49 " fill="none" style="stroke:#000000;stroke-width:1.5;"/><line style="stroke:#000000;stroke-width:1.5;" x1="332" x2="355" y1="71.2969" y2="71.2969"/><text fill="#000000" font-family="sans-serif" font-size="14" font-weight="bold" lengthAdjust="spacing" textLength="10" x="336" y="63.9951">0</text></g><!--cluster 0--><g id="cluster_0"><rect fill="none" height="355" rx="2.5" ry="2.5" style="stroke:#181818;stroke-width:1.0;" width="307" x="356" y="92"/><text fill="#000000" font-family="sans-serif" font-size="14" font-weight="bold" lengthAdjust="spacing" textLength="10" x="504.5" y="106.9951">0</text></g><!--class Course--><g id="elem_Course"><rect codeLine="2" fill="#F1F1F1" height="96.8906" id="Course" rx="2.5" ry="2.5" style="stroke:#181818;stroke-width:0.5;" width="149" x="70.5" y="151.5"/><ellipse cx="116.25" cy="167.5" fill="#ADD1B2" rx="11" ry="11" style="stroke:#181818;stroke-width:1.0;"/><path d="M118.5938,163.1719 C117.6563,162.7344 117.0625,162.5938 116.1875,162.5938 C113.5625,162.5938 111.5625,164.6719 111.5625,167.3906 L111.5625,168.5156 C111.5625,171.0938 113.6719,172.9844 116.5625,172.9844 C117.7813,172.9844 118.9375,172.6875 119.6875,172.1406 C120.2656,171.7344 120.5938,171.2813 120.5938,170.8906 C120.5938,170.4375 120.2031,170.0469 119.7344,170.0469 C119.5156,170.0469 119.3125,170.125 119.125,170.3125 C118.6719,170.7969 118.6719,170.7969 118.4844,170.8906 C118.0625,171.1563 117.375,171.2813 116.6094,171.2813 C114.5625,171.2813 113.2656,170.1875 113.2656,168.4844 L113.2656,167.3906 C113.2656,165.6094 114.5156,164.2969 116.25,164.2969 C116.8281,164.2969 117.4375,164.4531 117.9063,164.7031 C118.3906,164.9844 118.5625,165.2031 118.6563,165.6094 C118.7188,166.0156 118.75,166.1406 118.8906,166.2656 C119.0313,166.4063 119.2656,166.5156 119.4844,166.5156 C119.75,166.5156 120.0156,166.375 120.1875,166.1563 C120.2969,166 120.3281,165.8125 120.3281,165.3906 L120.3281,163.9688 C120.3281,163.5313 120.3125,163.4063 120.2188,163.25 C120.0625,162.9844 119.7813,162.8438 119.4844,162.8438 C119.1875,162.8438 118.9844,162.9375 118.7656,163.25 L118.5938,163.1719 Z " fill="#000000"/><text fill="#000000" font-family="sans-serif" font-size="14" lengthAdjust="spacing" textLength="49" x="136.75" y="172.3467">Course</text><line style="stroke:#181818;stroke-width:0.5;" x1="71.5" x2="218.5" y1="183.5" y2="183.5"/><text fill="#000000" font-family="sans-serif" font-size="14" lengthAdjust="spacing" textLength="49" x="76.5" y="200.4951">_id: int</text><text fill="#000000" font-family="sans-serif" font-size="14" lengthAdjust="spacing" textLength="86" x="76.5" y="216.792">Title: String</text><text fill="#000000" font-family="sans-serif" font-size="14" lengthAdjust="spacing" textLength="137" x="76.5" y="233.0889">Description: String</text><line style="stroke:#181818;stroke-width:0.5;" x1="71.5" x2="218.5" y1="240.3906" y2="240.3906"/></g><!--class Stage--><g id="elem_Stage"><rect codeLine="8" fill="#F1F1F1" height="80.5938" id="Stage" rx="2.5" ry="2.5" style="stroke:#181818;stroke-width:0.5;" width="98" x="96" y="350"/><ellipse cx="121.8" cy="366" fill="#ADD1B2" rx="11" ry="11" style="stroke:#181818;stroke-width:1.0;"/><path d="M124.1438,361.6719 C123.2063,361.2344 122.6125,361.0938 121.7375,361.0938 C119.1125,361.0938 117.1125,363.1719 117.1125,365.8906 L117.1125,367.0156 C117.1125,369.5938 119.2219,371.4844 122.1125,371.4844 C123.3313,371.4844 124.4875,371.1875 125.2375,370.6406 C125.8156,370.2344 126.1438,369.7813 126.1438,369.3906 C126.1438,368.9375 125.7531,368.5469 125.2844,368.5469 C125.0656,368.5469 124.8625,368.625 124.675,368.8125 C124.2219,369.2969 124.2219,369.2969 124.0344,369.3906 C123.6125,369.6563 122.925,369.7813 122.1594,369.7813 C120.1125,369.7813 118.8156,368.6875 118.8156,366.9844 L118.8156,365.8906 C118.8156,364.1094 120.0656,362.7969 121.8,362.7969 C122.3781,362.7969 122.9875,362.9531 123.4563,363.2031 C123.9406,363.4844 124.1125,363.7031 124.2063,364.1094 C124.2688,364.5156 124.3,364.6406 124.4406,364.7656 C124.5813,364.9063 124.8156,365.0156 125.0344,365.0156 C125.3,365.0156 125.5656,364.875 125.7375,364.6563 C125.8469,364.5 125.8781,364.3125 125.8781,363.8906 L125.8781,362.4688 C125.8781,362.0313 125.8625,361.9063 125.7688,361.75 C125.6125,361.4844 125.3313,361.3438 125.0344,361.3438 C124.7375,361.3438 124.5344,361.4375 124.3156,361.75 L124.1438,361.6719 Z " fill="#000000"/><text fill="#000000" font-family="sans-serif" font-size="14" lengthAdjust="spacing" textLength="42" x="138.2" y="370.8467">Stage</text><line style="stroke:#181818;stroke-width:0.5;" x1="97" x2="193" y1="382" y2="382"/><text fill="#000000" font-family="sans-serif" font-size="14" lengthAdjust="spacing" textLength="49" x="102" y="398.9951">_id: int</text><text fill="#000000" font-family="sans-serif" font-size="14" lengthAdjust="spacing" textLength="86" x="102" y="415.292">Title: String</text><line style="stroke:#181818;stroke-width:0.5;" x1="97" x2="193" y1="422.5938" y2="422.5938"/></g><!--class Block--><g id="elem_Block"><rect codeLine="13" fill="#F1F1F1" height="96.8906" id="Block" rx="2.5" ry="2.5" style="stroke:#181818;stroke-width:0.5;" width="141" x="74.5" y="558"/><ellipse cx="120.75" cy="574" fill="#ADD1B2" rx="11" ry="11" style="stroke:#181818;stroke-width:1.0;"/><path d="M123.0938,569.6719 C122.1563,569.2344 121.5625,569.0938 120.6875,569.0938 C118.0625,569.0938 116.0625,571.1719 116.0625,573.8906 L116.0625,575.0156 C116.0625,577.5938 118.1719,579.4844 121.0625,579.4844 C122.2813,579.4844 123.4375,579.1875 124.1875,578.6406 C124.7656,578.2344 125.0938,577.7813 125.0938,577.3906 C125.0938,576.9375 124.7031,576.5469 124.2344,576.5469 C124.0156,576.5469 123.8125,576.625 123.625,576.8125 C123.1719,577.2969 123.1719,577.2969 122.9844,577.3906 C122.5625,577.6563 121.875,577.7813 121.1094,577.7813 C119.0625,577.7813 117.7656,576.6875 117.7656,574.9844 L117.7656,573.8906 C117.7656,572.1094 119.0156,570.7969 120.75,570.7969 C121.3281,570.7969 121.9375,570.9531 122.4063,571.2031 C122.8906,571.4844 123.0625,571.7031 123.1563,572.1094 C123.2188,572.5156 123.25,572.6406 123.3906,572.7656 C123.5313,572.9063 123.7656,573.0156 123.9844,573.0156 C124.25,573.0156 124.5156,572.875 124.6875,572.6563 C124.7969,572.5 124.8281,572.3125 124.8281,571.8906 L124.8281,570.4688 C124.8281,570.0313 124.8125,569.9063 124.7188,569.75 C124.5625,569.4844 124.2813,569.3438 123.9844,569.3438 C123.6875,569.3438 123.4844,569.4375 123.2656,569.75 L123.0938,569.6719 Z " fill="#000000"/><text fill="#000000" font-family="sans-serif" font-size="14" lengthAdjust="spacing" textLength="40" x="141.25" y="578.8467">Block</text><line style="stroke:#181818;stroke-width:0.5;" x1="75.5" x2="214.5" y1="590" y2="590"/><text fill="#000000" font-family="sans-serif" font-size="14" lengthAdjust="spacing" textLength="49" x="80.5" y="606.9951">_id: int</text><text fill="#000000" font-family="sans-serif" font-size="14" lengthAdjust="spacing" textLength="129" x="80.5" y="623.292">BlockType: String</text><text fill="#000000" font-family="sans-serif" font-size="14" lengthAdjust="spacing" textLength="113" x="80.5" y="639.5889">Content: String</text><line style="stroke:#181818;stroke-width:0.5;" x1="75.5" x2="214.5" y1="646.8906" y2="646.8906"/></g><!--class Prompt--><g id="elem_Prompt"><rect codeLine="24" fill="#F1F1F1" height="145.7813" id="Prompt" rx="2.5" ry="2.5" style="stroke:#181818;stroke-width:0.5;" width="149" x="402.5" y="127"/><ellipse cx="445.4" cy="143" fill="#ADD1B2" rx="11" ry="11" style="stroke:#181818;stroke-width:1.0;"/><path d="M447.7438,138.6719 C446.8063,138.2344 446.2125,138.0938 445.3375,138.0938 C442.7125,138.0938 440.7125,140.1719 440.7125,142.8906 L440.7125,144.0156 C440.7125,146.5938 442.8219,148.4844 445.7125,148.4844 C446.9313,148.4844 448.0875,148.1875 448.8375,147.6406 C449.4156,147.2344 449.7438,146.7813 449.7438,146.3906 C449.7438,145.9375 449.3531,145.5469 448.8844,145.5469 C448.6656,145.5469 448.4625,145.625 448.275,145.8125 C447.8219,146.2969 447.8219,146.2969 447.6344,146.3906 C447.2125,146.6563 446.525,146.7813 445.7594,146.7813 C443.7125,146.7813 442.4156,145.6875 442.4156,143.9844 L442.4156,142.8906 C442.4156,141.1094 443.6656,139.7969 445.4,139.7969 C445.9781,139.7969 446.5875,139.9531 447.0563,140.2031 C447.5406,140.4844 447.7125,140.7031 447.8063,141.1094 C447.8688,141.5156 447.9,141.6406 448.0406,141.7656 C448.1813,141.9063 448.4156,142.0156 448.6344,142.0156 C448.9,142.0156 449.1656,141.875 449.3375,141.6563 C449.4469,141.5 449.4781,141.3125 449.4781,140.8906 L449.4781,139.4688 C449.4781,139.0313 449.4625,138.9063 449.3688,138.75 C449.2125,138.4844 448.9313,138.3438 448.6344,138.3438 C448.3375,138.3438 448.1344,138.4375 447.9156,138.75 L447.7438,138.6719 Z " fill="#000000"/><text fill="#000000" font-family="sans-serif" font-size="14" lengthAdjust="spacing" textLength="55" x="465.6" y="147.8467">Prompt</text><line style="stroke:#181818;stroke-width:0.5;" x1="403.5" x2="550.5" y1="159" y2="159"/><text fill="#000000" font-family="sans-serif" font-size="14" lengthAdjust="spacing" textLength="49" x="408.5" y="175.9951">_id: int</text><text fill="#000000" font-family="sans-serif" font-size="14" lengthAdjust="spacing" textLength="86" x="408.5" y="192.292">Title: String</text><text fill="#000000" font-family="sans-serif" font-size="14" lengthAdjust="spacing" textLength="108" x="408.5" y="208.5889">Prompt: String</text><text fill="#000000" font-family="sans-serif" font-size="14" lengthAdjust="spacing" textLength="137" x="408.5" y="224.8857">Description: String</text><text fill="#000000" font-family="sans-serif" font-size="14" lengthAdjust="spacing" textLength="84" x="408.5" y="241.1826">Tool: String</text><text fill="#000000" font-family="sans-serif" font-size="14" lengthAdjust="spacing" textLength="89" x="408.5" y="257.4795">ToolLink: Url</text><line style="stroke:#181818;stroke-width:0.5;" x1="403.5" x2="550.5" y1="264.7813" y2="264.7813"/></g><!--class PromptPattern--><g id="elem_PromptPattern"><rect codeLine="33" fill="#F1F1F1" height="80.5938" id="PromptPattern" rx="2.5" ry="2.5" style="stroke:#181818;stroke-width:0.5;" width="142" x="372" y="350"/><ellipse cx="387" cy="366" fill="#ADD1B2" rx="11" ry="11" style="stroke:#181818;stroke-width:1.0;"/><path d="M389.3438,361.6719 C388.4063,361.2344 387.8125,361.0938 386.9375,361.0938 C384.3125,361.0938 382.3125,363.1719 382.3125,365.8906 L382.3125,367.0156 C382.3125,369.5938 384.4219,371.4844 387.3125,371.4844 C388.5313,371.4844 389.6875,371.1875 390.4375,370.6406 C391.0156,370.2344 391.3438,369.7813 391.3438,369.3906 C391.3438,368.9375 390.9531,368.5469 390.4844,368.5469 C390.2656,368.5469 390.0625,368.625 389.875,368.8125 C389.4219,369.2969 389.4219,369.2969 389.2344,369.3906 C388.8125,369.6563 388.125,369.7813 387.3594,369.7813 C385.3125,369.7813 384.0156,368.6875 384.0156,366.9844 L384.0156,365.8906 C384.0156,364.1094 385.2656,362.7969 387,362.7969 C387.5781,362.7969 388.1875,362.9531 388.6563,363.2031 C389.1406,363.4844 389.3125,363.7031 389.4063,364.1094 C389.4688,364.5156 389.5,364.6406 389.6406,364.7656 C389.7813,364.9063 390.0156,365.0156 390.2344,365.0156 C390.5,365.0156 390.7656,364.875 390.9375,364.6563 C391.0469,364.5 391.0781,364.3125 391.0781,363.8906 L391.0781,362.4688 C391.0781,362.0313 391.0625,361.9063 390.9688,361.75 C390.8125,361.4844 390.5313,361.3438 390.2344,361.3438 C389.9375,361.3438 389.7344,361.4375 389.5156,361.75 L389.3438,361.6719 Z " fill="#000000"/><text fill="#000000" font-family="sans-serif" font-size="14" lengthAdjust="spacing" textLength="110" x="401" y="370.8467">PromptPattern</text><line style="stroke:#181818;stroke-width:0.5;" x1="373" x2="513" y1="382" y2="382"/><text fill="#000000" font-family="sans-serif" font-size="14" lengthAdjust="spacing" textLength="49" x="378" y="398.9951">_id: int</text><text fill="#000000" font-family="sans-serif" font-size="14" lengthAdjust="spacing" textLength="86" x="378" y="415.292">Title: String</text><line style="stroke:#181818;stroke-width:0.5;" x1="373" x2="513" y1="422.5938" y2="422.5938"/></g><!--class Sector--><g id="elem_Sector"><rect codeLine="38" fill="#F1F1F1" height="80.5938" id="Sector" rx="2.5" ry="2.5" style="stroke:#181818;stroke-width:0.5;" width="98" x="549" y="350"/><ellipse cx="572.1" cy="366" fill="#ADD1B2" rx="11" ry="11" style="stroke:#181818;stroke-width:1.0;"/><path d="M574.4438,361.6719 C573.5063,361.2344 572.9125,361.0938 572.0375,361.0938 C569.4125,361.0938 567.4125,363.1719 567.4125,365.8906 L567.4125,367.0156 C567.4125,369.5938 569.5219,371.4844 572.4125,371.4844 C573.6313,371.4844 574.7875,371.1875 575.5375,370.6406 C576.1156,370.2344 576.4438,369.7813 576.4438,369.3906 C576.4438,368.9375 576.0531,368.5469 575.5844,368.5469 C575.3656,368.5469 575.1625,368.625 574.975,368.8125 C574.5219,369.2969 574.5219,369.2969 574.3344,369.3906 C573.9125,369.6563 573.225,369.7813 572.4594,369.7813 C570.4125,369.7813 569.1156,368.6875 569.1156,366.9844 L569.1156,365.8906 C569.1156,364.1094 570.3656,362.7969 572.1,362.7969 C572.6781,362.7969 573.2875,362.9531 573.7563,363.2031 C574.2406,363.4844 574.4125,363.7031 574.5063,364.1094 C574.5688,364.5156 574.6,364.6406 574.7406,364.7656 C574.8813,364.9063 575.1156,365.0156 575.3344,365.0156 C575.6,365.0156 575.8656,364.875 576.0375,364.6563 C576.1469,364.5 576.1781,364.3125 576.1781,363.8906 L576.1781,362.4688 C576.1781,362.0313 576.1625,361.9063 576.0688,361.75 C575.9125,361.4844 575.6313,361.3438 575.3344,361.3438 C575.0375,361.3438 574.8344,361.4375 574.6156,361.75 L574.4438,361.6719 Z " fill="#000000"/><text fill="#000000" font-family="sans-serif" font-size="14" lengthAdjust="spacing" textLength="48" x="587.9" y="370.8467">Sector</text><line style="stroke:#181818;stroke-width:0.5;" x1="550" x2="646" y1="382" y2="382"/><text fill="#000000" font-family="sans-serif" font-size="14" lengthAdjust="spacing" textLength="49" x="555" y="398.9951">_id: int</text><text fill="#000000" font-family="sans-serif" font-size="14" lengthAdjust="spacing" textLength="86" x="555" y="415.292">Title: String</text><line style="stroke:#181818;stroke-width:0.5;" x1="550" x2="646" y1="422.5938" y2="422.5938"/></g><!--link Course to Stage--><g id="link_Course_Stage"><path codeLine="19" d="M145,256.567 C145,287.868 145,302.361 145,331.905 " fill="none" id="Course-Stage" style="stroke:#181818;stroke-width:1.0;"/><line style="stroke:#181818;stroke-width:1.0;" x1="141" x2="149" y1="252.567" y2="252.567"/><line style="stroke:#181818;stroke-width:1.0;" x1="141" x2="149" y1="255.567" y2="255.567"/><line style="stroke:#181818;stroke-width:1.0;" x1="145" x2="145" y1="256.567" y2="248.567"/><line style="stroke:#181818;stroke-width:1.0;" x1="145" x2="151" y1="341.905" y2="349.905"/><line style="stroke:#181818;stroke-width:1.0;" x1="145" x2="139" y1="341.905" y2="349.905"/><line style="stroke:#181818;stroke-width:1.0;" x1="145" x2="145" y1="341.905" y2="349.905"/><ellipse cx="145" cy="335.905" fill="none" rx="4" ry="4" style="stroke:#181818;stroke-width:1.0;"/><text fill="#000000" font-family="sans-serif" font-size="13" lengthAdjust="spacing" textLength="23" x="146" y="316.0669">has</text></g><!--link Stage to Block--><g id="link_Stage_Block"><path codeLine="20" d="M145,439 C145,474.748 145,501.485 145,539.62 " fill="none" id="Stage-Block" style="stroke:#181818;stroke-width:1.0;"/><line style="stroke:#181818;stroke-width:1.0;" x1="141" x2="149" y1="435" y2="435"/><line style="stroke:#181818;stroke-width:1.0;" x1="141" x2="149" y1="438" y2="438"/><line style="stroke:#181818;stroke-width:1.0;" x1="145" x2="145" y1="439" y2="431"/><line style="stroke:#181818;stroke-width:1.0;" x1="145" x2="151" y1="549.62" y2="557.62"/><line style="stroke:#181818;stroke-width:1.0;" x1="145" x2="139" y1="549.62" y2="557.62"/><line style="stroke:#181818;stroke-width:1.0;" x1="145" x2="145" y1="549.62" y2="557.62"/><ellipse cx="145" cy="543.62" fill="none" rx="4" ry="4" style="stroke:#181818;stroke-width:1.0;"/><text fill="#000000" font-family="sans-serif" font-size="13" lengthAdjust="spacing" textLength="23" x="146" y="524.0669">has</text></g><!--link Prompt to PromptPattern--><g id="link_Prompt_PromptPattern"><path codeLine="43" d="M460.8054,290.7851 C456.0994,316.8721 455.5759,319.776 451.5599,342.044 " fill="none" id="Prompt-PromptPattern" style="stroke:#181818;stroke-width:1.0;"/><line style="stroke:#181818;stroke-width:1.0;" x1="462.5808" x2="458.0963" y1="280.9439" y2="272.0058"/><line style="stroke:#181818;stroke-width:1.0;" x1="462.5808" x2="469.9057" y1="280.9439" y2="274.1362"/><line style="stroke:#181818;stroke-width:1.0;" x1="462.5808" x2="464.001" y1="280.9439" y2="273.071"/><ellipse cx="461.5156" cy="286.8486" fill="none" rx="4" ry="4" style="stroke:#181818;stroke-width:1.0;"/><line style="stroke:#181818;stroke-width:1.0;" x1="454.7864" x2="446.9134" y1="346.6904" y2="345.2706"/><line style="stroke:#181818;stroke-width:1.0;" x1="455.3189" x2="447.4459" y1="343.7381" y2="342.3182"/><line style="stroke:#181818;stroke-width:1.0;" x1="451.5599" x2="450.14" y1="342.044" y2="349.917"/><text fill="#000000" font-family="sans-serif" font-size="13" lengthAdjust="spacing" textLength="23" x="459" y="316.0669">has</text></g><!--link Prompt to Sector--><g id="link_Prompt_Sector"><path codeLine="44" d="M527.5846,279.8033 C544.3306,305.8903 553.9752,320.9168 568.2702,343.1848 " fill="none" id="Prompt-Sector" style="stroke:#181818;stroke-width:1.0;"/><line style="stroke:#181818;stroke-width:1.0;" x1="527.5846" x2="516.5307" y1="279.8033" y2="273.071"/><line style="stroke:#181818;stroke-width:1.0;" x1="527.5846" x2="529.9953" y1="279.8033" y2="273.071"/><line style="stroke:#181818;stroke-width:1.0;" x1="527.5846" x2="523.263" y1="279.8033" y2="273.071"/><line style="stroke:#181818;stroke-width:1.0;" x1="573.7972" x2="567.065" y1="344.39" y2="348.7118"/><line style="stroke:#181818;stroke-width:1.0;" x1="572.1766" x2="565.4444" y1="341.8655" y2="346.1872"/><line style="stroke:#181818;stroke-width:1.0;" x1="568.2702" x2="572.592" y1="343.1848" y2="349.917"/><text fill="#000000" font-family="sans-serif" font-size="13" lengthAdjust="spacing" textLength="23" x="552" y="316.0669">has</text></g><!--SRC=[fL6nRW8n3Dtv2elz4EruGWpGgQfQrC2CejGweWjnbBX3nV7l73b3eQ2sjDdYv_Vy_1oqgNM5q9_IUqoOu56zF8CoArnhk1iC1yC-Z4QlQ5Zxok5u39iUjCyudH9q92djtzA-bM0z7mjpomvBK1ojhuxL1qmcsi2M_1csxPs8AzuRkqdxZ3znPEflw1cVVuHBUrFoZ9wlISl6JLCKj16B9QnqocZt5p3h2zYomo7fMQHruDEWxtzEMaWt9ztnVds0B4JahXQVhAzBM4HtcNKtPgQPCVf_t4orwrFyau0ajAMYQ9elXZulTEZAJJ9DJhG3]--></g></svg>