<?xml version="1.0" encoding="us-ascii" standalone="no"?><svg xmlns="http://www.w3.org/2000/svg" xmlns:xlink="http://www.w3.org/1999/xlink" contentStyleType="text/css" height="502px" preserveAspectRatio="none" style="width:416px;height:502px;background:#FFFFFF;" version="1.1" viewBox="0 0 416 502" width="416px" zoomAndPan="magnify"><defs/><g><!--cluster Prompt JSON Schema2 1--><g id="cluster_Prompt JSON Schema2 1"><path d="M8.5,6 L205.5,6 A3.75,3.75 0 0 1 208,8.5 L215,28.2969 L406.5,28.2969 A2.5,2.5 0 0 1 409,30.7969 L409,492.5 A2.5,2.5 0 0 1 406.5,495 L8.5,495 A2.5,2.5 0 0 1 6,492.5 L6,8.5 A2.5,2.5 0 0 1 8.5,6 " fill="none" style="stroke:#000000;stroke-width:1.5;"/><line style="stroke:#000000;stroke-width:1.5;" x1="6" x2="215" y1="28.2969" y2="28.2969"/><text fill="#000000" font-family="sans-serif" font-size="14" font-weight="bold" lengthAdjust="spacing" textLength="196" x="10" y="20.9951">Prompt JSON Schema2 1</text></g><!--cluster 0--><g id="cluster_0"><path d="M32.5,49 L43.5,49 A3.75,3.75 0 0 1 46,51.5 L53,71.2969 L382.5,71.2969 A2.5,2.5 0 0 1 385,73.7969 L385,468.5 A2.5,2.5 0 0 1 382.5,471 L32.5,471 A2.5,2.5 0 0 1 30,468.5 L30,51.5 A2.5,2.5 0 0 1 32.5,49 " fill="none" style="stroke:#000000;stroke-width:1.5;"/><line style="stroke:#000000;stroke-width:1.5;" x1="30" x2="53" y1="71.2969" y2="71.2969"/><text fill="#000000" font-family="sans-serif" font-size="14" font-weight="bold" lengthAdjust="spacing" textLength="10" x="34" y="63.9951">0</text></g><!--cluster 0--><g id="cluster_0"><rect fill="none" height="355" rx="2.5" ry="2.5" style="stroke:#181818;stroke-width:1.0;" width="307" x="54" y="92"/><text fill="#000000" font-family="sans-serif" font-size="14" font-weight="bold" lengthAdjust="spacing" textLength="10" x="202.5" y="106.9951">0</text></g><!--class Prompt--><g id="elem_Prompt"><rect codeLine="2" fill="#F1F1F1" height="145.7813" id="Prompt" rx="2.5" ry="2.5" style="stroke:#181818;stroke-width:0.5;" width="149" x="100.5" y="127"/><ellipse cx="143.4" cy="143" fill="#ADD1B2" rx="11" ry="11" style="stroke:#181818;stroke-width:1.0;"/><path d="M145.7438,138.6719 C144.8063,138.2344 144.2125,138.0938 143.3375,138.0938 C140.7125,138.0938 138.7125,140.1719 138.7125,142.8906 L138.7125,144.0156 C138.7125,146.5938 140.8219,148.4844 143.7125,148.4844 C144.9313,148.4844 146.0875,148.1875 146.8375,147.6406 C147.4156,147.2344 147.7438,146.7813 147.7438,146.3906 C147.7438,145.9375 147.3531,145.5469 146.8844,145.5469 C146.6656,145.5469 146.4625,145.625 146.275,145.8125 C145.8219,146.2969 145.8219,146.2969 145.6344,146.3906 C145.2125,146.6563 144.525,146.7813 143.7594,146.7813 C141.7125,146.7813 140.4156,145.6875 140.4156,143.9844 L140.4156,142.8906 C140.4156,141.1094 141.6656,139.7969 143.4,139.7969 C143.9781,139.7969 144.5875,139.9531 145.0563,140.2031 C145.5406,140.4844 145.7125,140.7031 145.8063,141.1094 C145.8688,141.5156 145.9,141.6406 146.0406,141.7656 C146.1813,141.9063 146.4156,142.0156 146.6344,142.0156 C146.9,142.0156 147.1656,141.875 147.3375,141.6563 C147.4469,141.5 147.4781,141.3125 147.4781,140.8906 L147.4781,139.4688 C147.4781,139.0313 147.4625,138.9063 147.3688,138.75 C147.2125,138.4844 146.9313,138.3438 146.6344,138.3438 C146.3375,138.3438 146.1344,138.4375 145.9156,138.75 L145.7438,138.6719 Z " fill="#000000"/><text fill="#000000" font-family="sans-serif" font-size="14" lengthAdjust="spacing" textLength="55" x="163.6" y="147.8467">Prompt</text><line style="stroke:#181818;stroke-width:0.5;" x1="101.5" x2="248.5" y1="159" y2="159"/><text fill="#000000" font-family="sans-serif" font-size="14" lengthAdjust="spacing" textLength="49" x="106.5" y="175.9951">_id: int</text><text fill="#000000" font-family="sans-serif" font-size="14" lengthAdjust="spacing" textLength="86" x="106.5" y="192.292">Title: String</text><text fill="#000000" font-family="sans-serif" font-size="14" lengthAdjust="spacing" textLength="108" x="106.5" y="208.5889">Prompt: String</text><text fill="#000000" font-family="sans-serif" font-size="14" lengthAdjust="spacing" textLength="137" x="106.5" y="224.8857">Description: String</text><text fill="#000000" font-family="sans-serif" font-size="14" lengthAdjust="spacing" textLength="84" x="106.5" y="241.1826">Tool: String</text><text fill="#000000" font-family="sans-serif" font-size="14" lengthAdjust="spacing" textLength="89" x="106.5" y="257.4795">ToolLink: Url</text><line style="stroke:#181818;stroke-width:0.5;" x1="101.5" x2="248.5" y1="264.7813" y2="264.7813"/></g><!--class PromptPattern--><g id="elem_PromptPattern"><rect codeLine="11" fill="#F1F1F1" height="80.5938" id="PromptPattern" rx="2.5" ry="2.5" style="stroke:#181818;stroke-width:0.5;" width="142" x="70" y="350"/><ellipse cx="85" cy="366" fill="#ADD1B2" rx="11" ry="11" style="stroke:#181818;stroke-width:1.0;"/><path d="M87.3438,361.6719 C86.4063,361.2344 85.8125,361.0938 84.9375,361.0938 C82.3125,361.0938 80.3125,363.1719 80.3125,365.8906 L80.3125,367.0156 C80.3125,369.5938 82.4219,371.4844 85.3125,371.4844 C86.5313,371.4844 87.6875,371.1875 88.4375,370.6406 C89.0156,370.2344 89.3438,369.7813 89.3438,369.3906 C89.3438,368.9375 88.9531,368.5469 88.4844,368.5469 C88.2656,368.5469 88.0625,368.625 87.875,368.8125 C87.4219,369.2969 87.4219,369.2969 87.2344,369.3906 C86.8125,369.6563 86.125,369.7813 85.3594,369.7813 C83.3125,369.7813 82.0156,368.6875 82.0156,366.9844 L82.0156,365.8906 C82.0156,364.1094 83.2656,362.7969 85,362.7969 C85.5781,362.7969 86.1875,362.9531 86.6563,363.2031 C87.1406,363.4844 87.3125,363.7031 87.4063,364.1094 C87.4688,364.5156 87.5,364.6406 87.6406,364.7656 C87.7813,364.9063 88.0156,365.0156 88.2344,365.0156 C88.5,365.0156 88.7656,364.875 88.9375,364.6563 C89.0469,364.5 89.0781,364.3125 89.0781,363.8906 L89.0781,362.4688 C89.0781,362.0313 89.0625,361.9063 88.9688,361.75 C88.8125,361.4844 88.5313,361.3438 88.2344,361.3438 C87.9375,361.3438 87.7344,361.4375 87.5156,361.75 L87.3438,361.6719 Z " fill="#000000"/><text fill="#000000" font-family="sans-serif" font-size="14" lengthAdjust="spacing" textLength="110" x="99" y="370.8467">PromptPattern</text><line style="stroke:#181818;stroke-width:0.5;" x1="71" x2="211" y1="382" y2="382"/><text fill="#000000" font-family="sans-serif" font-size="14" lengthAdjust="spacing" textLength="49" x="76" y="398.9951">_id: int</text><text fill="#000000" font-family="sans-serif" font-size="14" lengthAdjust="spacing" textLength="86" x="76" y="415.292">Title: String</text><line style="stroke:#181818;stroke-width:0.5;" x1="71" x2="211" y1="422.5938" y2="422.5938"/></g><!--class Sector--><g id="elem_Sector"><rect codeLine="16" fill="#F1F1F1" height="80.5938" id="Sector" rx="2.5" ry="2.5" style="stroke:#181818;stroke-width:0.5;" width="98" x="247" y="350"/><ellipse cx="270.1" cy="366" fill="#ADD1B2" rx="11" ry="11" style="stroke:#181818;stroke-width:1.0;"/><path d="M272.4438,361.6719 C271.5063,361.2344 270.9125,361.0938 270.0375,361.0938 C267.4125,361.0938 265.4125,363.1719 265.4125,365.8906 L265.4125,367.0156 C265.4125,369.5938 267.5219,371.4844 270.4125,371.4844 C271.6313,371.4844 272.7875,371.1875 273.5375,370.6406 C274.1156,370.2344 274.4438,369.7813 274.4438,369.3906 C274.4438,368.9375 274.0531,368.5469 273.5844,368.5469 C273.3656,368.5469 273.1625,368.625 272.975,368.8125 C272.5219,369.2969 272.5219,369.2969 272.3344,369.3906 C271.9125,369.6563 271.225,369.7813 270.4594,369.7813 C268.4125,369.7813 267.1156,368.6875 267.1156,366.9844 L267.1156,365.8906 C267.1156,364.1094 268.3656,362.7969 270.1,362.7969 C270.6781,362.7969 271.2875,362.9531 271.7563,363.2031 C272.2406,363.4844 272.4125,363.7031 272.5063,364.1094 C272.5688,364.5156 272.6,364.6406 272.7406,364.7656 C272.8813,364.9063 273.1156,365.0156 273.3344,365.0156 C273.6,365.0156 273.8656,364.875 274.0375,364.6563 C274.1469,364.5 274.1781,364.3125 274.1781,363.8906 L274.1781,362.4688 C274.1781,362.0313 274.1625,361.9063 274.0688,361.75 C273.9125,361.4844 273.6313,361.3438 273.3344,361.3438 C273.0375,361.3438 272.8344,361.4375 272.6156,361.75 L272.4438,361.6719 Z " fill="#000000"/><text fill="#000000" font-family="sans-serif" font-size="14" lengthAdjust="spacing" textLength="48" x="285.9" y="370.8467">Sector</text><line style="stroke:#181818;stroke-width:0.5;" x1="248" x2="344" y1="382" y2="382"/><text fill="#000000" font-family="sans-serif" font-size="14" lengthAdjust="spacing" textLength="49" x="253" y="398.9951">_id: int</text><text fill="#000000" font-family="sans-serif" font-size="14" lengthAdjust="spacing" textLength="86" x="253" y="415.292">Title: String</text><line style="stroke:#181818;stroke-width:0.5;" x1="248" x2="344" y1="422.5938" y2="422.5938"/></g><!--link Prompt to PromptPattern--><g id="link_Prompt_PromptPattern"><path codeLine="21" d="M158.8054,290.7851 C154.0994,316.8721 153.5759,319.776 149.5599,342.044 " fill="none" id="Prompt-PromptPattern" style="stroke:#181818;stroke-width:1.0;"/><line style="stroke:#181818;stroke-width:1.0;" x1="160.5808" x2="156.0963" y1="280.9439" y2="272.0058"/><line style="stroke:#181818;stroke-width:1.0;" x1="160.5808" x2="167.9057" y1="280.9439" y2="274.1362"/><line style="stroke:#181818;stroke-width:1.0;" x1="160.5808" x2="162.001" y1="280.9439" y2="273.071"/><ellipse cx="159.5156" cy="286.8486" fill="none" rx="4" ry="4" style="stroke:#181818;stroke-width:1.0;"/><line style="stroke:#181818;stroke-width:1.0;" x1="152.7864" x2="144.9134" y1="346.6904" y2="345.2706"/><line style="stroke:#181818;stroke-width:1.0;" x1="153.3189" x2="145.4459" y1="343.7381" y2="342.3182"/><line style="stroke:#181818;stroke-width:1.0;" x1="149.5599" x2="148.14" y1="342.044" y2="349.917"/><text fill="#000000" font-family="sans-serif" font-size="13" lengthAdjust="spacing" textLength="23" x="157" y="316.0669">has</text></g><!--link Prompt to Sector--><g id="link_Prompt_Sector"><path codeLine="22" d="M230.9867,288.2186 C247.7327,314.3056 251.9752,320.9168 266.2702,343.1848 " fill="none" id="Prompt-Sector" style="stroke:#181818;stroke-width:1.0;"/><line style="stroke:#181818;stroke-width:1.0;" x1="225.5846" x2="216.2138" y1="279.8033" y2="276.3122"/><line style="stroke:#181818;stroke-width:1.0;" x1="225.5846" x2="226.3122" y1="279.8033" y2="269.8298"/><line style="stroke:#181818;stroke-width:1.0;" x1="225.5846" x2="221.263" y1="279.8033" y2="273.071"/><ellipse cx="228.8259" cy="284.8525" fill="none" rx="4" ry="4" style="stroke:#181818;stroke-width:1.0;"/><line style="stroke:#181818;stroke-width:1.0;" x1="271.7972" x2="265.065" y1="344.39" y2="348.7118"/><line style="stroke:#181818;stroke-width:1.0;" x1="270.1766" x2="263.4444" y1="341.8655" y2="346.1872"/><line style="stroke:#181818;stroke-width:1.0;" x1="266.2702" x2="270.592" y1="343.1848" y2="349.917"/><text fill="#000000" font-family="sans-serif" font-size="13" lengthAdjust="spacing" textLength="23" x="250" y="316.0669">has</text></g><!--SRC=[dP0_3u8m4CLtFiM57OAE3M5oCaQ8nTbSQWCDfINjRS9t5uMGA2pwnj-xF- -kGz5W9I4id6qxWYFFpy15BLlSmovEuYI4DBr8GMWgBRCC7W6C4XgzXxbfGY_Tr9s1ChI0Kf6M33WvPQg5JdqhV91UEDMHicRbbTRgJNXIfc5mTVfDXs0Lhq0YwSnlAJ_cyF5yw_uQC7zei57Kzr-16DJeDwhcTPCzF040]--></g></svg>