<?xml version="1.0" encoding="us-ascii" standalone="no"?><svg xmlns="http://www.w3.org/2000/svg" xmlns:xlink="http://www.w3.org/1999/xlink" contentStyleType="text/css" height="627px" preserveAspectRatio="none" style="width:465px;height:627px;background:#FFFFFF;" version="1.1" viewBox="0 0 465 627" width="465px" zoomAndPan="magnify"><defs/><g><g id="elem_User"><rect fill="#F1F1F1" height="60.8906" style="stroke:#181818;stroke-width:0.5;" width="67" x="261" y="7"/><text fill="#000000" font-family="sans-serif" font-size="14" lengthAdjust="spacing" textLength="31" x="279" y="21.9951">User</text><line style="stroke:#181818;stroke-width:0.5;" x1="262" x2="327" y1="27.2969" y2="27.2969"/><ellipse cx="272" cy="40.9453" fill="none" rx="3" ry="3" style="stroke:#038048;stroke-width:1.0;"/><text fill="#000000" font-family="sans-serif" font-size="14" lengthAdjust="spacing" textLength="41" x="281" y="44.292">Name</text><ellipse cx="272" cy="57.2422" fill="none" rx="3" ry="3" style="stroke:#038048;stroke-width:1.0;"/><text fill="#000000" font-family="sans-serif" font-size="14" lengthAdjust="spacing" textLength="36" x="281" y="60.5889">Type</text></g><g id="elem_CommunityOfPractice"><rect fill="#F1F1F1" height="60.8906" style="stroke:#181818;stroke-width:0.5;" width="173" x="43" y="153"/><text fill="#000000" font-family="sans-serif" font-size="14" lengthAdjust="spacing" textLength="159" x="50" y="167.9951">CommunityOfPractice</text><line style="stroke:#181818;stroke-width:0.5;" x1="44" x2="215" y1="173.2969" y2="173.2969"/><ellipse cx="54" cy="186.9453" fill="none" rx="3" ry="3" style="stroke:#038048;stroke-width:1.0;"/><text fill="#000000" font-family="sans-serif" font-size="14" lengthAdjust="spacing" textLength="66" x="63" y="190.292">Practices</text><ellipse cx="54" cy="203.2422" fill="none" rx="3" ry="3" style="stroke:#038048;stroke-width:1.0;"/><text fill="#000000" font-family="sans-serif" font-size="14" lengthAdjust="spacing" textLength="68" x="63" y="206.5889">Use cases</text></g><g id="elem_Practice"><rect fill="#F1F1F1" height="77.1875" style="stroke:#181818;stroke-width:0.5;" width="81" x="7" y="421.5"/><text fill="#000000" font-family="sans-serif" font-size="14" lengthAdjust="spacing" textLength="59" x="18" y="436.4951">Practice</text><line style="stroke:#181818;stroke-width:0.5;" x1="8" x2="87" y1="441.7969" y2="441.7969"/><ellipse cx="18" cy="455.4453" fill="none" rx="3" ry="3" style="stroke:#038048;stroke-width:1.0;"/><text fill="#000000" font-family="sans-serif" font-size="14" lengthAdjust="spacing" textLength="33" x="27" y="458.792">Title</text><ellipse cx="18" cy="471.7422" fill="none" rx="3" ry="3" style="stroke:#038048;stroke-width:1.0;"/><text fill="#000000" font-family="sans-serif" font-size="14" lengthAdjust="spacing" textLength="55" x="27" y="475.0889">Prompt</text><ellipse cx="18" cy="488.0391" fill="none" rx="3" ry="3" style="stroke:#038048;stroke-width:1.0;"/><text fill="#000000" font-family="sans-serif" font-size="14" lengthAdjust="spacing" textLength="35" x="27" y="491.3857">Date</text></g><g id="elem_UseCase"><rect fill="#F1F1F1" height="321.6406" style="stroke:#181818;stroke-width:0.5;" width="179" x="123" y="299"/><text fill="#000000" font-family="sans-serif" font-size="14" lengthAdjust="spacing" textLength="59" x="183" y="313.9951">UseCase</text><line style="stroke:#181818;stroke-width:0.5;" x1="124" x2="301" y1="319.2969" y2="319.2969"/><ellipse cx="134" cy="332.9453" fill="none" rx="3" ry="3" style="stroke:#038048;stroke-width:1.0;"/><text fill="#000000" font-family="sans-serif" font-size="14" lengthAdjust="spacing" textLength="93" x="143" y="336.292">ProjectName</text><ellipse cx="134" cy="349.2422" fill="none" rx="3" ry="3" style="stroke:#038048;stroke-width:1.0;"/><text fill="#000000" font-family="sans-serif" font-size="14" lengthAdjust="spacing" textLength="146" x="143" y="352.5889">ContactPersonEmail</text><ellipse cx="134" cy="365.5391" fill="none" rx="3" ry="3" style="stroke:#038048;stroke-width:1.0;"/><text fill="#000000" font-family="sans-serif" font-size="14" lengthAdjust="spacing" textLength="102" x="143" y="368.8857">ProductOwner</text><ellipse cx="134" cy="381.8359" fill="none" rx="3" ry="3" style="stroke:#038048;stroke-width:1.0;"/><text fill="#000000" font-family="sans-serif" font-size="14" lengthAdjust="spacing" textLength="40" x="143" y="385.1826">Minor</text><ellipse cx="134" cy="398.1328" fill="none" rx="3" ry="3" style="stroke:#038048;stroke-width:1.0;"/><text fill="#000000" font-family="sans-serif" font-size="14" lengthAdjust="spacing" textLength="94" x="143" y="401.4795">ProjectPhase</text><ellipse cx="134" cy="414.4297" fill="none" rx="3" ry="3" style="stroke:#038048;stroke-width:1.0;"/><text fill="#000000" font-family="sans-serif" font-size="14" lengthAdjust="spacing" textLength="135" x="143" y="417.7764">ValueChainActivity</text><ellipse cx="134" cy="430.7266" fill="none" rx="3" ry="3" style="stroke:#038048;stroke-width:1.0;"/><text fill="#000000" font-family="sans-serif" font-size="14" lengthAdjust="spacing" textLength="64" x="143" y="434.0732">SBI-code</text><ellipse cx="134" cy="447.0234" fill="none" rx="3" ry="3" style="stroke:#038048;stroke-width:1.0;"/><text fill="#000000" font-family="sans-serif" font-size="14" lengthAdjust="spacing" textLength="83" x="143" y="450.3701">Innovations</text><ellipse cx="134" cy="463.3203" fill="none" rx="3" ry="3" style="stroke:#038048;stroke-width:1.0;"/><text fill="#000000" font-family="sans-serif" font-size="14" lengthAdjust="spacing" textLength="102" x="143" y="466.667">TechProviders</text><ellipse cx="134" cy="479.6172" fill="none" rx="3" ry="3" style="stroke:#038048;stroke-width:1.0;"/><text fill="#000000" font-family="sans-serif" font-size="14" lengthAdjust="spacing" textLength="92" x="143" y="482.9639">TechThemes</text><ellipse cx="134" cy="495.9141" fill="none" rx="3" ry="3" style="stroke:#038048;stroke-width:1.0;"/><text fill="#000000" font-family="sans-serif" font-size="14" lengthAdjust="spacing" textLength="38" x="143" y="499.2607">SDGs</text><ellipse cx="134" cy="512.2109" fill="none" rx="3" ry="3" style="stroke:#038048;stroke-width:1.0;"/><text fill="#000000" font-family="sans-serif" font-size="14" lengthAdjust="spacing" textLength="146" x="143" y="515.5576">PositiveSDGImpacts</text><ellipse cx="134" cy="528.5078" fill="none" rx="3" ry="3" style="stroke:#038048;stroke-width:1.0;"/><text fill="#000000" font-family="sans-serif" font-size="14" lengthAdjust="spacing" textLength="153" x="143" y="531.8545">NegativeSDGImpacts</text><ellipse cx="134" cy="544.8047" fill="none" rx="3" ry="3" style="stroke:#038048;stroke-width:1.0;"/><text fill="#000000" font-family="sans-serif" font-size="14" lengthAdjust="spacing" textLength="137" x="143" y="548.1514">ProjectBackground</text><ellipse cx="134" cy="561.1016" fill="none" rx="3" ry="3" style="stroke:#038048;stroke-width:1.0;"/><text fill="#000000" font-family="sans-serif" font-size="14" lengthAdjust="spacing" textLength="84" x="143" y="564.4482">ProjectGoal</text><ellipse cx="134" cy="577.3984" fill="none" rx="3" ry="3" style="stroke:#038048;stroke-width:1.0;"/><text fill="#000000" font-family="sans-serif" font-size="14" lengthAdjust="spacing" textLength="82" x="143" y="580.7451">ProjectLink</text><ellipse cx="134" cy="593.6953" fill="none" rx="3" ry="3" style="stroke:#038048;stroke-width:1.0;"/><text fill="#000000" font-family="sans-serif" font-size="14" lengthAdjust="spacing" textLength="123" x="143" y="597.042">ProjectVideoLink</text><ellipse cx="134" cy="609.9922" fill="none" rx="3" ry="3" style="stroke:#038048;stroke-width:1.0;"/><text fill="#000000" font-family="sans-serif" font-size="14" lengthAdjust="spacing" textLength="103" x="143" y="613.3389">ProjectPicture</text></g><g id="elem_News"><rect fill="#F1F1F1" height="77.1875" style="stroke:#181818;stroke-width:0.5;" width="86" x="251.5" y="145"/><text fill="#000000" font-family="sans-serif" font-size="14" lengthAdjust="spacing" textLength="37" x="276" y="159.9951">News</text><line style="stroke:#181818;stroke-width:0.5;" x1="252.5" x2="336.5" y1="165.2969" y2="165.2969"/><ellipse cx="262.5" cy="178.9453" fill="none" rx="3" ry="3" style="stroke:#038048;stroke-width:1.0;"/><text fill="#000000" font-family="sans-serif" font-size="14" lengthAdjust="spacing" textLength="33" x="271.5" y="182.292">Title</text><ellipse cx="262.5" cy="195.2422" fill="none" rx="3" ry="3" style="stroke:#038048;stroke-width:1.0;"/><text fill="#000000" font-family="sans-serif" font-size="14" lengthAdjust="spacing" textLength="60" x="271.5" y="198.5889">Content</text><ellipse cx="262.5" cy="211.5391" fill="none" rx="3" ry="3" style="stroke:#038048;stroke-width:1.0;"/><text fill="#000000" font-family="sans-serif" font-size="14" lengthAdjust="spacing" textLength="35" x="271.5" y="214.8857">Date</text></g><g id="elem_Course"><rect fill="#F1F1F1" height="44.5938" style="stroke:#181818;stroke-width:0.5;" width="86" x="372.5" y="161"/><text fill="#000000" font-family="sans-serif" font-size="14" lengthAdjust="spacing" textLength="49" x="391" y="175.9951">Course</text><line style="stroke:#181818;stroke-width:0.5;" x1="373.5" x2="457.5" y1="181.2969" y2="181.2969"/><ellipse cx="383.5" cy="194.9453" fill="none" rx="3" ry="3" style="stroke:#038048;stroke-width:1.0;"/><text fill="#000000" font-family="sans-serif" font-size="14" lengthAdjust="spacing" textLength="60" x="392.5" y="198.292">Content</text></g><!--link CommunityOfPractice to UseCase--><g id="link_CommunityOfPractice_UseCase"><path codeLine="48" d="M138.461,214.137 C144.938,235.556 152.5104,260.6018 162.3534,293.1548 " fill="none" id="CommunityOfPractice-to-UseCase" style="stroke:#181818;stroke-width:1.0;"/><polygon fill="#181818" points="164.09,298.898,165.314,289.1255,162.6429,294.112,157.6564,291.4409,164.09,298.898" style="stroke:#181818;stroke-width:1.0;"/><text fill="#000000" font-family="sans-serif" font-size="13" lengthAdjust="spacing" textLength="56" x="155.5" y="265.0669">Contains</text></g><!--link CommunityOfPractice to Practice--><g id="link_CommunityOfPractice_Practice"><path codeLine="49" d="M120.647,214.137 C105.6552,264.322 77.0145,360.199 60.5133,415.437 " fill="none" id="CommunityOfPractice-to-Practice" style="stroke:#181818;stroke-width:1.0;"/><polygon fill="#181818" points="58.7959,421.186,65.2046,413.7075,60.2271,416.3952,57.5393,411.4176,58.7959,421.186" style="stroke:#181818;stroke-width:1.0;"/><text fill="#000000" font-family="sans-serif" font-size="13" lengthAdjust="spacing" textLength="24" x="109.5" y="265.0669">Has</text></g><!--link User to CommunityOfPractice--><g id="link_User_CommunityOfPractice"><path codeLine="51" d="M255.8118,59.6955 C237.3358,70.4935 219.703,82.127 201.5,98 C182.761,114.34 168.3173,130.9396 154.9353,148.0806 " fill="none" id="User-CommunityOfPractice" style="stroke:#181818;stroke-width:1.0;"/><polygon fill="#181818" points="260.992,56.668,251.2034,57.7558,256.6752,59.1909,255.24,64.6627,260.992,56.668" style="stroke:#181818;stroke-width:1.0;"/><polygon fill="#181818" points="151.243,152.81,159.9343,148.1774,154.3199,148.8688,153.6284,143.2544,151.243,152.81" style="stroke:#181818;stroke-width:1.0;"/><text fill="#000000" font-family="sans-serif" font-size="13" lengthAdjust="spacing" textLength="83" x="202.5" y="111.0669">Takes part in</text></g><!--link User to News--><g id="link_User_News"><path codeLine="53" d="M294.5,68.337 C294.5,90.497 294.5,114.885 294.5,138.738 " fill="none" id="User-to-News" style="stroke:#181818;stroke-width:1.0;"/><polygon fill="#181818" points="294.5,144.738,298.5,135.738,294.5,139.738,290.5,135.738,294.5,144.738" style="stroke:#181818;stroke-width:1.0;"/><text fill="#000000" font-family="sans-serif" font-size="13" lengthAdjust="spacing" textLength="40" x="295.5" y="111.0669">Reads</text></g><!--link User to Course--><g id="link_User_Course"><path codeLine="55" d="M319.571,68.337 C342.691,95.852 372.6101,131.4574 393.3021,156.0824 " fill="none" id="User-to-Course" style="stroke:#181818;stroke-width:1.0;"/><polygon fill="#181818" points="397.162,160.676,394.4345,151.2123,393.9454,156.848,388.3097,156.3589,397.162,160.676" style="stroke:#181818;stroke-width:1.0;"/><text fill="#000000" font-family="sans-serif" font-size="13" lengthAdjust="spacing" textLength="38" x="360.5" y="111.0669">Takes</text></g><!--SRC=[TLB1Ri8m3BttAtAV-WFLD6cKYI5jK8sEkvTwDAEDgoG5eMd_FXVIaegIK_py_FnYXxv-K3hnQT68tqZmUH0hgD5VyrE3qLyKqOMMKbstMhdJ-Zip89sIE5JrWFKnIme9bkDh_KrHhbo5Wm3LZVF175pOcCLIrWgQKOS7JbFIZiKpD9RqImsgkbABLhhrKQFnqBlIPCPAMSdo7jf2rM9QWjBFxFR0p_M9pMmPIofwtb9hEe1JfFitvoXB5ZoeWcq4M5vYFGncCr_qruoiuWx8qB9ks7wVME4E9XFUxWpaVcUerSKONn1KO-HDwVqOsR8xkeKp9Lrhmg6ly6WdDzND6lMTLQNKcc1JFPS9KxydZf-6vIQN9IeUvptg42JY5MmKdV_jOvUPgaX43dkqeW7ZXDAUth7FJql41q9X0zXxztN_]--></g></svg>