<?xml version="1.0" encoding="us-ascii" standalone="no"?><svg xmlns="http://www.w3.org/2000/svg" xmlns:xlink="http://www.w3.org/1999/xlink" contentStyleType="text/css" height="383px" preserveAspectRatio="none" style="width:570px;height:383px;background:#FFFFFF;" version="1.1" viewBox="0 0 570 383" width="570px" zoomAndPan="magnify"><defs/><g><!--cluster E-commerce Domain Model--><g id="cluster_E-commerce Domain Model"><rect fill="none" height="370" rx="2.5" ry="2.5" style="stroke:#181818;stroke-width:1.0;" width="557" x="7" y="7"/><text fill="#000000" font-family="sans-serif" font-size="14" font-weight="bold" lengthAdjust="spacing" textLength="217" x="177" y="21.9951">E-commerce Domain Model</text></g><!--class User--><g id="elem_User"><rect codeLine="2" fill="#F1F1F1" height="129.4844" id="User" rx="2.5" ry="2.5" style="stroke:#181818;stroke-width:0.5;" width="97" x="378.5" y="42"/><ellipse cx="408.8" cy="58" fill="#ADD1B2" rx="11" ry="11" style="stroke:#181818;stroke-width:1.0;"/><path d="M411.1438,53.6719 C410.2063,53.2344 409.6125,53.0938 408.7375,53.0938 C406.1125,53.0938 404.1125,55.1719 404.1125,57.8906 L404.1125,59.0156 C404.1125,61.5938 406.2219,63.4844 409.1125,63.4844 C410.3313,63.4844 411.4875,63.1875 412.2375,62.6406 C412.8156,62.2344 413.1438,61.7813 413.1438,61.3906 C413.1438,60.9375 412.7531,60.5469 412.2844,60.5469 C412.0656,60.5469 411.8625,60.625 411.675,60.8125 C411.2219,61.2969 411.2219,61.2969 411.0344,61.3906 C410.6125,61.6563 409.925,61.7813 409.1594,61.7813 C407.1125,61.7813 405.8156,60.6875 405.8156,58.9844 L405.8156,57.8906 C405.8156,56.1094 407.0656,54.7969 408.8,54.7969 C409.3781,54.7969 409.9875,54.9531 410.4563,55.2031 C410.9406,55.4844 411.1125,55.7031 411.2063,56.1094 C411.2688,56.5156 411.3,56.6406 411.4406,56.7656 C411.5813,56.9063 411.8156,57.0156 412.0344,57.0156 C412.3,57.0156 412.5656,56.875 412.7375,56.6563 C412.8469,56.5 412.8781,56.3125 412.8781,55.8906 L412.8781,54.4688 C412.8781,54.0313 412.8625,53.9063 412.7688,53.75 C412.6125,53.4844 412.3313,53.3438 412.0344,53.3438 C411.7375,53.3438 411.5344,53.4375 411.3156,53.75 L411.1438,53.6719 Z " fill="#000000"/><text fill="#000000" font-family="sans-serif" font-size="14" lengthAdjust="spacing" textLength="31" x="426.2" y="62.8467">User</text><line style="stroke:#181818;stroke-width:0.5;" x1="379.5" x2="474.5" y1="74" y2="74"/><ellipse cx="389.5" cy="87.6484" fill="none" rx="3" ry="3" style="stroke:#038048;stroke-width:1.0;"/><text fill="#000000" font-family="sans-serif" font-size="14" lengthAdjust="spacing" textLength="71" x="398.5" y="90.9951">Username</text><ellipse cx="389.5" cy="103.9453" fill="none" rx="3" ry="3" style="stroke:#038048;stroke-width:1.0;"/><text fill="#000000" font-family="sans-serif" font-size="14" lengthAdjust="spacing" textLength="39" x="398.5" y="107.292">Email</text><ellipse cx="389.5" cy="120.2422" fill="none" rx="3" ry="3" style="stroke:#038048;stroke-width:1.0;"/><text fill="#000000" font-family="sans-serif" font-size="14" lengthAdjust="spacing" textLength="66" x="398.5" y="123.5889">Password</text><line style="stroke:#181818;stroke-width:0.5;" x1="379.5" x2="474.5" y1="130.8906" y2="130.8906"/><ellipse cx="389.5" cy="144.5391" fill="#84BE84" rx="3" ry="3" style="stroke:#038048;stroke-width:1.0;"/><text fill="#000000" font-family="sans-serif" font-size="14" lengthAdjust="spacing" textLength="71" x="398.5" y="147.8857">Register()</text><ellipse cx="389.5" cy="160.8359" fill="#84BE84" rx="3" ry="3" style="stroke:#038048;stroke-width:1.0;"/><text fill="#000000" font-family="sans-serif" font-size="14" lengthAdjust="spacing" textLength="49" x="398.5" y="164.1826">Login()</text></g><!--class Product--><g id="elem_Product"><rect codeLine="10" fill="#F1F1F1" height="129.4844" id="Product" rx="2.5" ry="2.5" style="stroke:#181818;stroke-width:0.5;" width="113" x="95.5" y="42"/><ellipse cx="121.75" cy="58" fill="#ADD1B2" rx="11" ry="11" style="stroke:#181818;stroke-width:1.0;"/><path d="M124.0938,53.6719 C123.1563,53.2344 122.5625,53.0938 121.6875,53.0938 C119.0625,53.0938 117.0625,55.1719 117.0625,57.8906 L117.0625,59.0156 C117.0625,61.5938 119.1719,63.4844 122.0625,63.4844 C123.2813,63.4844 124.4375,63.1875 125.1875,62.6406 C125.7656,62.2344 126.0938,61.7813 126.0938,61.3906 C126.0938,60.9375 125.7031,60.5469 125.2344,60.5469 C125.0156,60.5469 124.8125,60.625 124.625,60.8125 C124.1719,61.2969 124.1719,61.2969 123.9844,61.3906 C123.5625,61.6563 122.875,61.7813 122.1094,61.7813 C120.0625,61.7813 118.7656,60.6875 118.7656,58.9844 L118.7656,57.8906 C118.7656,56.1094 120.0156,54.7969 121.75,54.7969 C122.3281,54.7969 122.9375,54.9531 123.4063,55.2031 C123.8906,55.4844 124.0625,55.7031 124.1563,56.1094 C124.2188,56.5156 124.25,56.6406 124.3906,56.7656 C124.5313,56.9063 124.7656,57.0156 124.9844,57.0156 C125.25,57.0156 125.5156,56.875 125.6875,56.6563 C125.7969,56.5 125.8281,56.3125 125.8281,55.8906 L125.8281,54.4688 C125.8281,54.0313 125.8125,53.9063 125.7188,53.75 C125.5625,53.4844 125.2813,53.3438 124.9844,53.3438 C124.6875,53.3438 124.4844,53.4375 124.2656,53.75 L124.0938,53.6719 Z " fill="#000000"/><text fill="#000000" font-family="sans-serif" font-size="14" lengthAdjust="spacing" textLength="56" x="138.25" y="62.8467">Product</text><line style="stroke:#181818;stroke-width:0.5;" x1="96.5" x2="207.5" y1="74" y2="74"/><ellipse cx="106.5" cy="87.6484" fill="none" rx="3" ry="3" style="stroke:#038048;stroke-width:1.0;"/><text fill="#000000" font-family="sans-serif" font-size="14" lengthAdjust="spacing" textLength="71" x="115.5" y="90.9951">ProductID</text><ellipse cx="106.5" cy="103.9453" fill="none" rx="3" ry="3" style="stroke:#038048;stroke-width:1.0;"/><text fill="#000000" font-family="sans-serif" font-size="14" lengthAdjust="spacing" textLength="41" x="115.5" y="107.292">Name</text><ellipse cx="106.5" cy="120.2422" fill="none" rx="3" ry="3" style="stroke:#038048;stroke-width:1.0;"/><text fill="#000000" font-family="sans-serif" font-size="14" lengthAdjust="spacing" textLength="36" x="115.5" y="123.5889">Price</text><ellipse cx="106.5" cy="136.5391" fill="none" rx="3" ry="3" style="stroke:#038048;stroke-width:1.0;"/><text fill="#000000" font-family="sans-serif" font-size="14" lengthAdjust="spacing" textLength="84" x="115.5" y="139.8857">Description</text><line style="stroke:#181818;stroke-width:0.5;" x1="96.5" x2="207.5" y1="147.1875" y2="147.1875"/><ellipse cx="106.5" cy="160.8359" fill="#84BE84" rx="3" ry="3" style="stroke:#038048;stroke-width:1.0;"/><text fill="#000000" font-family="sans-serif" font-size="14" lengthAdjust="spacing" textLength="87" x="115.5" y="164.1826">GetDetails()</text></g><!--class Order--><g id="elem_Order"><rect codeLine="18" fill="#F1F1F1" height="113.1875" id="Order" rx="2.5" ry="2.5" style="stroke:#181818;stroke-width:0.5;" width="120" x="51" y="248"/><ellipse cx="87.15" cy="264" fill="#ADD1B2" rx="11" ry="11" style="stroke:#181818;stroke-width:1.0;"/><path d="M89.4938,259.6719 C88.5563,259.2344 87.9625,259.0938 87.0875,259.0938 C84.4625,259.0938 82.4625,261.1719 82.4625,263.8906 L82.4625,265.0156 C82.4625,267.5938 84.5719,269.4844 87.4625,269.4844 C88.6813,269.4844 89.8375,269.1875 90.5875,268.6406 C91.1656,268.2344 91.4938,267.7813 91.4938,267.3906 C91.4938,266.9375 91.1031,266.5469 90.6344,266.5469 C90.4156,266.5469 90.2125,266.625 90.025,266.8125 C89.5719,267.2969 89.5719,267.2969 89.3844,267.3906 C88.9625,267.6563 88.275,267.7813 87.5094,267.7813 C85.4625,267.7813 84.1656,266.6875 84.1656,264.9844 L84.1656,263.8906 C84.1656,262.1094 85.4156,260.7969 87.15,260.7969 C87.7281,260.7969 88.3375,260.9531 88.8063,261.2031 C89.2906,261.4844 89.4625,261.7031 89.5563,262.1094 C89.6188,262.5156 89.65,262.6406 89.7906,262.7656 C89.9313,262.9063 90.1656,263.0156 90.3844,263.0156 C90.65,263.0156 90.9156,262.875 91.0875,262.6563 C91.1969,262.5 91.2281,262.3125 91.2281,261.8906 L91.2281,260.4688 C91.2281,260.0313 91.2125,259.9063 91.1188,259.75 C90.9625,259.4844 90.6813,259.3438 90.3844,259.3438 C90.0875,259.3438 89.8844,259.4375 89.6656,259.75 L89.4938,259.6719 Z " fill="#000000"/><text fill="#000000" font-family="sans-serif" font-size="14" lengthAdjust="spacing" textLength="41" x="105.85" y="268.8467">Order</text><line style="stroke:#181818;stroke-width:0.5;" x1="52" x2="170" y1="280" y2="280"/><ellipse cx="62" cy="293.6484" fill="none" rx="3" ry="3" style="stroke:#038048;stroke-width:1.0;"/><text fill="#000000" font-family="sans-serif" font-size="14" lengthAdjust="spacing" textLength="56" x="71" y="296.9951">OrderID</text><ellipse cx="62" cy="309.9453" fill="none" rx="3" ry="3" style="stroke:#038048;stroke-width:1.0;"/><text fill="#000000" font-family="sans-serif" font-size="14" lengthAdjust="spacing" textLength="35" x="71" y="313.292">Date</text><ellipse cx="62" cy="326.2422" fill="none" rx="3" ry="3" style="stroke:#038048;stroke-width:1.0;"/><text fill="#000000" font-family="sans-serif" font-size="14" lengthAdjust="spacing" textLength="94" x="71" y="329.5889">TotalAmount</text><line style="stroke:#181818;stroke-width:0.5;" x1="52" x2="170" y1="336.8906" y2="336.8906"/><ellipse cx="62" cy="350.5391" fill="#84BE84" rx="3" ry="3" style="stroke:#038048;stroke-width:1.0;"/><text fill="#000000" font-family="sans-serif" font-size="14" lengthAdjust="spacing" textLength="89" x="71" y="353.8857">PlaceOrder()</text></g><!--class Cart--><g id="elem_Cart"><rect codeLine="25" fill="#F1F1F1" height="113.1875" id="Cart" rx="2.5" ry="2.5" style="stroke:#181818;stroke-width:0.5;" width="151" x="220.5" y="248"/><ellipse cx="276.25" cy="264" fill="#ADD1B2" rx="11" ry="11" style="stroke:#181818;stroke-width:1.0;"/><path d="M278.5938,259.6719 C277.6563,259.2344 277.0625,259.0938 276.1875,259.0938 C273.5625,259.0938 271.5625,261.1719 271.5625,263.8906 L271.5625,265.0156 C271.5625,267.5938 273.6719,269.4844 276.5625,269.4844 C277.7813,269.4844 278.9375,269.1875 279.6875,268.6406 C280.2656,268.2344 280.5938,267.7813 280.5938,267.3906 C280.5938,266.9375 280.2031,266.5469 279.7344,266.5469 C279.5156,266.5469 279.3125,266.625 279.125,266.8125 C278.6719,267.2969 278.6719,267.2969 278.4844,267.3906 C278.0625,267.6563 277.375,267.7813 276.6094,267.7813 C274.5625,267.7813 273.2656,266.6875 273.2656,264.9844 L273.2656,263.8906 C273.2656,262.1094 274.5156,260.7969 276.25,260.7969 C276.8281,260.7969 277.4375,260.9531 277.9063,261.2031 C278.3906,261.4844 278.5625,261.7031 278.6563,262.1094 C278.7188,262.5156 278.75,262.6406 278.8906,262.7656 C279.0313,262.9063 279.2656,263.0156 279.4844,263.0156 C279.75,263.0156 280.0156,262.875 280.1875,262.6563 C280.2969,262.5 280.3281,262.3125 280.3281,261.8906 L280.3281,260.4688 C280.3281,260.0313 280.3125,259.9063 280.2188,259.75 C280.0625,259.4844 279.7813,259.3438 279.4844,259.3438 C279.1875,259.3438 278.9844,259.4375 278.7656,259.75 L278.5938,259.6719 Z " fill="#000000"/><text fill="#000000" font-family="sans-serif" font-size="14" lengthAdjust="spacing" textLength="31" x="296.75" y="268.8467">Cart</text><line style="stroke:#181818;stroke-width:0.5;" x1="221.5" x2="370.5" y1="280" y2="280"/><ellipse cx="231.5" cy="293.6484" fill="none" rx="3" ry="3" style="stroke:#038048;stroke-width:1.0;"/><text fill="#000000" font-family="sans-serif" font-size="14" lengthAdjust="spacing" textLength="46" x="240.5" y="296.9951">CartID</text><line style="stroke:#181818;stroke-width:0.5;" x1="221.5" x2="370.5" y1="304.2969" y2="304.2969"/><ellipse cx="231.5" cy="317.9453" fill="#84BE84" rx="3" ry="3" style="stroke:#038048;stroke-width:1.0;"/><text fill="#000000" font-family="sans-serif" font-size="14" lengthAdjust="spacing" textLength="94" x="240.5" y="321.292">AddProduct()</text><ellipse cx="231.5" cy="334.2422" fill="#84BE84" rx="3" ry="3" style="stroke:#038048;stroke-width:1.0;"/><text fill="#000000" font-family="sans-serif" font-size="14" lengthAdjust="spacing" textLength="125" x="240.5" y="337.5889">RemoveProduct()</text><ellipse cx="231.5" cy="350.5391" fill="#84BE84" rx="3" ry="3" style="stroke:#038048;stroke-width:1.0;"/><text fill="#000000" font-family="sans-serif" font-size="14" lengthAdjust="spacing" textLength="79" x="240.5" y="353.8857">Checkout()</text></g><!--class Review--><g id="elem_Review"><rect codeLine="32" fill="#F1F1F1" height="113.1875" id="Review" rx="2.5" ry="2.5" style="stroke:#181818;stroke-width:0.5;" width="127" x="413.5" y="248"/><ellipse cx="448.3" cy="264" fill="#ADD1B2" rx="11" ry="11" style="stroke:#181818;stroke-width:1.0;"/><path d="M450.6438,259.6719 C449.7063,259.2344 449.1125,259.0938 448.2375,259.0938 C445.6125,259.0938 443.6125,261.1719 443.6125,263.8906 L443.6125,265.0156 C443.6125,267.5938 445.7219,269.4844 448.6125,269.4844 C449.8313,269.4844 450.9875,269.1875 451.7375,268.6406 C452.3156,268.2344 452.6438,267.7813 452.6438,267.3906 C452.6438,266.9375 452.2531,266.5469 451.7844,266.5469 C451.5656,266.5469 451.3625,266.625 451.175,266.8125 C450.7219,267.2969 450.7219,267.2969 450.5344,267.3906 C450.1125,267.6563 449.425,267.7813 448.6594,267.7813 C446.6125,267.7813 445.3156,266.6875 445.3156,264.9844 L445.3156,263.8906 C445.3156,262.1094 446.5656,260.7969 448.3,260.7969 C448.8781,260.7969 449.4875,260.9531 449.9563,261.2031 C450.4406,261.4844 450.6125,261.7031 450.7063,262.1094 C450.7688,262.5156 450.8,262.6406 450.9406,262.7656 C451.0813,262.9063 451.3156,263.0156 451.5344,263.0156 C451.8,263.0156 452.0656,262.875 452.2375,262.6563 C452.3469,262.5 452.3781,262.3125 452.3781,261.8906 L452.3781,260.4688 C452.3781,260.0313 452.3625,259.9063 452.2688,259.75 C452.1125,259.4844 451.8313,259.3438 451.5344,259.3438 C451.2375,259.3438 451.0344,259.4375 450.8156,259.75 L450.6438,259.6719 Z " fill="#000000"/><text fill="#000000" font-family="sans-serif" font-size="14" lengthAdjust="spacing" textLength="51" x="466.7" y="268.8467">Review</text><line style="stroke:#181818;stroke-width:0.5;" x1="414.5" x2="539.5" y1="280" y2="280"/><ellipse cx="424.5" cy="293.6484" fill="none" rx="3" ry="3" style="stroke:#038048;stroke-width:1.0;"/><text fill="#000000" font-family="sans-serif" font-size="14" lengthAdjust="spacing" textLength="66" x="433.5" y="296.9951">ReviewID</text><ellipse cx="424.5" cy="309.9453" fill="none" rx="3" ry="3" style="stroke:#038048;stroke-width:1.0;"/><text fill="#000000" font-family="sans-serif" font-size="14" lengthAdjust="spacing" textLength="47" x="433.5" y="313.292">Rating</text><ellipse cx="424.5" cy="326.2422" fill="none" rx="3" ry="3" style="stroke:#038048;stroke-width:1.0;"/><text fill="#000000" font-family="sans-serif" font-size="14" lengthAdjust="spacing" textLength="72" x="433.5" y="329.5889">Comment</text><line style="stroke:#181818;stroke-width:0.5;" x1="414.5" x2="539.5" y1="336.8906" y2="336.8906"/><ellipse cx="424.5" cy="350.5391" fill="#84BE84" rx="3" ry="3" style="stroke:#038048;stroke-width:1.0;"/><text fill="#000000" font-family="sans-serif" font-size="14" lengthAdjust="spacing" textLength="101" x="433.5" y="353.8857">WriteReview()</text></g><!--link User to Cart--><g id="link_User_Cart"><path codeLine="39" d="M410.434,171.055 C404.707,187.103 397.319,203.797 388,218 C381.182,228.392 372.839,238.395 363.989,247.667 " fill="none" id="User-Cart" style="stroke:#181818;stroke-width:1.0;"/><text fill="#000000" font-family="sans-serif" font-size="13" lengthAdjust="spacing" textLength="36" x="399" y="214.0669">Owns</text><text fill="#000000" font-family="sans-serif" font-size="13" lengthAdjust="spacing" textLength="8" x="400.0561" y="191.4329">1</text><text fill="#000000" font-family="sans-serif" font-size="13" lengthAdjust="spacing" textLength="23" x="347.8736" y="236.89">0..*</text></g><!--link User to Order--><g id="link_User_Order"><path codeLine="40" d="M378.399,123.417 C333.927,139.247 267.423,166.178 216,201 C196.383,214.284 177.162,231.444 160.638,247.91 " fill="none" id="User-Order" style="stroke:#181818;stroke-width:1.0;"/><text fill="#000000" font-family="sans-serif" font-size="13" lengthAdjust="spacing" textLength="41" x="217" y="214.0669">Places</text><text fill="#000000" font-family="sans-serif" font-size="13" lengthAdjust="spacing" textLength="8" x="362.3445" y="121.899">1</text><text fill="#000000" font-family="sans-serif" font-size="13" lengthAdjust="spacing" textLength="23" x="142.5244" y="236.7619">0..*</text></g><!--link User to Review--><g id="link_User_Review"><path codeLine="41" d="M456.354,171.043 C460.078,180.915 463.466,191.119 466,201 C469.846,215.996 472.348,232.56 473.977,247.921 " fill="none" id="User-Review" style="stroke:#181818;stroke-width:1.0;"/><text fill="#000000" font-family="sans-serif" font-size="13" lengthAdjust="spacing" textLength="41" x="470" y="214.0669">Writes</text><text fill="#000000" font-family="sans-serif" font-size="13" lengthAdjust="spacing" textLength="8" x="451.2856" y="191.4195">1</text><text fill="#000000" font-family="sans-serif" font-size="13" lengthAdjust="spacing" textLength="23" x="449.1162" y="236.7743">0..*</text></g><!--link Product to Cart--><g id="link_Product_Cart"><path codeLine="42" d="M138.872,171.192 C138.522,187.326 140.962,204.026 149,218 C153.453,225.742 186.537,245.266 220.192,263.705 " fill="none" id="Product-Cart" style="stroke:#181818;stroke-width:1.0;"/><text fill="#000000" font-family="sans-serif" font-size="13" lengthAdjust="spacing" textLength="25" x="150" y="214.0669">Is In</text><text fill="#000000" font-family="sans-serif" font-size="13" lengthAdjust="spacing" textLength="23" x="113.0244" y="191.5858">0..*</text><text fill="#000000" font-family="sans-serif" font-size="13" lengthAdjust="spacing" textLength="8" x="204.5853" y="256.1662">1</text></g><!--link Product to Order--><g id="link_Product_Order"><path codeLine="43" d="M95.473,147.663 C79.2904,162.402 63.6916,180.55 55,201 C48.377,216.583 52.0322,232.905 59.9653,247.827 " fill="none" id="Product-Order" style="stroke:#181818;stroke-width:1.0;"/><text fill="#000000" font-family="sans-serif" font-size="13" lengthAdjust="spacing" textLength="52" x="56" y="214.0669">Ordered</text><text fill="#000000" font-family="sans-serif" font-size="13" lengthAdjust="spacing" textLength="23" x="64.6073" y="148.6019">0..*</text><text fill="#000000" font-family="sans-serif" font-size="13" lengthAdjust="spacing" textLength="8" x="45.2579" y="237.0695">1</text></g><!--link Product to Review--><g id="link_Product_Review"><path codeLine="44" d="M208.665,158.675 C233.743,179.301 264.442,201.959 295,218 C333.829,238.383 349.245,229.488 389,248 C397.023,251.736 405.199,256.075 413.175,260.65 " fill="none" id="Product-Review" style="stroke:#181818;stroke-width:1.0;"/><text fill="#000000" font-family="sans-serif" font-size="13" lengthAdjust="spacing" textLength="83" x="296" y="214.0669">Reviewed By</text><text fill="#000000" font-family="sans-serif" font-size="13" lengthAdjust="spacing" textLength="8" x="216.4377" y="161.4434">1</text><text fill="#000000" font-family="sans-serif" font-size="13" lengthAdjust="spacing" textLength="23" x="382.4071" y="252.4186">0..*</text></g><!--SRC=[VP9TQyCW58Rlyol4gtsGijw6KkYQCWBR6iB6haKFcTIFegPXZFxt9T4E7UcyCJvvzJb7F19w82qWlCkfbX8C1LHgIRX2Bvg1m6YrQe0webe1wpNwpj0mg23MedSB9e1nt4z04GaHsWr7YMXT3njxRLY46cYvTM1kRYFuh5kk0ZbdaRGscdNK9Tx0gZ9YhsaTjU4qNfTWgU57nxMAw1Eu4jnGiPrJxmtxq_144cr9NAnvquw8ZTITSd4nWb2OzivfjiIaxOqWaMmO2oqdTzQ0r2UO-xFz17hGdPlJDN3Yq2T2Zn9bGnnNRNpa-5gIhZuCT-2tffxfdU0bHdcEyCDYSOTzZmNQzyfUY_ZRBlnbNKs5wWjlzx7B4mcHCRpyLLOMLUgVs4KxpS3IvBpQVm13Zr_P-GS0]--></g></svg>