<?xml version="1.0" encoding="us-ascii" standalone="no"?><svg xmlns="http://www.w3.org/2000/svg" xmlns:xlink="http://www.w3.org/1999/xlink" contentStyleType="text/css" height="596px" preserveAspectRatio="none" style="width:529px;height:596px;background:#FFFFFF;" version="1.1" viewBox="0 0 529 596" width="529px" zoomAndPan="magnify"><defs/><g><!--cluster Configuration--><g id="cluster_Configuration"><path d="M262.5,6 L375.5,6 A3.75,3.75 0 0 1 378,8.5 L385,28.2969 L519.5,28.2969 A2.5,2.5 0 0 1 522,30.7969 L522,586.5 A2.5,2.5 0 0 1 519.5,589 L262.5,589 A2.5,2.5 0 0 1 260,586.5 L260,8.5 A2.5,2.5 0 0 1 262.5,6 " fill="none" style="stroke:#000000;stroke-width:1.5;"/><line style="stroke:#000000;stroke-width:1.5;" x1="260" x2="385" y1="28.2969" y2="28.2969"/><text fill="#000000" font-family="sans-serif" font-size="14" font-weight="bold" lengthAdjust="spacing" textLength="112" x="264" y="20.9951">Configuration</text></g><!--cluster React Native App--><g id="cluster_React Native App"><polygon fill="none" points="16,254,26,244,232,244,232,336,222,346,16,346,16,254" style="stroke:#181818;stroke-width:1.0;"/><line style="stroke:#181818;stroke-width:1.0;" x1="222" x2="232" y1="254" y2="244"/><line style="stroke:#181818;stroke-width:1.0;" x1="16" x2="222" y1="254" y2="254"/><line style="stroke:#181818;stroke-width:1.0;" x1="222" x2="222" y1="254" y2="346"/><text fill="#000000" font-family="sans-serif" font-size="14" font-weight="bold" lengthAdjust="spacing" textLength="140" x="50" y="269.9951">React Native App</text></g><!--entity OPENAI_API_KEY=--><g id="elem_OPENAI_API_KEY="><rect fill="#F1F1F1" height="46.2969" rx="2.5" ry="2.5" style="stroke:#181818;stroke-width:0.5;" width="169" x="306.5" y="41"/><rect fill="#F1F1F1" height="10" style="stroke:#181818;stroke-width:0.5;" width="15" x="455.5" y="46"/><rect fill="#F1F1F1" height="2" style="stroke:#181818;stroke-width:0.5;" width="4" x="453.5" y="48"/><rect fill="#F1F1F1" height="2" style="stroke:#181818;stroke-width:0.5;" width="4" x="453.5" y="52"/><text fill="#000000" font-family="sans-serif" font-size="14" lengthAdjust="spacing" textLength="129" x="321.5" y="73.9951">OPENAI_API_KEY=</text></g><!--entity APP_DEBUG="true | false"--><g id="elem_APP_DEBUG=&quot;true | false&quot;"><rect fill="#F1F1F1" height="46.2969" rx="2.5" ry="2.5" style="stroke:#181818;stroke-width:0.5;" width="227" x="277.5" y="122"/><rect fill="#F1F1F1" height="10" style="stroke:#181818;stroke-width:0.5;" width="15" x="484.5" y="127"/><rect fill="#F1F1F1" height="2" style="stroke:#181818;stroke-width:0.5;" width="4" x="482.5" y="129"/><rect fill="#F1F1F1" height="2" style="stroke:#181818;stroke-width:0.5;" width="4" x="482.5" y="133"/><text fill="#000000" font-family="sans-serif" font-size="14" lengthAdjust="spacing" textLength="187" x="292.5" y="154.9951">APP_DEBUG="true | false"</text></g><!--entity AI_ENABLED="true | false"--><g id="elem_AI_ENABLED=&quot;true | false&quot;"><rect fill="#F1F1F1" height="46.2969" rx="2.5" ry="2.5" style="stroke:#181818;stroke-width:0.5;" width="230" x="276" y="203"/><rect fill="#F1F1F1" height="10" style="stroke:#181818;stroke-width:0.5;" width="15" x="486" y="208"/><rect fill="#F1F1F1" height="2" style="stroke:#181818;stroke-width:0.5;" width="4" x="484" y="210"/><rect fill="#F1F1F1" height="2" style="stroke:#181818;stroke-width:0.5;" width="4" x="484" y="214"/><text fill="#000000" font-family="sans-serif" font-size="14" lengthAdjust="spacing" textLength="190" x="291" y="235.9951">AI_ENABLED="true | false"</text></g><!--entity WP_CONTENT_URL="URL"--><g id="elem_WP_CONTENT_URL=&quot;URL&quot;"><rect fill="#F1F1F1" height="46.2969" rx="2.5" ry="2.5" style="stroke:#181818;stroke-width:0.5;" width="224" x="279" y="284"/><rect fill="#F1F1F1" height="10" style="stroke:#181818;stroke-width:0.5;" width="15" x="483" y="289"/><rect fill="#F1F1F1" height="2" style="stroke:#181818;stroke-width:0.5;" width="4" x="481" y="291"/><rect fill="#F1F1F1" height="2" style="stroke:#181818;stroke-width:0.5;" width="4" x="481" y="295"/><text fill="#000000" font-family="sans-serif" font-size="14" lengthAdjust="spacing" textLength="184" x="294" y="316.9951">WP_CONTENT_URL="URL"</text></g><!--entity WP_DATA_URL="URL"--><g id="elem_WP_DATA_URL=&quot;URL&quot;"><rect fill="#F1F1F1" height="46.2969" rx="2.5" ry="2.5" style="stroke:#181818;stroke-width:0.5;" width="196" x="293" y="365"/><rect fill="#F1F1F1" height="10" style="stroke:#181818;stroke-width:0.5;" width="15" x="469" y="370"/><rect fill="#F1F1F1" height="2" style="stroke:#181818;stroke-width:0.5;" width="4" x="467" y="372"/><rect fill="#F1F1F1" height="2" style="stroke:#181818;stroke-width:0.5;" width="4" x="467" y="376"/><text fill="#000000" font-family="sans-serif" font-size="14" lengthAdjust="spacing" textLength="156" x="308" y="397.9951">WP_DATA_URL="URL"</text></g><!--entity WP_USERNAME=--><g id="elem_WP_USERNAME="><rect fill="#F1F1F1" height="46.2969" rx="2.5" ry="2.5" style="stroke:#181818;stroke-width:0.5;" width="159" x="311.5" y="446"/><rect fill="#F1F1F1" height="10" style="stroke:#181818;stroke-width:0.5;" width="15" x="450.5" y="451"/><rect fill="#F1F1F1" height="2" style="stroke:#181818;stroke-width:0.5;" width="4" x="448.5" y="453"/><rect fill="#F1F1F1" height="2" style="stroke:#181818;stroke-width:0.5;" width="4" x="448.5" y="457"/><text fill="#000000" font-family="sans-serif" font-size="14" lengthAdjust="spacing" textLength="119" x="326.5" y="478.9951">WP_USERNAME=</text></g><!--entity WP_PASSWORD=--><g id="elem_WP_PASSWORD="><rect fill="#F1F1F1" height="46.2969" rx="2.5" ry="2.5" style="stroke:#181818;stroke-width:0.5;" width="164" x="309" y="527"/><rect fill="#F1F1F1" height="10" style="stroke:#181818;stroke-width:0.5;" width="15" x="453" y="532"/><rect fill="#F1F1F1" height="2" style="stroke:#181818;stroke-width:0.5;" width="4" x="451" y="534"/><rect fill="#F1F1F1" height="2" style="stroke:#181818;stroke-width:0.5;" width="4" x="451" y="538"/><text fill="#000000" font-family="sans-serif" font-size="14" lengthAdjust="spacing" textLength="124" x="324" y="559.9951">WP_PASSWORD=</text></g><!--entity Config File--><g id="elem_Config File"><rect fill="#F1F1F1" height="46.2969" rx="2.5" ry="2.5" style="stroke:#181818;stroke-width:0.5;" width="116" x="66" y="284"/><rect fill="#F1F1F1" height="10" style="stroke:#181818;stroke-width:0.5;" width="15" x="162" y="289"/><rect fill="#F1F1F1" height="2" style="stroke:#181818;stroke-width:0.5;" width="4" x="160" y="291"/><rect fill="#F1F1F1" height="2" style="stroke:#181818;stroke-width:0.5;" width="4" x="160" y="295"/><text fill="#000000" font-family="sans-serif" font-size="14" lengthAdjust="spacing" textLength="76" x="81" y="316.9951">Config File</text></g><!--link Config File to OPENAI_API_KEY=--><g id="link_Config File_OPENAI_API_KEY="><path d="M133.026,283.972 C148.924,241.773 188.477,151.985 252,104 C267.824,92.047 281.3938,85.4262 300.4908,79.5442 " fill="none" id="Config File-to-OPENAI_API_KEY=" style="stroke:#181818;stroke-width:1.0;"/><polygon fill="#181818" points="306.225,77.778,296.4463,76.6045,301.4465,79.2498,298.8012,84.25,306.225,77.778" style="stroke:#181818;stroke-width:1.0;"/></g><!--link Config File to APP_DEBUG="true | false"--><g id="link_Config File_APP_DEBUG=&quot;true | false&quot;"><path d="M143.129,283.746 C165.755,256.264 206.991,210.993 252,185 C263.449,178.388 270.4395,174.8676 283.2595,170.1616 " fill="none" id="Config File-to-APP_DEBUG=&quot;true | false&quot;" style="stroke:#181818;stroke-width:1.0;"/><polygon fill="#181818" points="288.892,168.094,279.0649,167.4404,284.1982,169.817,281.8216,174.9504,288.892,168.094" style="stroke:#181818;stroke-width:1.0;"/></g><!--link Config File to AI_ENABLED="true | false"--><g id="link_Config File_AI_ENABLED=&quot;true | false&quot;"><path d="M182.099,288.162 C203.924,281.068 229.071,273.022 252,266 C270.365,260.375 284.4058,256.191 303.1198,250.747 " fill="none" id="Config File-to-AI_ENABLED=&quot;true | false&quot;" style="stroke:#181818;stroke-width:1.0;"/><polygon fill="#181818" points="308.881,249.071,299.1219,247.7441,304.08,250.4676,301.3565,255.4257,308.881,249.071" style="stroke:#181818;stroke-width:1.0;"/></g><!--link Config File to WP_CONTENT_URL="URL"--><g id="link_Config File_WP_CONTENT_URL=&quot;URL&quot;"><path d="M182.175,307 C210.475,307 239.641,307 272.949,307 " fill="none" id="Config File-to-WP_CONTENT_URL=&quot;URL&quot;" style="stroke:#181818;stroke-width:1.0;"/><polygon fill="#181818" points="278.949,307,269.949,303,273.949,307,269.949,311,278.949,307" style="stroke:#181818;stroke-width:1.0;"/></g><!--link Config File to WP_DATA_URL="URL"--><g id="link_Config File_WP_DATA_URL=&quot;URL&quot;"><path d="M182.153,325.219 C203.984,332.121 229.122,339.999 252,347 C271.239,352.887 286.273,357.4154 305.729,363.2024 " fill="none" id="Config File-to-WP_DATA_URL=&quot;URL&quot;" style="stroke:#181818;stroke-width:1.0;"/><polygon fill="#181818" points="311.48,364.913,303.9939,358.5131,306.6875,363.4875,301.7131,366.1811,311.48,364.913" style="stroke:#181818;stroke-width:1.0;"/></g><!--link Config File to WP_USERNAME=--><g id="link_Config File_WP_USERNAME="><path d="M143.201,330.006 C165.896,357.207 207.201,402.051 252,428 C270.167,438.523 285.5227,444.8312 305.6787,450.8732 " fill="none" id="Config File-to-WP_USERNAME=" style="stroke:#181818;stroke-width:1.0;"/><polygon fill="#181818" points="311.426,452.596,303.9536,446.1802,306.6366,451.1603,301.6564,453.8433,311.426,452.596" style="stroke:#181818;stroke-width:1.0;"/></g><!--link Config File to WP_PASSWORD=--><g id="link_Config File_WP_PASSWORD="><path d="M133.215,330.204 C149.299,372.267 188.973,461.17 252,509 C268.525,521.5405 283.1007,528.513 303.0117,534.5697 " fill="none" id="Config File-to-WP_PASSWORD=" style="stroke:#181818;stroke-width:1.0;"/><polygon fill="#181818" points="308.752,536.3158,301.3056,529.8697,303.9684,534.8607,298.9775,537.5235,308.752,536.3158" style="stroke:#181818;stroke-width:1.0;"/></g><!--SRC=[XP1B2i8m54NdMSKZSvTG8RPHYfg6VX0H2Q6cDLZQKbCdwjwDY1yqQWOPd7lVu9vA5GPC0vqkjmOskbEvqKsDK2lpdImLOB-f2rtsdRno34S4zgqYJXa91U6XcDAbjxvHmha8w2YRUDXqlO8J5BBQAtoFGs6lHZCQkFC55tx4KifIaSKp3zll9Gf8IbmyIsZCo9nwJyH9aYoYEB3eZ53TREoEMCdS0BCp3Wf8spwct0R2M5Tg3Guq60o_xVti_J7WEFZZvFFYXoLdsUdDsNmtwIozkhq0]--></g></svg>