<?xml version="1.0" encoding="us-ascii" standalone="no"?><svg xmlns="http://www.w3.org/2000/svg" xmlns:xlink="http://www.w3.org/1999/xlink" contentStyleType="text/css" height="242px" preserveAspectRatio="none" style="width:1010px;height:242px;background:#FFFFFF;" version="1.1" viewBox="0 0 1010 242" width="1010px" zoomAndPan="magnify"><defs/><g><!--cluster Environment Variables--><g id="cluster_Environment Variables"><path d="M65,6 L249,6 A3.75,3.75 0 0 1 251.5,8.5 L258.5,28.2969 L259,28.2969 A2.5,2.5 0 0 1 261.5,30.7969 L261.5,100.5 A2.5,2.5 0 0 1 259,103 L65,103 A2.5,2.5 0 0 1 62.5,100.5 L62.5,8.5 A2.5,2.5 0 0 1 65,6 " fill="none" style="stroke:#000000;stroke-width:1.5;"/><line style="stroke:#000000;stroke-width:1.5;" x1="62.5" x2="258.5" y1="28.2969" y2="28.2969"/><text fill="#000000" font-family="sans-serif" font-size="14" font-weight="bold" lengthAdjust="spacing" textLength="183" x="66.5" y="20.9951">Environment Variables</text></g><!--cluster .env--><g id="cluster_.env"><path d="M623.5,31.64 C623.5,21.64 714.5,21.64 714.5,21.64 C714.5,21.64 805.5,21.64 805.5,31.64 L805.5,215.5 C805.5,225.5 714.5,225.5 714.5,225.5 C714.5,225.5 623.5,225.5 623.5,215.5 L623.5,31.64 " fill="none" style="stroke:#181818;stroke-width:1.0;"/><path d="M623.5,31.64 C623.5,41.64 714.5,41.64 714.5,41.64 C714.5,41.64 805.5,41.64 805.5,31.64 " fill="none" style="stroke:#181818;stroke-width:1.0;"/><text fill="#000000" font-family="sans-serif" font-size="14" font-weight="bold" lengthAdjust="spacing" textLength="33" x="698" y="56.6351">.env</text></g><!--cluster .env.example--><g id="cluster_.env.example"><path d="M845.5,31.64 C845.5,21.64 919.5,21.64 919.5,21.64 C919.5,21.64 993.5,21.64 993.5,31.64 L993.5,215.5 C993.5,225.5 919.5,225.5 919.5,225.5 C919.5,225.5 845.5,225.5 845.5,215.5 L845.5,31.64 " fill="none" style="stroke:#181818;stroke-width:1.0;"/><path d="M845.5,31.64 C845.5,41.64 919.5,41.64 919.5,41.64 C919.5,41.64 993.5,41.64 993.5,31.64 " fill="none" style="stroke:#181818;stroke-width:1.0;"/><text fill="#000000" font-family="sans-serif" font-size="14" font-weight="bold" lengthAdjust="spacing" textLength="105" x="867" y="56.6351">.env.example</text></g><!--entity env.ts--><g id="elem_env.ts"><rect fill="#F1F1F1" height="46.2969" rx="2.5" ry="2.5" style="stroke:#181818;stroke-width:0.5;" width="85" x="119" y="41"/><rect fill="#F1F1F1" height="10" style="stroke:#181818;stroke-width:0.5;" width="15" x="184" y="46"/><rect fill="#F1F1F1" height="2" style="stroke:#181818;stroke-width:0.5;" width="4" x="182" y="48"/><rect fill="#F1F1F1" height="2" style="stroke:#181818;stroke-width:0.5;" width="4" x="182" y="52"/><text fill="#000000" font-family="sans-serif" font-size="14" lengthAdjust="spacing" textLength="45" x="134" y="73.9951">env.ts</text></g><!--entity Ignored by Git--><g id="elem_Ignored by Git"><path d="M650.5,147.5 L691.5,147.5 A3.75,3.75 0 0 1 694,150 L701,168.5 L778.5,168.5 A2.5,2.5 0 0 1 781,171 L781,199.2969 A2.5,2.5 0 0 1 778.5,201.7969 L650.5,201.7969 A2.5,2.5 0 0 1 648,199.2969 L648,150 A2.5,2.5 0 0 1 650.5,147.5 " fill="#F1F1F1" style="stroke:#181818;stroke-width:0.5;"/><line style="stroke:#181818;stroke-width:0.5;" x1="648" x2="701" y1="168.5" y2="168.5"/><text fill="#000000" font-family="sans-serif" font-size="14" lengthAdjust="spacing" textLength="103" x="658" y="188.4951">Ignored by Git</text></g><!--entity Template--><g id="elem_Template"><path d="M872,147.5 L913,147.5 A3.75,3.75 0 0 1 915.5,150 L922.5,168.5 L967,168.5 A2.5,2.5 0 0 1 969.5,171 L969.5,199.2969 A2.5,2.5 0 0 1 967,201.7969 L872,201.7969 A2.5,2.5 0 0 1 869.5,199.2969 L869.5,150 A2.5,2.5 0 0 1 872,147.5 " fill="#F1F1F1" style="stroke:#181818;stroke-width:0.5;"/><line style="stroke:#181818;stroke-width:0.5;" x1="869.5" x2="922.5" y1="168.5" y2="168.5"/><text fill="#000000" font-family="sans-serif" font-size="14" lengthAdjust="spacing" textLength="70" x="879.5" y="188.4951">Template</text></g><!--entity getEnvValue(key: EnvOptions): string--><g id="elem_getEnvValue(key: EnvOptions): string"><rect fill="#F1F1F1" height="46.2969" rx="2.5" ry="2.5" style="stroke:#181818;stroke-width:0.5;" width="309" x="7" y="151.5"/><rect fill="#F1F1F1" height="10" style="stroke:#181818;stroke-width:0.5;" width="15" x="296" y="156.5"/><rect fill="#F1F1F1" height="2" style="stroke:#181818;stroke-width:0.5;" width="4" x="294" y="158.5"/><rect fill="#F1F1F1" height="2" style="stroke:#181818;stroke-width:0.5;" width="4" x="294" y="162.5"/><text fill="#000000" font-family="sans-serif" font-size="14" lengthAdjust="spacing" textLength="269" x="22" y="184.4951">getEnvValue(key: EnvOptions): string</text></g><g id="elem_GMN6"><path d="M351.5,147 L351.5,170.5 L316.047,174.5 L351.5,178.5 L351.5,202.3984 A0,0 0 0 0 351.5,202.3984 L599.5,202.3984 A0,0 0 0 0 599.5,202.3984 L599.5,157 L589.5,147 L351.5,147 A0,0 0 0 0 351.5,147 " fill="#FEFFDD" style="stroke:#181818;stroke-width:0.5;"/><path d="M589.5,147 L589.5,157 L599.5,157 L589.5,147 " fill="#FEFFDD" style="stroke:#181818;stroke-width:0.5;"/><text fill="#000000" font-family="sans-serif" font-size="13" lengthAdjust="spacing" textLength="224" x="357.5" y="164.0669">This function retrieves the value of</text><text fill="#000000" font-family="sans-serif" font-size="13" lengthAdjust="spacing" textLength="227" x="357.5" y="179.1997">the specified environment variable.</text><text fill="#000000" font-family="sans-serif" font-size="13" lengthAdjust="spacing" textLength="200" x="357.5" y="194.3325">If not found, an error is thrown.</text></g><!--link env.ts to getEnvValue(key: EnvOptions): string--><g id="link_env.ts_getEnvValue(key: EnvOptions): string"><path d="M161.5,87.218 C161.5,105.942 161.5,126.596 161.5,145.3113 " fill="none" id="env.ts-to-getEnvValue(key: EnvOptions): string" style="stroke:#181818;stroke-width:1.0;"/><polygon fill="#181818" points="161.5,151.3113,165.5,142.3113,161.5,146.3113,157.5,142.3113,161.5,151.3113" style="stroke:#181818;stroke-width:1.0;"/></g><!--link .env to Ignored by Git--><g id="link_.env_Ignored by Git"><path d="M714.5,65.079 C714.5,67.299 714.5,131.032 714.5,162.399 " fill="none" id=".env-to-Ignored by Git" style="stroke:#181818;stroke-width:1.0;"/><polygon fill="#181818" points="714.5,168.399,718.5,159.399,714.5,163.399,710.5,159.399,714.5,168.399" style="stroke:#181818;stroke-width:1.0;"/></g><!--link .env.example to Template--><g id="link_.env.example_Template"><path d="M919.5,65.079 C919.5,67.299 919.5,110.032 919.5,141.399 " fill="none" id=".env.example-to-Template" style="stroke:#181818;stroke-width:1.0;"/><polygon fill="#181818" points="919.5,147.399,923.5,138.399,919.5,142.399,915.5,138.399,919.5,147.399" style="stroke:#181818;stroke-width:1.0;"/></g><!--SRC=[ZP0nJyCm48Lt_ugdJ23H_80ER0XrOgcwL1dSv2MncfuZsmbKYF_E6H91cV3ayxttdU-DjZxRZYYUP7R1ouMISB31sTF0ME3TGC-HCfSfLkR3cFMEpUOHnuv9dGSxJBmxyxg5LYzZSbxY_HOn1ITTPOpuH0JNzGc-_QyBsFSkefsapYq4QeCp8r9FpDcjD9NbCewiNUlOWByscPTDIbNjMkWtqFf9cWTO0KFm0IxZWd-Lqb2QBA4nZKtsPAFcKYhkEuRM3mq3YbqdFkYSqnNFBXLVcMJLaiXjk_hBAlbcB-F0M-QU-cOJVsYhRg6kWkeJ]--></g></svg>