<?xml version="1.0" encoding="us-ascii" standalone="no"?><svg xmlns="http://www.w3.org/2000/svg" xmlns:xlink="http://www.w3.org/1999/xlink" contentStyleType="text/css" height="596px" preserveAspectRatio="none" style="width:707px;height:596px;background:#FFFFFF;" version="1.1" viewBox="0 0 707 596" width="707px" zoomAndPan="magnify"><defs/><g><!--cluster Configuration--><g id="cluster_Configuration"><path d="M257.5,6 L370.5,6 A3.75,3.75 0 0 1 373,8.5 L380,28.2969 L697.5,28.2969 A2.5,2.5 0 0 1 700,30.7969 L700,586.5 A2.5,2.5 0 0 1 697.5,589 L257.5,589 A2.5,2.5 0 0 1 255,586.5 L255,8.5 A2.5,2.5 0 0 1 257.5,6 " fill="none" style="stroke:#000000;stroke-width:1.5;"/><line style="stroke:#000000;stroke-width:1.5;" x1="255" x2="380" y1="28.2969" y2="28.2969"/><text fill="#000000" font-family="sans-serif" font-size="14" font-weight="bold" lengthAdjust="spacing" textLength="112" x="259" y="20.9951">Configuration</text></g><!--cluster Your Application--><g id="cluster_Your Application"><polygon fill="none" points="16,254,26,244,227,244,227,336,217,346,16,346,16,254" style="stroke:#181818;stroke-width:1.0;"/><line style="stroke:#181818;stroke-width:1.0;" x1="217" x2="227" y1="254" y2="244"/><line style="stroke:#181818;stroke-width:1.0;" x1="16" x2="217" y1="254" y2="254"/><line style="stroke:#181818;stroke-width:1.0;" x1="217" x2="217" y1="254" y2="346"/><text fill="#000000" font-family="sans-serif" font-size="14" font-weight="bold" lengthAdjust="spacing" textLength="135" x="50" y="269.9951">Your Application</text></g><!--entity OPENAI_API_KEY=--><g id="elem_OPENAI_API_KEY="><rect fill="#F1F1F1" height="46.2969" rx="2.5" ry="2.5" style="stroke:#181818;stroke-width:0.5;" width="169" x="393" y="41"/><rect fill="#F1F1F1" height="10" style="stroke:#181818;stroke-width:0.5;" width="15" x="542" y="46"/><rect fill="#F1F1F1" height="2" style="stroke:#181818;stroke-width:0.5;" width="4" x="540" y="48"/><rect fill="#F1F1F1" height="2" style="stroke:#181818;stroke-width:0.5;" width="4" x="540" y="52"/><text fill="#000000" font-family="sans-serif" font-size="14" lengthAdjust="spacing" textLength="129" x="408" y="73.9951">OPENAI_API_KEY=</text></g><!--entity APP_DEBUG="true | false"--><g id="elem_APP_DEBUG=&quot;true | false&quot;"><rect fill="#F1F1F1" height="46.2969" rx="2.5" ry="2.5" style="stroke:#181818;stroke-width:0.5;" width="227" x="364" y="122"/><rect fill="#F1F1F1" height="10" style="stroke:#181818;stroke-width:0.5;" width="15" x="571" y="127"/><rect fill="#F1F1F1" height="2" style="stroke:#181818;stroke-width:0.5;" width="4" x="569" y="129"/><rect fill="#F1F1F1" height="2" style="stroke:#181818;stroke-width:0.5;" width="4" x="569" y="133"/><text fill="#000000" font-family="sans-serif" font-size="14" lengthAdjust="spacing" textLength="187" x="379" y="154.9951">APP_DEBUG="true | false"</text></g><!--entity AI_ENABLED="true | false"--><g id="elem_AI_ENABLED=&quot;true | false&quot;"><rect fill="#F1F1F1" height="46.2969" rx="2.5" ry="2.5" style="stroke:#181818;stroke-width:0.5;" width="230" x="362.5" y="203"/><rect fill="#F1F1F1" height="10" style="stroke:#181818;stroke-width:0.5;" width="15" x="572.5" y="208"/><rect fill="#F1F1F1" height="2" style="stroke:#181818;stroke-width:0.5;" width="4" x="570.5" y="210"/><rect fill="#F1F1F1" height="2" style="stroke:#181818;stroke-width:0.5;" width="4" x="570.5" y="214"/><text fill="#000000" font-family="sans-serif" font-size="14" lengthAdjust="spacing" textLength="190" x="377.5" y="235.9951">AI_ENABLED="true | false"</text></g><!--entity WP_CONTENT_URL="https://www.windesheim.tech"--><g id="elem_WP_CONTENT_URL=&quot;https://www.windesheim.tech&quot;"><rect fill="#F1F1F1" height="46.2969" rx="2.5" ry="2.5" style="stroke:#181818;stroke-width:0.5;" width="413" x="271" y="284"/><rect fill="#F1F1F1" height="10" style="stroke:#181818;stroke-width:0.5;" width="15" x="664" y="289"/><rect fill="#F1F1F1" height="2" style="stroke:#181818;stroke-width:0.5;" width="4" x="662" y="291"/><rect fill="#F1F1F1" height="2" style="stroke:#181818;stroke-width:0.5;" width="4" x="662" y="295"/><text fill="#000000" font-family="sans-serif" font-size="14" lengthAdjust="spacing" textLength="373" x="286" y="316.9951">WP_CONTENT_URL="https://www.windesheim.tech"</text></g><!--entity WP_DATA_URL="https://www.windesheim.ai"--><g id="elem_WP_DATA_URL=&quot;https://www.windesheim.ai&quot;"><rect fill="#F1F1F1" height="46.2969" rx="2.5" ry="2.5" style="stroke:#181818;stroke-width:0.5;" width="364" x="295.5" y="365"/><rect fill="#F1F1F1" height="10" style="stroke:#181818;stroke-width:0.5;" width="15" x="639.5" y="370"/><rect fill="#F1F1F1" height="2" style="stroke:#181818;stroke-width:0.5;" width="4" x="637.5" y="372"/><rect fill="#F1F1F1" height="2" style="stroke:#181818;stroke-width:0.5;" width="4" x="637.5" y="376"/><text fill="#000000" font-family="sans-serif" font-size="14" lengthAdjust="spacing" textLength="324" x="310.5" y="397.9951">WP_DATA_URL="https://www.windesheim.ai"</text></g><!--entity WP_USERNAME=--><g id="elem_WP_USERNAME="><rect fill="#F1F1F1" height="46.2969" rx="2.5" ry="2.5" style="stroke:#181818;stroke-width:0.5;" width="159" x="398" y="446"/><rect fill="#F1F1F1" height="10" style="stroke:#181818;stroke-width:0.5;" width="15" x="537" y="451"/><rect fill="#F1F1F1" height="2" style="stroke:#181818;stroke-width:0.5;" width="4" x="535" y="453"/><rect fill="#F1F1F1" height="2" style="stroke:#181818;stroke-width:0.5;" width="4" x="535" y="457"/><text fill="#000000" font-family="sans-serif" font-size="14" lengthAdjust="spacing" textLength="119" x="413" y="478.9951">WP_USERNAME=</text></g><!--entity WP_PASSWORD=--><g id="elem_WP_PASSWORD="><rect fill="#F1F1F1" height="46.2969" rx="2.5" ry="2.5" style="stroke:#181818;stroke-width:0.5;" width="164" x="395.5" y="527"/><rect fill="#F1F1F1" height="10" style="stroke:#181818;stroke-width:0.5;" width="15" x="539.5" y="532"/><rect fill="#F1F1F1" height="2" style="stroke:#181818;stroke-width:0.5;" width="4" x="537.5" y="534"/><rect fill="#F1F1F1" height="2" style="stroke:#181818;stroke-width:0.5;" width="4" x="537.5" y="538"/><text fill="#000000" font-family="sans-serif" font-size="14" lengthAdjust="spacing" textLength="124" x="410.5" y="559.9951">WP_PASSWORD=</text></g><!--entity Config File--><g id="elem_Config File"><rect fill="#F1F1F1" height="46.2969" rx="2.5" ry="2.5" style="stroke:#181818;stroke-width:0.5;" width="116" x="63" y="284"/><rect fill="#F1F1F1" height="10" style="stroke:#181818;stroke-width:0.5;" width="15" x="159" y="289"/><rect fill="#F1F1F1" height="2" style="stroke:#181818;stroke-width:0.5;" width="4" x="157" y="291"/><rect fill="#F1F1F1" height="2" style="stroke:#181818;stroke-width:0.5;" width="4" x="157" y="295"/><text fill="#000000" font-family="sans-serif" font-size="14" lengthAdjust="spacing" textLength="76" x="78" y="316.9951">Config File</text></g><!--link Config File to OPENAI_API_KEY=--><g id="link_Config File_OPENAI_API_KEY="><path d="M129.084,283.978 C143.604,240.961 181.051,148.705 247,104 C289.517,75.18 340.3421,65.4748 386.8041,62.6448 " fill="none" id="Config File-to-OPENAI_API_KEY=" style="stroke:#181818;stroke-width:1.0;"/><polygon fill="#181818" points="392.793,62.28,383.5665,58.8346,387.8022,62.584,384.0528,66.8198,392.793,62.28" style="stroke:#181818;stroke-width:1.0;"/></g><!--link Config File to APP_DEBUG="true | false"--><g id="link_Config File_APP_DEBUG=&quot;true | false&quot;"><path d="M138.545,283.888 C160.101,255.663 200.567,208.757 247,185 C282.736,166.717 319.3186,157.4483 357.9936,151.9113 " fill="none" id="Config File-to-APP_DEBUG=&quot;true | false&quot;" style="stroke:#181818;stroke-width:1.0;"/><polygon fill="#181818" points="363.933,151.061,354.457,148.3769,358.9835,151.7696,355.5907,156.2961,363.933,151.061" style="stroke:#181818;stroke-width:1.0;"/></g><!--link Config File to AI_ENABLED="true | false"--><g id="link_Config File_AI_ENABLED=&quot;true | false&quot;"><path d="M179.056,286.363 C200.203,279.225 224.509,271.617 247,266 C284.179,256.714 319.3589,249.823 356.3799,243.565 " fill="none" id="Config File-to-AI_ENABLED=&quot;true | false&quot;" style="stroke:#181818;stroke-width:1.0;"/><polygon fill="#181818" points="362.296,242.565,352.7552,240.121,357.3659,243.3984,354.0886,248.0091,362.296,242.565" style="stroke:#181818;stroke-width:1.0;"/></g><!--link Config File to WP_CONTENT_URL="https://www.windesheim.tech"--><g id="link_Config File_WP_CONTENT_URL=&quot;https://www.windesheim.tech&quot;"><path d="M179.351,307 C205.119,307 231.253,307 264.782,307 " fill="none" id="Config File-to-WP_CONTENT_URL=&quot;https://www.windesheim.tech&quot;" style="stroke:#181818;stroke-width:1.0;"/><polygon fill="#181818" points="270.782,307,261.782,303,265.782,307,261.782,311,270.782,307" style="stroke:#181818;stroke-width:1.0;"/></g><!--link Config File to WP_DATA_URL="https://www.windesheim.ai"--><g id="link_Config File_WP_DATA_URL=&quot;https://www.windesheim.ai&quot;"><path d="M179.105,327.036 C200.257,333.989 224.554,341.43 247,347 C273.909,353.678 296.9526,358.6066 324.9106,363.8716 " fill="none" id="Config File-to-WP_DATA_URL=&quot;https://www.windesheim.ai&quot;" style="stroke:#181818;stroke-width:1.0;"/><polygon fill="#181818" points="330.807,364.982,322.7027,359.3855,325.8934,364.0567,321.2222,367.2473,330.807,364.982" style="stroke:#181818;stroke-width:1.0;"/></g><!--link Config File to WP_USERNAME=--><g id="link_Config File_WP_USERNAME="><path d="M138.984,330.379 C160.695,358.389 201.022,404.473 247,428 C293.661,451.876 345.8665,461.5357 391.9725,465.7977 " fill="none" id="Config File-to-WP_USERNAME=" style="stroke:#181818;stroke-width:1.0;"/><polygon fill="#181818" points="397.947,466.35,389.3534,461.5386,392.9682,465.8898,388.617,469.5046,397.947,466.35" style="stroke:#181818;stroke-width:1.0;"/></g><!--link Config File to WP_PASSWORD=--><g id="link_Config File_WP_PASSWORD="><path d="M129.25,330.22 C143.938,373.127 181.502,464.505 247,509 C290.273,538.3967 342.3621,548.1958 389.2661,551.0543 " fill="none" id="Config File-to-WP_PASSWORD=" style="stroke:#181818;stroke-width:1.0;"/><polygon fill="#181818" points="395.255,551.4193,386.515,546.8792,390.2643,551.1151,386.0283,554.8644,395.255,551.4193" style="stroke:#181818;stroke-width:1.0;"/></g><!--SRC=[dP5TIyCm58RlyoiEkTzsBtIGhL7APXlwmHWoGcZJDbYRagRqGltlLePONNHeBf_ple7pd4QM5gm6ewhQGg6CpAtIBKATo1z59G5lTLkgQZ3YdMDuHZ2zXuZHa0ISi83lwD4xdIbXZFjqazrvs9f1mWkKekab_XW7V6fjzjHtpm-CRwCmfM7AitZluThQhhzPhSPnN8wgBMHVI_Mqj3AlPnMVfEJNl52pT9RGE2JtrFj4Z2J98Ohz2RqYrEfYslge1mEawngLVrtyh0DkLIDFu42BnVedEvUvAxuSXIi6Bnl_SEhyv0-MdVtltfsX-INU0000]--></g></svg>