<?xml version="1.0" encoding="us-ascii" standalone="no"?><svg xmlns="http://www.w3.org/2000/svg" xmlns:xlink="http://www.w3.org/1999/xlink" contentStyleType="text/css" height="596px" preserveAspectRatio="none" style="width:524px;height:596px;background:#FFFFFF;" version="1.1" viewBox="0 0 524 596" width="524px" zoomAndPan="magnify"><defs/><g><!--cluster Configuration--><g id="cluster_Configuration"><path d="M257.5,6 L370.5,6 A3.75,3.75 0 0 1 373,8.5 L380,28.2969 L514.5,28.2969 A2.5,2.5 0 0 1 517,30.7969 L517,586.5 A2.5,2.5 0 0 1 514.5,589 L257.5,589 A2.5,2.5 0 0 1 255,586.5 L255,8.5 A2.5,2.5 0 0 1 257.5,6 " fill="none" style="stroke:#000000;stroke-width:1.5;"/><line style="stroke:#000000;stroke-width:1.5;" x1="255" x2="380" y1="28.2969" y2="28.2969"/><text fill="#000000" font-family="sans-serif" font-size="14" font-weight="bold" lengthAdjust="spacing" textLength="112" x="259" y="20.9951">Configuration</text></g><!--cluster Your Application--><g id="cluster_Your Application"><polygon fill="none" points="16,254,26,244,227,244,227,336,217,346,16,346,16,254" style="stroke:#181818;stroke-width:1.0;"/><line style="stroke:#181818;stroke-width:1.0;" x1="217" x2="227" y1="254" y2="244"/><line style="stroke:#181818;stroke-width:1.0;" x1="16" x2="217" y1="254" y2="254"/><line style="stroke:#181818;stroke-width:1.0;" x1="217" x2="217" y1="254" y2="346"/><text fill="#000000" font-family="sans-serif" font-size="14" font-weight="bold" lengthAdjust="spacing" textLength="135" x="50" y="269.9951">Your Application</text></g><!--entity OPENAI_API_KEY=--><g id="elem_OPENAI_API_KEY="><rect fill="#F1F1F1" height="46.2969" rx="2.5" ry="2.5" style="stroke:#181818;stroke-width:0.5;" width="169" x="301.5" y="41"/><rect fill="#F1F1F1" height="10" style="stroke:#181818;stroke-width:0.5;" width="15" x="450.5" y="46"/><rect fill="#F1F1F1" height="2" style="stroke:#181818;stroke-width:0.5;" width="4" x="448.5" y="48"/><rect fill="#F1F1F1" height="2" style="stroke:#181818;stroke-width:0.5;" width="4" x="448.5" y="52"/><text fill="#000000" font-family="sans-serif" font-size="14" lengthAdjust="spacing" textLength="129" x="316.5" y="73.9951">OPENAI_API_KEY=</text></g><!--entity APP_DEBUG="true | false"--><g id="elem_APP_DEBUG=&quot;true | false&quot;"><rect fill="#F1F1F1" height="46.2969" rx="2.5" ry="2.5" style="stroke:#181818;stroke-width:0.5;" width="227" x="272.5" y="122"/><rect fill="#F1F1F1" height="10" style="stroke:#181818;stroke-width:0.5;" width="15" x="479.5" y="127"/><rect fill="#F1F1F1" height="2" style="stroke:#181818;stroke-width:0.5;" width="4" x="477.5" y="129"/><rect fill="#F1F1F1" height="2" style="stroke:#181818;stroke-width:0.5;" width="4" x="477.5" y="133"/><text fill="#000000" font-family="sans-serif" font-size="14" lengthAdjust="spacing" textLength="187" x="287.5" y="154.9951">APP_DEBUG="true | false"</text></g><!--entity AI_ENABLED="true | false"--><g id="elem_AI_ENABLED=&quot;true | false&quot;"><rect fill="#F1F1F1" height="46.2969" rx="2.5" ry="2.5" style="stroke:#181818;stroke-width:0.5;" width="230" x="271" y="203"/><rect fill="#F1F1F1" height="10" style="stroke:#181818;stroke-width:0.5;" width="15" x="481" y="208"/><rect fill="#F1F1F1" height="2" style="stroke:#181818;stroke-width:0.5;" width="4" x="479" y="210"/><rect fill="#F1F1F1" height="2" style="stroke:#181818;stroke-width:0.5;" width="4" x="479" y="214"/><text fill="#000000" font-family="sans-serif" font-size="14" lengthAdjust="spacing" textLength="190" x="286" y="235.9951">AI_ENABLED="true | false"</text></g><!--entity WP_CONTENT_URL="URL"--><g id="elem_WP_CONTENT_URL=&quot;URL&quot;"><rect fill="#F1F1F1" height="46.2969" rx="2.5" ry="2.5" style="stroke:#181818;stroke-width:0.5;" width="224" x="274" y="284"/><rect fill="#F1F1F1" height="10" style="stroke:#181818;stroke-width:0.5;" width="15" x="478" y="289"/><rect fill="#F1F1F1" height="2" style="stroke:#181818;stroke-width:0.5;" width="4" x="476" y="291"/><rect fill="#F1F1F1" height="2" style="stroke:#181818;stroke-width:0.5;" width="4" x="476" y="295"/><text fill="#000000" font-family="sans-serif" font-size="14" lengthAdjust="spacing" textLength="184" x="289" y="316.9951">WP_CONTENT_URL="URL"</text></g><!--entity WP_DATA_URL="URL"--><g id="elem_WP_DATA_URL=&quot;URL&quot;"><rect fill="#F1F1F1" height="46.2969" rx="2.5" ry="2.5" style="stroke:#181818;stroke-width:0.5;" width="196" x="288" y="365"/><rect fill="#F1F1F1" height="10" style="stroke:#181818;stroke-width:0.5;" width="15" x="464" y="370"/><rect fill="#F1F1F1" height="2" style="stroke:#181818;stroke-width:0.5;" width="4" x="462" y="372"/><rect fill="#F1F1F1" height="2" style="stroke:#181818;stroke-width:0.5;" width="4" x="462" y="376"/><text fill="#000000" font-family="sans-serif" font-size="14" lengthAdjust="spacing" textLength="156" x="303" y="397.9951">WP_DATA_URL="URL"</text></g><!--entity WP_USERNAME=--><g id="elem_WP_USERNAME="><rect fill="#F1F1F1" height="46.2969" rx="2.5" ry="2.5" style="stroke:#181818;stroke-width:0.5;" width="159" x="306.5" y="446"/><rect fill="#F1F1F1" height="10" style="stroke:#181818;stroke-width:0.5;" width="15" x="445.5" y="451"/><rect fill="#F1F1F1" height="2" style="stroke:#181818;stroke-width:0.5;" width="4" x="443.5" y="453"/><rect fill="#F1F1F1" height="2" style="stroke:#181818;stroke-width:0.5;" width="4" x="443.5" y="457"/><text fill="#000000" font-family="sans-serif" font-size="14" lengthAdjust="spacing" textLength="119" x="321.5" y="478.9951">WP_USERNAME=</text></g><!--entity WP_PASSWORD=--><g id="elem_WP_PASSWORD="><rect fill="#F1F1F1" height="46.2969" rx="2.5" ry="2.5" style="stroke:#181818;stroke-width:0.5;" width="164" x="304" y="527"/><rect fill="#F1F1F1" height="10" style="stroke:#181818;stroke-width:0.5;" width="15" x="448" y="532"/><rect fill="#F1F1F1" height="2" style="stroke:#181818;stroke-width:0.5;" width="4" x="446" y="534"/><rect fill="#F1F1F1" height="2" style="stroke:#181818;stroke-width:0.5;" width="4" x="446" y="538"/><text fill="#000000" font-family="sans-serif" font-size="14" lengthAdjust="spacing" textLength="124" x="319" y="559.9951">WP_PASSWORD=</text></g><!--entity Config File--><g id="elem_Config File"><rect fill="#F1F1F1" height="46.2969" rx="2.5" ry="2.5" style="stroke:#181818;stroke-width:0.5;" width="116" x="63" y="284"/><rect fill="#F1F1F1" height="10" style="stroke:#181818;stroke-width:0.5;" width="15" x="159" y="289"/><rect fill="#F1F1F1" height="2" style="stroke:#181818;stroke-width:0.5;" width="4" x="157" y="291"/><rect fill="#F1F1F1" height="2" style="stroke:#181818;stroke-width:0.5;" width="4" x="157" y="295"/><text fill="#000000" font-family="sans-serif" font-size="14" lengthAdjust="spacing" textLength="76" x="78" y="316.9951">Config File</text></g><!--link Config File to OPENAI_API_KEY=--><g id="link_Config File_OPENAI_API_KEY="><path d="M129.795,283.975 C145.27,241.78 183.927,151.998 247,104 C262.781,91.991 276.3351,85.3502 295.4301,79.4652 " fill="none" id="Config File-to-OPENAI_API_KEY=" style="stroke:#181818;stroke-width:1.0;"/><polygon fill="#181818" points="301.164,77.698,291.3851,76.5262,296.3858,79.1706,293.7413,84.1713,301.164,77.698" style="stroke:#181818;stroke-width:1.0;"/></g><!--link Config File to APP_DEBUG="true | false"--><g id="link_Config File_APP_DEBUG=&quot;true | false&quot;"><path d="M139.763,283.734 C161.953,256.24 202.461,210.958 247,185 C258.422,178.343 265.3997,174.8016 278.2127,170.0826 " fill="none" id="Config File-to-APP_DEBUG=&quot;true | false&quot;" style="stroke:#181818;stroke-width:1.0;"/><polygon fill="#181818" points="283.843,168.009,274.0152,167.3659,279.1511,169.737,276.78,174.873,283.843,168.009" style="stroke:#181818;stroke-width:1.0;"/></g><!--link Config File to AI_ENABLED="true | false"--><g id="link_Config File_AI_ENABLED=&quot;true | false&quot;"><path d="M179.117,287.802 C200.376,280.779 224.742,272.874 247,266 C265.352,260.332 279.3881,256.132 298.1001,250.685 " fill="none" id="Config File-to-AI_ENABLED=&quot;true | false&quot;" style="stroke:#181818;stroke-width:1.0;"/><polygon fill="#181818" points="303.861,249.008,294.1017,247.6829,299.0603,250.4055,296.3377,255.364,303.861,249.008" style="stroke:#181818;stroke-width:1.0;"/></g><!--link Config File to WP_CONTENT_URL="URL"--><g id="link_Config File_WP_CONTENT_URL=&quot;URL&quot;"><path d="M179.067,307 C206.865,307 235.279,307 267.965,307 " fill="none" id="Config File-to-WP_CONTENT_URL=&quot;URL&quot;" style="stroke:#181818;stroke-width:1.0;"/><polygon fill="#181818" points="273.965,307,264.965,303,268.965,307,264.965,311,273.965,307" style="stroke:#181818;stroke-width:1.0;"/></g><!--link Config File to WP_DATA_URL="URL"--><g id="link_Config File_WP_DATA_URL=&quot;URL&quot;"><path d="M179.171,325.572 C200.437,332.407 224.792,340.148 247,347 C266.226,352.931 281.2551,357.4761 300.7101,363.2641 " fill="none" id="Config File-to-WP_DATA_URL=&quot;URL&quot;" style="stroke:#181818;stroke-width:1.0;"/><polygon fill="#181818" points="306.461,364.975,298.9753,358.5747,301.6686,363.5492,296.694,366.2425,306.461,364.975" style="stroke:#181818;stroke-width:1.0;"/></g><!--link Config File to WP_USERNAME=--><g id="link_Config File_WP_USERNAME="><path d="M139.834,330.019 C162.095,357.232 202.672,402.089 247,428 C265.125,438.595 280.4668,444.9278 300.6218,450.9708 " fill="none" id="Config File-to-WP_USERNAME=" style="stroke:#181818;stroke-width:1.0;"/><polygon fill="#181818" points="306.369,452.694,298.8969,446.2778,301.5796,451.258,296.5994,453.9407,306.369,452.694" style="stroke:#181818;stroke-width:1.0;"/></g><!--link Config File to WP_PASSWORD=--><g id="link_Config File_WP_PASSWORD="><path d="M129.981,330.202 C145.64,372.261 184.423,461.158 247,509 C263.48,521.5993 278.0398,528.592 297.9508,534.6499 " fill="none" id="Config File-to-WP_PASSWORD=" style="stroke:#181818;stroke-width:1.0;"/><polygon fill="#181818" points="303.691,536.3964,296.245,529.9499,298.9075,534.941,293.9164,537.6035,303.691,536.3964" style="stroke:#181818;stroke-width:1.0;"/></g><!--SRC=[XP1B2i8m54NdMSKZSvTG8TeeHMr3FuX82QMcDLYQ4jEHkdSZ8bQDca46vzutkASHbG6ZGCjwRs0djIYDL2r2NL4UYbe0dggsadMlYnl7S49WtpPYD2G19opW2xhnyZibZ76VJhAvXutk1PoXAfgZm8yuuFPgigI-ErypFet2b8Ofp-AbX-qtY7oI4XVF4Xg7P4Mz9s8aITPHx5jqGQXLExjZeteDfEiQMRvEkG-4cMn43Wuq6es_xVti_J7WEFZZvFFYXoLdsUdDsNmtwImDtLu1]--></g></svg>