<?xml version="1.0" encoding="us-ascii" standalone="no"?><svg xmlns="http://www.w3.org/2000/svg" xmlns:xlink="http://www.w3.org/1999/xlink" contentStyleType="text/css" height="150px" preserveAspectRatio="none" style="width:213px;height:150px;background:#FFFFFF;" version="1.1" viewBox="0 0 213 150" width="213px" zoomAndPan="magnify"><defs/><g><!--class ErrorBoundary--><g id="elem_ErrorBoundary"><rect codeLine="1" fill="#F1F1F1" height="129.4844" id="ErrorBoundary" rx="2.5" ry="2.5" style="stroke:#181818;stroke-width:0.5;" width="192" x="7" y="7"/><ellipse cx="47.65" cy="23" fill="#ADD1B2" rx="11" ry="11" style="stroke:#181818;stroke-width:1.0;"/><path d="M49.9938,18.6719 C49.0563,18.2344 48.4625,18.0938 47.5875,18.0938 C44.9625,18.0938 42.9625,20.1719 42.9625,22.8906 L42.9625,24.0156 C42.9625,26.5938 45.0719,28.4844 47.9625,28.4844 C49.1813,28.4844 50.3375,28.1875 51.0875,27.6406 C51.6656,27.2344 51.9938,26.7813 51.9938,26.3906 C51.9938,25.9375 51.6031,25.5469 51.1344,25.5469 C50.9156,25.5469 50.7125,25.625 50.525,25.8125 C50.0719,26.2969 50.0719,26.2969 49.8844,26.3906 C49.4625,26.6563 48.775,26.7813 48.0094,26.7813 C45.9625,26.7813 44.6656,25.6875 44.6656,23.9844 L44.6656,22.8906 C44.6656,21.1094 45.9156,19.7969 47.65,19.7969 C48.2281,19.7969 48.8375,19.9531 49.3063,20.2031 C49.7906,20.4844 49.9625,20.7031 50.0563,21.1094 C50.1188,21.5156 50.15,21.6406 50.2906,21.7656 C50.4313,21.9063 50.6656,22.0156 50.8844,22.0156 C51.15,22.0156 51.4156,21.875 51.5875,21.6563 C51.6969,21.5 51.7281,21.3125 51.7281,20.8906 L51.7281,19.4688 C51.7281,19.0313 51.7125,18.9063 51.6188,18.75 C51.4625,18.4844 51.1813,18.3438 50.8844,18.3438 C50.5875,18.3438 50.3844,18.4375 50.1656,18.75 L49.9938,18.6719 Z " fill="#000000"/><text fill="#000000" font-family="sans-serif" font-size="14" lengthAdjust="spacing" textLength="103" x="67.35" y="27.8467">ErrorBoundary</text><line style="stroke:#181818;stroke-width:0.5;" x1="8" x2="198" y1="39" y2="39"/><rect fill="none" height="6" style="stroke:#C82930;stroke-width:1.0;" width="6" x="15" y="49.6484"/><text fill="#000000" font-family="sans-serif" font-size="14" lengthAdjust="spacing" textLength="161" x="27" y="55.9951">windowWidth: number</text><rect fill="none" height="6" style="stroke:#C82930;stroke-width:1.0;" width="6" x="15" y="65.9453"/><text fill="#000000" font-family="sans-serif" font-size="14" lengthAdjust="spacing" textLength="166" x="27" y="72.292">windowHeight: number</text><rect fill="none" height="6" style="stroke:#C82930;stroke-width:1.0;" width="6" x="15" y="82.2422"/><text fill="#000000" font-family="sans-serif" font-size="14" lengthAdjust="spacing" textLength="99" x="27" y="88.5889">colors: object</text><rect fill="none" height="6" style="stroke:#C82930;stroke-width:1.0;" width="6" x="15" y="98.5391"/><text fill="#000000" font-family="sans-serif" font-size="14" lengthAdjust="spacing" textLength="98" x="27" y="104.8857">styles: object</text><line style="stroke:#181818;stroke-width:0.5;" x1="8" x2="198" y1="112.1875" y2="112.1875"/><ellipse cx="18" cy="125.8359" fill="#84BE84" rx="3" ry="3" style="stroke:#038048;stroke-width:1.0;"/><text fill="#000000" font-family="sans-serif" font-size="14" lengthAdjust="spacing" textLength="135" x="27" y="129.1826">handlePress(): void</text></g><!--SRC=[JSWn2e0m3030tLTaLCGFT1G4HpVdsWHRgGqaLH7nx-AaDvwBLXKw4PQMjuHMJhWAWEO82VaO0sPl86thHF9rJs7s-V-E8uiQu6aXbz_HV4RwJ-rjmaY3a6fP6TWvO74_]--></g></svg>