<?xml version="1.0" encoding="us-ascii" standalone="no"?><svg xmlns="http://www.w3.org/2000/svg" xmlns:xlink="http://www.w3.org/1999/xlink" contentStyleType="text/css" height="268px" preserveAspectRatio="none" style="width:206px;height:268px;background:#FFFFFF;" version="1.1" viewBox="0 0 206 268" width="206px" zoomAndPan="magnify"><defs/><g><!--class ErrorBoundary--><g id="elem_ErrorBoundary"><rect codeLine="1" fill="#F1F1F1" height="129.4844" id="ErrorBoundary" rx="2.5" ry="2.5" style="stroke:#181818;stroke-width:0.5;" width="192" x="7" y="132"/><ellipse cx="47.65" cy="148" fill="#ADD1B2" rx="11" ry="11" style="stroke:#181818;stroke-width:1.0;"/><path d="M49.9938,143.6719 C49.0563,143.2344 48.4625,143.0938 47.5875,143.0938 C44.9625,143.0938 42.9625,145.1719 42.9625,147.8906 L42.9625,149.0156 C42.9625,151.5938 45.0719,153.4844 47.9625,153.4844 C49.1813,153.4844 50.3375,153.1875 51.0875,152.6406 C51.6656,152.2344 51.9938,151.7813 51.9938,151.3906 C51.9938,150.9375 51.6031,150.5469 51.1344,150.5469 C50.9156,150.5469 50.7125,150.625 50.525,150.8125 C50.0719,151.2969 50.0719,151.2969 49.8844,151.3906 C49.4625,151.6563 48.775,151.7813 48.0094,151.7813 C45.9625,151.7813 44.6656,150.6875 44.6656,148.9844 L44.6656,147.8906 C44.6656,146.1094 45.9156,144.7969 47.65,144.7969 C48.2281,144.7969 48.8375,144.9531 49.3063,145.2031 C49.7906,145.4844 49.9625,145.7031 50.0563,146.1094 C50.1188,146.5156 50.15,146.6406 50.2906,146.7656 C50.4313,146.9063 50.6656,147.0156 50.8844,147.0156 C51.15,147.0156 51.4156,146.875 51.5875,146.6563 C51.6969,146.5 51.7281,146.3125 51.7281,145.8906 L51.7281,144.4688 C51.7281,144.0313 51.7125,143.9063 51.6188,143.75 C51.4625,143.4844 51.1813,143.3438 50.8844,143.3438 C50.5875,143.3438 50.3844,143.4375 50.1656,143.75 L49.9938,143.6719 Z " fill="#000000"/><text fill="#000000" font-family="sans-serif" font-size="14" lengthAdjust="spacing" textLength="103" x="67.35" y="152.8467">ErrorBoundary</text><line style="stroke:#181818;stroke-width:0.5;" x1="8" x2="198" y1="164" y2="164"/><rect fill="none" height="6" style="stroke:#C82930;stroke-width:1.0;" width="6" x="15" y="174.6484"/><text fill="#000000" font-family="sans-serif" font-size="14" lengthAdjust="spacing" textLength="161" x="27" y="180.9951">windowWidth: number</text><rect fill="none" height="6" style="stroke:#C82930;stroke-width:1.0;" width="6" x="15" y="190.9453"/><text fill="#000000" font-family="sans-serif" font-size="14" lengthAdjust="spacing" textLength="166" x="27" y="197.292">windowHeight: number</text><rect fill="none" height="6" style="stroke:#C82930;stroke-width:1.0;" width="6" x="15" y="207.2422"/><text fill="#000000" font-family="sans-serif" font-size="14" lengthAdjust="spacing" textLength="99" x="27" y="213.5889">colors: object</text><rect fill="none" height="6" style="stroke:#C82930;stroke-width:1.0;" width="6" x="15" y="223.5391"/><text fill="#000000" font-family="sans-serif" font-size="14" lengthAdjust="spacing" textLength="98" x="27" y="229.8857">styles: object</text><line style="stroke:#181818;stroke-width:0.5;" x1="8" x2="198" y1="237.1875" y2="237.1875"/><ellipse cx="18" cy="250.8359" fill="#84BE84" rx="3" ry="3" style="stroke:#038048;stroke-width:1.0;"/><text fill="#000000" font-family="sans-serif" font-size="14" lengthAdjust="spacing" textLength="135" x="27" y="254.1826">handlePress(): void</text></g><!--class App--><g id="elem_App"><rect codeLine="9" fill="#F1F1F1" height="48" id="App" rx="2.5" ry="2.5" style="stroke:#181818;stroke-width:0.5;" width="62" x="72" y="7"/><ellipse cx="87" cy="23" fill="#ADD1B2" rx="11" ry="11" style="stroke:#181818;stroke-width:1.0;"/><path d="M89.3438,18.6719 C88.4063,18.2344 87.8125,18.0938 86.9375,18.0938 C84.3125,18.0938 82.3125,20.1719 82.3125,22.8906 L82.3125,24.0156 C82.3125,26.5938 84.4219,28.4844 87.3125,28.4844 C88.5313,28.4844 89.6875,28.1875 90.4375,27.6406 C91.0156,27.2344 91.3438,26.7813 91.3438,26.3906 C91.3438,25.9375 90.9531,25.5469 90.4844,25.5469 C90.2656,25.5469 90.0625,25.625 89.875,25.8125 C89.4219,26.2969 89.4219,26.2969 89.2344,26.3906 C88.8125,26.6563 88.125,26.7813 87.3594,26.7813 C85.3125,26.7813 84.0156,25.6875 84.0156,23.9844 L84.0156,22.8906 C84.0156,21.1094 85.2656,19.7969 87,19.7969 C87.5781,19.7969 88.1875,19.9531 88.6563,20.2031 C89.1406,20.4844 89.3125,20.7031 89.4063,21.1094 C89.4688,21.5156 89.5,21.6406 89.6406,21.7656 C89.7813,21.9063 90.0156,22.0156 90.2344,22.0156 C90.5,22.0156 90.7656,21.875 90.9375,21.6563 C91.0469,21.5 91.0781,21.3125 91.0781,20.8906 L91.0781,19.4688 C91.0781,19.0313 91.0625,18.9063 90.9688,18.75 C90.8125,18.4844 90.5313,18.3438 90.2344,18.3438 C89.9375,18.3438 89.7344,18.4375 89.5156,18.75 L89.3438,18.6719 Z " fill="#000000"/><text fill="#000000" font-family="sans-serif" font-size="14" lengthAdjust="spacing" textLength="30" x="101" y="27.8467">App</text><line style="stroke:#181818;stroke-width:0.5;" x1="73" x2="133" y1="39" y2="39"/><line style="stroke:#181818;stroke-width:0.5;" x1="73" x2="133" y1="47" y2="47"/></g><!--link App to ErrorBoundary--><g id="link_App_ErrorBoundary"><path codeLine="13" d="M103,55.079 C103,75.06 103,98.926 103,125.984 " fill="none" id="App-to-ErrorBoundary" style="stroke:#181818;stroke-width:1.0;"/><polygon fill="#181818" points="103,131.984,107,122.984,103,126.984,99,122.984,103,131.984" style="stroke:#181818;stroke-width:1.0;"/><text fill="#000000" font-family="sans-serif" font-size="13" lengthAdjust="spacing" textLength="31" x="104" y="98.0669">Uses</text></g><!--SRC=[LSwn2W8n40JGFb-nfOVa1r882eAbZLZdiek9nEonc_Cun7_tOkFPpRnc9cIl2aSHbWEF1RtCy380Tae5URechD516HyzoOzFb6wnhZrmPb47tDyfr2PQvqnhsKPVCDDPI7NJENXoGlCs9dmlx8TX6Mwz9Mjt_wSSN9Jq0m00]--></g></svg>