<?xml version="1.0" encoding="us-ascii" standalone="no"?><svg xmlns="http://www.w3.org/2000/svg" xmlns:xlink="http://www.w3.org/1999/xlink" contentStyleType="text/css" height="425px" preserveAspectRatio="none" style="width:595px;height:425px;background:#FFFFFF;" version="1.1" viewBox="0 0 595 425" width="595px" zoomAndPan="magnify"><defs/><g><!--class ThemeSlice--><g id="elem_ThemeSlice"><rect codeLine="1" fill="#F1F1F1" height="64.2969" id="ThemeSlice" rx="2.5" ry="2.5" style="stroke:#181818;stroke-width:0.5;" width="257" x="175.6562" y="7"/><ellipse cx="257.9062" cy="23" fill="#ADD1B2" rx="11" ry="11" style="stroke:#181818;stroke-width:1.0;"/><path d="M260.25,18.6719 C259.3125,18.2344 258.7187,18.0938 257.8437,18.0938 C255.2187,18.0938 253.2187,20.1719 253.2187,22.8906 L253.2187,24.0156 C253.2187,26.5938 255.3281,28.4844 258.2187,28.4844 C259.4375,28.4844 260.5937,28.1875 261.3437,27.6406 C261.9218,27.2344 262.25,26.7813 262.25,26.3906 C262.25,25.9375 261.8593,25.5469 261.3906,25.5469 C261.1718,25.5469 260.9687,25.625 260.7812,25.8125 C260.3281,26.2969 260.3281,26.2969 260.1406,26.3906 C259.7187,26.6563 259.0312,26.7813 258.2656,26.7813 C256.2187,26.7813 254.9218,25.6875 254.9218,23.9844 L254.9218,22.8906 C254.9218,21.1094 256.1718,19.7969 257.9062,19.7969 C258.4843,19.7969 259.0937,19.9531 259.5625,20.2031 C260.0468,20.4844 260.2187,20.7031 260.3125,21.1094 C260.375,21.5156 260.4062,21.6406 260.5468,21.7656 C260.6875,21.9063 260.9218,22.0156 261.1406,22.0156 C261.4062,22.0156 261.6718,21.875 261.8437,21.6563 C261.9531,21.5 261.9843,21.3125 261.9843,20.8906 L261.9843,19.4688 C261.9843,19.0313 261.9687,18.9063 261.875,18.75 C261.7187,18.4844 261.4375,18.3438 261.1406,18.3438 C260.8437,18.3438 260.6406,18.4375 260.4218,18.75 L260.25,18.6719 Z " fill="#000000"/><text fill="#000000" font-family="sans-serif" font-size="14" lengthAdjust="spacing" textLength="84" x="278.4062" y="27.8467">ThemeSlice</text><line style="stroke:#181818;stroke-width:0.5;" x1="176.6562" x2="431.6562" y1="39" y2="39"/><ellipse cx="186.6562" cy="52.6484" fill="none" rx="3" ry="3" style="stroke:#038048;stroke-width:1.0;"/><text fill="#000000" font-family="sans-serif" font-size="14" lengthAdjust="spacing" textLength="231" x="195.6562" y="55.9951">isHighContrastEnabled: boolean</text><line style="stroke:#181818;stroke-width:0.5;" x1="176.6562" x2="431.6562" y1="63.2969" y2="63.2969"/></g><!--class HighContrastSwitcher--><g id="elem_HighContrastSwitcher"><rect codeLine="5" fill="#F1F1F1" height="80.5938" id="HighContrastSwitcher" rx="2.5" ry="2.5" style="stroke:#181818;stroke-width:0.5;" width="296" x="156.1562" y="338"/><ellipse cx="220.9062" cy="354" fill="#ADD1B2" rx="11" ry="11" style="stroke:#181818;stroke-width:1.0;"/><path d="M223.25,349.6719 C222.3125,349.2344 221.7187,349.0938 220.8437,349.0938 C218.2187,349.0938 216.2187,351.1719 216.2187,353.8906 L216.2187,355.0156 C216.2187,357.5938 218.3281,359.4844 221.2187,359.4844 C222.4375,359.4844 223.5937,359.1875 224.3437,358.6406 C224.9218,358.2344 225.25,357.7813 225.25,357.3906 C225.25,356.9375 224.8593,356.5469 224.3906,356.5469 C224.1718,356.5469 223.9687,356.625 223.7812,356.8125 C223.3281,357.2969 223.3281,357.2969 223.1406,357.3906 C222.7187,357.6563 222.0312,357.7813 221.2656,357.7813 C219.2187,357.7813 217.9218,356.6875 217.9218,354.9844 L217.9218,353.8906 C217.9218,352.1094 219.1718,350.7969 220.9062,350.7969 C221.4843,350.7969 222.0937,350.9531 222.5625,351.2031 C223.0468,351.4844 223.2187,351.7031 223.3125,352.1094 C223.375,352.5156 223.4062,352.6406 223.5468,352.7656 C223.6875,352.9063 223.9218,353.0156 224.1406,353.0156 C224.4062,353.0156 224.6718,352.875 224.8437,352.6563 C224.9531,352.5 224.9843,352.3125 224.9843,351.8906 L224.9843,350.4688 C224.9843,350.0313 224.9687,349.9063 224.875,349.75 C224.7187,349.4844 224.4375,349.3438 224.1406,349.3438 C223.8437,349.3438 223.6406,349.4375 223.4218,349.75 L223.25,349.6719 Z " fill="#000000"/><text fill="#000000" font-family="sans-serif" font-size="14" lengthAdjust="spacing" textLength="158" x="241.4062" y="358.8467">HighContrastSwitcher</text><line style="stroke:#181818;stroke-width:0.5;" x1="157.1562" x2="451.1562" y1="370" y2="370"/><rect fill="none" height="6" style="stroke:#C82930;stroke-width:1.0;" width="6" x="164.1562" y="380.6484"/><text fill="#000000" font-family="sans-serif" font-size="14" lengthAdjust="spacing" textLength="270" x="176.1562" y="386.9951">isHighContrastModeEnabled: boolean</text><line style="stroke:#181818;stroke-width:0.5;" x1="157.1562" x2="451.1562" y1="394.2969" y2="394.2969"/><ellipse cx="167.1562" cy="407.9453" fill="#84BE84" rx="3" ry="3" style="stroke:#038048;stroke-width:1.0;"/><text fill="#000000" font-family="sans-serif" font-size="14" lengthAdjust="spacing" textLength="175" x="176.1562" y="411.292">render(): React.Element</text></g><!--class Colors--><g id="elem_Colors"><rect codeLine="10" fill="#F1F1F1" height="113.1875" id="Colors" rx="2.5" ry="2.5" style="stroke:#181818;stroke-width:0.5;" width="316" x="146.1562" y="148"/><ellipse cx="277.4062" cy="164" fill="#ADD1B2" rx="11" ry="11" style="stroke:#181818;stroke-width:1.0;"/><path d="M279.75,159.6719 C278.8125,159.2344 278.2187,159.0938 277.3437,159.0938 C274.7187,159.0938 272.7187,161.1719 272.7187,163.8906 L272.7187,165.0156 C272.7187,167.5938 274.8281,169.4844 277.7187,169.4844 C278.9375,169.4844 280.0937,169.1875 280.8437,168.6406 C281.4218,168.2344 281.75,167.7813 281.75,167.3906 C281.75,166.9375 281.3593,166.5469 280.8906,166.5469 C280.6718,166.5469 280.4687,166.625 280.2812,166.8125 C279.8281,167.2969 279.8281,167.2969 279.6406,167.3906 C279.2187,167.6563 278.5312,167.7813 277.7656,167.7813 C275.7187,167.7813 274.4218,166.6875 274.4218,164.9844 L274.4218,163.8906 C274.4218,162.1094 275.6718,160.7969 277.4062,160.7969 C277.9843,160.7969 278.5937,160.9531 279.0625,161.2031 C279.5468,161.4844 279.7187,161.7031 279.8125,162.1094 C279.875,162.5156 279.9062,162.6406 280.0468,162.7656 C280.1875,162.9063 280.4218,163.0156 280.6406,163.0156 C280.9062,163.0156 281.1718,162.875 281.3437,162.6563 C281.4531,162.5 281.4843,162.3125 281.4843,161.8906 L281.4843,160.4688 C281.4843,160.0313 281.4687,159.9063 281.375,159.75 C281.2187,159.4844 280.9375,159.3438 280.6406,159.3438 C280.3437,159.3438 280.1406,159.4375 279.9218,159.75 L279.75,159.6719 Z " fill="#000000"/><text fill="#000000" font-family="sans-serif" font-size="14" lengthAdjust="spacing" textLength="45" x="297.9062" y="168.8467">Colors</text><line style="stroke:#181818;stroke-width:0.5;" x1="147.1562" x2="461.1562" y1="180" y2="180"/><rect fill="none" height="6" style="stroke:#C82930;stroke-width:1.0;" width="6" x="154.1562" y="190.6484"/><text fill="#000000" font-family="sans-serif" font-size="14" lengthAdjust="spacing" textLength="122" x="166.1562" y="196.9951">colorMap: object</text><rect fill="none" height="6" style="stroke:#C82930;stroke-width:1.0;" width="6" x="154.1562" y="206.9453"/><text fill="#000000" font-family="sans-serif" font-size="14" lengthAdjust="spacing" textLength="218" x="166.1562" y="213.292">highContrastColorMap: object</text><line style="stroke:#181818;stroke-width:0.5;" x1="147.1562" x2="461.1562" y1="220.5938" y2="220.5938"/><ellipse cx="157.1562" cy="234.2422" fill="#84BE84" rx="3" ry="3" style="stroke:#038048;stroke-width:1.0;"/><text fill="#000000" font-family="sans-serif" font-size="14" lengthAdjust="spacing" textLength="175" x="166.1562" y="237.5889">useColorConfig(): object</text><ellipse cx="157.1562" cy="250.5391" fill="#84BE84" rx="3" ry="3" style="stroke:#038048;stroke-width:1.0;"/><text fill="#000000" font-family="sans-serif" font-size="14" lengthAdjust="spacing" textLength="290" x="166.1562" y="253.8857">useCurrentHighContrastMode(): boolean</text></g><!--link ThemeSlice to HighContrastSwitcher--><g id="link_ThemeSlice_HighContrastSwitcher"><path codeLine="17" d="M175.4732,59.228 C122.4942,74.181 66.1394,100.76 34.156,148 C6,189.587 6.5607,219.039 34.156,261 C62.0673,303.442 103.435,328.4292 150.4715,345.6395 " fill="none" id="ThemeSlice-to-HighContrastSwitcher" style="stroke:#181818;stroke-width:1.0;"/><polygon fill="#181818" points="156.1062,347.7012,149.0287,340.8522,151.4107,345.9831,146.2798,348.3651,156.1062,347.7012" style="stroke:#181818;stroke-width:1.0;"/><text fill="#000000" font-family="sans-serif" font-size="13" lengthAdjust="spacing" textLength="92" x="35.156" y="209.0669">provides state</text></g><!--link HighContrastSwitcher to ThemeSlice--><g id="link_HighContrastSwitcher_ThemeSlice"><path codeLine="18" d="M399.1682,337.886 C430.8862,319.494 462.5982,294.203 480.1562,261 C503.6332,216.603 504.3422,192.015 480.1562,148 C460.9922,113.125 430.7279,90.866 396.5099,73.807 " fill="none" id="HighContrastSwitcher-to-ThemeSlice" style="stroke:#181818;stroke-width:1.0;"/><polygon fill="#181818" points="391.1402,71.13,397.4101,78.7253,395.615,73.3608,400.9794,71.5657,391.1402,71.13" style="stroke:#181818;stroke-width:1.0;"/><text fill="#000000" font-family="sans-serif" font-size="13" lengthAdjust="spacing" textLength="89" x="498.1562" y="209.0669">updates state</text></g><!--link ThemeSlice to Colors--><g id="link_ThemeSlice_Colors"><path codeLine="19" d="M304.1562,71.138 C304.1562,92.819 304.1562,116.329 304.1562,141.984 " fill="none" id="ThemeSlice-to-Colors" style="stroke:#181818;stroke-width:1.0;"/><polygon fill="#181818" points="304.1562,147.984,308.1562,138.984,304.1562,142.984,300.1562,138.984,304.1562,147.984" style="stroke:#181818;stroke-width:1.0;"/><text fill="#000000" font-family="sans-serif" font-size="13" lengthAdjust="spacing" textLength="92" x="305.1562" y="114.0669">provides state</text></g><!--link Colors to HighContrastSwitcher--><g id="link_Colors_HighContrastSwitcher"><path codeLine="20" d="M304.1562,261.343 C304.1562,286.357 304.1562,309.267 304.1562,331.9883 " fill="none" id="Colors-to-HighContrastSwitcher" style="stroke:#181818;stroke-width:1.0;"/><polygon fill="#181818" points="304.1562,337.9883,308.1562,328.9883,304.1562,332.9883,300.1562,328.9883,304.1562,337.9883" style="stroke:#181818;stroke-width:1.0;"/><text fill="#000000" font-family="sans-serif" font-size="13" lengthAdjust="spacing" textLength="97" x="305.1562" y="304.0669">provides colors</text></g><!--SRC=[ZL0x3i8m3Drp2eyWL0wGWQL2Oc41Bf0cXWQ5f8fT611t9or5XDA1RB7VpqyxHGI76Y-uTrOZt0Majx2qiQUw39wZ8bvxLJaq4geG72el7aBedfcZzZVBkiOuQ1JV6jjWy4Udzuhe3SRPNC8EbURbsgKqdZycPN0XqbjMTx-jQYI4weoQNzCwiogd48kMi5yarD6UEhlnjeqf2ez3TyZixgohebXD5o2XYU5g3H8GAqOnYUhecPg4jZ49_EQCZ8OIVgI7-JzP-kRe2G00]--></g></svg>