<?xml version="1.0" encoding="us-ascii" standalone="no"?><svg xmlns="http://www.w3.org/2000/svg" xmlns:xlink="http://www.w3.org/1999/xlink" contentStyleType="text/css" height="431px" preserveAspectRatio="none" style="width:3223px;height:431px;background:#FFFFFF;" version="1.1" viewBox="0 0 3223 431" width="3223px" zoomAndPan="magnify"><defs/><g><!--class GoogleTranslator--><g id="elem_GoogleTranslator"><rect codeLine="1" fill="#F1F1F1" height="178.375" id="GoogleTranslator" rx="2.5" ry="2.5" style="stroke:#181818;stroke-width:0.5;" width="519" x="7" y="15.5"/><ellipse cx="200.25" cy="31.5" fill="#ADD1B2" rx="11" ry="11" style="stroke:#181818;stroke-width:1.0;"/><path d="M202.5938,27.1719 C201.6563,26.7344 201.0625,26.5938 200.1875,26.5938 C197.5625,26.5938 195.5625,28.6719 195.5625,31.3906 L195.5625,32.5156 C195.5625,35.0938 197.6719,36.9844 200.5625,36.9844 C201.7813,36.9844 202.9375,36.6875 203.6875,36.1406 C204.2656,35.7344 204.5938,35.2813 204.5938,34.8906 C204.5938,34.4375 204.2031,34.0469 203.7344,34.0469 C203.5156,34.0469 203.3125,34.125 203.125,34.3125 C202.6719,34.7969 202.6719,34.7969 202.4844,34.8906 C202.0625,35.1563 201.375,35.2813 200.6094,35.2813 C198.5625,35.2813 197.2656,34.1875 197.2656,32.4844 L197.2656,31.3906 C197.2656,29.6094 198.5156,28.2969 200.25,28.2969 C200.8281,28.2969 201.4375,28.4531 201.9063,28.7031 C202.3906,28.9844 202.5625,29.2031 202.6563,29.6094 C202.7188,30.0156 202.75,30.1406 202.8906,30.2656 C203.0313,30.4063 203.2656,30.5156 203.4844,30.5156 C203.75,30.5156 204.0156,30.375 204.1875,30.1563 C204.2969,30 204.3281,29.8125 204.3281,29.3906 L204.3281,27.9688 C204.3281,27.5313 204.3125,27.4063 204.2188,27.25 C204.0625,26.9844 203.7813,26.8438 203.4844,26.8438 C203.1875,26.8438 202.9844,26.9375 202.7656,27.25 L202.5938,27.1719 Z " fill="#000000"/><text fill="#000000" font-family="sans-serif" font-size="14" lengthAdjust="spacing" textLength="124" x="220.75" y="36.3467">GoogleTranslator</text><line style="stroke:#181818;stroke-width:0.5;" x1="8" x2="525" y1="47.5" y2="47.5"/><rect fill="none" height="6" style="stroke:#C82930;stroke-width:1.0;" width="6" x="15" y="58.1484"/><text fill="#000000" font-family="sans-serif" font-size="14" lengthAdjust="spacing" textLength="201" x="27" y="64.4951">options: TranslationOptions</text><rect fill="none" height="6" style="stroke:#C82930;stroke-width:1.0;" width="6" x="15" y="74.4453"/><text fill="#000000" font-family="sans-serif" font-size="14" lengthAdjust="spacing" textLength="67" x="27" y="80.792">to: string</text><rect fill="none" height="6" style="stroke:#C82930;stroke-width:1.0;" width="6" x="15" y="90.7422"/><text fill="#000000" font-family="sans-serif" font-size="14" lengthAdjust="spacing" textLength="86" x="27" y="97.0889">from: string</text><rect fill="none" height="6" style="stroke:#C82930;stroke-width:1.0;" width="6" x="15" y="107.0391"/><text fill="#000000" font-family="sans-serif" font-size="14" lengthAdjust="spacing" textLength="100" x="27" y="113.3857">apiKey: string</text><rect fill="none" height="6" style="stroke:#C82930;stroke-width:1.0;" width="6" x="15" y="123.3359"/><text fill="#000000" font-family="sans-serif" font-size="14" lengthAdjust="spacing" textLength="222" x="27" y="129.6826">cacheProvider?: CacheProvider</text><line style="stroke:#181818;stroke-width:0.5;" x1="8" x2="525" y1="136.9844" y2="136.9844"/><ellipse cx="18" cy="150.6328" fill="#84BE84" rx="3" ry="3" style="stroke:#038048;stroke-width:1.0;"/><text fill="#000000" font-family="sans-serif" font-size="14" lengthAdjust="spacing" textLength="379" x="27" y="153.9795">translate(value: string): Promise&lt;string | undefined&gt;</text><ellipse cx="18" cy="166.9297" fill="#84BE84" rx="3" ry="3" style="stroke:#038048;stroke-width:1.0;"/><text fill="#000000" font-family="sans-serif" font-size="14" lengthAdjust="spacing" textLength="493" x="27" y="170.2764">tryGetGoogleTranslation(value: string): Promise&lt;string | undefined&gt;</text><ellipse cx="18" cy="183.2266" fill="#84BE84" rx="3" ry="3" style="stroke:#038048;stroke-width:1.0;"/><text fill="#000000" font-family="sans-serif" font-size="14" lengthAdjust="spacing" textLength="399" x="27" y="186.5732">fetchGoogleTranslation(value: string): Promise&lt;string&gt;</text></g><!--class Translator--><g id="elem_Translator"><rect codeLine="13" fill="#F1F1F1" height="145.7813" id="Translator" rx="2.5" ry="2.5" style="stroke:#181818;stroke-width:0.5;" width="405" x="831" y="279"/><ellipse cx="992.75" cy="295" fill="#ADD1B2" rx="11" ry="11" style="stroke:#181818;stroke-width:1.0;"/><path d="M995.0938,290.6719 C994.1563,290.2344 993.5625,290.0938 992.6875,290.0938 C990.0625,290.0938 988.0625,292.1719 988.0625,294.8906 L988.0625,296.0156 C988.0625,298.5938 990.1719,300.4844 993.0625,300.4844 C994.2813,300.4844 995.4375,300.1875 996.1875,299.6406 C996.7656,299.2344 997.0938,298.7813 997.0938,298.3906 C997.0938,297.9375 996.7031,297.5469 996.2344,297.5469 C996.0156,297.5469 995.8125,297.625 995.625,297.8125 C995.1719,298.2969 995.1719,298.2969 994.9844,298.3906 C994.5625,298.6563 993.875,298.7813 993.1094,298.7813 C991.0625,298.7813 989.7656,297.6875 989.7656,295.9844 L989.7656,294.8906 C989.7656,293.1094 991.0156,291.7969 992.75,291.7969 C993.3281,291.7969 993.9375,291.9531 994.4063,292.2031 C994.8906,292.4844 995.0625,292.7031 995.1563,293.1094 C995.2188,293.5156 995.25,293.6406 995.3906,293.7656 C995.5313,293.9063 995.7656,294.0156 995.9844,294.0156 C996.25,294.0156 996.5156,293.875 996.6875,293.6563 C996.7969,293.5 996.8281,293.3125 996.8281,292.8906 L996.8281,291.4688 C996.8281,291.0313 996.8125,290.9063 996.7188,290.75 C996.5625,290.4844 996.2813,290.3438 995.9844,290.3438 C995.6875,290.3438 995.4844,290.4375 995.2656,290.75 L995.0938,290.6719 Z " fill="#000000"/><text fill="#000000" font-family="sans-serif" font-size="14" lengthAdjust="spacing" textLength="73" x="1013.25" y="299.8467">Translator</text><line style="stroke:#181818;stroke-width:0.5;" x1="832" x2="1235" y1="311" y2="311"/><rect fill="none" height="6" style="stroke:#C82930;stroke-width:1.0;" width="6" x="839" y="321.6484"/><text fill="#000000" font-family="sans-serif" font-size="14" lengthAdjust="spacing" textLength="201" x="851" y="327.9951">options: TranslationOptions</text><rect fill="none" height="6" style="stroke:#C82930;stroke-width:1.0;" width="6" x="839" y="337.9453"/><text fill="#000000" font-family="sans-serif" font-size="14" lengthAdjust="spacing" textLength="67" x="851" y="344.292">to: string</text><rect fill="none" height="6" style="stroke:#C82930;stroke-width:1.0;" width="6" x="839" y="354.2422"/><text fill="#000000" font-family="sans-serif" font-size="14" lengthAdjust="spacing" textLength="86" x="851" y="360.5889">from: string</text><rect fill="none" height="6" style="stroke:#C82930;stroke-width:1.0;" width="6" x="839" y="370.5391"/><text fill="#000000" font-family="sans-serif" font-size="14" lengthAdjust="spacing" textLength="100" x="851" y="376.8857">apiKey: string</text><rect fill="none" height="6" style="stroke:#C82930;stroke-width:1.0;" width="6" x="839" y="386.8359"/><text fill="#000000" font-family="sans-serif" font-size="14" lengthAdjust="spacing" textLength="222" x="851" y="393.1826">cacheProvider?: CacheProvider</text><line style="stroke:#181818;stroke-width:0.5;" x1="832" x2="1235" y1="400.4844" y2="400.4844"/><ellipse cx="842" cy="414.1328" fill="#84BE84" rx="3" ry="3" style="stroke:#038048;stroke-width:1.0;"/><text fill="#000000" font-family="sans-serif" font-size="14" lengthAdjust="spacing" textLength="379" x="851" y="417.4795">translate(value: string): Promise&lt;string | undefined&gt;</text></g><!--class IdenticalTranslator--><g id="elem_IdenticalTranslator"><rect codeLine="23" fill="#F1F1F1" height="64.2969" id="IdenticalTranslator" rx="2.5" ry="2.5" style="stroke:#181818;stroke-width:0.5;" width="405" x="561" y="72.5"/><ellipse cx="691.75" cy="88.5" fill="#ADD1B2" rx="11" ry="11" style="stroke:#181818;stroke-width:1.0;"/><path d="M694.0938,84.1719 C693.1563,83.7344 692.5625,83.5938 691.6875,83.5938 C689.0625,83.5938 687.0625,85.6719 687.0625,88.3906 L687.0625,89.5156 C687.0625,92.0938 689.1719,93.9844 692.0625,93.9844 C693.2813,93.9844 694.4375,93.6875 695.1875,93.1406 C695.7656,92.7344 696.0938,92.2813 696.0938,91.8906 C696.0938,91.4375 695.7031,91.0469 695.2344,91.0469 C695.0156,91.0469 694.8125,91.125 694.625,91.3125 C694.1719,91.7969 694.1719,91.7969 693.9844,91.8906 C693.5625,92.1563 692.875,92.2813 692.1094,92.2813 C690.0625,92.2813 688.7656,91.1875 688.7656,89.4844 L688.7656,88.3906 C688.7656,86.6094 690.0156,85.2969 691.75,85.2969 C692.3281,85.2969 692.9375,85.4531 693.4063,85.7031 C693.8906,85.9844 694.0625,86.2031 694.1563,86.6094 C694.2188,87.0156 694.25,87.1406 694.3906,87.2656 C694.5313,87.4063 694.7656,87.5156 694.9844,87.5156 C695.25,87.5156 695.5156,87.375 695.6875,87.1563 C695.7969,87 695.8281,86.8125 695.8281,86.3906 L695.8281,84.9688 C695.8281,84.5313 695.8125,84.4063 695.7188,84.25 C695.5625,83.9844 695.2813,83.8438 694.9844,83.8438 C694.6875,83.8438 694.4844,83.9375 694.2656,84.25 L694.0938,84.1719 Z " fill="#000000"/><text fill="#000000" font-family="sans-serif" font-size="14" lengthAdjust="spacing" textLength="135" x="712.25" y="93.3467">IdenticalTranslator</text><line style="stroke:#181818;stroke-width:0.5;" x1="562" x2="965" y1="104.5" y2="104.5"/><line style="stroke:#181818;stroke-width:0.5;" x1="562" x2="965" y1="112.5" y2="112.5"/><ellipse cx="572" cy="126.1484" fill="#84BE84" rx="3" ry="3" style="stroke:#038048;stroke-width:1.0;"/><text fill="#000000" font-family="sans-serif" font-size="14" lengthAdjust="spacing" textLength="379" x="581" y="129.4951">translate(value: string): Promise&lt;string | undefined&gt;</text></g><!--class Languages--><g id="elem_Languages"><rect codeLine="27" fill="#F1F1F1" height="113.1875" id="Languages" rx="2.5" ry="2.5" style="stroke:#181818;stroke-width:0.5;" width="529" x="2508" y="295.5"/><ellipse cx="2730.75" cy="311.5" fill="#ADD1B2" rx="11" ry="11" style="stroke:#181818;stroke-width:1.0;"/><path d="M2733.0938,307.1719 C2732.1563,306.7344 2731.5625,306.5938 2730.6875,306.5938 C2728.0625,306.5938 2726.0625,308.6719 2726.0625,311.3906 L2726.0625,312.5156 C2726.0625,315.0938 2728.1719,316.9844 2731.0625,316.9844 C2732.2813,316.9844 2733.4375,316.6875 2734.1875,316.1406 C2734.7656,315.7344 2735.0938,315.2813 2735.0938,314.8906 C2735.0938,314.4375 2734.7031,314.0469 2734.2344,314.0469 C2734.0156,314.0469 2733.8125,314.125 2733.625,314.3125 C2733.1719,314.7969 2733.1719,314.7969 2732.9844,314.8906 C2732.5625,315.1563 2731.875,315.2813 2731.1094,315.2813 C2729.0625,315.2813 2727.7656,314.1875 2727.7656,312.4844 L2727.7656,311.3906 C2727.7656,309.6094 2729.0156,308.2969 2730.75,308.2969 C2731.3281,308.2969 2731.9375,308.4531 2732.4063,308.7031 C2732.8906,308.9844 2733.0625,309.2031 2733.1563,309.6094 C2733.2188,310.0156 2733.25,310.1406 2733.3906,310.2656 C2733.5313,310.4063 2733.7656,310.5156 2733.9844,310.5156 C2734.25,310.5156 2734.5156,310.375 2734.6875,310.1563 C2734.7969,310 2734.8281,309.8125 2734.8281,309.3906 L2734.8281,307.9688 C2734.8281,307.5313 2734.8125,307.4063 2734.7188,307.25 C2734.5625,306.9844 2734.2813,306.8438 2733.9844,306.8438 C2733.6875,306.8438 2733.4844,306.9375 2733.2656,307.25 L2733.0938,307.1719 Z " fill="#000000"/><text fill="#000000" font-family="sans-serif" font-size="14" lengthAdjust="spacing" textLength="75" x="2751.25" y="316.3467">Languages</text><line style="stroke:#181818;stroke-width:0.5;" x1="2509" x2="3036" y1="327.5" y2="327.5"/><rect fill="none" height="6" style="stroke:#C82930;stroke-width:1.0;" width="6" x="2516" y="338.1484"/><text fill="#000000" font-family="sans-serif" font-size="14" lengthAdjust="spacing" textLength="207" x="2528" y="344.4951">defaultLanguageCode: string</text><rect fill="none" height="6" style="stroke:#C82930;stroke-width:1.0;" width="6" x="2516" y="354.4453"/><text fill="#000000" font-family="sans-serif" font-size="14" lengthAdjust="spacing" textLength="245" x="2528" y="360.792">languages: Record&lt;string, string&gt;</text><line style="stroke:#181818;stroke-width:0.5;" x1="2509" x2="3036" y1="368.0938" y2="368.0938"/><ellipse cx="2519" cy="381.7422" fill="#84BE84" rx="3" ry="3" style="stroke:#038048;stroke-width:1.0;"/><text fill="#000000" font-family="sans-serif" font-size="14" lengthAdjust="spacing" textLength="181" x="2528" y="385.0889">languageLabels(): string[]</text><ellipse cx="2519" cy="398.0391" fill="#84BE84" rx="3" ry="3" style="stroke:#038048;stroke-width:1.0;"/><text fill="#000000" font-family="sans-serif" font-size="14" lengthAdjust="spacing" textLength="503" x="2528" y="401.3857">getLanguageCodeByTranslation(translation: string): string | undefined</text></g><!--class languageSlice--><g id="elem_languageSlice"><rect codeLine="34" fill="#F1F1F1" height="80.5938" id="languageSlice" rx="2.5" ry="2.5" style="stroke:#181818;stroke-width:0.5;" width="444" x="2272.5" y="64"/><ellipse cx="2441.25" cy="80" fill="#ADD1B2" rx="11" ry="11" style="stroke:#181818;stroke-width:1.0;"/><path d="M2443.5938,75.6719 C2442.6563,75.2344 2442.0625,75.0938 2441.1875,75.0938 C2438.5625,75.0938 2436.5625,77.1719 2436.5625,79.8906 L2436.5625,81.0156 C2436.5625,83.5938 2438.6719,85.4844 2441.5625,85.4844 C2442.7813,85.4844 2443.9375,85.1875 2444.6875,84.6406 C2445.2656,84.2344 2445.5938,83.7813 2445.5938,83.3906 C2445.5938,82.9375 2445.2031,82.5469 2444.7344,82.5469 C2444.5156,82.5469 2444.3125,82.625 2444.125,82.8125 C2443.6719,83.2969 2443.6719,83.2969 2443.4844,83.3906 C2443.0625,83.6563 2442.375,83.7813 2441.6094,83.7813 C2439.5625,83.7813 2438.2656,82.6875 2438.2656,80.9844 L2438.2656,79.8906 C2438.2656,78.1094 2439.5156,76.7969 2441.25,76.7969 C2441.8281,76.7969 2442.4375,76.9531 2442.9063,77.2031 C2443.3906,77.4844 2443.5625,77.7031 2443.6563,78.1094 C2443.7188,78.5156 2443.75,78.6406 2443.8906,78.7656 C2444.0313,78.9063 2444.2656,79.0156 2444.4844,79.0156 C2444.75,79.0156 2445.0156,78.875 2445.1875,78.6563 C2445.2969,78.5 2445.3281,78.3125 2445.3281,77.8906 L2445.3281,76.4688 C2445.3281,76.0313 2445.3125,75.9063 2445.2188,75.75 C2445.0625,75.4844 2444.7813,75.3438 2444.4844,75.3438 C2444.1875,75.3438 2443.9844,75.4375 2443.7656,75.75 L2443.5938,75.6719 Z " fill="#000000"/><text fill="#000000" font-family="sans-serif" font-size="14" lengthAdjust="spacing" textLength="98" x="2461.75" y="84.8467">languageSlice</text><line style="stroke:#181818;stroke-width:0.5;" x1="2273.5" x2="2715.5" y1="96" y2="96"/><rect fill="none" height="6" style="stroke:#C82930;stroke-width:1.0;" width="6" x="2280.5" y="106.6484"/><text fill="#000000" font-family="sans-serif" font-size="14" lengthAdjust="spacing" textLength="114" x="2292.5" y="112.9951">initialState: any</text><line style="stroke:#181818;stroke-width:0.5;" x1="2273.5" x2="2715.5" y1="120.2969" y2="120.2969"/><ellipse cx="2283.5" cy="133.9453" fill="#84BE84" rx="3" ry="3" style="stroke:#038048;stroke-width:1.0;"/><text fill="#000000" font-family="sans-serif" font-size="14" lengthAdjust="spacing" textLength="418" x="2292.5" y="137.292">changeLanguage(state, action: PayloadAction&lt;any&gt;): void</text></g><!--class LanguageSwitcher--><g id="elem_LanguageSwitcher"><rect codeLine="39" fill="#F1F1F1" height="194.6719" id="LanguageSwitcher" rx="2.5" ry="2.5" style="stroke:#181818;stroke-width:0.5;" width="287" x="2929" y="7"/><ellipse cx="3002.75" cy="23" fill="#ADD1B2" rx="11" ry="11" style="stroke:#181818;stroke-width:1.0;"/><path d="M3005.0938,18.6719 C3004.1563,18.2344 3003.5625,18.0938 3002.6875,18.0938 C3000.0625,18.0938 2998.0625,20.1719 2998.0625,22.8906 L2998.0625,24.0156 C2998.0625,26.5938 3000.1719,28.4844 3003.0625,28.4844 C3004.2813,28.4844 3005.4375,28.1875 3006.1875,27.6406 C3006.7656,27.2344 3007.0938,26.7813 3007.0938,26.3906 C3007.0938,25.9375 3006.7031,25.5469 3006.2344,25.5469 C3006.0156,25.5469 3005.8125,25.625 3005.625,25.8125 C3005.1719,26.2969 3005.1719,26.2969 3004.9844,26.3906 C3004.5625,26.6563 3003.875,26.7813 3003.1094,26.7813 C3001.0625,26.7813 2999.7656,25.6875 2999.7656,23.9844 L2999.7656,22.8906 C2999.7656,21.1094 3001.0156,19.7969 3002.75,19.7969 C3003.3281,19.7969 3003.9375,19.9531 3004.4063,20.2031 C3004.8906,20.4844 3005.0625,20.7031 3005.1563,21.1094 C3005.2188,21.5156 3005.25,21.6406 3005.3906,21.7656 C3005.5313,21.9063 3005.7656,22.0156 3005.9844,22.0156 C3006.25,22.0156 3006.5156,21.875 3006.6875,21.6563 C3006.7969,21.5 3006.8281,21.3125 3006.8281,20.8906 L3006.8281,19.4688 C3006.8281,19.0313 3006.8125,18.9063 3006.7188,18.75 C3006.5625,18.4844 3006.2813,18.3438 3005.9844,18.3438 C3005.6875,18.3438 3005.4844,18.4375 3005.2656,18.75 L3005.0938,18.6719 Z " fill="#000000"/><text fill="#000000" font-family="sans-serif" font-size="14" lengthAdjust="spacing" textLength="131" x="3023.25" y="27.8467">LanguageSwitcher</text><line style="stroke:#181818;stroke-width:0.5;" x1="2930" x2="3215" y1="39" y2="39"/><rect fill="none" height="6" style="stroke:#C82930;stroke-width:1.0;" width="6" x="2937" y="49.6484"/><text fill="#000000" font-family="sans-serif" font-size="14" lengthAdjust="spacing" textLength="151" x="2949" y="55.9951">storeDispatcher: any</text><rect fill="none" height="6" style="stroke:#C82930;stroke-width:1.0;" width="6" x="2937" y="65.9453"/><text fill="#000000" font-family="sans-serif" font-size="14" lengthAdjust="spacing" textLength="138" x="2949" y="72.292">languageState: any</text><rect fill="none" height="6" style="stroke:#C82930;stroke-width:1.0;" width="6" x="2937" y="82.2422"/><text fill="#000000" font-family="sans-serif" font-size="14" lengthAdjust="spacing" textLength="181" x="2949" y="88.5889">selectedLanguage: string</text><rect fill="none" height="6" style="stroke:#C82930;stroke-width:1.0;" width="6" x="2937" y="98.5391"/><text fill="#000000" font-family="sans-serif" font-size="14" lengthAdjust="spacing" textLength="149" x="2949" y="104.8857">handleTranslate: any</text><rect fill="none" height="6" style="stroke:#C82930;stroke-width:1.0;" width="6" x="2937" y="114.8359"/><text fill="#000000" font-family="sans-serif" font-size="14" lengthAdjust="spacing" textLength="196" x="2949" y="121.1826">selectLanguageText: string</text><rect fill="none" height="6" style="stroke:#C82930;stroke-width:1.0;" width="6" x="2937" y="131.1328"/><text fill="#000000" font-family="sans-serif" font-size="14" lengthAdjust="spacing" textLength="131" x="2949" y="137.4795">searchText: string</text><rect fill="none" height="6" style="stroke:#C82930;stroke-width:1.0;" width="6" x="2937" y="147.4297"/><text fill="#000000" font-family="sans-serif" font-size="14" lengthAdjust="spacing" textLength="211" x="2949" y="153.7764">selectableLanguages: string[]</text><rect fill="none" height="6" style="stroke:#C82930;stroke-width:1.0;" width="6" x="2937" y="163.7266"/><text fill="#000000" font-family="sans-serif" font-size="14" lengthAdjust="spacing" textLength="261" x="2949" y="170.0732">selectedLanguageTranslation: string</text><line style="stroke:#181818;stroke-width:0.5;" x1="2930" x2="3215" y1="177.375" y2="177.375"/><ellipse cx="2940" cy="191.0234" fill="#84BE84" rx="3" ry="3" style="stroke:#038048;stroke-width:1.0;"/><text fill="#000000" font-family="sans-serif" font-size="14" lengthAdjust="spacing" textLength="156" x="2949" y="194.3701">render(): JSX.Element</text></g><!--class CacheTranslator--><g id="elem_CacheTranslator"><rect codeLine="52" fill="#F1F1F1" height="129.4844" id="CacheTranslator" rx="2.5" ry="2.5" style="stroke:#181818;stroke-width:0.5;" width="605" x="1001" y="40"/><ellipse cx="1240.75" cy="56" fill="#ADD1B2" rx="11" ry="11" style="stroke:#181818;stroke-width:1.0;"/><path d="M1243.0938,51.6719 C1242.1563,51.2344 1241.5625,51.0938 1240.6875,51.0938 C1238.0625,51.0938 1236.0625,53.1719 1236.0625,55.8906 L1236.0625,57.0156 C1236.0625,59.5938 1238.1719,61.4844 1241.0625,61.4844 C1242.2813,61.4844 1243.4375,61.1875 1244.1875,60.6406 C1244.7656,60.2344 1245.0938,59.7813 1245.0938,59.3906 C1245.0938,58.9375 1244.7031,58.5469 1244.2344,58.5469 C1244.0156,58.5469 1243.8125,58.625 1243.625,58.8125 C1243.1719,59.2969 1243.1719,59.2969 1242.9844,59.3906 C1242.5625,59.6563 1241.875,59.7813 1241.1094,59.7813 C1239.0625,59.7813 1237.7656,58.6875 1237.7656,56.9844 L1237.7656,55.8906 C1237.7656,54.1094 1239.0156,52.7969 1240.75,52.7969 C1241.3281,52.7969 1241.9375,52.9531 1242.4063,53.2031 C1242.8906,53.4844 1243.0625,53.7031 1243.1563,54.1094 C1243.2188,54.5156 1243.25,54.6406 1243.3906,54.7656 C1243.5313,54.9063 1243.7656,55.0156 1243.9844,55.0156 C1244.25,55.0156 1244.5156,54.875 1244.6875,54.6563 C1244.7969,54.5 1244.8281,54.3125 1244.8281,53.8906 L1244.8281,52.4688 C1244.8281,52.0313 1244.8125,51.9063 1244.7188,51.75 C1244.5625,51.4844 1244.2813,51.3438 1243.9844,51.3438 C1243.6875,51.3438 1243.4844,51.4375 1243.2656,51.75 L1243.0938,51.6719 Z " fill="#000000"/><text fill="#000000" font-family="sans-serif" font-size="14" lengthAdjust="spacing" textLength="117" x="1261.25" y="60.8467">CacheTranslator</text><line style="stroke:#181818;stroke-width:0.5;" x1="1002" x2="1605" y1="72" y2="72"/><rect fill="none" height="6" style="stroke:#C82930;stroke-width:1.0;" width="6" x="1009" y="82.6484"/><text fill="#000000" font-family="sans-serif" font-size="14" lengthAdjust="spacing" textLength="136" x="1021" y="88.9951">cacheProvider: any</text><rect fill="none" height="6" style="stroke:#C82930;stroke-width:1.0;" width="6" x="1009" y="98.9453"/><text fill="#000000" font-family="sans-serif" font-size="14" lengthAdjust="spacing" textLength="67" x="1021" y="105.292">to: string</text><line style="stroke:#181818;stroke-width:0.5;" x1="1002" x2="1605" y1="112.5938" y2="112.5938"/><ellipse cx="1012" cy="126.2422" fill="#84BE84" rx="3" ry="3" style="stroke:#038048;stroke-width:1.0;"/><text fill="#000000" font-family="sans-serif" font-size="14" lengthAdjust="spacing" textLength="379" x="1021" y="129.5889">translate(value: string): Promise&lt;string | undefined&gt;</text><ellipse cx="1012" cy="142.5391" fill="#84BE84" rx="3" ry="3" style="stroke:#038048;stroke-width:1.0;"/><text fill="#000000" font-family="sans-serif" font-size="14" lengthAdjust="spacing" textLength="565" x="1021" y="145.8857">tryGetGoogleTranslationAndCache(value: string): Promise&lt;string | undefined&gt;</text><ellipse cx="1012" cy="158.8359" fill="#84BE84" rx="3" ry="3" style="stroke:#038048;stroke-width:1.0;"/><text fill="#000000" font-family="sans-serif" font-size="14" lengthAdjust="spacing" textLength="579" x="1021" y="162.1826">setCachedTranslationForValue(value: string, translation?: string): Promise&lt;void&gt;</text></g><!--class TranslatorFactory--><g id="elem_TranslatorFactory"><rect codeLine="61" fill="#F1F1F1" height="64.2969" id="TranslatorFactory" rx="2.5" ry="2.5" style="stroke:#181818;stroke-width:0.5;" width="596" x="1641.5" y="72.5"/><ellipse cx="1871.75" cy="88.5" fill="#ADD1B2" rx="11" ry="11" style="stroke:#181818;stroke-width:1.0;"/><path d="M1874.0938,84.1719 C1873.1563,83.7344 1872.5625,83.5938 1871.6875,83.5938 C1869.0625,83.5938 1867.0625,85.6719 1867.0625,88.3906 L1867.0625,89.5156 C1867.0625,92.0938 1869.1719,93.9844 1872.0625,93.9844 C1873.2813,93.9844 1874.4375,93.6875 1875.1875,93.1406 C1875.7656,92.7344 1876.0938,92.2813 1876.0938,91.8906 C1876.0938,91.4375 1875.7031,91.0469 1875.2344,91.0469 C1875.0156,91.0469 1874.8125,91.125 1874.625,91.3125 C1874.1719,91.7969 1874.1719,91.7969 1873.9844,91.8906 C1873.5625,92.1563 1872.875,92.2813 1872.1094,92.2813 C1870.0625,92.2813 1868.7656,91.1875 1868.7656,89.4844 L1868.7656,88.3906 C1868.7656,86.6094 1870.0156,85.2969 1871.75,85.2969 C1872.3281,85.2969 1872.9375,85.4531 1873.4063,85.7031 C1873.8906,85.9844 1874.0625,86.2031 1874.1563,86.6094 C1874.2188,87.0156 1874.25,87.1406 1874.3906,87.2656 C1874.5313,87.4063 1874.7656,87.5156 1874.9844,87.5156 C1875.25,87.5156 1875.5156,87.375 1875.6875,87.1563 C1875.7969,87 1875.8281,86.8125 1875.8281,86.3906 L1875.8281,84.9688 C1875.8281,84.5313 1875.8125,84.4063 1875.7188,84.25 C1875.5625,83.9844 1875.2813,83.8438 1874.9844,83.8438 C1874.6875,83.8438 1874.4844,83.9375 1874.2656,84.25 L1874.0938,84.1719 Z " fill="#000000"/><text fill="#000000" font-family="sans-serif" font-size="14" lengthAdjust="spacing" textLength="127" x="1892.25" y="93.3467">TranslatorFactory</text><line style="stroke:#181818;stroke-width:0.5;" x1="1642.5" x2="2236.5" y1="104.5" y2="104.5"/><line style="stroke:#181818;stroke-width:0.5;" x1="1642.5" x2="2236.5" y1="112.5" y2="112.5"/><ellipse cx="1652.5" cy="126.1484" fill="#84BE84" rx="3" ry="3" style="stroke:#038048;stroke-width:1.0;"/><text fill="#000000" font-family="sans-serif" font-size="14" lengthAdjust="spacing" textLength="570" x="1661.5" y="129.4951">create(options: TranslationOptions, cacheProvider?: CacheProvider): Translator</text></g><!--class PayloadAction--><g id="elem_PayloadAction"><rect fill="#F1F1F1" height="48" id="PayloadAction" rx="2.5" ry="2.5" style="stroke:#181818;stroke-width:0.5;" width="134" x="2338.5" y="328"/><ellipse cx="2353.5" cy="344" fill="#ADD1B2" rx="11" ry="11" style="stroke:#181818;stroke-width:1.0;"/><path d="M2355.8438,339.6719 C2354.9063,339.2344 2354.3125,339.0938 2353.4375,339.0938 C2350.8125,339.0938 2348.8125,341.1719 2348.8125,343.8906 L2348.8125,345.0156 C2348.8125,347.5938 2350.9219,349.4844 2353.8125,349.4844 C2355.0313,349.4844 2356.1875,349.1875 2356.9375,348.6406 C2357.5156,348.2344 2357.8438,347.7813 2357.8438,347.3906 C2357.8438,346.9375 2357.4531,346.5469 2356.9844,346.5469 C2356.7656,346.5469 2356.5625,346.625 2356.375,346.8125 C2355.9219,347.2969 2355.9219,347.2969 2355.7344,347.3906 C2355.3125,347.6563 2354.625,347.7813 2353.8594,347.7813 C2351.8125,347.7813 2350.5156,346.6875 2350.5156,344.9844 L2350.5156,343.8906 C2350.5156,342.1094 2351.7656,340.7969 2353.5,340.7969 C2354.0781,340.7969 2354.6875,340.9531 2355.1563,341.2031 C2355.6406,341.4844 2355.8125,341.7031 2355.9063,342.1094 C2355.9688,342.5156 2356,342.6406 2356.1406,342.7656 C2356.2813,342.9063 2356.5156,343.0156 2356.7344,343.0156 C2357,343.0156 2357.2656,342.875 2357.4375,342.6563 C2357.5469,342.5 2357.5781,342.3125 2357.5781,341.8906 L2357.5781,340.4688 C2357.5781,340.0313 2357.5625,339.9063 2357.4688,339.75 C2357.3125,339.4844 2357.0313,339.3438 2356.7344,339.3438 C2356.4375,339.3438 2356.2344,339.4375 2356.0156,339.75 L2355.8438,339.6719 Z " fill="#000000"/><text fill="#000000" font-family="sans-serif" font-size="14" lengthAdjust="spacing" textLength="102" x="2367.5" y="348.8467">PayloadAction</text><line style="stroke:#181818;stroke-width:0.5;" x1="2339.5" x2="2471.5" y1="360" y2="360"/><line style="stroke:#181818;stroke-width:0.5;" x1="2339.5" x2="2471.5" y1="368" y2="368"/></g><!--class any--><g id="elem_any"><rect fill="#F1F1F1" height="48" id="any" rx="2.5" ry="2.5" style="stroke:#181818;stroke-width:0.5;" width="57" x="3132" y="328"/><ellipse cx="3147" cy="344" fill="#ADD1B2" rx="11" ry="11" style="stroke:#181818;stroke-width:1.0;"/><path d="M3149.3438,339.6719 C3148.4063,339.2344 3147.8125,339.0938 3146.9375,339.0938 C3144.3125,339.0938 3142.3125,341.1719 3142.3125,343.8906 L3142.3125,345.0156 C3142.3125,347.5938 3144.4219,349.4844 3147.3125,349.4844 C3148.5313,349.4844 3149.6875,349.1875 3150.4375,348.6406 C3151.0156,348.2344 3151.3438,347.7813 3151.3438,347.3906 C3151.3438,346.9375 3150.9531,346.5469 3150.4844,346.5469 C3150.2656,346.5469 3150.0625,346.625 3149.875,346.8125 C3149.4219,347.2969 3149.4219,347.2969 3149.2344,347.3906 C3148.8125,347.6563 3148.125,347.7813 3147.3594,347.7813 C3145.3125,347.7813 3144.0156,346.6875 3144.0156,344.9844 L3144.0156,343.8906 C3144.0156,342.1094 3145.2656,340.7969 3147,340.7969 C3147.5781,340.7969 3148.1875,340.9531 3148.6563,341.2031 C3149.1406,341.4844 3149.3125,341.7031 3149.4063,342.1094 C3149.4688,342.5156 3149.5,342.6406 3149.6406,342.7656 C3149.7813,342.9063 3150.0156,343.0156 3150.2344,343.0156 C3150.5,343.0156 3150.7656,342.875 3150.9375,342.6563 C3151.0469,342.5 3151.0781,342.3125 3151.0781,341.8906 L3151.0781,340.4688 C3151.0781,340.0313 3151.0625,339.9063 3150.9688,339.75 C3150.8125,339.4844 3150.5313,339.3438 3150.2344,339.3438 C3149.9375,339.3438 3149.7344,339.4375 3149.5156,339.75 L3149.3438,339.6719 Z " fill="#000000"/><text fill="#000000" font-family="sans-serif" font-size="14" lengthAdjust="spacing" textLength="25" x="3161" y="348.8467">any</text><line style="stroke:#181818;stroke-width:0.5;" x1="3133" x2="3188" y1="360" y2="360"/><line style="stroke:#181818;stroke-width:0.5;" x1="3133" x2="3188" y1="368" y2="368"/></g><!--link Languages to Languages--><g id="link_Languages_Languages"><path codeLine="65" d="M3037.32,336.214 C3058.73,339.6482 3072,344.9102 3072,352 C3072,359.0898 3064.6543,363.4015 3043.2443,366.8357 " fill="none" id="Languages-to-Languages" style="stroke:#181818;stroke-width:1.0;stroke-dasharray:7.0,7.0;"/><polygon fill="#181818" points="3037.32,367.786,3046.8399,370.3101,3042.2569,366.9941,3045.5729,362.4111,3037.32,367.786" style="stroke:#181818;stroke-width:1.0;"/><text fill="#000000" font-family="sans-serif" font-size="13" lengthAdjust="spacing" textLength="30" x="3078" y="356.5669">uses</text></g><!--link languageSlice to Languages--><g id="link_languageSlice_Languages"><path codeLine="67" d="M2539.47,145.217 C2585.58,185.929 2644.1687,237.6653 2695.9487,283.3983 " fill="none" id="languageSlice-to-Languages" style="stroke:#181818;stroke-width:1.0;"/><polygon fill="none" points="2709.44,295.314,2699.9206,278.9012,2691.9768,287.8954,2709.44,295.314" style="stroke:#181818;stroke-width:1.0;"/><text fill="#000000" font-family="sans-serif" font-size="13" lengthAdjust="spacing" textLength="54" x="2651.5" y="245.0669">contains</text></g><!--link languageSlice to PayloadAction--><g id="link_languageSlice_PayloadAction"><path codeLine="68" d="M2480.1,145.217 C2461.31,197.057 2435.165,269.1698 2419.985,311.0413 " fill="none" id="languageSlice-to-PayloadAction" style="stroke:#181818;stroke-width:1.0;"/><polygon fill="none" points="2413.85,327.9635,2425.6257,313.0862,2414.3442,308.9963,2413.85,327.9635" style="stroke:#181818;stroke-width:1.0;"/><text fill="#000000" font-family="sans-serif" font-size="13" lengthAdjust="spacing" textLength="30" x="2448.5" y="245.0669">uses</text></g><!--link LanguageSwitcher to Languages--><g id="link_LanguageSwitcher_Languages"><path codeLine="70" d="M2954.36,202.176 C2915.67,233.842 2887.9298,256.536 2854.2598,284.091 " fill="none" id="LanguageSwitcher-to-Languages" style="stroke:#181818;stroke-width:1.0;"/><polygon fill="none" points="2840.33,295.491,2858.0598,288.7343,2850.4599,279.4477,2840.33,295.491" style="stroke:#181818;stroke-width:1.0;"/><text fill="#000000" font-family="sans-serif" font-size="13" lengthAdjust="spacing" textLength="30" x="2915.5" y="245.0669">uses</text></g><!--link LanguageSwitcher to any--><g id="link_LanguageSwitcher_any"><path codeLine="71" d="M3107.15,202.176 C3123.6,248.065 3135.8079,282.1071 3146.1279,310.9064 " fill="none" id="LanguageSwitcher-to-any" style="stroke:#181818;stroke-width:1.0;"/><polygon fill="none" points="3152.2,327.8513,3151.7762,308.8824,3140.4796,312.9304,3152.2,327.8513" style="stroke:#181818;stroke-width:1.0;"/><text fill="#000000" font-family="sans-serif" font-size="13" lengthAdjust="spacing" textLength="30" x="3123.5" y="245.0669">uses</text></g><!--link GoogleTranslator to Translator--><g id="link_GoogleTranslator_Translator"><path codeLine="73" d="M517.732,193.515 C526.418,196.401 535.027,199.237 543.5,202 C637.545,232.667 725.1485,259.6446 813.6445,286.1996 " fill="none" id="GoogleTranslator-to-Translator" style="stroke:#181818;stroke-width:1.0;"/><polygon fill="none" points="830.885,291.373,815.3689,280.4528,811.92,291.9465,830.885,291.373" style="stroke:#181818;stroke-width:1.0;"/><text fill="#000000" font-family="sans-serif" font-size="13" lengthAdjust="spacing" textLength="52" x="692.5" y="245.0669">extends</text></g><!--link IdenticalTranslator to Translator--><g id="link_IdenticalTranslator_Translator"><path codeLine="74" d="M797.696,136.593 C836.789,172.139 888.7671,219.4008 940.7491,266.6648 " fill="none" id="IdenticalTranslator-to-Translator" style="stroke:#181818;stroke-width:1.0;"/><polygon fill="none" points="954.067,278.774,944.7854,262.2255,936.7127,271.1041,954.067,278.774" style="stroke:#181818;stroke-width:1.0;"/><text fill="#000000" font-family="sans-serif" font-size="13" lengthAdjust="spacing" textLength="52" x="916.5" y="245.0669">extends</text></g><!--link CacheTranslator to Translator--><g id="link_CacheTranslator_Translator"><path codeLine="75" d="M1233.62,169.042 C1196.74,202.571 1164.6578,231.7397 1126.4278,266.5007 " fill="none" id="CacheTranslator-to-Translator" style="stroke:#181818;stroke-width:1.0;"/><polygon fill="none" points="1113.11,278.61,1130.4642,270.9399,1122.3914,262.0614,1113.11,278.61" style="stroke:#181818;stroke-width:1.0;"/><text fill="#000000" font-family="sans-serif" font-size="13" lengthAdjust="spacing" textLength="52" x="1161.5" y="245.0669">extends</text></g><!--link TranslatorFactory to Translator--><g id="link_TranslatorFactory_Translator"><path codeLine="77" d="M1842.35,136.516 C1780.03,156.076 1697.27,181.436 1623.5,202 C1495.27,237.747 1367.8212,270.1097 1253.7012,298.1177 " fill="none" id="TranslatorFactory-to-Translator" style="stroke:#181818;stroke-width:1.0;"/><polygon fill="none" points="1236.22,302.408,1255.1313,303.9447,1252.2711,292.2906,1236.22,302.408" style="stroke:#181818;stroke-width:1.0;"/><text fill="#000000" font-family="sans-serif" font-size="13" lengthAdjust="spacing" textLength="54" x="1512.5" y="245.0669">contains</text></g><!--SRC=[rLLDQnin4Btlhz3HfhP_m18SqhG9RGCDjIc5aiD46gy5icGahTkbwN_lhBpAhgnDm9GUUbkDthpvUgFb2fnZjyPK2jSMj5FWZMM_2iRcpEozDDgLBDxGwVFH5kwzAPdpLkeg73VMx183xEKdR18J1xx5UsiEKg2zBDdry5mGv0tpNJ2S743L6Dsd9IFSJZgyE1hO4wkrm8tKA9QTPtEBFYs6aZsRPuEURy-bMHQ_YuA7TlxNZNokueD0xIK7TLBENnFVWQvggD1rtI44rCf7yxKHc9Ig8hvaNv0RAphw6OkTRvEAg3juHEKcqqZn_I5SLvW4UDiC9-lxxq4nUH5z3J7QIacENHrIIoz1hJnrfcIWcn2ORmcACVR4jRSp1lmOx1uQPK1SXUC5-ImfyC58aRThzKEIB35goj4yy9rqUmZM6B1lLv87uL4XzoWYNT9Yob7qOi-yeiyQV_h4po5OlXqnjrxmg9xhTiauycpM-GIE8hP8pRVjE3-klYtUAzoHAllc1Dbd-vOiHr_COCt-pKjpfKL8w6m-XpuuYW7PZR5VMvgKRCO6OhqS2T6AP_GjkY7D6TjqEymjjeM_yZBDNdzZfkM0kutNh_LYiMI3mTSENL6a6pEVFoKORhG7IS_X22pPaKYNRSKfOu2DeqWFaIRxymL0VouPQPiaw8gnv_15yAaiNmGM-NmoREpD7m00]--></g></svg>