<?xml version="1.0" encoding="us-ascii" standalone="no"?><svg xmlns="http://www.w3.org/2000/svg" xmlns:xlink="http://www.w3.org/1999/xlink" contentStyleType="text/css" height="410px" preserveAspectRatio="none" style="width:352px;height:410px;background:#FFFFFF;" version="1.1" viewBox="0 0 352 410" width="352px" zoomAndPan="magnify"><defs/><g><!--class i18n--><g id="elem_i18n"><rect codeLine="1" fill="#F1F1F1" height="64.2969" id="i18n" rx="2.5" ry="2.5" style="stroke:#181818;stroke-width:0.5;" width="99" x="195" y="181.5"/><ellipse cx="226.65" cy="197.5" fill="#ADD1B2" rx="11" ry="11" style="stroke:#181818;stroke-width:1.0;"/><path d="M228.9938,193.1719 C228.0563,192.7344 227.4625,192.5938 226.5875,192.5938 C223.9625,192.5938 221.9625,194.6719 221.9625,197.3906 L221.9625,198.5156 C221.9625,201.0938 224.0719,202.9844 226.9625,202.9844 C228.1813,202.9844 229.3375,202.6875 230.0875,202.1406 C230.6656,201.7344 230.9938,201.2813 230.9938,200.8906 C230.9938,200.4375 230.6031,200.0469 230.1344,200.0469 C229.9156,200.0469 229.7125,200.125 229.525,200.3125 C229.0719,200.7969 229.0719,200.7969 228.8844,200.8906 C228.4625,201.1563 227.775,201.2813 227.0094,201.2813 C224.9625,201.2813 223.6656,200.1875 223.6656,198.4844 L223.6656,197.3906 C223.6656,195.6094 224.9156,194.2969 226.65,194.2969 C227.2281,194.2969 227.8375,194.4531 228.3063,194.7031 C228.7906,194.9844 228.9625,195.2031 229.0563,195.6094 C229.1188,196.0156 229.15,196.1406 229.2906,196.2656 C229.4313,196.4063 229.6656,196.5156 229.8844,196.5156 C230.15,196.5156 230.4156,196.375 230.5875,196.1563 C230.6969,196 230.7281,195.8125 230.7281,195.3906 L230.7281,193.9688 C230.7281,193.5313 230.7125,193.4063 230.6188,193.25 C230.4625,192.9844 230.1813,192.8438 229.8844,192.8438 C229.5875,192.8438 229.3844,192.9375 229.1656,193.25 L228.9938,193.1719 Z " fill="#000000"/><text fill="#000000" font-family="sans-serif" font-size="14" lengthAdjust="spacing" textLength="30" x="244.35" y="202.3467">i18n</text><line style="stroke:#181818;stroke-width:0.5;" x1="196" x2="293" y1="213.5" y2="213.5"/><line style="stroke:#181818;stroke-width:0.5;" x1="196" x2="293" y1="221.5" y2="221.5"/><ellipse cx="206" cy="235.1484" fill="#84BE84" rx="3" ry="3" style="stroke:#038048;stroke-width:1.0;"/><text fill="#000000" font-family="sans-serif" font-size="14" lengthAdjust="spacing" textLength="73" x="215" y="238.4951">init(): void</text></g><!--class TextTranslated--><g id="elem_TextTranslated"><rect codeLine="5" fill="#F1F1F1" height="80.5938" id="TextTranslated" rx="2.5" ry="2.5" style="stroke:#181818;stroke-width:0.5;" width="201" x="144" y="7"/><ellipse cx="186" cy="23" fill="#ADD1B2" rx="11" ry="11" style="stroke:#181818;stroke-width:1.0;"/><path d="M188.3438,18.6719 C187.4063,18.2344 186.8125,18.0938 185.9375,18.0938 C183.3125,18.0938 181.3125,20.1719 181.3125,22.8906 L181.3125,24.0156 C181.3125,26.5938 183.4219,28.4844 186.3125,28.4844 C187.5313,28.4844 188.6875,28.1875 189.4375,27.6406 C190.0156,27.2344 190.3438,26.7813 190.3438,26.3906 C190.3438,25.9375 189.9531,25.5469 189.4844,25.5469 C189.2656,25.5469 189.0625,25.625 188.875,25.8125 C188.4219,26.2969 188.4219,26.2969 188.2344,26.3906 C187.8125,26.6563 187.125,26.7813 186.3594,26.7813 C184.3125,26.7813 183.0156,25.6875 183.0156,23.9844 L183.0156,22.8906 C183.0156,21.1094 184.2656,19.7969 186,19.7969 C186.5781,19.7969 187.1875,19.9531 187.6563,20.2031 C188.1406,20.4844 188.3125,20.7031 188.4063,21.1094 C188.4688,21.5156 188.5,21.6406 188.6406,21.7656 C188.7813,21.9063 189.0156,22.0156 189.2344,22.0156 C189.5,22.0156 189.7656,21.875 189.9375,21.6563 C190.0469,21.5 190.0781,21.3125 190.0781,20.8906 L190.0781,19.4688 C190.0781,19.0313 190.0625,18.9063 189.9688,18.75 C189.8125,18.4844 189.5313,18.3438 189.2344,18.3438 C188.9375,18.3438 188.7344,18.4375 188.5156,18.75 L188.3438,18.6719 Z " fill="#000000"/><text fill="#000000" font-family="sans-serif" font-size="14" lengthAdjust="spacing" textLength="109" x="206" y="27.8467">TextTranslated</text><line style="stroke:#181818;stroke-width:0.5;" x1="145" x2="344" y1="39" y2="39"/><rect fill="none" height="6" style="stroke:#C82930;stroke-width:1.0;" width="6" x="152" y="49.6484"/><text fill="#000000" font-family="sans-serif" font-size="14" lengthAdjust="spacing" textLength="82" x="164" y="55.9951">text: string</text><line style="stroke:#181818;stroke-width:0.5;" x1="145" x2="344" y1="63.2969" y2="63.2969"/><ellipse cx="155" cy="76.9453" fill="#84BE84" rx="3" ry="3" style="stroke:#038048;stroke-width:1.0;"/><text fill="#000000" font-family="sans-serif" font-size="14" lengthAdjust="spacing" textLength="175" x="164" y="80.292">render(): React.Element</text></g><!--class languageOptions--><g id="elem_languageOptions"><rect codeLine="10" fill="#F1F1F1" height="96.8906" id="languageOptions" rx="2.5" ry="2.5" style="stroke:#181818;stroke-width:0.5;" width="153" x="7" y="165"/><ellipse cx="22" cy="181" fill="#ADD1B2" rx="11" ry="11" style="stroke:#181818;stroke-width:1.0;"/><path d="M24.3438,176.6719 C23.4063,176.2344 22.8125,176.0938 21.9375,176.0938 C19.3125,176.0938 17.3125,178.1719 17.3125,180.8906 L17.3125,182.0156 C17.3125,184.5938 19.4219,186.4844 22.3125,186.4844 C23.5313,186.4844 24.6875,186.1875 25.4375,185.6406 C26.0156,185.2344 26.3438,184.7813 26.3438,184.3906 C26.3438,183.9375 25.9531,183.5469 25.4844,183.5469 C25.2656,183.5469 25.0625,183.625 24.875,183.8125 C24.4219,184.2969 24.4219,184.2969 24.2344,184.3906 C23.8125,184.6563 23.125,184.7813 22.3594,184.7813 C20.3125,184.7813 19.0156,183.6875 19.0156,181.9844 L19.0156,180.8906 C19.0156,179.1094 20.2656,177.7969 22,177.7969 C22.5781,177.7969 23.1875,177.9531 23.6563,178.2031 C24.1406,178.4844 24.3125,178.7031 24.4063,179.1094 C24.4688,179.5156 24.5,179.6406 24.6406,179.7656 C24.7813,179.9063 25.0156,180.0156 25.2344,180.0156 C25.5,180.0156 25.7656,179.875 25.9375,179.6563 C26.0469,179.5 26.0781,179.3125 26.0781,178.8906 L26.0781,177.4688 C26.0781,177.0313 26.0625,176.9063 25.9688,176.75 C25.8125,176.4844 25.5313,176.3438 25.2344,176.3438 C24.9375,176.3438 24.7344,176.4375 24.5156,176.75 L24.3438,176.6719 Z " fill="#000000"/><text fill="#000000" font-family="sans-serif" font-size="14" lengthAdjust="spacing" textLength="121" x="36" y="185.8467">languageOptions</text><line style="stroke:#181818;stroke-width:0.5;" x1="8" x2="159" y1="197" y2="197"/><rect fill="none" height="6" style="stroke:#C82930;stroke-width:1.0;" width="6" x="15" y="207.6484"/><text fill="#000000" font-family="sans-serif" font-size="14" lengthAdjust="spacing" textLength="64" x="27" y="213.9951">nl: string</text><rect fill="none" height="6" style="stroke:#C82930;stroke-width:1.0;" width="6" x="15" y="223.9453"/><text fill="#000000" font-family="sans-serif" font-size="14" lengthAdjust="spacing" textLength="69" x="27" y="230.292">en: string</text><rect fill="none" height="6" style="stroke:#C82930;stroke-width:1.0;" width="6" x="15" y="240.2422"/><text fill="#000000" font-family="sans-serif" font-size="14" lengthAdjust="spacing" textLength="69" x="27" y="246.5889">de: string</text><line style="stroke:#181818;stroke-width:0.5;" x1="8" x2="159" y1="253.8906" y2="253.8906"/></g><!--class LanguageTranslations--><g id="elem_LanguageTranslations"><rect codeLine="16" fill="#F1F1F1" height="64.2969" id="LanguageTranslations" rx="2.5" ry="2.5" style="stroke:#181818;stroke-width:0.5;" width="187" x="54" y="339"/><ellipse cx="69" cy="355" fill="#ADD1B2" rx="11" ry="11" style="stroke:#181818;stroke-width:1.0;"/><path d="M71.3438,350.6719 C70.4063,350.2344 69.8125,350.0938 68.9375,350.0938 C66.3125,350.0938 64.3125,352.1719 64.3125,354.8906 L64.3125,356.0156 C64.3125,358.5938 66.4219,360.4844 69.3125,360.4844 C70.5313,360.4844 71.6875,360.1875 72.4375,359.6406 C73.0156,359.2344 73.3438,358.7813 73.3438,358.3906 C73.3438,357.9375 72.9531,357.5469 72.4844,357.5469 C72.2656,357.5469 72.0625,357.625 71.875,357.8125 C71.4219,358.2969 71.4219,358.2969 71.2344,358.3906 C70.8125,358.6563 70.125,358.7813 69.3594,358.7813 C67.3125,358.7813 66.0156,357.6875 66.0156,355.9844 L66.0156,354.8906 C66.0156,353.1094 67.2656,351.7969 69,351.7969 C69.5781,351.7969 70.1875,351.9531 70.6563,352.2031 C71.1406,352.4844 71.3125,352.7031 71.4063,353.1094 C71.4688,353.5156 71.5,353.6406 71.6406,353.7656 C71.7813,353.9063 72.0156,354.0156 72.2344,354.0156 C72.5,354.0156 72.7656,353.875 72.9375,353.6563 C73.0469,353.5 73.0781,353.3125 73.0781,352.8906 L73.0781,351.4688 C73.0781,351.0313 73.0625,350.9063 72.9688,350.75 C72.8125,350.4844 72.5313,350.3438 72.2344,350.3438 C71.9375,350.3438 71.7344,350.4375 71.5156,350.75 L71.3438,350.6719 Z " fill="#000000"/><text fill="#000000" font-family="sans-serif" font-size="14" lengthAdjust="spacing" textLength="155" x="83" y="359.8467">LanguageTranslations</text><line style="stroke:#181818;stroke-width:0.5;" x1="55" x2="240" y1="371" y2="371"/><rect fill="none" height="6" style="stroke:#C82930;stroke-width:1.0;" width="6" x="62" y="381.6484"/><text fill="#000000" font-family="sans-serif" font-size="14" lengthAdjust="spacing" textLength="129" x="74" y="387.9951">translation: string</text><line style="stroke:#181818;stroke-width:0.5;" x1="55" x2="240" y1="395.2969" y2="395.2969"/></g><!--link i18n to LanguageTranslations--><g id="link_i18n_LanguageTranslations"><path codeLine="20" d="M225.104,245.594 C208.186,272.715 186.9466,306.7642 170.0386,333.8692 " fill="none" id="i18n-to-LanguageTranslations" style="stroke:#181818;stroke-width:1.0;"/><polygon fill="#181818" points="166.863,338.9599,175.0202,333.4408,169.5093,334.7176,168.2326,329.2067,166.863,338.9599" style="stroke:#181818;stroke-width:1.0;"/><text fill="#000000" font-family="sans-serif" font-size="13" lengthAdjust="spacing" textLength="30" x="196.5" y="305.0669">uses</text></g><!--link TextTranslated to i18n--><g id="link_TextTranslated_i18n"><path codeLine="21" d="M244.5,88.2 C244.5,116.829 244.5,148.93 244.5,175.37 " fill="none" id="TextTranslated-to-i18n" style="stroke:#181818;stroke-width:1.0;"/><polygon fill="#181818" points="244.5,181.37,248.5,172.37,244.5,176.37,240.5,172.37,244.5,181.37" style="stroke:#181818;stroke-width:1.0;"/><text fill="#000000" font-family="sans-serif" font-size="13" lengthAdjust="spacing" textLength="30" x="245.5" y="131.0669">uses</text></g><!--link languageOptions to LanguageTranslations--><g id="link_languageOptions_LanguageTranslations"><path codeLine="22" d="M95.9283,262.355 C100.4642,277.529 106.0796,294.201 112.5,309 C116.825,318.9689 119.3706,324.1842 124.7686,333.524 " fill="none" id="languageOptions-to-LanguageTranslations" style="stroke:#181818;stroke-width:1.0;"/><polygon fill="#181818" points="127.771,338.7188,126.7306,328.925,125.269,334.3898,119.8043,332.9282,127.771,338.7188" style="stroke:#181818;stroke-width:1.0;"/><text fill="#000000" font-family="sans-serif" font-size="13" lengthAdjust="spacing" textLength="55" x="113.5" y="305.0669">provides</text></g><!--SRC=[VO_B2i8m44Nt-Oei5OdWJh9mvquGf3yGcg4Cn6d9J4j1_7VRs3TYTZEvvp0t3uvPu-bC-gLqzmv8ABkzrKs9NhsLobCYWrQow8Y34_13raYtjPeb8XLVEW9vY3t_09VByHhW2IIpA3WgQbV0lH8iYKSJXPN70Ard3zCygMw3QhnhwPDvjmHJKMCklrchQmPMcwvzF773zxR17rqLomOzy0S0]--></g></svg>