<?xml version="1.0" encoding="us-ascii" standalone="no"?><svg xmlns="http://www.w3.org/2000/svg" xmlns:xlink="http://www.w3.org/1999/xlink" contentStyleType="text/css" height="500px" preserveAspectRatio="none" style="width:729px;height:500px;background:#FFFFFF;" version="1.1" viewBox="0 0 729 500" width="729px" zoomAndPan="magnify"><defs/><g><!--class LanguageSwitcher--><g id="elem_LanguageSwitcher"><rect codeLine="1" fill="#F1F1F1" height="96.8906" id="LanguageSwitcher" rx="2.5" ry="2.5" style="stroke:#181818;stroke-width:0.5;" width="410" x="101.5" y="7"/><ellipse cx="236.75" cy="23" fill="#ADD1B2" rx="11" ry="11" style="stroke:#181818;stroke-width:1.0;"/><path d="M239.0938,18.6719 C238.1563,18.2344 237.5625,18.0938 236.6875,18.0938 C234.0625,18.0938 232.0625,20.1719 232.0625,22.8906 L232.0625,24.0156 C232.0625,26.5938 234.1719,28.4844 237.0625,28.4844 C238.2813,28.4844 239.4375,28.1875 240.1875,27.6406 C240.7656,27.2344 241.0938,26.7813 241.0938,26.3906 C241.0938,25.9375 240.7031,25.5469 240.2344,25.5469 C240.0156,25.5469 239.8125,25.625 239.625,25.8125 C239.1719,26.2969 239.1719,26.2969 238.9844,26.3906 C238.5625,26.6563 237.875,26.7813 237.1094,26.7813 C235.0625,26.7813 233.7656,25.6875 233.7656,23.9844 L233.7656,22.8906 C233.7656,21.1094 235.0156,19.7969 236.75,19.7969 C237.3281,19.7969 237.9375,19.9531 238.4063,20.2031 C238.8906,20.4844 239.0625,20.7031 239.1563,21.1094 C239.2188,21.5156 239.25,21.6406 239.3906,21.7656 C239.5313,21.9063 239.7656,22.0156 239.9844,22.0156 C240.25,22.0156 240.5156,21.875 240.6875,21.6563 C240.7969,21.5 240.8281,21.3125 240.8281,20.8906 L240.8281,19.4688 C240.8281,19.0313 240.8125,18.9063 240.7188,18.75 C240.5625,18.4844 240.2813,18.3438 239.9844,18.3438 C239.6875,18.3438 239.4844,18.4375 239.2656,18.75 L239.0938,18.6719 Z " fill="#000000"/><text fill="#000000" font-family="sans-serif" font-size="14" lengthAdjust="spacing" textLength="131" x="257.25" y="27.8467">LanguageSwitcher</text><line style="stroke:#181818;stroke-width:0.5;" x1="102.5" x2="510.5" y1="39" y2="39"/><ellipse cx="112.5" cy="52.6484" fill="none" rx="3" ry="3" style="stroke:#038048;stroke-width:1.0;"/><text fill="#000000" font-family="sans-serif" font-size="14" lengthAdjust="spacing" textLength="235" x="121.5" y="55.9951">currentLanguage: LanguageCode</text><ellipse cx="112.5" cy="68.9453" fill="none" rx="3" ry="3" style="stroke:#038048;stroke-width:1.0;"/><text fill="#000000" font-family="sans-serif" font-size="14" lengthAdjust="spacing" textLength="225" x="121.5" y="72.292">availableLanguages: Language[]</text><line style="stroke:#181818;stroke-width:0.5;" x1="102.5" x2="510.5" y1="79.5938" y2="79.5938"/><ellipse cx="112.5" cy="93.2422" fill="#84BE84" rx="3" ry="3" style="stroke:#038048;stroke-width:1.0;"/><text fill="#000000" font-family="sans-serif" font-size="14" lengthAdjust="spacing" textLength="384" x="121.5" y="96.5889">changeLanguage(languageCode: LanguageCode): void</text></g><!--class LanguageSlice--><g id="elem_LanguageSlice"><rect codeLine="7" fill="#F1F1F1" height="96.8906" id="LanguageSlice" rx="2.5" ry="2.5" style="stroke:#181818;stroke-width:0.5;" width="297" x="40" y="164"/><ellipse cx="133.25" cy="180" fill="#ADD1B2" rx="11" ry="11" style="stroke:#181818;stroke-width:1.0;"/><path d="M135.5938,175.6719 C134.6563,175.2344 134.0625,175.0938 133.1875,175.0938 C130.5625,175.0938 128.5625,177.1719 128.5625,179.8906 L128.5625,181.0156 C128.5625,183.5938 130.6719,185.4844 133.5625,185.4844 C134.7813,185.4844 135.9375,185.1875 136.6875,184.6406 C137.2656,184.2344 137.5938,183.7813 137.5938,183.3906 C137.5938,182.9375 137.2031,182.5469 136.7344,182.5469 C136.5156,182.5469 136.3125,182.625 136.125,182.8125 C135.6719,183.2969 135.6719,183.2969 135.4844,183.3906 C135.0625,183.6563 134.375,183.7813 133.6094,183.7813 C131.5625,183.7813 130.2656,182.6875 130.2656,180.9844 L130.2656,179.8906 C130.2656,178.1094 131.5156,176.7969 133.25,176.7969 C133.8281,176.7969 134.4375,176.9531 134.9063,177.2031 C135.3906,177.4844 135.5625,177.7031 135.6563,178.1094 C135.7188,178.5156 135.75,178.6406 135.8906,178.7656 C136.0313,178.9063 136.2656,179.0156 136.4844,179.0156 C136.75,179.0156 137.0156,178.875 137.1875,178.6563 C137.2969,178.5 137.3281,178.3125 137.3281,177.8906 L137.3281,176.4688 C137.3281,176.0313 137.3125,175.9063 137.2188,175.75 C137.0625,175.4844 136.7813,175.3438 136.4844,175.3438 C136.1875,175.3438 135.9844,175.4375 135.7656,175.75 L135.5938,175.6719 Z " fill="#000000"/><text fill="#000000" font-family="sans-serif" font-size="14" lengthAdjust="spacing" textLength="102" x="153.75" y="184.8467">LanguageSlice</text><line style="stroke:#181818;stroke-width:0.5;" x1="41" x2="336" y1="196" y2="196"/><rect fill="none" height="6" style="stroke:#C82930;stroke-width:1.0;" width="6" x="48" y="206.6484"/><text fill="#000000" font-family="sans-serif" font-size="14" lengthAdjust="spacing" textLength="197" x="60" y="212.9951">initialState: LanguageState</text><ellipse cx="51" cy="225.9453" fill="none" rx="3" ry="3" style="stroke:#038048;stroke-width:1.0;"/><text fill="#000000" font-family="sans-serif" font-size="14" lengthAdjust="spacing" textLength="271" x="60" y="229.292">languageSlice: Slice&lt;LanguageState&gt;</text><ellipse cx="51" cy="242.2422" fill="none" rx="3" ry="3" style="stroke:#038048;stroke-width:1.0;"/><text fill="#000000" font-family="sans-serif" font-size="14" lengthAdjust="spacing" textLength="152" x="60" y="245.5889">languageActions: any</text><line style="stroke:#181818;stroke-width:0.5;" x1="41" x2="336" y1="252.8906" y2="252.8906"/></g><!--class LanguageState--><g id="elem_LanguageState"><rect codeLine="13" fill="#F1F1F1" height="64.2969" id="LanguageState" rx="2.5" ry="2.5" style="stroke:#181818;stroke-width:0.5;" width="207" x="7" y="321"/><ellipse cx="52.25" cy="337" fill="#ADD1B2" rx="11" ry="11" style="stroke:#181818;stroke-width:1.0;"/><path d="M54.5938,332.6719 C53.6563,332.2344 53.0625,332.0938 52.1875,332.0938 C49.5625,332.0938 47.5625,334.1719 47.5625,336.8906 L47.5625,338.0156 C47.5625,340.5938 49.6719,342.4844 52.5625,342.4844 C53.7813,342.4844 54.9375,342.1875 55.6875,341.6406 C56.2656,341.2344 56.5938,340.7813 56.5938,340.3906 C56.5938,339.9375 56.2031,339.5469 55.7344,339.5469 C55.5156,339.5469 55.3125,339.625 55.125,339.8125 C54.6719,340.2969 54.6719,340.2969 54.4844,340.3906 C54.0625,340.6563 53.375,340.7813 52.6094,340.7813 C50.5625,340.7813 49.2656,339.6875 49.2656,337.9844 L49.2656,336.8906 C49.2656,335.1094 50.5156,333.7969 52.25,333.7969 C52.8281,333.7969 53.4375,333.9531 53.9063,334.2031 C54.3906,334.4844 54.5625,334.7031 54.6563,335.1094 C54.7188,335.5156 54.75,335.6406 54.8906,335.7656 C55.0313,335.9063 55.2656,336.0156 55.4844,336.0156 C55.75,336.0156 56.0156,335.875 56.1875,335.6563 C56.2969,335.5 56.3281,335.3125 56.3281,334.8906 L56.3281,333.4688 C56.3281,333.0313 56.3125,332.9063 56.2188,332.75 C56.0625,332.4844 55.7813,332.3438 55.4844,332.3438 C55.1875,332.3438 54.9844,332.4375 54.7656,332.75 L54.5938,332.6719 Z " fill="#000000"/><text fill="#000000" font-family="sans-serif" font-size="14" lengthAdjust="spacing" textLength="108" x="72.75" y="341.8467">LanguageState</text><line style="stroke:#181818;stroke-width:0.5;" x1="8" x2="213" y1="353" y2="353"/><rect fill="none" height="6" style="stroke:#C82930;stroke-width:1.0;" width="6" x="15" y="363.6484"/><text fill="#000000" font-family="sans-serif" font-size="14" lengthAdjust="spacing" textLength="181" x="27" y="369.9951">langCode: LanguageCode</text><line style="stroke:#181818;stroke-width:0.5;" x1="8" x2="213" y1="377.2969" y2="377.2969"/></g><!--class LanguageCode--><g id="elem_LanguageCode"><rect codeLine="17" fill="#F1F1F1" height="48" id="LanguageCode" rx="2.5" ry="2.5" style="stroke:#181818;stroke-width:0.5;" width="137" x="120" y="445"/><ellipse cx="135" cy="461" fill="#ADD1B2" rx="11" ry="11" style="stroke:#181818;stroke-width:1.0;"/><path d="M137.3438,456.6719 C136.4063,456.2344 135.8125,456.0938 134.9375,456.0938 C132.3125,456.0938 130.3125,458.1719 130.3125,460.8906 L130.3125,462.0156 C130.3125,464.5938 132.4219,466.4844 135.3125,466.4844 C136.5313,466.4844 137.6875,466.1875 138.4375,465.6406 C139.0156,465.2344 139.3438,464.7813 139.3438,464.3906 C139.3438,463.9375 138.9531,463.5469 138.4844,463.5469 C138.2656,463.5469 138.0625,463.625 137.875,463.8125 C137.4219,464.2969 137.4219,464.2969 137.2344,464.3906 C136.8125,464.6563 136.125,464.7813 135.3594,464.7813 C133.3125,464.7813 132.0156,463.6875 132.0156,461.9844 L132.0156,460.8906 C132.0156,459.1094 133.2656,457.7969 135,457.7969 C135.5781,457.7969 136.1875,457.9531 136.6563,458.2031 C137.1406,458.4844 137.3125,458.7031 137.4063,459.1094 C137.4688,459.5156 137.5,459.6406 137.6406,459.7656 C137.7813,459.9063 138.0156,460.0156 138.2344,460.0156 C138.5,460.0156 138.7656,459.875 138.9375,459.6563 C139.0469,459.5 139.0781,459.3125 139.0781,458.8906 L139.0781,457.4688 C139.0781,457.0313 139.0625,456.9063 138.9688,456.75 C138.8125,456.4844 138.5313,456.3438 138.2344,456.3438 C137.9375,456.3438 137.7344,456.4375 137.5156,456.75 L137.3438,456.6719 Z " fill="#000000"/><text fill="#000000" font-family="sans-serif" font-size="14" lengthAdjust="spacing" textLength="105" x="149" y="465.8467">LanguageCode</text><line style="stroke:#181818;stroke-width:0.5;" x1="121" x2="256" y1="477" y2="477"/><line style="stroke:#181818;stroke-width:0.5;" x1="121" x2="256" y1="485" y2="485"/></g><!--class Language--><g id="elem_Language"><rect codeLine="19" fill="#F1F1F1" height="80.5938" id="Language" rx="2.5" ry="2.5" style="stroke:#181818;stroke-width:0.5;" width="175" x="547" y="15"/><ellipse cx="596.25" cy="31" fill="#ADD1B2" rx="11" ry="11" style="stroke:#181818;stroke-width:1.0;"/><path d="M598.5938,26.6719 C597.6563,26.2344 597.0625,26.0938 596.1875,26.0938 C593.5625,26.0938 591.5625,28.1719 591.5625,30.8906 L591.5625,32.0156 C591.5625,34.5938 593.6719,36.4844 596.5625,36.4844 C597.7813,36.4844 598.9375,36.1875 599.6875,35.6406 C600.2656,35.2344 600.5938,34.7813 600.5938,34.3906 C600.5938,33.9375 600.2031,33.5469 599.7344,33.5469 C599.5156,33.5469 599.3125,33.625 599.125,33.8125 C598.6719,34.2969 598.6719,34.2969 598.4844,34.3906 C598.0625,34.6563 597.375,34.7813 596.6094,34.7813 C594.5625,34.7813 593.2656,33.6875 593.2656,31.9844 L593.2656,30.8906 C593.2656,29.1094 594.5156,27.7969 596.25,27.7969 C596.8281,27.7969 597.4375,27.9531 597.9063,28.2031 C598.3906,28.4844 598.5625,28.7031 598.6563,29.1094 C598.7188,29.5156 598.75,29.6406 598.8906,29.7656 C599.0313,29.9063 599.2656,30.0156 599.4844,30.0156 C599.75,30.0156 600.0156,29.875 600.1875,29.6563 C600.2969,29.5 600.3281,29.3125 600.3281,28.8906 L600.3281,27.4688 C600.3281,27.0313 600.3125,26.9063 600.2188,26.75 C600.0625,26.4844 599.7813,26.3438 599.4844,26.3438 C599.1875,26.3438 598.9844,26.4375 598.7656,26.75 L598.5938,26.6719 Z " fill="#000000"/><text fill="#000000" font-family="sans-serif" font-size="14" lengthAdjust="spacing" textLength="68" x="616.75" y="35.8467">Language</text><line style="stroke:#181818;stroke-width:0.5;" x1="548" x2="721" y1="47" y2="47"/><rect fill="none" height="6" style="stroke:#C82930;stroke-width:1.0;" width="6" x="555" y="57.6484"/><text fill="#000000" font-family="sans-serif" font-size="14" lengthAdjust="spacing" textLength="149" x="567" y="63.9951">code: LanguageCode</text><rect fill="none" height="6" style="stroke:#C82930;stroke-width:1.0;" width="6" x="555" y="73.9453"/><text fill="#000000" font-family="sans-serif" font-size="14" lengthAdjust="spacing" textLength="91" x="567" y="80.292">name: string</text><line style="stroke:#181818;stroke-width:0.5;" x1="548" x2="721" y1="87.5938" y2="87.5938"/></g><!--class Languages--><g id="elem_Languages"><rect fill="#F1F1F1" height="48" id="Languages" rx="2.5" ry="2.5" style="stroke:#181818;stroke-width:0.5;" width="107" x="372" y="188.5"/><ellipse cx="387" cy="204.5" fill="#ADD1B2" rx="11" ry="11" style="stroke:#181818;stroke-width:1.0;"/><path d="M389.3438,200.1719 C388.4063,199.7344 387.8125,199.5938 386.9375,199.5938 C384.3125,199.5938 382.3125,201.6719 382.3125,204.3906 L382.3125,205.5156 C382.3125,208.0938 384.4219,209.9844 387.3125,209.9844 C388.5313,209.9844 389.6875,209.6875 390.4375,209.1406 C391.0156,208.7344 391.3438,208.2813 391.3438,207.8906 C391.3438,207.4375 390.9531,207.0469 390.4844,207.0469 C390.2656,207.0469 390.0625,207.125 389.875,207.3125 C389.4219,207.7969 389.4219,207.7969 389.2344,207.8906 C388.8125,208.1563 388.125,208.2813 387.3594,208.2813 C385.3125,208.2813 384.0156,207.1875 384.0156,205.4844 L384.0156,204.3906 C384.0156,202.6094 385.2656,201.2969 387,201.2969 C387.5781,201.2969 388.1875,201.4531 388.6563,201.7031 C389.1406,201.9844 389.3125,202.2031 389.4063,202.6094 C389.4688,203.0156 389.5,203.1406 389.6406,203.2656 C389.7813,203.4063 390.0156,203.5156 390.2344,203.5156 C390.5,203.5156 390.7656,203.375 390.9375,203.1563 C391.0469,203 391.0781,202.8125 391.0781,202.3906 L391.0781,200.9688 C391.0781,200.5313 391.0625,200.4063 390.9688,200.25 C390.8125,199.9844 390.5313,199.8438 390.2344,199.8438 C389.9375,199.8438 389.7344,199.9375 389.5156,200.25 L389.3438,200.1719 Z " fill="#000000"/><text fill="#000000" font-family="sans-serif" font-size="14" lengthAdjust="spacing" textLength="75" x="401" y="209.3467">Languages</text><line style="stroke:#181818;stroke-width:0.5;" x1="373" x2="478" y1="220.5" y2="220.5"/><line style="stroke:#181818;stroke-width:0.5;" x1="373" x2="478" y1="228.5" y2="228.5"/></g><!--link LanguageSwitcher to LanguageSlice--><g id="link_LanguageSwitcher_LanguageSlice"><path codeLine="24" d="M270.133,104.27 C255.71,123.216 242.7934,140.183 228.3814,159.114 " fill="none" id="LanguageSwitcher-to-LanguageSlice" style="stroke:#181818;stroke-width:1.0;"/><polygon fill="#181818" points="224.747,163.888,233.3813,159.1499,227.7757,159.9097,227.0159,154.3041,224.747,163.888" style="stroke:#181818;stroke-width:1.0;"/></g><!--link LanguageSwitcher to Languages--><g id="link_LanguageSwitcher_Languages"><path codeLine="25" d="M343.175,104.27 C364.618,132.2 387.0702,161.4438 404.0542,183.5658 " fill="none" id="LanguageSwitcher-to-Languages" style="stroke:#181818;stroke-width:1.0;"/><polygon fill="#181818" points="407.708,188.325,405.4001,178.7504,404.6632,184.359,399.0545,183.6221,407.708,188.325" style="stroke:#181818;stroke-width:1.0;"/></g><!--link LanguageSlice to LanguageState--><g id="link_LanguageSlice_LanguageState"><path codeLine="26" d="M161.657,261.164 C150.552,280.882 140.9303,297.9671 131.0313,315.5441 " fill="none" id="LanguageSlice-to-LanguageState" style="stroke:#181818;stroke-width:1.0;"/><polygon fill="#181818" points="128.087,320.772,135.9887,314.8929,130.5406,316.4154,129.0181,310.9673,128.087,320.772" style="stroke:#181818;stroke-width:1.0;"/></g><!--link LanguageSlice to LanguageCode--><g id="link_LanguageSlice_LanguageCode"><path codeLine="27" d="M213.095,261.141 C227.761,295.532 241.71,343.098 231.5,385 C226.237,406.6013 217.4619,423.7587 207.4939,439.7783 " fill="none" id="LanguageSlice-to-LanguageCode" style="stroke:#181818;stroke-width:1.0;"/><polygon fill="#181818" points="204.324,444.8726,212.475,439.3444,206.9656,440.6273,205.6826,435.1179,204.324,444.8726" style="stroke:#181818;stroke-width:1.0;"/></g><!--link LanguageState to LanguageCode--><g id="link_LanguageState_LanguageCode"><path codeLine="28" d="M131.814,385.151 C144.714,404.0054 157.5019,422.6952 169.2689,439.8928 " fill="none" id="LanguageState-to-LanguageCode" style="stroke:#181818;stroke-width:1.0;"/><polygon fill="#181818" points="172.657,444.8446,170.876,435.1581,169.8335,440.7181,164.2736,439.6756,172.657,444.8446" style="stroke:#181818;stroke-width:1.0;"/></g><!--SRC=[VL5B2i8m4Dtd55agqWiKAOXRTrsAYp4DxK2SGfAsY7XtqzZ6fb6p2PdtcSUBK60CFm7L7TIo7D2AHch-ODoT7HUTrfBiZEU1UMmhEN6W1rHmLNB6p8Tslin6ZPi4naOjR6BJRSxx5YlsP4p4sHGAEGNBE19Q15LQi0i3_vmsggKkv_xQHyHYnJm8Yosvz43tB_j7ITW_QjBmgSfFLxDW8bA3Dq1mSu2n6gaUFPF_oR8YBkO_nR2unKZkE_kD-rXn2Mlu1G00]--></g></svg>