<?xml version="1.0" encoding="us-ascii" standalone="no"?><svg xmlns="http://www.w3.org/2000/svg" xmlns:xlink="http://www.w3.org/1999/xlink" contentStyleType="text/css" height="515px" preserveAspectRatio="none" style="width:473px;height:515px;background:#FFFFFF;" version="1.1" viewBox="0 0 473 515" width="473px" zoomAndPan="magnify"><defs/><g><!--cluster Milestone 5 - Learn to Prompt--><g id="cluster_Milestone 5 - Learn to Prompt"><path d="M148.5,6 L392.5,6 A3.75,3.75 0 0 1 395,8.5 L402,28.2969 L463.5,28.2969 A2.5,2.5 0 0 1 466,30.7969 L466,505.5 A2.5,2.5 0 0 1 463.5,508 L148.5,508 A2.5,2.5 0 0 1 146,505.5 L146,8.5 A2.5,2.5 0 0 1 148.5,6 " fill="none" style="stroke:#000000;stroke-width:1.5;"/><line style="stroke:#000000;stroke-width:1.5;" x1="146" x2="402" y1="28.2969" y2="28.2969"/><text fill="#000000" font-family="sans-serif" font-size="14" font-weight="bold" lengthAdjust="spacing" textLength="243" x="150" y="20.9951">Milestone 5 - Learn to Prompt</text></g><!--entity UC5_1--><g id="elem_UC5_1"><rect fill="#F1F1F1" height="46.2969" rx="2.5" ry="2.5" style="stroke:#181818;stroke-width:0.5;" width="240" x="186" y="41"/><rect fill="#F1F1F1" height="10" style="stroke:#181818;stroke-width:0.5;" width="15" x="406" y="46"/><rect fill="#F1F1F1" height="2" style="stroke:#181818;stroke-width:0.5;" width="4" x="404" y="48"/><rect fill="#F1F1F1" height="2" style="stroke:#181818;stroke-width:0.5;" width="4" x="404" y="52"/><text fill="#000000" font-family="sans-serif" font-size="14" lengthAdjust="spacing" textLength="200" x="201" y="73.9951">Engage in Prompt Exercises</text></g><!--entity UC5_2--><g id="elem_UC5_2"><rect fill="#F1F1F1" height="46.2969" rx="2.5" ry="2.5" style="stroke:#181818;stroke-width:0.5;" width="264" x="174" y="122"/><rect fill="#F1F1F1" height="10" style="stroke:#181818;stroke-width:0.5;" width="15" x="418" y="127"/><rect fill="#F1F1F1" height="2" style="stroke:#181818;stroke-width:0.5;" width="4" x="416" y="129"/><rect fill="#F1F1F1" height="2" style="stroke:#181818;stroke-width:0.5;" width="4" x="416" y="133"/><text fill="#000000" font-family="sans-serif" font-size="14" lengthAdjust="spacing" textLength="224" x="189" y="154.9951">Follow Guided Prompt Creation</text></g><!--entity UC5_3--><g id="elem_UC5_3"><rect fill="#F1F1F1" height="46.2969" rx="2.5" ry="2.5" style="stroke:#181818;stroke-width:0.5;" width="263" x="174.5" y="203"/><rect fill="#F1F1F1" height="10" style="stroke:#181818;stroke-width:0.5;" width="15" x="417.5" y="208"/><rect fill="#F1F1F1" height="2" style="stroke:#181818;stroke-width:0.5;" width="4" x="415.5" y="210"/><rect fill="#F1F1F1" height="2" style="stroke:#181818;stroke-width:0.5;" width="4" x="415.5" y="214"/><text fill="#000000" font-family="sans-serif" font-size="14" lengthAdjust="spacing" textLength="223" x="189.5" y="235.9951">Receive Prompt Best Practices</text></g><!--entity UC5_5--><g id="elem_UC5_5"><rect fill="#F1F1F1" height="46.2969" rx="2.5" ry="2.5" style="stroke:#181818;stroke-width:0.5;" width="288" x="162" y="284"/><rect fill="#F1F1F1" height="10" style="stroke:#181818;stroke-width:0.5;" width="15" x="430" y="289"/><rect fill="#F1F1F1" height="2" style="stroke:#181818;stroke-width:0.5;" width="4" x="428" y="291"/><rect fill="#F1F1F1" height="2" style="stroke:#181818;stroke-width:0.5;" width="4" x="428" y="295"/><text fill="#000000" font-family="sans-serif" font-size="14" lengthAdjust="spacing" textLength="248" x="177" y="316.9951">Receive Personalized Assignments</text></g><!--entity UC5_6--><g id="elem_UC5_6"><rect fill="#F1F1F1" height="46.2969" rx="2.5" ry="2.5" style="stroke:#181818;stroke-width:0.5;" width="270" x="171" y="365"/><rect fill="#F1F1F1" height="10" style="stroke:#181818;stroke-width:0.5;" width="15" x="421" y="370"/><rect fill="#F1F1F1" height="2" style="stroke:#181818;stroke-width:0.5;" width="4" x="419" y="372"/><rect fill="#F1F1F1" height="2" style="stroke:#181818;stroke-width:0.5;" width="4" x="419" y="376"/><text fill="#000000" font-family="sans-serif" font-size="14" lengthAdjust="spacing" textLength="230" x="186" y="397.9951">Get Content Recommendations</text></g><!--entity UC5_7--><g id="elem_UC5_7"><rect fill="#F1F1F1" height="46.2969" rx="2.5" ry="2.5" style="stroke:#181818;stroke-width:0.5;" width="174" x="219" y="446"/><rect fill="#F1F1F1" height="10" style="stroke:#181818;stroke-width:0.5;" width="15" x="373" y="451"/><rect fill="#F1F1F1" height="2" style="stroke:#181818;stroke-width:0.5;" width="4" x="371" y="453"/><rect fill="#F1F1F1" height="2" style="stroke:#181818;stroke-width:0.5;" width="4" x="371" y="457"/><text fill="#000000" font-family="sans-serif" font-size="14" lengthAdjust="spacing" textLength="134" x="234" y="478.9951">Learn about Ethics</text></g><!--entity User--><g id="elem_User"><ellipse cx="54" cy="237.5" fill="#F1F1F1" rx="8" ry="8" style="stroke:#181818;stroke-width:0.5;"/><path d="M54,245.5 L54,272.5 M41,253.5 L67,253.5 M54,272.5 L41,287.5 M54,272.5 L67,287.5 " fill="none" style="stroke:#181818;stroke-width:0.5;"/><text fill="#000000" font-family="sans-serif" font-size="14" lengthAdjust="spacing" textLength="31" x="38.5" y="301.9951">User</text></g><!--entity Beginner--><g id="elem_Beginner"><ellipse cx="54" cy="126.5" fill="#F1F1F1" rx="8" ry="8" style="stroke:#181818;stroke-width:0.5;"/><path d="M54,134.5 L54,161.5 M41,142.5 L67,142.5 M54,161.5 L41,176.5 M54,161.5 L67,176.5 " fill="none" style="stroke:#181818;stroke-width:0.5;"/><text fill="#000000" font-family="sans-serif" font-size="14" lengthAdjust="spacing" textLength="96" x="6" y="190.9951">BeginnerUser</text></g><!--link User to UC5_1--><g id="link_User_UC5_1"><path d="M69.8483,252.471 C80.0625,241.792 93.3036,226.496 102,211 C126.555,167.244 100.97,137.857 138,104 C151.532,91.628 162.5372,84.8751 180.0532,78.7411 " fill="none" id="User-to-UC5_1" style="stroke:#181818;stroke-width:1.0;"/><polygon fill="#181818" points="185.716,76.758,175.8997,75.9574,180.997,78.4106,178.5438,83.5078,185.716,76.758" style="stroke:#181818;stroke-width:1.0;"/></g><!--link User to UC5_2--><g id="link_User_UC5_2"><path d="M69.5931,247.342 C84.648,228.488 109.848,200.644 138,185 C149.987,178.338 157.3898,174.7439 170.7688,170.1069 " fill="none" id="User-to-UC5_2" style="stroke:#181818;stroke-width:1.0;"/><polygon fill="#181818" points="176.438,168.142,166.6244,167.3099,171.7137,169.7794,169.2442,174.8687,176.438,168.142" style="stroke:#181818;stroke-width:1.0;"/></g><!--link User to UC5_3--><g id="link_User_UC5_3"><path d="M69.5216,264.618 C90.6765,261.149 126.1521,255.331 168.4141,248.4 " fill="none" id="User-to-UC5_3" style="stroke:#181818;stroke-width:1.0;"/><polygon fill="#181818" points="174.335,247.429,164.8063,244.9383,169.4009,248.2382,166.101,252.8328,174.335,247.429" style="stroke:#181818;stroke-width:1.0;"/></g><!--link User to UC5_5--><g id="link_User_UC5_5"><path d="M69.5216,269.323 C88.5923,272.375 118.1884,277.1101 155.9634,283.1541 " fill="none" id="User-to-UC5_5" style="stroke:#181818;stroke-width:1.0;"/><polygon fill="#181818" points="161.888,284.102,153.633,278.7303,156.9508,283.312,152.3691,286.6298,161.888,284.102" style="stroke:#181818;stroke-width:1.0;"/></g><!--link User to UC5_6--><g id="link_User_UC5_6"><path d="M69.7161,286.135 C84.8644,304.496 110.133,331.636 138,347 C150.941,354.135 159.4383,358.1218 173.8943,363.0108 " fill="none" id="User-to-UC5_6" style="stroke:#181818;stroke-width:1.0;"/><polygon fill="#181818" points="179.578,364.933,172.3339,358.2605,174.8415,363.3311,169.7709,365.8388,179.578,364.933" style="stroke:#181818;stroke-width:1.0;"/></g><!--link User to UC5_7--><g id="link_User_UC5_7"><path d="M64.7012,305.144 C76.0884,342.086 98.6158,396.94 138,428 C160.973,446.1171 184.952,455.1677 213.056,460.9245 " fill="none" id="User-to-UC5_7" style="stroke:#181818;stroke-width:1.0;"/><polygon fill="#181818" points="218.934,462.1285,210.9198,456.4038,214.0357,461.1251,209.3144,464.2411,218.934,462.1285" style="stroke:#181818;stroke-width:1.0;"/></g><!--SRC=[NP11JyCm38Nl-HNMxZsmgTiDYKtRBaoQa3WXX49gCelKdf8C48Z_Jjgqb91BykBFUSzn-18X2dYofmWDUJIHX9NI9eg7-u0UTEZtuMgDbfZHZwLHAtNMvbLRXDc178OeZ5131RUeFNSUHo_jESxWIq5Q3rks7Kqy563xWTvGmF3OMsxgfwjCxiGvUOVzXHfiHdhZKNTHV-5vXk_G8BtXYArJadHEsSdyUNdn3qOVXBMZpsHm4m9PRf7ZnDUPtsCo5ewf1gbNsaGrVOm9NMOqZwsVvP8cYoSo4x5Itqhr_rTLryEWXPoNSb7AkfJBKgv-0000]--></g></svg>