<?xml version="1.0" encoding="us-ascii" standalone="no"?><svg xmlns="http://www.w3.org/2000/svg" xmlns:xlink="http://www.w3.org/1999/xlink" contentStyleType="text/css" height="515px" preserveAspectRatio="none" style="width:475px;height:515px;background:#FFFFFF;" version="1.1" viewBox="0 0 475 515" width="475px" zoomAndPan="magnify"><defs/><g><!--cluster Milestone 2 - App Settings--><g id="cluster_Milestone 2 - App Settings"><path d="M213.5,6 L429.5,6 A3.75,3.75 0 0 1 432,8.5 L439,28.2969 L465.5,28.2969 A2.5,2.5 0 0 1 468,30.7969 L468,505.5 A2.5,2.5 0 0 1 465.5,508 L213.5,508 A2.5,2.5 0 0 1 211,505.5 L211,8.5 A2.5,2.5 0 0 1 213.5,6 " fill="none" style="stroke:#000000;stroke-width:1.5;"/><line style="stroke:#000000;stroke-width:1.5;" x1="211" x2="439" y1="28.2969" y2="28.2969"/><text fill="#000000" font-family="sans-serif" font-size="14" font-weight="bold" lengthAdjust="spacing" textLength="215" x="215" y="20.9951">Milestone 2 - App Settings</text></g><!--entity ST--><g id="elem_ST"><rect fill="#F1F1F1" height="46.2969" rx="2.5" ry="2.5" style="stroke:#181818;stroke-width:0.5;" width="142" x="268.5" y="41"/><rect fill="#F1F1F1" height="10" style="stroke:#181818;stroke-width:0.5;" width="15" x="390.5" y="46"/><rect fill="#F1F1F1" height="2" style="stroke:#181818;stroke-width:0.5;" width="4" x="388.5" y="48"/><rect fill="#F1F1F1" height="2" style="stroke:#181818;stroke-width:0.5;" width="4" x="388.5" y="52"/><text fill="#000000" font-family="sans-serif" font-size="14" lengthAdjust="spacing" textLength="102" x="283.5" y="73.9951">Switch Theme</text></g><!--entity SL--><g id="elem_SL"><rect fill="#F1F1F1" height="46.2969" rx="2.5" ry="2.5" style="stroke:#181818;stroke-width:0.5;" width="160" x="259.5" y="122"/><rect fill="#F1F1F1" height="10" style="stroke:#181818;stroke-width:0.5;" width="15" x="399.5" y="127"/><rect fill="#F1F1F1" height="2" style="stroke:#181818;stroke-width:0.5;" width="4" x="397.5" y="129"/><rect fill="#F1F1F1" height="2" style="stroke:#181818;stroke-width:0.5;" width="4" x="397.5" y="133"/><text fill="#000000" font-family="sans-serif" font-size="14" lengthAdjust="spacing" textLength="120" x="274.5" y="154.9951">Switch Language</text></g><!--entity CFS--><g id="elem_CFS"><rect fill="#F1F1F1" height="46.2969" rx="2.5" ry="2.5" style="stroke:#181818;stroke-width:0.5;" width="165" x="257" y="203"/><rect fill="#F1F1F1" height="10" style="stroke:#181818;stroke-width:0.5;" width="15" x="402" y="208"/><rect fill="#F1F1F1" height="2" style="stroke:#181818;stroke-width:0.5;" width="4" x="400" y="210"/><rect fill="#F1F1F1" height="2" style="stroke:#181818;stroke-width:0.5;" width="4" x="400" y="214"/><text fill="#000000" font-family="sans-serif" font-size="14" lengthAdjust="spacing" textLength="125" x="272" y="235.9951">Change Font Size</text></g><!--entity MP--><g id="elem_MP"><rect fill="#F1F1F1" height="46.2969" rx="2.5" ry="2.5" style="stroke:#181818;stroke-width:0.5;" width="146" x="266.5" y="284"/><rect fill="#F1F1F1" height="10" style="stroke:#181818;stroke-width:0.5;" width="15" x="392.5" y="289"/><rect fill="#F1F1F1" height="2" style="stroke:#181818;stroke-width:0.5;" width="4" x="390.5" y="291"/><rect fill="#F1F1F1" height="2" style="stroke:#181818;stroke-width:0.5;" width="4" x="390.5" y="295"/><text fill="#000000" font-family="sans-serif" font-size="14" lengthAdjust="spacing" textLength="106" x="281.5" y="316.9951">Manage Profile</text></g><!--entity UPP--><g id="elem_UPP"><rect fill="#F1F1F1" height="46.2969" rx="2.5" ry="2.5" style="stroke:#181818;stroke-width:0.5;" width="187" x="246" y="365"/><rect fill="#F1F1F1" height="10" style="stroke:#181818;stroke-width:0.5;" width="15" x="413" y="370"/><rect fill="#F1F1F1" height="2" style="stroke:#181818;stroke-width:0.5;" width="4" x="411" y="372"/><rect fill="#F1F1F1" height="2" style="stroke:#181818;stroke-width:0.5;" width="4" x="411" y="376"/><text fill="#000000" font-family="sans-serif" font-size="14" lengthAdjust="spacing" textLength="147" x="261" y="397.9951">Upload Profile Photo</text></g><!--entity UAF--><g id="elem_UAF"><rect fill="#F1F1F1" height="46.2969" rx="2.5" ry="2.5" style="stroke:#181818;stroke-width:0.5;" width="225" x="227" y="446"/><rect fill="#F1F1F1" height="10" style="stroke:#181818;stroke-width:0.5;" width="15" x="432" y="451"/><rect fill="#F1F1F1" height="2" style="stroke:#181818;stroke-width:0.5;" width="4" x="430" y="453"/><rect fill="#F1F1F1" height="2" style="stroke:#181818;stroke-width:0.5;" width="4" x="430" y="457"/><text fill="#000000" font-family="sans-serif" font-size="14" lengthAdjust="spacing" textLength="185" x="242" y="478.9951">Use Accessibility Features</text></g><!--entity U--><g id="elem_U"><ellipse cx="86.5" cy="196.5" fill="#F1F1F1" rx="8" ry="8" style="stroke:#181818;stroke-width:0.5;"/><path d="M86.5,204.5 L86.5,231.5 M73.5,212.5 L99.5,212.5 M86.5,231.5 L73.5,246.5 M86.5,231.5 L99.5,246.5 " fill="none" style="stroke:#181818;stroke-width:0.5;"/><text fill="#000000" font-family="sans-serif" font-size="14" lengthAdjust="spacing" textLength="31" x="71" y="260.9951">User</text></g><!--entity USN--><g id="elem_USN"><ellipse cx="86.5" cy="439.5" fill="#F1F1F1" rx="8" ry="8" style="stroke:#181818;stroke-width:0.5;"/><path d="M86.5,447.5 L86.5,474.5 M73.5,455.5 L99.5,455.5 M86.5,474.5 L73.5,489.5 M86.5,474.5 L99.5,489.5 " fill="none" style="stroke:#181818;stroke-width:0.5;"/><text fill="#000000" font-family="sans-serif" font-size="14" lengthAdjust="spacing" textLength="161" x="6" y="503.9951">UserWithSpecialNeeds</text></g><!--link U to ST--><g id="link_U_ST"><path d="M102.1413,204.631 C121.923,177.352 159.732,130.522 203,104 C222.762,91.887 240.614,84.8615 262.571,78.8045 " fill="none" id="U-to-ST" style="stroke:#181818;stroke-width:1.0;"/><polygon fill="#181818" points="268.355,77.209,258.6154,75.7463,263.535,78.5386,260.7428,83.4583,268.355,77.209" style="stroke:#181818;stroke-width:1.0;"/></g><!--link U to SL--><g id="link_U_SL"><path d="M102.3632,220.434 C124.27,212.295 166.573,196.832 203,185 C221.196,179.089 235.1312,174.7749 253.7112,169.2579 " fill="none" id="U-to-SL" style="stroke:#181818;stroke-width:1.0;"/><polygon fill="#181818" points="259.463,167.55,249.6967,166.2773,254.6698,168.9732,251.9739,173.9464,259.463,167.55" style="stroke:#181818;stroke-width:1.0;"/></g><!--link U to CFS--><g id="link_U_CFS"><path d="M102.0797,226 C131.742,226 195.041,226 250.988,226 " fill="none" id="U-to-CFS" style="stroke:#181818;stroke-width:1.0;"/><polygon fill="#181818" points="256.988,226,247.988,222,251.988,226,247.988,230,256.988,226" style="stroke:#181818;stroke-width:1.0;"/></g><!--link U to MP--><g id="link_U_MP"><path d="M102.024,231.237 C123.855,239.062 166.464,254.151 203,266 C223.457,272.634 240.0156,277.787 260.5116,283.982 " fill="none" id="U-to-MP" style="stroke:#181818;stroke-width:1.0;"/><polygon fill="#181818" points="266.255,285.718,258.7972,279.2851,261.4688,284.2714,256.4826,286.943,266.255,285.718" style="stroke:#181818;stroke-width:1.0;"/></g><!--link U to UPP--><g id="link_U_UPP"><path d="M102.2096,247.145 C122.065,274.147 159.954,320.535 203,347 C216.086,355.045 225.2094,359.5828 240.0654,364.9038 " fill="none" id="U-to-UPP" style="stroke:#181818;stroke-width:1.0;"/><polygon fill="#181818" points="245.714,366.927,238.5899,360.1265,241.0068,365.241,235.8923,367.658,245.714,366.927" style="stroke:#181818;stroke-width:1.0;"/></g><!--link USN to UAF--><g id="link_USN_UAF"><path d="M167.263,469 C186.211,469 200.771,469 220.852,469 " fill="none" id="USN-to-UAF" style="stroke:#181818;stroke-width:1.0;"/><polygon fill="#181818" points="226.852,469,217.852,465,221.852,469,217.852,473,226.852,469" style="stroke:#181818;stroke-width:1.0;"/></g><!--SRC=[LP31QWGX44JlVaMpzxda0mB3WgUPPS2L748EnkaTcnWLxIKa8VyU7NSXwLErhwXgz7XXu0YPDiUmKaRB58CGndBCe0jcC0Nqd_s9sAc4bem_8Qvbv-eaH3BspMm8Xvay5eu1uG4665C2XSmKjdA0Rm5rdjK7iNLmTlYEBor1dV-1oOJjMiCwcpexklgA86DWKFJLuL6gJcSJMlkIuwNsxsnUEjB9HxFU4ImkSjmDUhax2i9eBPP2h-I9Fq6YuMl6qdsZ53z2Q1Y6ntRgJKmtqMxegZPsqPBhhtGzoby0]--></g></svg>