<?xml version="1.0" encoding="us-ascii" standalone="no"?><svg xmlns="http://www.w3.org/2000/svg" xmlns:xlink="http://www.w3.org/1999/xlink" contentStyleType="text/css" height="596px" preserveAspectRatio="none" style="width:504px;height:596px;background:#FFFFFF;" version="1.1" viewBox="0 0 504 596" width="504px" zoomAndPan="magnify"><defs/><g><!--cluster Milestone 2 - App Settings--><g id="cluster_Milestone 2 - App Settings"><path d="M219.5,6 L435.5,6 A3.75,3.75 0 0 1 438,8.5 L445,28.2969 L494.5,28.2969 A2.5,2.5 0 0 1 497,30.7969 L497,586.5 A2.5,2.5 0 0 1 494.5,589 L219.5,589 A2.5,2.5 0 0 1 217,586.5 L217,8.5 A2.5,2.5 0 0 1 219.5,6 " fill="none" style="stroke:#000000;stroke-width:1.5;"/><line style="stroke:#000000;stroke-width:1.5;" x1="217" x2="445" y1="28.2969" y2="28.2969"/><text fill="#000000" font-family="sans-serif" font-size="14" font-weight="bold" lengthAdjust="spacing" textLength="215" x="221" y="20.9951">Milestone 2 - App Settings</text></g><!--entity ST--><g id="elem_ST"><rect fill="#F1F1F1" height="46.2969" rx="2.5" ry="2.5" style="stroke:#181818;stroke-width:0.5;" width="142" x="286" y="122"/><rect fill="#F1F1F1" height="10" style="stroke:#181818;stroke-width:0.5;" width="15" x="408" y="127"/><rect fill="#F1F1F1" height="2" style="stroke:#181818;stroke-width:0.5;" width="4" x="406" y="129"/><rect fill="#F1F1F1" height="2" style="stroke:#181818;stroke-width:0.5;" width="4" x="406" y="133"/><text fill="#000000" font-family="sans-serif" font-size="14" lengthAdjust="spacing" textLength="102" x="301" y="154.9951">Switch Theme</text></g><!--entity SL--><g id="elem_SL"><rect fill="#F1F1F1" height="46.2969" rx="2.5" ry="2.5" style="stroke:#181818;stroke-width:0.5;" width="160" x="277" y="203"/><rect fill="#F1F1F1" height="10" style="stroke:#181818;stroke-width:0.5;" width="15" x="417" y="208"/><rect fill="#F1F1F1" height="2" style="stroke:#181818;stroke-width:0.5;" width="4" x="415" y="210"/><rect fill="#F1F1F1" height="2" style="stroke:#181818;stroke-width:0.5;" width="4" x="415" y="214"/><text fill="#000000" font-family="sans-serif" font-size="14" lengthAdjust="spacing" textLength="120" x="292" y="235.9951">Switch Language</text></g><!--entity CFS--><g id="elem_CFS"><rect fill="#F1F1F1" height="46.2969" rx="2.5" ry="2.5" style="stroke:#181818;stroke-width:0.5;" width="165" x="274.5" y="284"/><rect fill="#F1F1F1" height="10" style="stroke:#181818;stroke-width:0.5;" width="15" x="419.5" y="289"/><rect fill="#F1F1F1" height="2" style="stroke:#181818;stroke-width:0.5;" width="4" x="417.5" y="291"/><rect fill="#F1F1F1" height="2" style="stroke:#181818;stroke-width:0.5;" width="4" x="417.5" y="295"/><text fill="#000000" font-family="sans-serif" font-size="14" lengthAdjust="spacing" textLength="125" x="289.5" y="316.9951">Change Font Size</text></g><!--entity MP--><g id="elem_MP"><rect fill="#F1F1F1" height="46.2969" rx="2.5" ry="2.5" style="stroke:#181818;stroke-width:0.5;" width="146" x="284" y="365"/><rect fill="#F1F1F1" height="10" style="stroke:#181818;stroke-width:0.5;" width="15" x="410" y="370"/><rect fill="#F1F1F1" height="2" style="stroke:#181818;stroke-width:0.5;" width="4" x="408" y="372"/><rect fill="#F1F1F1" height="2" style="stroke:#181818;stroke-width:0.5;" width="4" x="408" y="376"/><text fill="#000000" font-family="sans-serif" font-size="14" lengthAdjust="spacing" textLength="106" x="299" y="397.9951">Manage Profile</text></g><!--entity UPP--><g id="elem_UPP"><rect fill="#F1F1F1" height="46.2969" rx="2.5" ry="2.5" style="stroke:#181818;stroke-width:0.5;" width="187" x="263.5" y="446"/><rect fill="#F1F1F1" height="10" style="stroke:#181818;stroke-width:0.5;" width="15" x="430.5" y="451"/><rect fill="#F1F1F1" height="2" style="stroke:#181818;stroke-width:0.5;" width="4" x="428.5" y="453"/><rect fill="#F1F1F1" height="2" style="stroke:#181818;stroke-width:0.5;" width="4" x="428.5" y="457"/><text fill="#000000" font-family="sans-serif" font-size="14" lengthAdjust="spacing" textLength="147" x="278.5" y="478.9951">Upload Profile Photo</text></g><!--entity UAF--><g id="elem_UAF"><rect fill="#F1F1F1" height="46.2969" rx="2.5" ry="2.5" style="stroke:#181818;stroke-width:0.5;" width="225" x="244.5" y="527"/><rect fill="#F1F1F1" height="10" style="stroke:#181818;stroke-width:0.5;" width="15" x="449.5" y="532"/><rect fill="#F1F1F1" height="2" style="stroke:#181818;stroke-width:0.5;" width="4" x="447.5" y="534"/><rect fill="#F1F1F1" height="2" style="stroke:#181818;stroke-width:0.5;" width="4" x="447.5" y="538"/><text fill="#000000" font-family="sans-serif" font-size="14" lengthAdjust="spacing" textLength="185" x="259.5" y="559.9951">Use Accessibility Features</text></g><!--entity CNS--><g id="elem_CNS"><rect fill="#F1F1F1" height="46.2969" rx="2.5" ry="2.5" style="stroke:#181818;stroke-width:0.5;" width="248" x="233" y="41"/><rect fill="#F1F1F1" height="10" style="stroke:#181818;stroke-width:0.5;" width="15" x="461" y="46"/><rect fill="#F1F1F1" height="2" style="stroke:#181818;stroke-width:0.5;" width="4" x="459" y="48"/><rect fill="#F1F1F1" height="2" style="stroke:#181818;stroke-width:0.5;" width="4" x="459" y="52"/><text fill="#000000" font-family="sans-serif" font-size="14" lengthAdjust="spacing" textLength="208" x="248" y="73.9951">Change Notification Settings</text></g><!--entity User--><g id="elem_User"><ellipse cx="89.5" cy="237.5" fill="#F1F1F1" rx="8" ry="8" style="stroke:#181818;stroke-width:0.5;"/><path d="M89.5,245.5 L89.5,272.5 M76.5,253.5 L102.5,253.5 M89.5,272.5 L76.5,287.5 M89.5,272.5 L102.5,287.5 " fill="none" style="stroke:#181818;stroke-width:0.5;"/><text fill="#000000" font-family="sans-serif" font-size="14" lengthAdjust="spacing" textLength="31" x="74" y="301.9951">User</text></g><!--entity UserWithSpecialNeeds--><g id="elem_UserWithSpecialNeeds"><ellipse cx="89.5" cy="520.5" fill="#F1F1F1" rx="8" ry="8" style="stroke:#181818;stroke-width:0.5;"/><path d="M89.5,528.5 L89.5,555.5 M76.5,536.5 L102.5,536.5 M89.5,555.5 L76.5,570.5 M89.5,555.5 L102.5,570.5 " fill="none" style="stroke:#181818;stroke-width:0.5;"/><text fill="#000000" font-family="sans-serif" font-size="14" lengthAdjust="spacing" textLength="167" x="6" y="584.9951">User with special needs</text></g><!--link User to ST--><g id="link_User_ST"><path d="M105.1929,254.335 C126.64,236.455 168.397,203.892 209,185 C233.1,173.786 255.1148,166.6789 280.0358,160.3999 " fill="none" id="User-to-ST" style="stroke:#181818;stroke-width:1.0;"/><polygon fill="#181818" points="285.854,158.934,276.1495,157.2541,281.0055,160.1556,278.104,165.0117,285.854,158.934" style="stroke:#181818;stroke-width:1.0;"/></g><!--link User to SL--><g id="link_User_SL"><path d="M105.1526,264.737 C137.331,259.768 210.2133,248.5126 270.9843,239.1286 " fill="none" id="User-to-SL" style="stroke:#181818;stroke-width:1.0;"/><polygon fill="#181818" points="276.914,238.213,267.409,235.6333,271.9726,238.976,268.6298,243.5396,276.914,238.213" style="stroke:#181818;stroke-width:1.0;"/></g><!--link User to CFS--><g id="link_User_CFS"><path d="M105.1526,269.208 C136.896,273.99 208.0889,284.7162 268.5079,293.8182 " fill="none" id="User-to-CFS" style="stroke:#181818;stroke-width:1.0;"/><polygon fill="#181818" points="274.441,294.712,266.1373,289.4159,269.4968,293.9672,264.9456,297.3267,274.441,294.712" style="stroke:#181818;stroke-width:1.0;"/></g><!--link User to MP--><g id="link_User_MP"><path d="M105.266,279.3 C126.802,296.674 168.667,328.36 209,347 C232.449,357.837 253.5577,364.8393 277.8917,371.2463 " fill="none" id="User-to-MP" style="stroke:#181818;stroke-width:1.0;"/><polygon fill="#181818" points="283.694,372.774,276.0091,366.6143,278.8588,371.5009,273.9722,374.3506,283.694,372.774" style="stroke:#181818;stroke-width:1.0;"/></g><!--link User to UPP--><g id="link_User_UPP"><path d="M105.0285,297.632 C123.906,334.131 160.3,394.385 209,428 C225.136,439.138 238.4982,445.4753 257.4862,451.3983 " fill="none" id="User-to-UPP" style="stroke:#181818;stroke-width:1.0;"/><polygon fill="#181818" points="263.214,453.185,255.8134,446.6864,258.4408,451.6961,253.4312,454.3235,263.214,453.185" style="stroke:#181818;stroke-width:1.0;"/></g><!--link UserWithSpecialNeeds to UAF--><g id="link_UserWithSpecialNeeds_UAF"><path d="M173.05,550 C195.579,550 214.371,550 238.234,550 " fill="none" id="UserWithSpecialNeeds-to-UAF" style="stroke:#181818;stroke-width:1.0;"/><polygon fill="#181818" points="244.234,550,235.234,546,239.234,550,235.234,554,244.234,550" style="stroke:#181818;stroke-width:1.0;"/></g><!--link User to CNS--><g id="link_User_CNS"><path d="M105.0598,235.609 C123.852,198.573 160.044,137.776 209,104 C218.688,97.316 223.9079,94.0483 235.0779,89.4093 " fill="none" id="User-to-CNS" style="stroke:#181818;stroke-width:1.0;"/><polygon fill="#181818" points="240.619,87.108,230.7731,86.8658,236.0014,89.0257,233.8415,94.254,240.619,87.108" style="stroke:#181818;stroke-width:1.0;"/></g><!--SRC=[RP1DQiGm38NtFeN8FfiUe106ifg4W2TqKRfm7IKMJUrWQoXjwTth7oRfGBsnxE_nzAGLPmPsu6an31Dvr4pE2g4qEmzZG0ygvFlFrnEnaHjgKckFE8KagRBs8n881O5Dh19YK_fDBGXLHoi6TXRX0MfejWqaCfDTGWNV0k9vbj516xWOVCUNv2ilT-2ix7ADPeMT2pkP-8lGEiiWwQl0KoiBxPHDtGVlvjW_isueQDnMfwORWi4uTbam3ZT5G6YqnX3ebLRYJsXHyTLZABgclOlGEwQPj4fBt8ShSNefVeJ8MwhhnpJNKP-FEiNU7p7dNgT8_ou_mvZZiEZbBm00]--></g></svg>