<?xml version="1.0" encoding="us-ascii" standalone="no"?><svg xmlns="http://www.w3.org/2000/svg" xmlns:xlink="http://www.w3.org/1999/xlink" contentStyleType="text/css" height="606px" preserveAspectRatio="none" style="width:475px;height:606px;background:#FFFFFF;" version="1.1" viewBox="0 0 475 606" width="475px" zoomAndPan="magnify"><defs/><g><!--cluster Milestone 2 - App Settings--><g id="cluster_Milestone 2 - App Settings"><path d="M213.5,97.5 L429.5,97.5 A3.75,3.75 0 0 1 432,100 L439,119.7969 L465.5,119.7969 A2.5,2.5 0 0 1 468,122.2969 L468,597 A2.5,2.5 0 0 1 465.5,599.5 L213.5,599.5 A2.5,2.5 0 0 1 211,597 L211,100 A2.5,2.5 0 0 1 213.5,97.5 " fill="none" style="stroke:#000000;stroke-width:1.5;"/><line style="stroke:#000000;stroke-width:1.5;" x1="211" x2="439" y1="119.7969" y2="119.7969"/><text fill="#000000" font-family="sans-serif" font-size="14" font-weight="bold" lengthAdjust="spacing" textLength="215" x="215" y="112.4951">Milestone 2 - App Settings</text></g><!--entity ST--><g id="elem_ST"><rect fill="#F1F1F1" height="46.2969" rx="2.5" ry="2.5" style="stroke:#181818;stroke-width:0.5;" width="142" x="268.5" y="132.5"/><rect fill="#F1F1F1" height="10" style="stroke:#181818;stroke-width:0.5;" width="15" x="390.5" y="137.5"/><rect fill="#F1F1F1" height="2" style="stroke:#181818;stroke-width:0.5;" width="4" x="388.5" y="139.5"/><rect fill="#F1F1F1" height="2" style="stroke:#181818;stroke-width:0.5;" width="4" x="388.5" y="143.5"/><text fill="#000000" font-family="sans-serif" font-size="14" lengthAdjust="spacing" textLength="102" x="283.5" y="165.4951">Switch Theme</text></g><!--entity SL--><g id="elem_SL"><rect fill="#F1F1F1" height="46.2969" rx="2.5" ry="2.5" style="stroke:#181818;stroke-width:0.5;" width="160" x="259.5" y="213.5"/><rect fill="#F1F1F1" height="10" style="stroke:#181818;stroke-width:0.5;" width="15" x="399.5" y="218.5"/><rect fill="#F1F1F1" height="2" style="stroke:#181818;stroke-width:0.5;" width="4" x="397.5" y="220.5"/><rect fill="#F1F1F1" height="2" style="stroke:#181818;stroke-width:0.5;" width="4" x="397.5" y="224.5"/><text fill="#000000" font-family="sans-serif" font-size="14" lengthAdjust="spacing" textLength="120" x="274.5" y="246.4951">Switch Language</text></g><!--entity CFS--><g id="elem_CFS"><rect fill="#F1F1F1" height="46.2969" rx="2.5" ry="2.5" style="stroke:#181818;stroke-width:0.5;" width="165" x="257" y="294.5"/><rect fill="#F1F1F1" height="10" style="stroke:#181818;stroke-width:0.5;" width="15" x="402" y="299.5"/><rect fill="#F1F1F1" height="2" style="stroke:#181818;stroke-width:0.5;" width="4" x="400" y="301.5"/><rect fill="#F1F1F1" height="2" style="stroke:#181818;stroke-width:0.5;" width="4" x="400" y="305.5"/><text fill="#000000" font-family="sans-serif" font-size="14" lengthAdjust="spacing" textLength="125" x="272" y="327.4951">Change Font Size</text></g><!--entity MP--><g id="elem_MP"><rect fill="#F1F1F1" height="46.2969" rx="2.5" ry="2.5" style="stroke:#181818;stroke-width:0.5;" width="146" x="266.5" y="375.5"/><rect fill="#F1F1F1" height="10" style="stroke:#181818;stroke-width:0.5;" width="15" x="392.5" y="380.5"/><rect fill="#F1F1F1" height="2" style="stroke:#181818;stroke-width:0.5;" width="4" x="390.5" y="382.5"/><rect fill="#F1F1F1" height="2" style="stroke:#181818;stroke-width:0.5;" width="4" x="390.5" y="386.5"/><text fill="#000000" font-family="sans-serif" font-size="14" lengthAdjust="spacing" textLength="106" x="281.5" y="408.4951">Manage Profile</text></g><!--entity UPP--><g id="elem_UPP"><rect fill="#F1F1F1" height="46.2969" rx="2.5" ry="2.5" style="stroke:#181818;stroke-width:0.5;" width="187" x="246" y="456.5"/><rect fill="#F1F1F1" height="10" style="stroke:#181818;stroke-width:0.5;" width="15" x="413" y="461.5"/><rect fill="#F1F1F1" height="2" style="stroke:#181818;stroke-width:0.5;" width="4" x="411" y="463.5"/><rect fill="#F1F1F1" height="2" style="stroke:#181818;stroke-width:0.5;" width="4" x="411" y="467.5"/><text fill="#000000" font-family="sans-serif" font-size="14" lengthAdjust="spacing" textLength="147" x="261" y="489.4951">Upload Profile Photo</text></g><!--entity UAF--><g id="elem_UAF"><rect fill="#F1F1F1" height="46.2969" rx="2.5" ry="2.5" style="stroke:#181818;stroke-width:0.5;" width="225" x="227" y="537.5"/><rect fill="#F1F1F1" height="10" style="stroke:#181818;stroke-width:0.5;" width="15" x="432" y="542.5"/><rect fill="#F1F1F1" height="2" style="stroke:#181818;stroke-width:0.5;" width="4" x="430" y="544.5"/><rect fill="#F1F1F1" height="2" style="stroke:#181818;stroke-width:0.5;" width="4" x="430" y="548.5"/><text fill="#000000" font-family="sans-serif" font-size="14" lengthAdjust="spacing" textLength="185" x="242" y="570.4951">Use Accessibility Features</text></g><!--entity U--><g id="elem_U"><ellipse cx="86.5" cy="248" fill="#F1F1F1" rx="8" ry="8" style="stroke:#181818;stroke-width:0.5;"/><path d="M86.5,256 L86.5,283 M73.5,264 L99.5,264 M86.5,283 L73.5,298 M86.5,283 L99.5,298 " fill="none" style="stroke:#181818;stroke-width:0.5;"/><text fill="#000000" font-family="sans-serif" font-size="14" lengthAdjust="spacing" textLength="31" x="71" y="312.4951">User</text></g><!--entity USN--><g id="elem_USN"><ellipse cx="86.5" cy="531" fill="#F1F1F1" rx="8" ry="8" style="stroke:#181818;stroke-width:0.5;"/><path d="M86.5,539 L86.5,566 M73.5,547 L99.5,547 M86.5,566 L73.5,581 M86.5,566 L99.5,581 " fill="none" style="stroke:#181818;stroke-width:0.5;"/><text fill="#000000" font-family="sans-serif" font-size="14" lengthAdjust="spacing" textLength="161" x="6" y="595.4951">UserWithSpecialNeeds</text></g><!--entity MPC--><g id="elem_MPC"><ellipse cx="339.5" cy="14" fill="#F1F1F1" rx="8" ry="8" style="stroke:#181818;stroke-width:0.5;"/><path d="M339.5,22 L339.5,49 M326.5,30 L352.5,30 M339.5,49 L326.5,64 M339.5,49 L352.5,64 " fill="none" style="stroke:#181818;stroke-width:0.5;"/><text fill="#000000" font-family="sans-serif" font-size="14" lengthAdjust="spacing" textLength="31" x="324" y="78.4951">MPC</text></g><!--link U to ST--><g id="link_U_ST"><path d="M102.1676,264.628 C123.167,246.799 163.627,214.627 203,195.5 C223.408,185.586 240.9885,179.2612 262.4915,173.1222 " fill="none" id="U-to-ST" style="stroke:#181818;stroke-width:1.0;"/><polygon fill="#181818" points="268.261,171.475,258.5087,170.0994,263.4531,172.8476,260.7049,177.7921,268.261,171.475" style="stroke:#181818;stroke-width:1.0;"/></g><!--link U to SL--><g id="link_U_SL"><path d="M102.0797,275.118 C132.16,270.205 197.0825,259.6003 253.4265,250.3963 " fill="none" id="U-to-SL" style="stroke:#181818;stroke-width:1.0;"/><polygon fill="#181818" points="259.348,249.429,249.8209,246.9323,254.4134,250.2351,251.1106,254.8276,259.348,249.429" style="stroke:#181818;stroke-width:1.0;"/></g><!--link U to CFS--><g id="link_U_CFS"><path d="M102.0797,279.823 C131.742,284.55 195.1158,294.6497 251.0628,303.5657 " fill="none" id="U-to-CFS" style="stroke:#181818;stroke-width:1.0;"/><polygon fill="#181818" points="256.988,304.51,248.7297,299.1434,252.0503,303.7231,247.4706,307.0437,256.988,304.51" style="stroke:#181818;stroke-width:1.0;"/></g><!--link U to MP--><g id="link_U_MP"><path d="M102.2438,289.997 C123.334,307.32 163.9,338.622 203,357.5 C222.809,367.064 239.5776,373.2429 260.4916,379.4579 " fill="none" id="U-to-MP" style="stroke:#181818;stroke-width:1.0;"/><polygon fill="#181818" points="266.243,381.167,258.7553,374.769,261.4502,379.7427,256.4764,382.4376,266.243,381.167" style="stroke:#181818;stroke-width:1.0;"/></g><!--link U to UPP--><g id="link_U_UPP"><path d="M102.0714,308.922 C120.531,345.339 155.723,404.666 203,438.5 C215.791,447.654 225.0255,452.7209 240.1265,458.2809 " fill="none" id="U-to-UPP" style="stroke:#181818;stroke-width:1.0;"/><polygon fill="#181818" points="245.757,460.354,238.6933,453.4907,241.0649,458.6264,235.9292,460.998,245.757,460.354" style="stroke:#181818;stroke-width:1.0;"/></g><!--link U to MPC--><g id="link_U_MPC"><path d="M102.1255,249.795 C121.489,215.165 158.44,155.687 203,116.5 C241.125,82.972 291.6946,61.1487 318.1246,51.0167 " fill="none" id="U-to-MPC" style="stroke:#181818;stroke-width:1.0;"/><polygon fill="#181818" points="323.727,48.869,313.8915,48.3556,319.0583,50.6588,316.7551,55.8255,323.727,48.869" style="stroke:#181818;stroke-width:1.0;"/></g><!--link USN to UAF--><g id="link_USN_UAF"><path d="M167.263,560.5 C186.211,560.5 200.771,560.5 220.852,560.5 " fill="none" id="USN-to-UAF" style="stroke:#181818;stroke-width:1.0;"/><polygon fill="#181818" points="226.852,560.5,217.852,556.5,221.852,560.5,217.852,564.5,226.852,560.5" style="stroke:#181818;stroke-width:1.0;"/></g><!--SRC=[LP11QyGW48Nl_efXxxdq1nH2m5Eo15pfeVHWpMmScgheBAKj_U_Lk87Mq_DzZtd3R7Xbu029LiUmK4BB5BmGnd98e3CcC1dqd_yJiLCHBPdjZBZadQkp4D7ODxCYd2RQC7Fm20_GGHyZA6Gcl-OJV0iexrbz45i75uVl-58dgCi_C1g_tigmniR61bTS11ayWwAl1WUf6fsCh-rp2jVIlxDfRaZ7BPZbG32xm64FwFb8P8JUMioPNcaZ_WI9Xcy9SylrKlm8eQ7h7kkgTp7UHTsXgTBOH9ryM8CezsbkBty1]--></g></svg>