<?xml version="1.0" encoding="us-ascii" standalone="no"?><svg xmlns="http://www.w3.org/2000/svg" xmlns:xlink="http://www.w3.org/1999/xlink" contentStyleType="text/css" height="596px" preserveAspectRatio="none" style="width:598px;height:596px;background:#FFFFFF;" version="1.1" viewBox="0 0 598 596" width="598px" zoomAndPan="magnify"><defs/><g><!--cluster Milestone 2 - App Settings--><g id="cluster_Milestone 2 - App Settings"><path d="M213.5,6 L429.5,6 A3.75,3.75 0 0 1 432,8.5 L439,28.2969 L588.5,28.2969 A2.5,2.5 0 0 1 591,30.7969 L591,586.5 A2.5,2.5 0 0 1 588.5,589 L213.5,589 A2.5,2.5 0 0 1 211,586.5 L211,8.5 A2.5,2.5 0 0 1 213.5,6 " fill="none" style="stroke:#000000;stroke-width:1.5;"/><line style="stroke:#000000;stroke-width:1.5;" x1="211" x2="439" y1="28.2969" y2="28.2969"/><text fill="#000000" font-family="sans-serif" font-size="14" font-weight="bold" lengthAdjust="spacing" textLength="215" x="215" y="20.9951">Milestone 2 - App Settings</text></g><!--entity ST--><g id="elem_ST"><rect fill="#F1F1F1" height="46.2969" rx="2.5" ry="2.5" style="stroke:#181818;stroke-width:0.5;" width="142" x="330" y="122"/><rect fill="#F1F1F1" height="10" style="stroke:#181818;stroke-width:0.5;" width="15" x="452" y="127"/><rect fill="#F1F1F1" height="2" style="stroke:#181818;stroke-width:0.5;" width="4" x="450" y="129"/><rect fill="#F1F1F1" height="2" style="stroke:#181818;stroke-width:0.5;" width="4" x="450" y="133"/><text fill="#000000" font-family="sans-serif" font-size="14" lengthAdjust="spacing" textLength="102" x="345" y="154.9951">Switch Theme</text></g><!--entity SL--><g id="elem_SL"><rect fill="#F1F1F1" height="46.2969" rx="2.5" ry="2.5" style="stroke:#181818;stroke-width:0.5;" width="160" x="321" y="203"/><rect fill="#F1F1F1" height="10" style="stroke:#181818;stroke-width:0.5;" width="15" x="461" y="208"/><rect fill="#F1F1F1" height="2" style="stroke:#181818;stroke-width:0.5;" width="4" x="459" y="210"/><rect fill="#F1F1F1" height="2" style="stroke:#181818;stroke-width:0.5;" width="4" x="459" y="214"/><text fill="#000000" font-family="sans-serif" font-size="14" lengthAdjust="spacing" textLength="120" x="336" y="235.9951">Switch Language</text></g><!--entity CFS--><g id="elem_CFS"><rect fill="#F1F1F1" height="46.2969" rx="2.5" ry="2.5" style="stroke:#181818;stroke-width:0.5;" width="165" x="318.5" y="284"/><rect fill="#F1F1F1" height="10" style="stroke:#181818;stroke-width:0.5;" width="15" x="463.5" y="289"/><rect fill="#F1F1F1" height="2" style="stroke:#181818;stroke-width:0.5;" width="4" x="461.5" y="291"/><rect fill="#F1F1F1" height="2" style="stroke:#181818;stroke-width:0.5;" width="4" x="461.5" y="295"/><text fill="#000000" font-family="sans-serif" font-size="14" lengthAdjust="spacing" textLength="125" x="333.5" y="316.9951">Change Font Size</text></g><!--entity MP--><g id="elem_MP"><rect fill="#F1F1F1" height="46.2969" rx="2.5" ry="2.5" style="stroke:#181818;stroke-width:0.5;" width="146" x="328" y="365"/><rect fill="#F1F1F1" height="10" style="stroke:#181818;stroke-width:0.5;" width="15" x="454" y="370"/><rect fill="#F1F1F1" height="2" style="stroke:#181818;stroke-width:0.5;" width="4" x="452" y="372"/><rect fill="#F1F1F1" height="2" style="stroke:#181818;stroke-width:0.5;" width="4" x="452" y="376"/><text fill="#000000" font-family="sans-serif" font-size="14" lengthAdjust="spacing" textLength="106" x="343" y="397.9951">Manage Profile</text></g><!--entity UPP--><g id="elem_UPP"><rect fill="#F1F1F1" height="46.2969" rx="2.5" ry="2.5" style="stroke:#181818;stroke-width:0.5;" width="187" x="307.5" y="446"/><rect fill="#F1F1F1" height="10" style="stroke:#181818;stroke-width:0.5;" width="15" x="474.5" y="451"/><rect fill="#F1F1F1" height="2" style="stroke:#181818;stroke-width:0.5;" width="4" x="472.5" y="453"/><rect fill="#F1F1F1" height="2" style="stroke:#181818;stroke-width:0.5;" width="4" x="472.5" y="457"/><text fill="#000000" font-family="sans-serif" font-size="14" lengthAdjust="spacing" textLength="147" x="322.5" y="478.9951">Upload Profile Photo</text></g><!--entity UAF--><g id="elem_UAF"><rect fill="#F1F1F1" height="46.2969" rx="2.5" ry="2.5" style="stroke:#181818;stroke-width:0.5;" width="225" x="288.5" y="527"/><rect fill="#F1F1F1" height="10" style="stroke:#181818;stroke-width:0.5;" width="15" x="493.5" y="532"/><rect fill="#F1F1F1" height="2" style="stroke:#181818;stroke-width:0.5;" width="4" x="491.5" y="534"/><rect fill="#F1F1F1" height="2" style="stroke:#181818;stroke-width:0.5;" width="4" x="491.5" y="538"/><text fill="#000000" font-family="sans-serif" font-size="14" lengthAdjust="spacing" textLength="185" x="303.5" y="559.9951">Use Accessibility Features</text></g><!--entity MPC--><g id="elem_MPC"><rect fill="#F1F1F1" height="46.2969" rx="2.5" ry="2.5" style="stroke:#181818;stroke-width:0.5;" width="348" x="227" y="41"/><rect fill="#F1F1F1" height="10" style="stroke:#181818;stroke-width:0.5;" width="15" x="555" y="46"/><rect fill="#F1F1F1" height="2" style="stroke:#181818;stroke-width:0.5;" width="4" x="553" y="48"/><rect fill="#F1F1F1" height="2" style="stroke:#181818;stroke-width:0.5;" width="4" x="553" y="52"/><text fill="#000000" font-family="sans-serif" font-size="14" lengthAdjust="spacing" textLength="308" x="242" y="73.9951">Maintain Performance with Customizations</text></g><!--entity U--><g id="elem_U"><ellipse cx="86.5" cy="237.5" fill="#F1F1F1" rx="8" ry="8" style="stroke:#181818;stroke-width:0.5;"/><path d="M86.5,245.5 L86.5,272.5 M73.5,253.5 L99.5,253.5 M86.5,272.5 L73.5,287.5 M86.5,272.5 L99.5,287.5 " fill="none" style="stroke:#181818;stroke-width:0.5;"/><text fill="#000000" font-family="sans-serif" font-size="14" lengthAdjust="spacing" textLength="31" x="71" y="301.9951">User</text></g><!--entity USN--><g id="elem_USN"><ellipse cx="86.5" cy="520.5" fill="#F1F1F1" rx="8" ry="8" style="stroke:#181818;stroke-width:0.5;"/><path d="M86.5,528.5 L86.5,555.5 M73.5,536.5 L99.5,536.5 M86.5,555.5 L73.5,570.5 M86.5,555.5 L99.5,570.5 " fill="none" style="stroke:#181818;stroke-width:0.5;"/><text fill="#000000" font-family="sans-serif" font-size="14" lengthAdjust="spacing" textLength="161" x="6" y="584.9951">UserWithSpecialNeeds</text></g><!--link U to ST--><g id="link_U_ST"><path d="M102.2983,253.337 C123.136,234.88 163.06,202.304 203,185 C243.189,167.588 285.3816,158.4982 324.0076,152.8762 " fill="none" id="U-to-ST" style="stroke:#181818;stroke-width:1.0;"/><polygon fill="#181818" points="329.945,152.012,320.4627,149.35,324.9971,152.7322,321.615,157.2666,329.945,152.012" style="stroke:#181818;stroke-width:1.0;"/></g><!--link U to SL--><g id="link_U_SL"><path d="M102.1534,265.077 C140.586,260.035 240.512,246.9245 315.05,237.1455 " fill="none" id="U-to-SL" style="stroke:#181818;stroke-width:1.0;"/><polygon fill="#181818" points="320.999,236.365,311.5551,233.5697,316.0415,237.0154,312.5958,241.5017,320.999,236.365" style="stroke:#181818;stroke-width:1.0;"/></g><!--link U to CFS--><g id="link_U_CFS"><path d="M102.1534,268.876 C140.104,273.733 237.8616,286.2462 312.2246,295.7652 " fill="none" id="U-to-CFS" style="stroke:#181818;stroke-width:1.0;"/><polygon fill="#181818" points="318.176,296.527,309.7567,291.4166,313.2165,295.8921,308.741,299.3519,318.176,296.527" style="stroke:#181818;stroke-width:1.0;"/></g><!--link U to MP--><g id="link_U_MP"><path d="M102.0215,279.985 C122.848,297.887 163.102,329.873 203,347 C242.485,363.95 283.5764,373.154 321.7754,379.101 " fill="none" id="U-to-MP" style="stroke:#181818;stroke-width:1.0;"/><polygon fill="#181818" points="327.704,380.024,319.4265,374.6871,322.7635,379.2548,318.1958,382.5919,327.704,380.024" style="stroke:#181818;stroke-width:1.0;"/></g><!--link U to UPP--><g id="link_U_UPP"><path d="M102.0508,300.153 C120.161,337.348 154.703,396.575 203,428 C233.746,448.005 266.4819,457.5771 301.3979,462.9941 " fill="none" id="U-to-UPP" style="stroke:#181818;stroke-width:1.0;"/><polygon fill="#181818" points="307.327,463.914,299.0466,458.5815,302.3861,463.1475,297.8202,466.4869,307.327,463.914" style="stroke:#181818;stroke-width:1.0;"/></g><!--link U to MPC--><g id="link_U_MPC"><path d="M102.0754,233.058 C120.103,195.345 154.467,135.612 203,104 C213.235,97.333 218.7929,93.9945 230.3619,89.3085 " fill="none" id="U-to-MPC" style="stroke:#181818;stroke-width:1.0;"/><polygon fill="#181818" points="235.923,87.056,226.0796,86.7274,231.2887,88.9331,229.083,94.1422,235.923,87.056" style="stroke:#181818;stroke-width:1.0;"/></g><!--link USN to UAF--><g id="link_USN_UAF"><path d="M167.166,550 C203.965,550 242.294,550 282.353,550 " fill="none" id="USN-to-UAF" style="stroke:#181818;stroke-width:1.0;"/><polygon fill="#181818" points="288.353,550,279.353,546,283.353,550,279.353,554,288.353,550" style="stroke:#181818;stroke-width:1.0;"/></g><!--SRC=[LP31QeGm48RlUOfXxrxw00KHFEaYPAM7qaCQHpDK4qb6okxITszY5Df0uCzym_p_PCQHWHrucWp3G1uraxD2ACtEGn_GWmhG_tc_4HkveYOrNn67i7Dv5M9L-ajD29UMPWpiBC8B552kAqXa9Zk52pm5nFCklucrWPl11J_I17dx1nfbfoqEowp9h3AnYb0xoo3faM5LoqnRPPDxvzqO_NVMTXdrw-pKS2BeZ6EtD_JTsH4GIgqn1FgacVWEDIhUF8RSLzQd2LcE5phqe_EBiXeXHZPGRN7bXHug_Lyux2ln8qGFHV6Q5Zn4SuYKFAkOCukKvonL8lvghfRrBm00]--></g></svg>