<?xml version="1.0" encoding="us-ascii" standalone="no"?><svg xmlns="http://www.w3.org/2000/svg" xmlns:xlink="http://www.w3.org/1999/xlink" contentStyleType="text/css" height="515px" preserveAspectRatio="none" style="width:408px;height:515px;background:#FFFFFF;" version="1.1" viewBox="0 0 408 515" width="408px" zoomAndPan="magnify"><defs/><g><!--cluster Milestone 5 - Learn to Prompt--><g id="cluster_Milestone 5 - Learn to Prompt"><path d="M83.5,6 L327.5,6 A3.75,3.75 0 0 1 330,8.5 L337,28.2969 L398.5,28.2969 A2.5,2.5 0 0 1 401,30.7969 L401,505.5 A2.5,2.5 0 0 1 398.5,508 L83.5,508 A2.5,2.5 0 0 1 81,505.5 L81,8.5 A2.5,2.5 0 0 1 83.5,6 " fill="none" style="stroke:#000000;stroke-width:1.5;"/><line style="stroke:#000000;stroke-width:1.5;" x1="81" x2="337" y1="28.2969" y2="28.2969"/><text fill="#000000" font-family="sans-serif" font-size="14" font-weight="bold" lengthAdjust="spacing" textLength="243" x="85" y="20.9951">Milestone 5 - Learn to Prompt</text></g><!--entity UC5_1--><g id="elem_UC5_1"><rect fill="#F1F1F1" height="46.2969" rx="2.5" ry="2.5" style="stroke:#181818;stroke-width:0.5;" width="240" x="121" y="41"/><rect fill="#F1F1F1" height="10" style="stroke:#181818;stroke-width:0.5;" width="15" x="341" y="46"/><rect fill="#F1F1F1" height="2" style="stroke:#181818;stroke-width:0.5;" width="4" x="339" y="48"/><rect fill="#F1F1F1" height="2" style="stroke:#181818;stroke-width:0.5;" width="4" x="339" y="52"/><text fill="#000000" font-family="sans-serif" font-size="14" lengthAdjust="spacing" textLength="200" x="136" y="73.9951">Engage in Prompt Exercises</text></g><!--entity UC5_2--><g id="elem_UC5_2"><rect fill="#F1F1F1" height="46.2969" rx="2.5" ry="2.5" style="stroke:#181818;stroke-width:0.5;" width="264" x="109" y="122"/><rect fill="#F1F1F1" height="10" style="stroke:#181818;stroke-width:0.5;" width="15" x="353" y="127"/><rect fill="#F1F1F1" height="2" style="stroke:#181818;stroke-width:0.5;" width="4" x="351" y="129"/><rect fill="#F1F1F1" height="2" style="stroke:#181818;stroke-width:0.5;" width="4" x="351" y="133"/><text fill="#000000" font-family="sans-serif" font-size="14" lengthAdjust="spacing" textLength="224" x="124" y="154.9951">Follow Guided Prompt Creation</text></g><!--entity UC5_3--><g id="elem_UC5_3"><rect fill="#F1F1F1" height="46.2969" rx="2.5" ry="2.5" style="stroke:#181818;stroke-width:0.5;" width="263" x="109.5" y="203"/><rect fill="#F1F1F1" height="10" style="stroke:#181818;stroke-width:0.5;" width="15" x="352.5" y="208"/><rect fill="#F1F1F1" height="2" style="stroke:#181818;stroke-width:0.5;" width="4" x="350.5" y="210"/><rect fill="#F1F1F1" height="2" style="stroke:#181818;stroke-width:0.5;" width="4" x="350.5" y="214"/><text fill="#000000" font-family="sans-serif" font-size="14" lengthAdjust="spacing" textLength="223" x="124.5" y="235.9951">Receive Prompt Best Practices</text></g><!--entity UC5_5--><g id="elem_UC5_5"><rect fill="#F1F1F1" height="46.2969" rx="2.5" ry="2.5" style="stroke:#181818;stroke-width:0.5;" width="288" x="97" y="284"/><rect fill="#F1F1F1" height="10" style="stroke:#181818;stroke-width:0.5;" width="15" x="365" y="289"/><rect fill="#F1F1F1" height="2" style="stroke:#181818;stroke-width:0.5;" width="4" x="363" y="291"/><rect fill="#F1F1F1" height="2" style="stroke:#181818;stroke-width:0.5;" width="4" x="363" y="295"/><text fill="#000000" font-family="sans-serif" font-size="14" lengthAdjust="spacing" textLength="248" x="112" y="316.9951">Receive Personalized Assignments</text></g><!--entity UC5_6--><g id="elem_UC5_6"><rect fill="#F1F1F1" height="46.2969" rx="2.5" ry="2.5" style="stroke:#181818;stroke-width:0.5;" width="270" x="106" y="365"/><rect fill="#F1F1F1" height="10" style="stroke:#181818;stroke-width:0.5;" width="15" x="356" y="370"/><rect fill="#F1F1F1" height="2" style="stroke:#181818;stroke-width:0.5;" width="4" x="354" y="372"/><rect fill="#F1F1F1" height="2" style="stroke:#181818;stroke-width:0.5;" width="4" x="354" y="376"/><text fill="#000000" font-family="sans-serif" font-size="14" lengthAdjust="spacing" textLength="230" x="121" y="397.9951">Get Content Recommendations</text></g><!--entity UC5_7--><g id="elem_UC5_7"><rect fill="#F1F1F1" height="46.2969" rx="2.5" ry="2.5" style="stroke:#181818;stroke-width:0.5;" width="174" x="154" y="446"/><rect fill="#F1F1F1" height="10" style="stroke:#181818;stroke-width:0.5;" width="15" x="308" y="451"/><rect fill="#F1F1F1" height="2" style="stroke:#181818;stroke-width:0.5;" width="4" x="306" y="453"/><rect fill="#F1F1F1" height="2" style="stroke:#181818;stroke-width:0.5;" width="4" x="306" y="457"/><text fill="#000000" font-family="sans-serif" font-size="14" lengthAdjust="spacing" textLength="134" x="169" y="478.9951">Learn about Ethics</text></g><!--entity User--><g id="elem_User"><ellipse cx="21.5" cy="237.5" fill="#F1F1F1" rx="8" ry="8" style="stroke:#181818;stroke-width:0.5;"/><path d="M21.5,245.5 L21.5,272.5 M8.5,253.5 L34.5,253.5 M21.5,272.5 L8.5,287.5 M21.5,272.5 L34.5,287.5 " fill="none" style="stroke:#181818;stroke-width:0.5;"/><text fill="#000000" font-family="sans-serif" font-size="14" lengthAdjust="spacing" textLength="31" x="6" y="301.9951">User</text></g><!--link User to UC5_1--><g id="link_User_UC5_1"><path d="M23.9164,228.748 C27.3969,191.628 38.5135,136.304 73,104 C86.4903,91.364 97.5783,84.484 115.2198,78.31 " fill="none" id="User-to-UC5_1" style="stroke:#181818;stroke-width:1.0;"/><polygon fill="#181818" points="120.883,76.328,111.0669,75.5255,116.1637,77.9796,113.7095,83.0764,120.883,76.328" style="stroke:#181818;stroke-width:1.0;"/></g><!--link User to UC5_2--><g id="link_User_UC5_2"><path d="M37.1987,230.46 C45.4528,214.281 57.294,196.378 73,185 C83.8645,177.129 90.5,173.0216 103.2384,167.9176 " fill="none" id="User-to-UC5_2" style="stroke:#181818;stroke-width:1.0;"/><polygon fill="#181818" points="108.808,165.686,98.9659,165.3204,104.1667,167.5457,101.9414,172.7464,108.808,165.686" style="stroke:#181818;stroke-width:1.0;"/></g><!--link User to UC5_3--><g id="link_User_UC5_3"><path d="M37.1085,264.246 C54.5386,260.961 79.5323,256.2495 112.0339,250.1225 " fill="none" id="User-to-UC5_3" style="stroke:#181818;stroke-width:1.0;"/><polygon fill="#181818" points="117.93,249.011,108.3448,246.7475,113.0165,249.9373,109.8268,254.609,117.93,249.011" style="stroke:#181818;stroke-width:1.0;"/></g><!--link User to UC5_5--><g id="link_User_UC5_5"><path d="M37.1085,269.687 C53.9671,272.787 77.5163,277.1178 108.837,282.8778 " fill="none" id="User-to-UC5_5" style="stroke:#181818;stroke-width:1.0;"/><polygon fill="#181818" points="114.738,283.963,106.6099,278.4011,109.8205,283.0586,105.163,286.2692,114.738,283.963" style="stroke:#181818;stroke-width:1.0;"/></g><!--link User to UC5_6--><g id="link_User_UC5_6"><path d="M37.2059,302.21 C45.5189,318.093 57.4072,335.768 73,347 C83.0529,354.241 88.7062,357.8818 100.3874,362.8048 " fill="none" id="User-to-UC5_6" style="stroke:#181818;stroke-width:1.0;"/><polygon fill="#181818" points="105.9164,365.135,99.1763,357.9537,101.3089,363.1932,96.0694,365.3257,105.9164,365.135" style="stroke:#181818;stroke-width:1.0;"/></g><!--link User to UC5_7--><g id="link_User_UC5_7"><path d="M24.1298,305.097 C27.7843,341.735 39.0405,396.122 73,428 C94.7664,448.4325 119.1161,458.0349 147.8931,463.5195 " fill="none" id="User-to-UC5_7" style="stroke:#181818;stroke-width:1.0;"/><polygon fill="#181818" points="153.787,464.6428,145.695,459.0286,148.8754,463.7067,144.1973,466.8871,153.787,464.6428" style="stroke:#181818;stroke-width:1.0;"/></g><!--SRC=[NP11JyCm38Nl-HNMxZsmgTjj4anZ5v0GqauJGY4rdKKQJuat48Z_Zjjib92By-Glpy_n-2eW397QlK134PqG1sEi4uwmJHZ1fg4QSx3kpRO8atloc8G3GWqLtA6DeJTvYDmTP09V1lJirg7jQGhd1gm_C3fAc9u6prNzV9N9M_QUts5pf0QR2xsAQFiil_0qmu_ea4vumMuqYTurBxa_phD_CCR4mNhwr07NAL4REWmoydNcDwY3EOZsGDzofrGpn1ZHUKRpslQ5ZxgPxCcDnC9y6pFyNLKjpuiMSbhAMIdhKivBkVW1]--></g></svg>