<?xml version="1.0" encoding="us-ascii" standalone="no"?><svg xmlns="http://www.w3.org/2000/svg" xmlns:xlink="http://www.w3.org/1999/xlink" contentStyleType="text/css" height="596px" preserveAspectRatio="none" style="width:498px;height:596px;background:#FFFFFF;" version="1.1" viewBox="0 0 498 596" width="498px" zoomAndPan="magnify"><defs/><g><!--cluster Milestone 2 - App Settings--><g id="cluster_Milestone 2 - App Settings"><path d="M213.5,6 L429.5,6 A3.75,3.75 0 0 1 432,8.5 L439,28.2969 L488.5,28.2969 A2.5,2.5 0 0 1 491,30.7969 L491,586.5 A2.5,2.5 0 0 1 488.5,589 L213.5,589 A2.5,2.5 0 0 1 211,586.5 L211,8.5 A2.5,2.5 0 0 1 213.5,6 " fill="none" style="stroke:#000000;stroke-width:1.5;"/><line style="stroke:#000000;stroke-width:1.5;" x1="211" x2="439" y1="28.2969" y2="28.2969"/><text fill="#000000" font-family="sans-serif" font-size="14" font-weight="bold" lengthAdjust="spacing" textLength="215" x="215" y="20.9951">Milestone 2 - App Settings</text></g><!--entity ST--><g id="elem_ST"><rect fill="#F1F1F1" height="46.2969" rx="2.5" ry="2.5" style="stroke:#181818;stroke-width:0.5;" width="142" x="280" y="122"/><rect fill="#F1F1F1" height="10" style="stroke:#181818;stroke-width:0.5;" width="15" x="402" y="127"/><rect fill="#F1F1F1" height="2" style="stroke:#181818;stroke-width:0.5;" width="4" x="400" y="129"/><rect fill="#F1F1F1" height="2" style="stroke:#181818;stroke-width:0.5;" width="4" x="400" y="133"/><text fill="#000000" font-family="sans-serif" font-size="14" lengthAdjust="spacing" textLength="102" x="295" y="154.9951">Switch Theme</text></g><!--entity SL--><g id="elem_SL"><rect fill="#F1F1F1" height="46.2969" rx="2.5" ry="2.5" style="stroke:#181818;stroke-width:0.5;" width="160" x="271" y="203"/><rect fill="#F1F1F1" height="10" style="stroke:#181818;stroke-width:0.5;" width="15" x="411" y="208"/><rect fill="#F1F1F1" height="2" style="stroke:#181818;stroke-width:0.5;" width="4" x="409" y="210"/><rect fill="#F1F1F1" height="2" style="stroke:#181818;stroke-width:0.5;" width="4" x="409" y="214"/><text fill="#000000" font-family="sans-serif" font-size="14" lengthAdjust="spacing" textLength="120" x="286" y="235.9951">Switch Language</text></g><!--entity CFS--><g id="elem_CFS"><rect fill="#F1F1F1" height="46.2969" rx="2.5" ry="2.5" style="stroke:#181818;stroke-width:0.5;" width="165" x="268.5" y="284"/><rect fill="#F1F1F1" height="10" style="stroke:#181818;stroke-width:0.5;" width="15" x="413.5" y="289"/><rect fill="#F1F1F1" height="2" style="stroke:#181818;stroke-width:0.5;" width="4" x="411.5" y="291"/><rect fill="#F1F1F1" height="2" style="stroke:#181818;stroke-width:0.5;" width="4" x="411.5" y="295"/><text fill="#000000" font-family="sans-serif" font-size="14" lengthAdjust="spacing" textLength="125" x="283.5" y="316.9951">Change Font Size</text></g><!--entity MP--><g id="elem_MP"><rect fill="#F1F1F1" height="46.2969" rx="2.5" ry="2.5" style="stroke:#181818;stroke-width:0.5;" width="146" x="278" y="365"/><rect fill="#F1F1F1" height="10" style="stroke:#181818;stroke-width:0.5;" width="15" x="404" y="370"/><rect fill="#F1F1F1" height="2" style="stroke:#181818;stroke-width:0.5;" width="4" x="402" y="372"/><rect fill="#F1F1F1" height="2" style="stroke:#181818;stroke-width:0.5;" width="4" x="402" y="376"/><text fill="#000000" font-family="sans-serif" font-size="14" lengthAdjust="spacing" textLength="106" x="293" y="397.9951">Manage Profile</text></g><!--entity UPP--><g id="elem_UPP"><rect fill="#F1F1F1" height="46.2969" rx="2.5" ry="2.5" style="stroke:#181818;stroke-width:0.5;" width="187" x="257.5" y="446"/><rect fill="#F1F1F1" height="10" style="stroke:#181818;stroke-width:0.5;" width="15" x="424.5" y="451"/><rect fill="#F1F1F1" height="2" style="stroke:#181818;stroke-width:0.5;" width="4" x="422.5" y="453"/><rect fill="#F1F1F1" height="2" style="stroke:#181818;stroke-width:0.5;" width="4" x="422.5" y="457"/><text fill="#000000" font-family="sans-serif" font-size="14" lengthAdjust="spacing" textLength="147" x="272.5" y="478.9951">Upload Profile Photo</text></g><!--entity UAF--><g id="elem_UAF"><rect fill="#F1F1F1" height="46.2969" rx="2.5" ry="2.5" style="stroke:#181818;stroke-width:0.5;" width="225" x="238.5" y="527"/><rect fill="#F1F1F1" height="10" style="stroke:#181818;stroke-width:0.5;" width="15" x="443.5" y="532"/><rect fill="#F1F1F1" height="2" style="stroke:#181818;stroke-width:0.5;" width="4" x="441.5" y="534"/><rect fill="#F1F1F1" height="2" style="stroke:#181818;stroke-width:0.5;" width="4" x="441.5" y="538"/><text fill="#000000" font-family="sans-serif" font-size="14" lengthAdjust="spacing" textLength="185" x="253.5" y="559.9951">Use Accessibility Features</text></g><!--entity CNS--><g id="elem_CNS"><rect fill="#F1F1F1" height="46.2969" rx="2.5" ry="2.5" style="stroke:#181818;stroke-width:0.5;" width="248" x="227" y="41"/><rect fill="#F1F1F1" height="10" style="stroke:#181818;stroke-width:0.5;" width="15" x="455" y="46"/><rect fill="#F1F1F1" height="2" style="stroke:#181818;stroke-width:0.5;" width="4" x="453" y="48"/><rect fill="#F1F1F1" height="2" style="stroke:#181818;stroke-width:0.5;" width="4" x="453" y="52"/><text fill="#000000" font-family="sans-serif" font-size="14" lengthAdjust="spacing" textLength="208" x="242" y="73.9951">Change Notification Settings</text></g><!--entity U--><g id="elem_U"><ellipse cx="86.5" cy="237.5" fill="#F1F1F1" rx="8" ry="8" style="stroke:#181818;stroke-width:0.5;"/><path d="M86.5,245.5 L86.5,272.5 M73.5,253.5 L99.5,253.5 M86.5,272.5 L73.5,287.5 M86.5,272.5 L99.5,287.5 " fill="none" style="stroke:#181818;stroke-width:0.5;"/><text fill="#000000" font-family="sans-serif" font-size="14" lengthAdjust="spacing" textLength="31" x="71" y="301.9951">User</text></g><!--entity USN--><g id="elem_USN"><ellipse cx="86.5" cy="520.5" fill="#F1F1F1" rx="8" ry="8" style="stroke:#181818;stroke-width:0.5;"/><path d="M86.5,528.5 L86.5,555.5 M73.5,536.5 L99.5,536.5 M86.5,555.5 L73.5,570.5 M86.5,555.5 L99.5,570.5 " fill="none" style="stroke:#181818;stroke-width:0.5;"/><text fill="#000000" font-family="sans-serif" font-size="14" lengthAdjust="spacing" textLength="161" x="6" y="584.9951">UserWithSpecialNeeds</text></g><!--link U to ST--><g id="link_U_ST"><path d="M102.1113,254.011 C123.044,236.042 163.425,203.705 203,185 C227.032,173.641 249.0309,166.498 273.9589,160.235 " fill="none" id="U-to-ST" style="stroke:#181818;stroke-width:1.0;"/><polygon fill="#181818" points="279.778,158.773,270.0746,157.0866,274.9287,159.9914,272.024,164.8455,279.778,158.773" style="stroke:#181818;stroke-width:1.0;"/></g><!--link U to SL--><g id="link_U_SL"><path d="M102.3653,264.678 C134.252,259.698 205.2419,248.6099 264.9629,239.2819 " fill="none" id="U-to-SL" style="stroke:#181818;stroke-width:1.0;"/><polygon fill="#181818" points="270.891,238.356,261.3815,235.7928,265.9509,239.1276,262.6161,243.697,270.891,238.356" style="stroke:#181818;stroke-width:1.0;"/></g><!--link U to CFS--><g id="link_U_CFS"><path d="M102.3653,269.265 C133.818,274.058 203.1545,284.6232 262.5125,293.6682 " fill="none" id="U-to-CFS" style="stroke:#181818;stroke-width:1.0;"/><polygon fill="#181818" points="268.444,294.572,260.1493,289.2619,263.5011,293.8188,258.9441,297.1706,268.444,294.572" style="stroke:#181818;stroke-width:1.0;"/></g><!--link U to MP--><g id="link_U_MP"><path d="M102.187,279.616 C123.21,297.08 163.697,328.55 203,347 C226.504,358.033 247.751,365.1068 272.189,371.5118 " fill="none" id="U-to-MP" style="stroke:#181818;stroke-width:1.0;"/><polygon fill="#181818" points="277.993,373.033,270.3012,366.8819,273.1564,371.7654,268.2729,374.6206,277.993,373.033" style="stroke:#181818;stroke-width:1.0;"/></g><!--link U to UPP--><g id="link_U_UPP"><path d="M102.1077,298.927 C120.49,335.542 155.498,394.783 203,428 C219.176,439.312 232.6576,445.7303 251.7656,451.6723 " fill="none" id="U-to-UPP" style="stroke:#181818;stroke-width:1.0;"/><polygon fill="#181818" points="257.495,453.454,250.0887,446.9619,252.7205,451.9693,247.7132,454.6011,257.495,453.454" style="stroke:#181818;stroke-width:1.0;"/></g><!--link USN to UAF--><g id="link_USN_UAF"><path d="M167.328,550 C189.652,550 208.333,550 232.144,550 " fill="none" id="USN-to-UAF" style="stroke:#181818;stroke-width:1.0;"/><polygon fill="#181818" points="238.144,550,229.144,546,233.144,550,229.144,554,238.144,550" style="stroke:#181818;stroke-width:1.0;"/></g><!--link U to CNS--><g id="link_U_CNS"><path d="M102.1309,234.292 C120.424,197.147 155.242,137.379 203,104 C212.539,97.333 217.6099,94.1023 228.6279,89.4703 " fill="none" id="U-to-CNS" style="stroke:#181818;stroke-width:1.0;"/><polygon fill="#181818" points="234.159,87.145,224.3122,86.9455,229.5498,89.0827,227.4125,94.3203,234.159,87.145" style="stroke:#181818;stroke-width:1.0;"/></g><!--SRC=[LP11QiGm34NtFeMOVJOzG24CP9MOW2TqKRfm7IKMTUrWQoXjwTrhnvdIyUfRxoDzoU72m04YhPPXfeY6ANWXjE4GOKeOGIUO_lsVYAtQq91s4d5EErTIY4sRDxqYd0Poc3XuX0TeeDqsKCXCVaqd-1QGtxFw83OMBXRVyQLqK9Sxq6k_NdEpolhApZPN4RhW6HHzLNZkLAM3zcNw6CEIv-zi62kQDXVqV4Cmsi1XDqpZpP4GMcCm9NebH_m97Mg-HapLrtPt4MHWMiZeSgk_vMeSgSIF41CqpMDPwX3z8KhQgdAsAag6VB-gyvp3ADKl]--></g></svg>