<?xml version="1.0" encoding="us-ascii" standalone="no"?><svg xmlns="http://www.w3.org/2000/svg" xmlns:xlink="http://www.w3.org/1999/xlink" contentStyleType="text/css" height="758px" preserveAspectRatio="none" style="width:598px;height:758px;background:#FFFFFF;" version="1.1" viewBox="0 0 598 758" width="598px" zoomAndPan="magnify"><defs/><g><!--cluster Milestone 2 - App Settings--><g id="cluster_Milestone 2 - App Settings"><path d="M213.5,6 L429.5,6 A3.75,3.75 0 0 1 432,8.5 L439,28.2969 L588.5,28.2969 A2.5,2.5 0 0 1 591,30.7969 L591,748.5 A2.5,2.5 0 0 1 588.5,751 L213.5,751 A2.5,2.5 0 0 1 211,748.5 L211,8.5 A2.5,2.5 0 0 1 213.5,6 " fill="none" style="stroke:#000000;stroke-width:1.5;"/><line style="stroke:#000000;stroke-width:1.5;" x1="211" x2="439" y1="28.2969" y2="28.2969"/><text fill="#000000" font-family="sans-serif" font-size="14" font-weight="bold" lengthAdjust="spacing" textLength="215" x="215" y="20.9951">Milestone 2 - App Settings</text></g><!--entity SNP--><g id="elem_SNP"><rect fill="#F1F1F1" height="46.2969" rx="2.5" ry="2.5" style="stroke:#181818;stroke-width:0.5;" width="274" x="264" y="122"/><rect fill="#F1F1F1" height="10" style="stroke:#181818;stroke-width:0.5;" width="15" x="518" y="127"/><rect fill="#F1F1F1" height="2" style="stroke:#181818;stroke-width:0.5;" width="4" x="516" y="129"/><rect fill="#F1F1F1" height="2" style="stroke:#181818;stroke-width:0.5;" width="4" x="516" y="133"/><text fill="#000000" font-family="sans-serif" font-size="14" lengthAdjust="spacing" textLength="234" x="279" y="154.9951">Specify Notification Preferences</text></g><!--entity ST--><g id="elem_ST"><rect fill="#F1F1F1" height="46.2969" rx="2.5" ry="2.5" style="stroke:#181818;stroke-width:0.5;" width="142" x="330" y="203"/><rect fill="#F1F1F1" height="10" style="stroke:#181818;stroke-width:0.5;" width="15" x="452" y="208"/><rect fill="#F1F1F1" height="2" style="stroke:#181818;stroke-width:0.5;" width="4" x="450" y="210"/><rect fill="#F1F1F1" height="2" style="stroke:#181818;stroke-width:0.5;" width="4" x="450" y="214"/><text fill="#000000" font-family="sans-serif" font-size="14" lengthAdjust="spacing" textLength="102" x="345" y="235.9951">Switch Theme</text></g><!--entity SL--><g id="elem_SL"><rect fill="#F1F1F1" height="46.2969" rx="2.5" ry="2.5" style="stroke:#181818;stroke-width:0.5;" width="160" x="321" y="284"/><rect fill="#F1F1F1" height="10" style="stroke:#181818;stroke-width:0.5;" width="15" x="461" y="289"/><rect fill="#F1F1F1" height="2" style="stroke:#181818;stroke-width:0.5;" width="4" x="459" y="291"/><rect fill="#F1F1F1" height="2" style="stroke:#181818;stroke-width:0.5;" width="4" x="459" y="295"/><text fill="#000000" font-family="sans-serif" font-size="14" lengthAdjust="spacing" textLength="120" x="336" y="316.9951">Switch Language</text></g><!--entity CFS--><g id="elem_CFS"><rect fill="#F1F1F1" height="46.2969" rx="2.5" ry="2.5" style="stroke:#181818;stroke-width:0.5;" width="165" x="318.5" y="365"/><rect fill="#F1F1F1" height="10" style="stroke:#181818;stroke-width:0.5;" width="15" x="463.5" y="370"/><rect fill="#F1F1F1" height="2" style="stroke:#181818;stroke-width:0.5;" width="4" x="461.5" y="372"/><rect fill="#F1F1F1" height="2" style="stroke:#181818;stroke-width:0.5;" width="4" x="461.5" y="376"/><text fill="#000000" font-family="sans-serif" font-size="14" lengthAdjust="spacing" textLength="125" x="333.5" y="397.9951">Change Font Size</text></g><!--entity MP--><g id="elem_MP"><rect fill="#F1F1F1" height="46.2969" rx="2.5" ry="2.5" style="stroke:#181818;stroke-width:0.5;" width="146" x="328" y="446"/><rect fill="#F1F1F1" height="10" style="stroke:#181818;stroke-width:0.5;" width="15" x="454" y="451"/><rect fill="#F1F1F1" height="2" style="stroke:#181818;stroke-width:0.5;" width="4" x="452" y="453"/><rect fill="#F1F1F1" height="2" style="stroke:#181818;stroke-width:0.5;" width="4" x="452" y="457"/><text fill="#000000" font-family="sans-serif" font-size="14" lengthAdjust="spacing" textLength="106" x="343" y="478.9951">Manage Profile</text></g><!--entity UPP--><g id="elem_UPP"><rect fill="#F1F1F1" height="46.2969" rx="2.5" ry="2.5" style="stroke:#181818;stroke-width:0.5;" width="187" x="307.5" y="527"/><rect fill="#F1F1F1" height="10" style="stroke:#181818;stroke-width:0.5;" width="15" x="474.5" y="532"/><rect fill="#F1F1F1" height="2" style="stroke:#181818;stroke-width:0.5;" width="4" x="472.5" y="534"/><rect fill="#F1F1F1" height="2" style="stroke:#181818;stroke-width:0.5;" width="4" x="472.5" y="538"/><text fill="#000000" font-family="sans-serif" font-size="14" lengthAdjust="spacing" textLength="147" x="322.5" y="559.9951">Upload Profile Photo</text></g><!--entity UAF--><g id="elem_UAF"><rect fill="#F1F1F1" height="46.2969" rx="2.5" ry="2.5" style="stroke:#181818;stroke-width:0.5;" width="225" x="288.5" y="689"/><rect fill="#F1F1F1" height="10" style="stroke:#181818;stroke-width:0.5;" width="15" x="493.5" y="694"/><rect fill="#F1F1F1" height="2" style="stroke:#181818;stroke-width:0.5;" width="4" x="491.5" y="696"/><rect fill="#F1F1F1" height="2" style="stroke:#181818;stroke-width:0.5;" width="4" x="491.5" y="700"/><text fill="#000000" font-family="sans-serif" font-size="14" lengthAdjust="spacing" textLength="185" x="303.5" y="721.9951">Use Accessibility Features</text></g><!--entity MPC--><g id="elem_MPC"><rect fill="#F1F1F1" height="46.2969" rx="2.5" ry="2.5" style="stroke:#181818;stroke-width:0.5;" width="348" x="227" y="608"/><rect fill="#F1F1F1" height="10" style="stroke:#181818;stroke-width:0.5;" width="15" x="555" y="613"/><rect fill="#F1F1F1" height="2" style="stroke:#181818;stroke-width:0.5;" width="4" x="553" y="615"/><rect fill="#F1F1F1" height="2" style="stroke:#181818;stroke-width:0.5;" width="4" x="553" y="619"/><text fill="#000000" font-family="sans-serif" font-size="14" lengthAdjust="spacing" textLength="308" x="242" y="640.9951">Maintain Performance with Customizations</text></g><!--entity PIC--><g id="elem_PIC"><rect fill="#F1F1F1" height="46.2969" rx="2.5" ry="2.5" style="stroke:#181818;stroke-width:0.5;" width="329" x="236.5" y="41"/><rect fill="#F1F1F1" height="10" style="stroke:#181818;stroke-width:0.5;" width="15" x="545.5" y="46"/><rect fill="#F1F1F1" height="2" style="stroke:#181818;stroke-width:0.5;" width="4" x="543.5" y="48"/><rect fill="#F1F1F1" height="2" style="stroke:#181818;stroke-width:0.5;" width="4" x="543.5" y="52"/><text fill="#000000" font-family="sans-serif" font-size="14" lengthAdjust="spacing" textLength="289" x="251.5" y="73.9951">Personalize with Intuitive Customization</text></g><!--entity U--><g id="elem_U"><ellipse cx="86.5" cy="318.5" fill="#F1F1F1" rx="8" ry="8" style="stroke:#181818;stroke-width:0.5;"/><path d="M86.5,326.5 L86.5,353.5 M73.5,334.5 L99.5,334.5 M86.5,353.5 L73.5,368.5 M86.5,353.5 L99.5,368.5 " fill="none" style="stroke:#181818;stroke-width:0.5;"/><text fill="#000000" font-family="sans-serif" font-size="14" lengthAdjust="spacing" textLength="31" x="71" y="382.9951">User</text></g><!--entity USN--><g id="elem_USN"><ellipse cx="86.5" cy="682.5" fill="#F1F1F1" rx="8" ry="8" style="stroke:#181818;stroke-width:0.5;"/><path d="M86.5,690.5 L86.5,717.5 M73.5,698.5 L99.5,698.5 M86.5,717.5 L73.5,732.5 M86.5,717.5 L99.5,732.5 " fill="none" style="stroke:#181818;stroke-width:0.5;"/><text fill="#000000" font-family="sans-serif" font-size="14" lengthAdjust="spacing" textLength="161" x="6" y="746.9951">UserWithSpecialNeeds</text></g><!--link U to SNP--><g id="link_U_SNP"><path d="M102.0754,314.058 C120.103,276.345 154.467,216.612 203,185 C221.277,173.095 236.5947,166.2385 258.0417,160.2265 " fill="none" id="U-to-SNP" style="stroke:#181818;stroke-width:1.0;"/><polygon fill="#181818" points="263.819,158.607,254.0734,157.1847,259.0046,159.9566,256.2327,164.8878,263.819,158.607" style="stroke:#181818;stroke-width:1.0;"/></g><!--link U to ST--><g id="link_U_ST"><path d="M102.2983,334.337 C123.136,315.88 163.06,283.304 203,266 C243.189,248.588 285.3816,239.4982 324.0076,233.8762 " fill="none" id="U-to-ST" style="stroke:#181818;stroke-width:1.0;"/><polygon fill="#181818" points="329.945,233.012,320.4627,230.35,324.9971,233.7322,321.615,238.2666,329.945,233.012" style="stroke:#181818;stroke-width:1.0;"/></g><!--link U to SL--><g id="link_U_SL"><path d="M102.1534,346.077 C140.586,341.035 240.512,327.9245 315.05,318.1455 " fill="none" id="U-to-SL" style="stroke:#181818;stroke-width:1.0;"/><polygon fill="#181818" points="320.999,317.365,311.5551,314.5697,316.0415,318.0154,312.5958,322.5017,320.999,317.365" style="stroke:#181818;stroke-width:1.0;"/></g><!--link U to CFS--><g id="link_U_CFS"><path d="M102.1534,349.876 C140.104,354.733 237.8616,367.2462 312.2246,376.7652 " fill="none" id="U-to-CFS" style="stroke:#181818;stroke-width:1.0;"/><polygon fill="#181818" points="318.176,377.527,309.7567,372.4166,313.2165,376.8921,308.741,380.3519,318.176,377.527" style="stroke:#181818;stroke-width:1.0;"/></g><!--link U to MP--><g id="link_U_MP"><path d="M102.0215,360.985 C122.848,378.887 163.102,410.873 203,428 C242.485,444.95 283.5764,454.154 321.7754,460.101 " fill="none" id="U-to-MP" style="stroke:#181818;stroke-width:1.0;"/><polygon fill="#181818" points="327.704,461.024,319.4265,455.6871,322.7635,460.2548,318.1958,463.5919,327.704,461.024" style="stroke:#181818;stroke-width:1.0;"/></g><!--link U to UPP--><g id="link_U_UPP"><path d="M102.0508,381.153 C120.161,418.348 154.703,477.575 203,509 C233.746,529.005 266.4819,538.5771 301.3979,543.9941 " fill="none" id="U-to-UPP" style="stroke:#181818;stroke-width:1.0;"/><polygon fill="#181818" points="307.327,544.914,299.0466,539.5815,302.3861,544.1475,297.8202,547.4869,307.327,544.914" style="stroke:#181818;stroke-width:1.0;"/></g><!--link U to MPC--><g id="link_U_MPC"><path d="M94.6662,386.095 C106.925,440.192 137.26,538.413 203,590 C211.932,597.009 216.3544,600.3181 226.7264,605.2601 " fill="none" id="U-to-MPC" style="stroke:#181818;stroke-width:1.0;"/><polygon fill="#181818" points="232.143,607.841,225.7387,600.3587,227.6292,605.6903,222.2976,607.5808,232.143,607.841" style="stroke:#181818;stroke-width:1.0;"/></g><!--link U to PIC--><g id="link_U_PIC"><path d="M94.5359,309.554 C106.635,254.966 136.773,155.878 203,104 C213.165,96.037 219.0189,91.9651 230.9859,86.6771 " fill="none" id="U-to-PIC" style="stroke:#181818;stroke-width:1.0;"/><polygon fill="#181818" points="236.474,84.252,226.6252,84.2309,231.9006,86.2729,229.8586,91.5483,236.474,84.252" style="stroke:#181818;stroke-width:1.0;"/></g><!--link USN to UAF--><g id="link_USN_UAF"><path d="M167.166,712 C203.965,712 242.294,712 282.353,712 " fill="none" id="USN-to-UAF" style="stroke:#181818;stroke-width:1.0;"/><polygon fill="#181818" points="288.353,712,279.353,708,283.353,712,279.353,716,288.353,712" style="stroke:#181818;stroke-width:1.0;"/></g><!--SRC=[LP71QeGm48RlUOgXzxtq0GeY20kh15pfeVIGPaSpr4qa6LjsIz-zCOdG5OGntp_p_nDd71dOWQV9C5p8esPoLWYbsNaO0dfG0OP_tw_4fbzGavexn4j8lE-4M9J-L1F2Kqip1dOMuHaEK2qBzCXCTWfFy2CWFczfm7Y3pZ6DfDLc2jBZY1wjnl2-JUqxMTJVnDh0sU0LCpa_W9EoqngjCpjbLfjuYj0uoz3JFSEwwJDjbTsoIk_6c3QnjhWDo-pKPKSWZMEN18FS5G6XqZ5ce0-QYM_GeEBLbzn3rUmcP3c-8D6FpbzLN0rYP0Fr6Y_eIlUqU2ZsTUwAuk2iccFcB3vQNedf2n_RKfSyrk9NY04EXvTqOQKwxyMf5DlckMftqRRFVbINQfiN_sRcLVC7]--></g></svg>