<?xml version="1.0" encoding="us-ascii" standalone="no"?><svg xmlns="http://www.w3.org/2000/svg" xmlns:xlink="http://www.w3.org/1999/xlink" contentStyleType="text/css" height="272px" preserveAspectRatio="none" style="width:427px;height:272px;background:#FFFFFF;" version="1.1" viewBox="0 0 427 272" width="427px" zoomAndPan="magnify"><defs/><g><!--cluster Milestone 4 - App Introduction--><g id="cluster_Milestone 4 - App Introduction"><path d="M116.5,6 L365.5,6 A3.75,3.75 0 0 1 368,8.5 L375,28.2969 L417.5,28.2969 A2.5,2.5 0 0 1 420,30.7969 L420,262.5 A2.5,2.5 0 0 1 417.5,265 L116.5,265 A2.5,2.5 0 0 1 114,262.5 L114,8.5 A2.5,2.5 0 0 1 116.5,6 " fill="none" style="stroke:#000000;stroke-width:1.5;"/><line style="stroke:#000000;stroke-width:1.5;" x1="114" x2="375" y1="28.2969" y2="28.2969"/><text fill="#000000" font-family="sans-serif" font-size="14" font-weight="bold" lengthAdjust="spacing" textLength="248" x="118" y="20.9951">Milestone 4 - App Introduction</text></g><!--entity UC1--><g id="elem_UC1"><rect fill="#F1F1F1" height="46.2969" rx="2.5" ry="2.5" style="stroke:#181818;stroke-width:0.5;" width="274" x="130" y="41"/><rect fill="#F1F1F1" height="10" style="stroke:#181818;stroke-width:0.5;" width="15" x="384" y="46"/><rect fill="#F1F1F1" height="2" style="stroke:#181818;stroke-width:0.5;" width="4" x="382" y="48"/><rect fill="#F1F1F1" height="2" style="stroke:#181818;stroke-width:0.5;" width="4" x="382" y="52"/><text fill="#000000" font-family="sans-serif" font-size="14" lengthAdjust="spacing" textLength="234" x="145" y="73.9951">Provide Professional Background</text></g><!--entity UC2--><g id="elem_UC2"><rect fill="#F1F1F1" height="46.2969" rx="2.5" ry="2.5" style="stroke:#181818;stroke-width:0.5;" width="190" x="172" y="122"/><rect fill="#F1F1F1" height="10" style="stroke:#181818;stroke-width:0.5;" width="15" x="342" y="127"/><rect fill="#F1F1F1" height="2" style="stroke:#181818;stroke-width:0.5;" width="4" x="340" y="129"/><rect fill="#F1F1F1" height="2" style="stroke:#181818;stroke-width:0.5;" width="4" x="340" y="133"/><text fill="#000000" font-family="sans-serif" font-size="14" lengthAdjust="spacing" textLength="150" x="187" y="154.9951">Receive App Tutorial</text></g><!--entity UC4--><g id="elem_UC4"><rect fill="#F1F1F1" height="46.2969" rx="2.5" ry="2.5" style="stroke:#181818;stroke-width:0.5;" width="201" x="166.5" y="203"/><rect fill="#F1F1F1" height="10" style="stroke:#181818;stroke-width:0.5;" width="15" x="347.5" y="208"/><rect fill="#F1F1F1" height="2" style="stroke:#181818;stroke-width:0.5;" width="4" x="345.5" y="210"/><rect fill="#F1F1F1" height="2" style="stroke:#181818;stroke-width:0.5;" width="4" x="345.5" y="214"/><text fill="#000000" font-family="sans-serif" font-size="14" lengthAdjust="spacing" textLength="161" x="181.5" y="235.9951">Understand AI Paradox</text></g><!--entity NewUser--><g id="elem_NewUser"><ellipse cx="38" cy="60.5" fill="#F1F1F1" rx="8" ry="8" style="stroke:#181818;stroke-width:0.5;"/><path d="M38,68.5 L38,95.5 M25,76.5 L51,76.5 M38,95.5 L25,110.5 M38,95.5 L51,110.5 " fill="none" style="stroke:#181818;stroke-width:0.5;"/><text fill="#000000" font-family="sans-serif" font-size="14" lengthAdjust="spacing" textLength="64" x="6" y="124.9951">New user</text></g><!--entity User--><g id="elem_User"><ellipse cx="38" cy="196.5" fill="#F1F1F1" rx="8" ry="8" style="stroke:#181818;stroke-width:0.5;"/><path d="M38,204.5 L38,231.5 M25,212.5 L51,212.5 M38,231.5 L25,246.5 M38,231.5 L51,246.5 " fill="none" style="stroke:#181818;stroke-width:0.5;"/><text fill="#000000" font-family="sans-serif" font-size="14" lengthAdjust="spacing" textLength="31" x="22.5" y="260.9951">User</text></g><!--link NewUser to UC1--><g id="link_NewUser_UC1"><path d="M70.0874,86.439 C86.3584,84.576 101.571,82.834 123.966,80.268 " fill="none" id="NewUser-to-UC1" style="stroke:#181818;stroke-width:1.0;"/><polygon fill="#181818" points="129.927,79.585,120.5302,76.6355,124.9595,80.1542,121.4408,84.5835,129.927,79.585" style="stroke:#181818;stroke-width:1.0;"/></g><!--link NewUser to UC2--><g id="link_NewUser_UC2"><path d="M70.0874,97.532 C96.3759,103.902 129.6307,111.9591 165.9907,120.7691 " fill="none" id="NewUser-to-UC2" style="stroke:#181818;stroke-width:1.0;"/><polygon fill="#181818" points="171.822,122.182,164.017,116.1751,166.9626,121.0046,162.1332,123.9501,171.822,122.182" style="stroke:#181818;stroke-width:1.0;"/></g><!--link User to UC4--><g id="link_User_UC4"><path d="M53.5452,226 C76.443,226 116.788,226 160.365,226 " fill="none" id="User-to-UC4" style="stroke:#181818;stroke-width:1.0;"/><polygon fill="#181818" points="166.365,226,157.365,222,161.365,226,157.365,230,166.365,226" style="stroke:#181818;stroke-width:1.0;"/></g><!--SRC=[LO-z2i9048JxVOeXVGebjQ1M5eg8gSHYoQtnCDo5lOiAuhjxvWTqczbXXc_PHYuHqKDjVOqmLgMArZiYhg9NxEHH1b5mG9PsTCbaOpO5NoLgkRfnBSYsjf4GlHCKoB5iMsnSL6-w7fpXHKXpsgk_MoD8Uf4GKiGDLWbIg- -SEVVazMme7wGIUvUUTkpISSlDs9WFZT8PqH3P6ImtsBEoyS-nKj2RQFeapnSzzz_FwSSK7m00]--></g></svg>