<?xml version="1.0" encoding="us-ascii" standalone="no"?><svg xmlns="http://www.w3.org/2000/svg" xmlns:xlink="http://www.w3.org/1999/xlink" contentStyleType="text/css" height="515px" preserveAspectRatio="none" style="width:567px;height:515px;background:#FFFFFF;" version="1.1" viewBox="0 0 567 515" width="567px" zoomAndPan="magnify"><defs/><g><!--cluster Milestone 3 - Windesheim TechRadar--><g id="cluster_Milestone 3 - Windesheim TechRadar"><path d="M243.5,6 L543.5,6 A3.75,3.75 0 0 1 546,8.5 L553,28.2969 L557.5,28.2969 A2.5,2.5 0 0 1 560,30.7969 L560,505.5 A2.5,2.5 0 0 1 557.5,508 L243.5,508 A2.5,2.5 0 0 1 241,505.5 L241,8.5 A2.5,2.5 0 0 1 243.5,6 " fill="none" style="stroke:#000000;stroke-width:1.5;"/><line style="stroke:#000000;stroke-width:1.5;" x1="241" x2="553" y1="28.2969" y2="28.2969"/><text fill="#000000" font-family="sans-serif" font-size="14" font-weight="bold" lengthAdjust="spacing" textLength="299" x="245" y="20.9951">Milestone 3 - Windesheim TechRadar</text></g><!--entity UC4--><g id="elem_UC4"><rect fill="#F1F1F1" height="46.2969" rx="2.5" ry="2.5" style="stroke:#181818;stroke-width:0.5;" width="237" x="282" y="365"/><rect fill="#F1F1F1" height="10" style="stroke:#181818;stroke-width:0.5;" width="15" x="499" y="370"/><rect fill="#F1F1F1" height="2" style="stroke:#181818;stroke-width:0.5;" width="4" x="497" y="372"/><rect fill="#F1F1F1" height="2" style="stroke:#181818;stroke-width:0.5;" width="4" x="497" y="376"/><text fill="#000000" font-family="sans-serif" font-size="14" lengthAdjust="spacing" textLength="197" x="297" y="397.9951">Manage via WTR Dashboard</text></g><!--entity UC5--><g id="elem_UC5"><rect fill="#F1F1F1" height="46.2969" rx="2.5" ry="2.5" style="stroke:#181818;stroke-width:0.5;" width="287" x="257" y="446"/><rect fill="#F1F1F1" height="10" style="stroke:#181818;stroke-width:0.5;" width="15" x="524" y="451"/><rect fill="#F1F1F1" height="2" style="stroke:#181818;stroke-width:0.5;" width="4" x="522" y="453"/><rect fill="#F1F1F1" height="2" style="stroke:#181818;stroke-width:0.5;" width="4" x="522" y="457"/><text fill="#000000" font-family="sans-serif" font-size="14" lengthAdjust="spacing" textLength="247" x="272" y="478.9951">Update App Content in WordPress</text></g><!--entity UC6--><g id="elem_UC6"><rect fill="#F1F1F1" height="46.2969" rx="2.5" ry="2.5" style="stroke:#181818;stroke-width:0.5;" width="246" x="277.5" y="203"/><rect fill="#F1F1F1" height="10" style="stroke:#181818;stroke-width:0.5;" width="15" x="503.5" y="208"/><rect fill="#F1F1F1" height="2" style="stroke:#181818;stroke-width:0.5;" width="4" x="501.5" y="210"/><rect fill="#F1F1F1" height="2" style="stroke:#181818;stroke-width:0.5;" width="4" x="501.5" y="214"/><text fill="#000000" font-family="sans-serif" font-size="14" lengthAdjust="spacing" textLength="206" x="292.5" y="235.9951">Read WTR Use Case Prompts</text></g><!--entity UC7--><g id="elem_UC7"><rect fill="#F1F1F1" height="46.2969" rx="2.5" ry="2.5" style="stroke:#181818;stroke-width:0.5;" width="191" x="305" y="284"/><rect fill="#F1F1F1" height="10" style="stroke:#181818;stroke-width:0.5;" width="15" x="476" y="289"/><rect fill="#F1F1F1" height="2" style="stroke:#181818;stroke-width:0.5;" width="4" x="474" y="291"/><rect fill="#F1F1F1" height="2" style="stroke:#181818;stroke-width:0.5;" width="4" x="474" y="295"/><text fill="#000000" font-family="sans-serif" font-size="14" lengthAdjust="spacing" textLength="151" x="320" y="316.9951">Browse WTR content</text></g><!--entity UC8--><g id="elem_UC8"><rect fill="#F1F1F1" height="46.2969" rx="2.5" ry="2.5" style="stroke:#181818;stroke-width:0.5;" width="200" x="300.5" y="41"/><rect fill="#F1F1F1" height="10" style="stroke:#181818;stroke-width:0.5;" width="15" x="480.5" y="46"/><rect fill="#F1F1F1" height="2" style="stroke:#181818;stroke-width:0.5;" width="4" x="478.5" y="48"/><rect fill="#F1F1F1" height="2" style="stroke:#181818;stroke-width:0.5;" width="4" x="478.5" y="52"/><text fill="#000000" font-family="sans-serif" font-size="14" lengthAdjust="spacing" textLength="160" x="315.5" y="73.9951">Browse WTR use cases</text></g><!--entity UC9--><g id="elem_UC9"><rect fill="#F1F1F1" height="46.2969" rx="2.5" ry="2.5" style="stroke:#181818;stroke-width:0.5;" width="234" x="283.5" y="122"/><rect fill="#F1F1F1" height="10" style="stroke:#181818;stroke-width:0.5;" width="15" x="497.5" y="127"/><rect fill="#F1F1F1" height="2" style="stroke:#181818;stroke-width:0.5;" width="4" x="495.5" y="129"/><rect fill="#F1F1F1" height="2" style="stroke:#181818;stroke-width:0.5;" width="4" x="495.5" y="133"/><text fill="#000000" font-family="sans-serif" font-size="14" lengthAdjust="spacing" textLength="194" x="298.5" y="154.9951">Add a new use case to WTR</text></g><!--entity Manager--><g id="elem_Manager"><ellipse cx="56" cy="358.5" fill="#F1F1F1" rx="8" ry="8" style="stroke:#181818;stroke-width:0.5;"/><path d="M56,366.5 L56,393.5 M43,374.5 L69,374.5 M56,393.5 L43,408.5 M56,393.5 L69,408.5 " fill="none" style="stroke:#181818;stroke-width:0.5;"/><text fill="#000000" font-family="sans-serif" font-size="14" lengthAdjust="spacing" textLength="100" x="6" y="422.9951">WTR manager</text></g><!--entity AppUser--><g id="elem_AppUser"><ellipse cx="181.5" cy="196.5" fill="#F1F1F1" rx="8" ry="8" style="stroke:#181818;stroke-width:0.5;"/><path d="M181.5,204.5 L181.5,231.5 M168.5,212.5 L194.5,212.5 M181.5,231.5 L168.5,246.5 M181.5,231.5 L194.5,246.5 " fill="none" style="stroke:#181818;stroke-width:0.5;"/><text fill="#000000" font-family="sans-serif" font-size="14" lengthAdjust="spacing" textLength="31" x="166" y="260.9951">User</text></g><!--link Manager to UC4--><g id="link_Manager_UC4"><path d="M106.072,388 C151.759,388 215.655,388 275.769,388 " fill="none" id="Manager-to-UC4" style="stroke:#181818;stroke-width:1.0;"/><polygon fill="#181818" points="281.769,388,272.769,384,276.769,388,272.769,392,281.769,388" style="stroke:#181818;stroke-width:1.0;"/></g><!--link Manager to UC5--><g id="link_Manager_UC5"><path d="M106.072,399.605 C157.031,411.657 232.2681,429.4504 296.2961,444.5927 " fill="none" id="Manager-to-UC5" style="stroke:#181818;stroke-width:1.0;"/><polygon fill="#181818" points="302.135,445.9736,294.2972,440.0097,297.2692,444.8229,292.456,447.7949,302.135,445.9736" style="stroke:#181818;stroke-width:1.0;"/></g><!--link AppUser to UC6--><g id="link_AppUser_UC6"><path d="M197.075,226 C214.417,226 239.115,226 271.444,226 " fill="none" id="AppUser-to-UC6" style="stroke:#181818;stroke-width:1.0;"/><polygon fill="#181818" points="277.444,226,268.444,222,272.444,226,268.444,230,277.444,226" style="stroke:#181818;stroke-width:1.0;"/></g><!--link AppUser to UC7--><g id="link_AppUser_UC7"><path d="M197.236,240.49 C206.731,249.071 219.743,259.503 233,266 C255.321,276.939 274.9735,283.6514 299.1685,289.6884 " fill="none" id="AppUser-to-UC7" style="stroke:#181818;stroke-width:1.0;"/><polygon fill="#181818" points="304.99,291.141,297.2261,285.0812,300.1387,289.9305,295.2894,292.8432,304.99,291.141" style="stroke:#181818;stroke-width:1.0;"/></g><!--link AppUser to UC8--><g id="link_AppUser_UC8"><path d="M188.832,187.834 C195.331,160.617 208.165,125.22 233,104 C251.873,87.875 270.3233,79.4527 294.4683,73.4847 " fill="none" id="AppUser-to-UC8" style="stroke:#181818;stroke-width:1.0;"/><polygon fill="#181818" points="300.293,72.045,290.5961,70.3214,295.4391,73.2448,292.5157,78.0877,300.293,72.045" style="stroke:#181818;stroke-width:1.0;"/></g><!--link AppUser to UC9--><g id="link_AppUser_UC9"><path d="M197.16,211.108 C206.626,202.297 219.635,191.603 233,185 C248.726,177.231 260.291,172.616 277.637,167.501 " fill="none" id="AppUser-to-UC9" style="stroke:#181818;stroke-width:1.0;"/><polygon fill="#181818" points="283.392,165.804,273.6281,164.5129,278.5962,167.2182,275.8909,172.1862,283.392,165.804" style="stroke:#181818;stroke-width:1.0;"/></g><!--link Manager to AppUser--><g id="link_Manager_AppUser"><path d="M86.2678,349.608 C111.233,316.86 135.1884,285.4379 154.7534,259.7729 " fill="none" id="Manager-to-AppUser" style="stroke:#181818;stroke-width:1.0;"/><polygon fill="none" points="165.666,245.458,149.9818,256.1354,159.5251,263.4104,165.666,245.458" style="stroke:#181818;stroke-width:1.0;"/></g><!--SRC=[PP6zRiCW58LtdkB8kwSsVqkar5aZHLOi3rM7MtCReyPW0Ms6jkzU2BXgNGRWw7oS2vSBltXu0wlElOTKbZklZ1Q2Ecyi3gJfp1RaKBId6aFIHRORbxpTECQj42Drhm50SL0NTjvenXrAj4fBTZsh0IVk-feasG8V0c4yfXfuLuHOOa-kVpPavLDCRghxH3MZ9C-n4YgZFMiFfT4QAu-MdSlm8i4raxo5XLkXeZ0ThHb6Fs7BX3rOSmrU1BkKcVtLF_yjh5q8cXBMYTX92OBcwmyGcnaEP6mZleIOcbYMszjx_kg5oDtBUZdJgvbUp_JcTu7FxVGNtm00]--></g></svg>