<?xml version="1.0" encoding="us-ascii" standalone="no"?><svg xmlns="http://www.w3.org/2000/svg" xmlns:xlink="http://www.w3.org/1999/xlink" contentStyleType="text/css" height="434px" preserveAspectRatio="none" style="width:393px;height:434px;background:#FFFFFF;" version="1.1" viewBox="0 0 393 434" width="393px" zoomAndPan="magnify"><defs/><g><!--cluster Milestone 6 - Generative AI Content--><g id="cluster_Milestone 6 - Generative AI Content"><path d="M83.5,6 L373.5,6 A3.75,3.75 0 0 1 376,8.5 L383,28.2969 L383.5,28.2969 A2.5,2.5 0 0 1 386,30.7969 L386,424.5 A2.5,2.5 0 0 1 383.5,427 L83.5,427 A2.5,2.5 0 0 1 81,424.5 L81,8.5 A2.5,2.5 0 0 1 83.5,6 " fill="none" style="stroke:#000000;stroke-width:1.5;"/><line style="stroke:#000000;stroke-width:1.5;" x1="81" x2="383" y1="28.2969" y2="28.2969"/><text fill="#000000" font-family="sans-serif" font-size="14" font-weight="bold" lengthAdjust="spacing" textLength="289" x="85" y="20.9951">Milestone 6 - Generative AI Content</text></g><!--entity UC6_1--><g id="elem_UC6_1"><rect fill="#F1F1F1" height="46.2969" rx="2.5" ry="2.5" style="stroke:#181818;stroke-width:0.5;" width="161" x="152.5" y="41"/><rect fill="#F1F1F1" height="10" style="stroke:#181818;stroke-width:0.5;" width="15" x="293.5" y="46"/><rect fill="#F1F1F1" height="2" style="stroke:#181818;stroke-width:0.5;" width="4" x="291.5" y="48"/><rect fill="#F1F1F1" height="2" style="stroke:#181818;stroke-width:0.5;" width="4" x="291.5" y="52"/><text fill="#000000" font-family="sans-serif" font-size="14" lengthAdjust="spacing" textLength="121" x="167.5" y="73.9951">Practice Voice AI</text></g><!--entity UC6_2--><g id="elem_UC6_2"><rect fill="#F1F1F1" height="46.2969" rx="2.5" ry="2.5" style="stroke:#181818;stroke-width:0.5;" width="155" x="155.5" y="122"/><rect fill="#F1F1F1" height="10" style="stroke:#181818;stroke-width:0.5;" width="15" x="290.5" y="127"/><rect fill="#F1F1F1" height="2" style="stroke:#181818;stroke-width:0.5;" width="4" x="288.5" y="129"/><rect fill="#F1F1F1" height="2" style="stroke:#181818;stroke-width:0.5;" width="4" x="288.5" y="133"/><text fill="#000000" font-family="sans-serif" font-size="14" lengthAdjust="spacing" textLength="115" x="170.5" y="154.9951">Practice Chat AI</text></g><!--entity UC6_3--><g id="elem_UC6_3"><rect fill="#F1F1F1" height="46.2969" rx="2.5" ry="2.5" style="stroke:#181818;stroke-width:0.5;" width="162" x="152" y="203"/><rect fill="#F1F1F1" height="10" style="stroke:#181818;stroke-width:0.5;" width="15" x="294" y="208"/><rect fill="#F1F1F1" height="2" style="stroke:#181818;stroke-width:0.5;" width="4" x="292" y="210"/><rect fill="#F1F1F1" height="2" style="stroke:#181818;stroke-width:0.5;" width="4" x="292" y="214"/><text fill="#000000" font-family="sans-serif" font-size="14" lengthAdjust="spacing" textLength="122" x="167" y="235.9951">Practice Video AI</text></g><!--entity UC6_4--><g id="elem_UC6_4"><rect fill="#F1F1F1" height="46.2969" rx="2.5" ry="2.5" style="stroke:#181818;stroke-width:0.5;" width="165" x="150.5" y="284"/><rect fill="#F1F1F1" height="10" style="stroke:#181818;stroke-width:0.5;" width="15" x="295.5" y="289"/><rect fill="#F1F1F1" height="2" style="stroke:#181818;stroke-width:0.5;" width="4" x="293.5" y="291"/><rect fill="#F1F1F1" height="2" style="stroke:#181818;stroke-width:0.5;" width="4" x="293.5" y="295"/><text fill="#000000" font-family="sans-serif" font-size="14" lengthAdjust="spacing" textLength="125" x="165.5" y="316.9951">Practice Image AI</text></g><!--entity UC6_6--><g id="elem_UC6_6"><rect fill="#F1F1F1" height="46.2969" rx="2.5" ry="2.5" style="stroke:#181818;stroke-width:0.5;" width="212" x="127" y="365"/><rect fill="#F1F1F1" height="10" style="stroke:#181818;stroke-width:0.5;" width="15" x="319" y="370"/><rect fill="#F1F1F1" height="2" style="stroke:#181818;stroke-width:0.5;" width="4" x="317" y="372"/><rect fill="#F1F1F1" height="2" style="stroke:#181818;stroke-width:0.5;" width="4" x="317" y="376"/><text fill="#000000" font-family="sans-serif" font-size="14" lengthAdjust="spacing" textLength="172" x="142" y="397.9951">Track Learning Progress</text></g><!--entity User--><g id="elem_User"><ellipse cx="21.5" cy="196.5" fill="#F1F1F1" rx="8" ry="8" style="stroke:#181818;stroke-width:0.5;"/><path d="M21.5,204.5 L21.5,231.5 M8.5,212.5 L34.5,212.5 M21.5,231.5 L8.5,246.5 M21.5,231.5 L34.5,246.5 " fill="none" style="stroke:#181818;stroke-width:0.5;"/><text fill="#000000" font-family="sans-serif" font-size="14" lengthAdjust="spacing" textLength="31" x="6" y="260.9951">User</text></g><!--link User to UC6_1--><g id="link_User_UC6_1"><path d="M28.8995,187.912 C35.4317,160.735 48.2786,125.352 73,104 C94.9725,85.022 118.7876,75.9636 146.5756,70.5536 " fill="none" id="User-to-UC6_1" style="stroke:#181818;stroke-width:1.0;"/><polygon fill="#181818" points="152.465,69.407,142.8665,67.2006,147.5571,70.3625,144.3953,75.0532,152.465,69.407" style="stroke:#181818;stroke-width:1.0;"/></g><!--link User to UC6_2--><g id="link_User_UC6_2"><path d="M37.1848,211.158 C46.6608,202.366 59.6706,191.674 73,185 C98.4522,172.256 122.4297,164.6926 149.3327,158.5886 " fill="none" id="User-to-UC6_2" style="stroke:#181818;stroke-width:1.0;"/><polygon fill="#181818" points="155.184,157.261,145.522,155.3515,150.3079,158.3673,147.2921,163.1532,155.184,157.261" style="stroke:#181818;stroke-width:1.0;"/></g><!--link User to UC6_3--><g id="link_User_UC6_3"><path d="M37.2316,226 C60.9818,226 103.387,226 145.997,226 " fill="none" id="User-to-UC6_3" style="stroke:#181818;stroke-width:1.0;"/><polygon fill="#181818" points="151.997,226,142.997,222,146.997,226,142.997,230,151.997,226" style="stroke:#181818;stroke-width:1.0;"/></g><!--link User to UC6_4--><g id="link_User_UC6_4"><path d="M37.2608,240.439 C46.7653,249.001 59.7786,259.431 73,266 C96.9978,277.923 118.9803,285.1987 144.5693,291.4287 " fill="none" id="User-to-UC6_4" style="stroke:#181818;stroke-width:1.0;"/><polygon fill="#181818" points="150.399,292.848,142.6007,286.8325,145.5409,291.6652,140.7082,294.6055,150.399,292.848" style="stroke:#181818;stroke-width:1.0;"/></g><!--link User to UC6_6--><g id="link_User_UC6_6"><path d="M29.0898,264.023 C35.7036,290.921 48.5692,325.835 73,347 C88.2978,360.2528 101.6183,367.5018 121.1523,373.6686 " fill="none" id="User-to-UC6_6" style="stroke:#181818;stroke-width:1.0;"/><polygon fill="#181818" points="126.874,375.4749,119.4957,368.951,122.106,373.9696,117.0873,376.5799,126.874,375.4749" style="stroke:#181818;stroke-width:1.0;"/></g><!--SRC=[NO_12i8m38RlVOgm-mxEqQCmTf21mWxgHKHA5xkosKeQl8ZlxZP5rkMGy96FdwJ76mDx86jQXiOIQhRU2Q4qUu9ZG08LfYd4G-bE6OHaRtiCx1s2X1Isw90KsoT2KK7f7QFZ15u2XZhND4HPZN3oOo-gonHOokjg8PIjula-MmRO1lrSM2-4wZvUDnFoht0OX0vsgCXPPw0cRmX3-6jIl8MONatJpU-q2BCOrp7cCSeF]--></g></svg>