<?xml version="1.0" encoding="us-ascii" standalone="no"?><svg xmlns="http://www.w3.org/2000/svg" xmlns:xlink="http://www.w3.org/1999/xlink" contentStyleType="text/css" height="596px" preserveAspectRatio="none" style="width:473px;height:596px;background:#FFFFFF;" version="1.1" viewBox="0 0 473 596" width="473px" zoomAndPan="magnify"><defs/><g><!--cluster Milestone 5 - Learn to Prompt--><g id="cluster_Milestone 5 - Learn to Prompt"><path d="M148.5,6 L392.5,6 A3.75,3.75 0 0 1 395,8.5 L402,28.2969 L463.5,28.2969 A2.5,2.5 0 0 1 466,30.7969 L466,586.5 A2.5,2.5 0 0 1 463.5,589 L148.5,589 A2.5,2.5 0 0 1 146,586.5 L146,8.5 A2.5,2.5 0 0 1 148.5,6 " fill="none" style="stroke:#000000;stroke-width:1.5;"/><line style="stroke:#000000;stroke-width:1.5;" x1="146" x2="402" y1="28.2969" y2="28.2969"/><text fill="#000000" font-family="sans-serif" font-size="14" font-weight="bold" lengthAdjust="spacing" textLength="243" x="150" y="20.9951">Milestone 5 - Learn to Prompt</text></g><!--entity UC5_1--><g id="elem_UC5_1"><rect fill="#F1F1F1" height="46.2969" rx="2.5" ry="2.5" style="stroke:#181818;stroke-width:0.5;" width="240" x="186" y="122"/><rect fill="#F1F1F1" height="10" style="stroke:#181818;stroke-width:0.5;" width="15" x="406" y="127"/><rect fill="#F1F1F1" height="2" style="stroke:#181818;stroke-width:0.5;" width="4" x="404" y="129"/><rect fill="#F1F1F1" height="2" style="stroke:#181818;stroke-width:0.5;" width="4" x="404" y="133"/><text fill="#000000" font-family="sans-serif" font-size="14" lengthAdjust="spacing" textLength="200" x="201" y="154.9951">Engage in Prompt Exercises</text></g><!--entity UC5_2--><g id="elem_UC5_2"><rect fill="#F1F1F1" height="46.2969" rx="2.5" ry="2.5" style="stroke:#181818;stroke-width:0.5;" width="264" x="174" y="203"/><rect fill="#F1F1F1" height="10" style="stroke:#181818;stroke-width:0.5;" width="15" x="418" y="208"/><rect fill="#F1F1F1" height="2" style="stroke:#181818;stroke-width:0.5;" width="4" x="416" y="210"/><rect fill="#F1F1F1" height="2" style="stroke:#181818;stroke-width:0.5;" width="4" x="416" y="214"/><text fill="#000000" font-family="sans-serif" font-size="14" lengthAdjust="spacing" textLength="224" x="189" y="235.9951">Follow Guided Prompt Creation</text></g><!--entity UC5_3--><g id="elem_UC5_3"><rect fill="#F1F1F1" height="46.2969" rx="2.5" ry="2.5" style="stroke:#181818;stroke-width:0.5;" width="263" x="174.5" y="284"/><rect fill="#F1F1F1" height="10" style="stroke:#181818;stroke-width:0.5;" width="15" x="417.5" y="289"/><rect fill="#F1F1F1" height="2" style="stroke:#181818;stroke-width:0.5;" width="4" x="415.5" y="291"/><rect fill="#F1F1F1" height="2" style="stroke:#181818;stroke-width:0.5;" width="4" x="415.5" y="295"/><text fill="#000000" font-family="sans-serif" font-size="14" lengthAdjust="spacing" textLength="223" x="189.5" y="316.9951">Receive Prompt Best Practices</text></g><!--entity UC5_4--><g id="elem_UC5_4"><rect fill="#F1F1F1" height="46.2969" rx="2.5" ry="2.5" style="stroke:#181818;stroke-width:0.5;" width="248" x="182" y="527"/><rect fill="#F1F1F1" height="10" style="stroke:#181818;stroke-width:0.5;" width="15" x="410" y="532"/><rect fill="#F1F1F1" height="2" style="stroke:#181818;stroke-width:0.5;" width="4" x="408" y="534"/><rect fill="#F1F1F1" height="2" style="stroke:#181818;stroke-width:0.5;" width="4" x="408" y="538"/><text fill="#000000" font-family="sans-serif" font-size="14" lengthAdjust="spacing" textLength="208" x="197" y="559.9951">Progressive Prompt Learning</text></g><!--entity UC5_5--><g id="elem_UC5_5"><rect fill="#F1F1F1" height="46.2969" rx="2.5" ry="2.5" style="stroke:#181818;stroke-width:0.5;" width="288" x="162" y="365"/><rect fill="#F1F1F1" height="10" style="stroke:#181818;stroke-width:0.5;" width="15" x="430" y="370"/><rect fill="#F1F1F1" height="2" style="stroke:#181818;stroke-width:0.5;" width="4" x="428" y="372"/><rect fill="#F1F1F1" height="2" style="stroke:#181818;stroke-width:0.5;" width="4" x="428" y="376"/><text fill="#000000" font-family="sans-serif" font-size="14" lengthAdjust="spacing" textLength="248" x="177" y="397.9951">Receive Personalized Assignments</text></g><!--entity UC5_6--><g id="elem_UC5_6"><rect fill="#F1F1F1" height="46.2969" rx="2.5" ry="2.5" style="stroke:#181818;stroke-width:0.5;" width="270" x="171" y="446"/><rect fill="#F1F1F1" height="10" style="stroke:#181818;stroke-width:0.5;" width="15" x="421" y="451"/><rect fill="#F1F1F1" height="2" style="stroke:#181818;stroke-width:0.5;" width="4" x="419" y="453"/><rect fill="#F1F1F1" height="2" style="stroke:#181818;stroke-width:0.5;" width="4" x="419" y="457"/><text fill="#000000" font-family="sans-serif" font-size="14" lengthAdjust="spacing" textLength="230" x="186" y="478.9951">Get Content Recommendations</text></g><!--entity UC5_7--><g id="elem_UC5_7"><rect fill="#F1F1F1" height="46.2969" rx="2.5" ry="2.5" style="stroke:#181818;stroke-width:0.5;" width="174" x="219" y="41"/><rect fill="#F1F1F1" height="10" style="stroke:#181818;stroke-width:0.5;" width="15" x="373" y="46"/><rect fill="#F1F1F1" height="2" style="stroke:#181818;stroke-width:0.5;" width="4" x="371" y="48"/><rect fill="#F1F1F1" height="2" style="stroke:#181818;stroke-width:0.5;" width="4" x="371" y="52"/><text fill="#000000" font-family="sans-serif" font-size="14" lengthAdjust="spacing" textLength="134" x="234" y="73.9951">Learn about Ethics</text></g><!--entity User--><g id="elem_User"><ellipse cx="54" cy="237.5" fill="#F1F1F1" rx="8" ry="8" style="stroke:#181818;stroke-width:0.5;"/><path d="M54,245.5 L54,272.5 M41,253.5 L67,253.5 M54,272.5 L41,287.5 M54,272.5 L67,287.5 " fill="none" style="stroke:#181818;stroke-width:0.5;"/><text fill="#000000" font-family="sans-serif" font-size="14" lengthAdjust="spacing" textLength="31" x="38.5" y="301.9951">User</text></g><!--entity Beginner--><g id="elem_Beginner"><ellipse cx="54" cy="520.5" fill="#F1F1F1" rx="8" ry="8" style="stroke:#181818;stroke-width:0.5;"/><path d="M54,528.5 L54,555.5 M41,536.5 L67,536.5 M54,555.5 L41,570.5 M54,555.5 L67,570.5 " fill="none" style="stroke:#181818;stroke-width:0.5;"/><text fill="#000000" font-family="sans-serif" font-size="14" lengthAdjust="spacing" textLength="96" x="6" y="584.9951">BeginnerUser</text></g><!--link User to UC5_1--><g id="link_User_UC5_1"><path d="M69.5931,247.342 C84.648,228.488 109.848,200.644 138,185 C152.724,176.818 163.3579,172.0942 179.9129,166.9032 " fill="none" id="User-to-UC5_1" style="stroke:#181818;stroke-width:1.0;"/><polygon fill="#181818" points="185.638,165.108,175.8535,163.984,180.867,166.604,178.2471,171.6175,185.638,165.108" style="stroke:#181818;stroke-width:1.0;"/></g><!--link User to UC5_2--><g id="link_User_UC5_2"><path d="M69.5216,264.618 C90.5723,261.166 125.7451,255.3981 167.7901,248.5021 " fill="none" id="User-to-UC5_2" style="stroke:#181818;stroke-width:1.0;"/><polygon fill="#181818" points="173.711,247.531,164.1823,245.0404,168.7769,248.3403,165.4771,252.9349,173.711,247.531" style="stroke:#181818;stroke-width:1.0;"/></g><!--link User to UC5_3--><g id="link_User_UC5_3"><path d="M69.5216,269.323 C90.6765,272.708 126.1484,278.384 168.4104,285.146 " fill="none" id="User-to-UC5_3" style="stroke:#181818;stroke-width:1.0;"/><polygon fill="#181818" points="174.335,286.094,166.08,280.7223,169.3978,285.304,164.8161,288.6218,174.335,286.094" style="stroke:#181818;stroke-width:1.0;"/></g><!--link User to UC5_5--><g id="link_User_UC5_5"><path d="M69.7161,286.135 C84.8644,304.496 110.133,331.636 138,347 C150.941,354.135 159.4383,358.1218 173.8943,363.0108 " fill="none" id="User-to-UC5_5" style="stroke:#181818;stroke-width:1.0;"/><polygon fill="#181818" points="179.578,364.933,172.3339,358.2605,174.8415,363.3311,169.7709,365.8388,179.578,364.933" style="stroke:#181818;stroke-width:1.0;"/></g><!--link User to UC5_6--><g id="link_User_UC5_6"><path d="M64.7012,305.144 C76.0884,342.086 98.6158,396.94 138,428 C147.845,435.764 153.4623,439.6705 165.1573,444.8115 " fill="none" id="User-to-UC5_6" style="stroke:#181818;stroke-width:1.0;"/><polygon fill="#181818" points="170.65,447.226,164.0206,439.9424,166.0727,445.2139,160.8012,447.266,170.65,447.226" style="stroke:#181818;stroke-width:1.0;"/></g><!--link User to UC5_7--><g id="link_User_UC5_7"><path d="M64.4264,228.694 C75.6486,191.26 98.0939,135.451 138,104 C160.947,85.915 184.9128,76.9832 213.0198,71.4042 " fill="none" id="User-to-UC5_7" style="stroke:#181818;stroke-width:1.0;"/><polygon fill="#181818" points="218.905,70.236,209.2984,68.0648,214.0007,71.2095,210.856,75.9117,218.905,70.236" style="stroke:#181818;stroke-width:1.0;"/></g><!--link Beginner to UC5_4--><g id="link_Beginner_UC5_4"><path d="M102.0231,550 C124.866,550 147.494,550 175.984,550 " fill="none" id="Beginner-to-UC5_4" style="stroke:#181818;stroke-width:1.0;"/><polygon fill="#181818" points="181.984,550,172.984,546,176.984,550,172.984,554,181.984,550" style="stroke:#181818;stroke-width:1.0;"/></g><!--SRC=[NP5DJyCm38Rl-HNMxZsmhTiDYKrZ5v0G4YU4K4Yzp29rfYG31EA_upRzMCabUUt7zYl7uI51yX387XDK5D0aygoKDia7U8eOGCVsxa8RjCICeK_rMgcJDk_Q8ipkoM5CdX5AAE0ETU1cnaFmzIdDu4U1dESTsuOcxXAm-y9WA69yQKTkozUhJDvwv_mdxCzKOTNJsu2wiJh0ymm_ea7wm1xRY1DvYtSo5vqN6HR81epneg2rIsm7TFclBuReMJlw5YytKcgvHavZwpBpUnIFdfFaG6fzBLJLEXxHLKRpXlIRFyiIqf7CIApLhrBjgelYkjl9HCwdSZ6LvLIkfdAj-iyRGii_]--></g></svg>