<?xml version="1.0" encoding="us-ascii" standalone="no"?><svg xmlns="http://www.w3.org/2000/svg" xmlns:xlink="http://www.w3.org/1999/xlink" contentStyleType="text/css" height="677px" preserveAspectRatio="none" style="width:400px;height:677px;background:#FFFFFF;" version="1.1" viewBox="0 0 400 677" width="400px" zoomAndPan="magnify"><defs/><g><!--cluster Milestone 7 - Community of Practice--><g id="cluster_Milestone 7 - Community of Practice"><path d="M83.5,6 L380.5,6 A3.75,3.75 0 0 1 383,8.5 L390,28.2969 L390.5,28.2969 A2.5,2.5 0 0 1 393,30.7969 L393,667.5 A2.5,2.5 0 0 1 390.5,670 L83.5,670 A2.5,2.5 0 0 1 81,667.5 L81,8.5 A2.5,2.5 0 0 1 83.5,6 " fill="none" style="stroke:#000000;stroke-width:1.5;"/><line style="stroke:#000000;stroke-width:1.5;" x1="81" x2="390" y1="28.2969" y2="28.2969"/><text fill="#000000" font-family="sans-serif" font-size="14" font-weight="bold" lengthAdjust="spacing" textLength="296" x="85" y="20.9951">Milestone 7 - Community of Practice</text></g><!--entity UC7_1--><g id="elem_UC7_1"><rect fill="#F1F1F1" height="46.2969" rx="2.5" ry="2.5" style="stroke:#181818;stroke-width:0.5;" width="147" x="163.5" y="41"/><rect fill="#F1F1F1" height="10" style="stroke:#181818;stroke-width:0.5;" width="15" x="290.5" y="46"/><rect fill="#F1F1F1" height="2" style="stroke:#181818;stroke-width:0.5;" width="4" x="288.5" y="48"/><rect fill="#F1F1F1" height="2" style="stroke:#181818;stroke-width:0.5;" width="4" x="288.5" y="52"/><text fill="#000000" font-family="sans-serif" font-size="14" lengthAdjust="spacing" textLength="107" x="178.5" y="73.9951">Share Prompts</text></g><!--entity UC7_2--><g id="elem_UC7_2"><rect fill="#F1F1F1" height="46.2969" rx="2.5" ry="2.5" style="stroke:#181818;stroke-width:0.5;" width="135" x="169.5" y="122"/><rect fill="#F1F1F1" height="10" style="stroke:#181818;stroke-width:0.5;" width="15" x="284.5" y="127"/><rect fill="#F1F1F1" height="2" style="stroke:#181818;stroke-width:0.5;" width="4" x="282.5" y="129"/><rect fill="#F1F1F1" height="2" style="stroke:#181818;stroke-width:0.5;" width="4" x="282.5" y="133"/><text fill="#000000" font-family="sans-serif" font-size="14" lengthAdjust="spacing" textLength="95" x="184.5" y="154.9951">Browse Posts</text></g><!--entity UC7_3--><g id="elem_UC7_3"><rect fill="#F1F1F1" height="46.2969" rx="2.5" ry="2.5" style="stroke:#181818;stroke-width:0.5;" width="153" x="160.5" y="203"/><rect fill="#F1F1F1" height="10" style="stroke:#181818;stroke-width:0.5;" width="15" x="293.5" y="208"/><rect fill="#F1F1F1" height="2" style="stroke:#181818;stroke-width:0.5;" width="4" x="291.5" y="210"/><rect fill="#F1F1F1" height="2" style="stroke:#181818;stroke-width:0.5;" width="4" x="291.5" y="214"/><text fill="#000000" font-family="sans-serif" font-size="14" lengthAdjust="spacing" textLength="113" x="175.5" y="235.9951">Search Content</text></g><!--entity UC7_4--><g id="elem_UC7_4"><rect fill="#F1F1F1" height="46.2969" rx="2.5" ry="2.5" style="stroke:#181818;stroke-width:0.5;" width="114" x="180" y="284"/><rect fill="#F1F1F1" height="10" style="stroke:#181818;stroke-width:0.5;" width="15" x="274" y="289"/><rect fill="#F1F1F1" height="2" style="stroke:#181818;stroke-width:0.5;" width="4" x="272" y="291"/><rect fill="#F1F1F1" height="2" style="stroke:#181818;stroke-width:0.5;" width="4" x="272" y="295"/><text fill="#000000" font-family="sans-serif" font-size="14" lengthAdjust="spacing" textLength="74" x="195" y="316.9951">View Rank</text></g><!--entity UC7_5--><g id="elem_UC7_5"><rect fill="#F1F1F1" height="46.2969" rx="2.5" ry="2.5" style="stroke:#181818;stroke-width:0.5;" width="155" x="159.5" y="365"/><rect fill="#F1F1F1" height="10" style="stroke:#181818;stroke-width:0.5;" width="15" x="294.5" y="370"/><rect fill="#F1F1F1" height="2" style="stroke:#181818;stroke-width:0.5;" width="4" x="292.5" y="372"/><rect fill="#F1F1F1" height="2" style="stroke:#181818;stroke-width:0.5;" width="4" x="292.5" y="376"/><text fill="#000000" font-family="sans-serif" font-size="14" lengthAdjust="spacing" textLength="115" x="174.5" y="397.9951">Report Content</text></g><!--entity UC7_6--><g id="elem_UC7_6"><rect fill="#F1F1F1" height="46.2969" rx="2.5" ry="2.5" style="stroke:#181818;stroke-width:0.5;" width="196" x="139" y="446"/><rect fill="#F1F1F1" height="10" style="stroke:#181818;stroke-width:0.5;" width="15" x="315" y="451"/><rect fill="#F1F1F1" height="2" style="stroke:#181818;stroke-width:0.5;" width="4" x="313" y="453"/><rect fill="#F1F1F1" height="2" style="stroke:#181818;stroke-width:0.5;" width="4" x="313" y="457"/><text fill="#000000" font-family="sans-serif" font-size="14" lengthAdjust="spacing" textLength="156" x="154" y="478.9951">Unsubscribe Channels</text></g><!--entity UC7_8--><g id="elem_UC7_8"><rect fill="#F1F1F1" height="46.2969" rx="2.5" ry="2.5" style="stroke:#181818;stroke-width:0.5;" width="180" x="147" y="527"/><rect fill="#F1F1F1" height="10" style="stroke:#181818;stroke-width:0.5;" width="15" x="307" y="532"/><rect fill="#F1F1F1" height="2" style="stroke:#181818;stroke-width:0.5;" width="4" x="305" y="534"/><rect fill="#F1F1F1" height="2" style="stroke:#181818;stroke-width:0.5;" width="4" x="305" y="538"/><text fill="#000000" font-family="sans-serif" font-size="14" lengthAdjust="spacing" textLength="140" x="162" y="559.9951">Subscribe Channels</text></g><!--entity UC7_7--><g id="elem_UC7_7"><rect fill="#F1F1F1" height="46.2969" rx="2.5" ry="2.5" style="stroke:#181818;stroke-width:0.5;" width="145" x="164.5" y="608"/><rect fill="#F1F1F1" height="10" style="stroke:#181818;stroke-width:0.5;" width="15" x="289.5" y="613"/><rect fill="#F1F1F1" height="2" style="stroke:#181818;stroke-width:0.5;" width="4" x="287.5" y="615"/><rect fill="#F1F1F1" height="2" style="stroke:#181818;stroke-width:0.5;" width="4" x="287.5" y="619"/><text fill="#000000" font-family="sans-serif" font-size="14" lengthAdjust="spacing" textLength="105" x="179.5" y="640.9951">Mute Channels</text></g><!--entity User--><g id="elem_User"><ellipse cx="21.5" cy="318.5" fill="#F1F1F1" rx="8" ry="8" style="stroke:#181818;stroke-width:0.5;"/><path d="M21.5,326.5 L21.5,353.5 M8.5,334.5 L34.5,334.5 M21.5,353.5 L8.5,368.5 M21.5,353.5 L34.5,368.5 " fill="none" style="stroke:#181818;stroke-width:0.5;"/><text fill="#000000" font-family="sans-serif" font-size="14" lengthAdjust="spacing" textLength="31" x="6" y="382.9951">User</text></g><!--link User to UC7_1--><g id="link_User_UC7_1"><path d="M25.4993,309.743 C31.0712,248.645 45.0773,132.963 73,104 C96.2574,79.876 125.5655,70.1545 157.3465,65.8815 " fill="none" id="User-to-UC7_1" style="stroke:#181818;stroke-width:1.0;"/><polygon fill="#181818" points="163.293,65.082,153.8403,62.3169,158.3376,65.7483,154.9063,70.2456,163.293,65.082" style="stroke:#181818;stroke-width:1.0;"/></g><!--link User to UC7_2--><g id="link_User_UC7_2"><path d="M23.9547,309.789 C27.4646,272.7 38.6033,217.399 73,185 C98.6648,160.826 130.5294,151.3128 163.2794,147.2158 " fill="none" id="User-to-UC7_2" style="stroke:#181818;stroke-width:1.0;"/><polygon fill="#181818" points="169.233,146.471,159.8061,143.6191,164.2717,147.0917,160.7991,151.5572,169.233,146.471" style="stroke:#181818;stroke-width:1.0;"/></g><!--link User to UC7_3--><g id="link_User_UC7_3"><path d="M37.0143,311.917 C45.2836,295.638 57.1905,277.52 73,266 C98.1977,247.639 124.9063,238.7251 154.3303,233.3041 " fill="none" id="User-to-UC7_3" style="stroke:#181818;stroke-width:1.0;"/><polygon fill="#181818" points="160.231,232.217,150.6552,229.9139,155.3138,233.1229,152.1047,237.7815,160.231,232.217" style="stroke:#181818;stroke-width:1.0;"/></g><!--link User to UC7_4--><g id="link_User_UC7_4"><path d="M37.1747,345.182 C66.0973,339.628 125.9267,328.1386 173.9197,318.9216 " fill="none" id="User-to-UC7_4" style="stroke:#181818;stroke-width:1.0;"/><polygon fill="#181818" points="179.812,317.79,170.2191,315.5592,174.9017,318.733,171.7279,323.4156,179.812,317.79" style="stroke:#181818;stroke-width:1.0;"/></g><!--link User to UC7_5--><g id="link_User_UC7_5"><path d="M37.1747,350.749 C62.1405,355.427 108.6286,364.1361 153.3616,372.5171 " fill="none" id="User-to-UC7_5" style="stroke:#181818;stroke-width:1.0;"/><polygon fill="#181818" points="159.259,373.622,151.1495,368.033,154.3445,372.7012,149.6763,375.8962,159.259,373.622" style="stroke:#181818;stroke-width:1.0;"/></g><!--link User to UC7_6--><g id="link_User_UC7_6"><path d="M37.0216,382.764 C45.3507,398.742 57.3062,416.628 73,428 C92.2573,441.955 109.9722,449.6494 133.0832,455.7424 " fill="none" id="User-to-UC7_6" style="stroke:#181818;stroke-width:1.0;"/><polygon fill="#181818" points="138.885,457.272,131.2021,451.1098,134.0502,455.9974,129.1626,458.8455,138.885,457.272" style="stroke:#181818;stroke-width:1.0;"/></g><!--link User to UC7_7--><g id="link_User_UC7_7"><path d="M25.6077,386.418 C31.2998,447.12 45.4305,561.285 73,590 C96.4428,614.4168 126.1642,624.3052 158.1622,628.7139 " fill="none" id="User-to-UC7_7" style="stroke:#181818;stroke-width:1.0;"/><polygon fill="#181818" points="164.106,629.5328,155.7362,624.3418,159.1528,628.8503,154.6443,632.2669,164.106,629.5328" style="stroke:#181818;stroke-width:1.0;"/></g><!--link User to UC7_8--><g id="link_User_UC7_8"><path d="M24.1688,386.056 C27.853,422.662 39.1311,477.025 73,509 C92.9452,527.83 114.3578,537.0806 140.8898,542.8666 " fill="none" id="User-to-UC7_8" style="stroke:#181818;stroke-width:1.0;"/><polygon fill="#181818" points="146.752,544.145,138.8109,538.3192,141.8668,543.0797,137.1064,546.1355,146.752,544.145" style="stroke:#181818;stroke-width:1.0;"/></g><!--SRC=[TP1DQyCm38Rl_XMYznpwcPvsMCw5qj5THXckfpQcYHHaXJ9A__jC7BgPRRwOHuzU2Rl1au8oY3_N2XzUqAbdCiOwPO5zG04RXjkOphgBFIDCDhx1e4m89HHGSTlsvFKJ-0HRYKdlS08t0_6ylTHMC9QvxJGSXc5L-JvDybdu6gBbyCFDnY1QSNMSJega3pjFzjNZ5NQMBW-nI6A77Ol-YYsJtLFeZy69Fo9KjIN2vdlnQbpyVySwTMnw_KEMvcxCy6D5yJI-CiDPZlCS5pakSrpbMEQu_W80]--></g></svg>