<?xml version="1.0" encoding="us-ascii" standalone="no"?><svg xmlns="http://www.w3.org/2000/svg" xmlns:xlink="http://www.w3.org/1999/xlink" contentStyleType="text/css" height="920px" preserveAspectRatio="none" style="width:436px;height:920px;background:#FFFFFF;" version="1.1" viewBox="0 0 436 920" width="436px" zoomAndPan="magnify"><defs/><g><!--cluster Milestone 1 - App Fundamentals--><g id="cluster_Milestone 1 - App Fundamentals"><path d="M140.5,6 L402.5,6 A3.75,3.75 0 0 1 405,8.5 L412,28.2969 L426.5,28.2969 A2.5,2.5 0 0 1 429,30.7969 L429,910.5 A2.5,2.5 0 0 1 426.5,913 L140.5,913 A2.5,2.5 0 0 1 138,910.5 L138,8.5 A2.5,2.5 0 0 1 140.5,6 " fill="none" style="stroke:#000000;stroke-width:1.5;"/><line style="stroke:#000000;stroke-width:1.5;" x1="138" x2="412" y1="28.2969" y2="28.2969"/><text fill="#000000" font-family="sans-serif" font-size="14" font-weight="bold" lengthAdjust="spacing" textLength="261" x="142" y="20.9951">Milestone 1 - App Fundamentals</text></g><!--entity US1--><g id="elem_US1"><rect fill="#F1F1F1" height="46.2969" rx="2.5" ry="2.5" style="stroke:#181818;stroke-width:0.5;" width="187" x="190" y="446"/><rect fill="#F1F1F1" height="10" style="stroke:#181818;stroke-width:0.5;" width="15" x="357" y="451"/><rect fill="#F1F1F1" height="2" style="stroke:#181818;stroke-width:0.5;" width="4" x="355" y="453"/><rect fill="#F1F1F1" height="2" style="stroke:#181818;stroke-width:0.5;" width="4" x="355" y="457"/><text fill="#000000" font-family="sans-serif" font-size="14" lengthAdjust="spacing" textLength="147" x="205" y="478.9951">Seamless Navigation</text></g><!--entity US2--><g id="elem_US2"><rect fill="#F1F1F1" height="46.2969" rx="2.5" ry="2.5" style="stroke:#181818;stroke-width:0.5;" width="219" x="174" y="41"/><rect fill="#F1F1F1" height="10" style="stroke:#181818;stroke-width:0.5;" width="15" x="373" y="46"/><rect fill="#F1F1F1" height="2" style="stroke:#181818;stroke-width:0.5;" width="4" x="371" y="48"/><rect fill="#F1F1F1" height="2" style="stroke:#181818;stroke-width:0.5;" width="4" x="371" y="52"/><text fill="#000000" font-family="sans-serif" font-size="14" lengthAdjust="spacing" textLength="179" x="189" y="73.9951">Smooth Page Transitions</text></g><!--entity US3--><g id="elem_US3"><rect fill="#F1F1F1" height="46.2969" rx="2.5" ry="2.5" style="stroke:#181818;stroke-width:0.5;" width="142" x="212.5" y="608"/><rect fill="#F1F1F1" height="10" style="stroke:#181818;stroke-width:0.5;" width="15" x="334.5" y="613"/><rect fill="#F1F1F1" height="2" style="stroke:#181818;stroke-width:0.5;" width="4" x="332.5" y="615"/><rect fill="#F1F1F1" height="2" style="stroke:#181818;stroke-width:0.5;" width="4" x="332.5" y="619"/><text fill="#000000" font-family="sans-serif" font-size="14" lengthAdjust="spacing" textLength="102" x="227.5" y="640.9951">CI/CD Pipeline</text></g><!--entity US4--><g id="elem_US4"><rect fill="#F1F1F1" height="46.2969" rx="2.5" ry="2.5" style="stroke:#181818;stroke-width:0.5;" width="184" x="191.5" y="122"/><rect fill="#F1F1F1" height="10" style="stroke:#181818;stroke-width:0.5;" width="15" x="355.5" y="127"/><rect fill="#F1F1F1" height="2" style="stroke:#181818;stroke-width:0.5;" width="4" x="353.5" y="129"/><rect fill="#F1F1F1" height="2" style="stroke:#181818;stroke-width:0.5;" width="4" x="353.5" y="133"/><text fill="#000000" font-family="sans-serif" font-size="14" lengthAdjust="spacing" textLength="144" x="206.5" y="154.9951">Timely Notifications</text></g><!--entity US5--><g id="elem_US5"><rect fill="#F1F1F1" height="46.2969" rx="2.5" ry="2.5" style="stroke:#181818;stroke-width:0.5;" width="153" x="207" y="527"/><rect fill="#F1F1F1" height="10" style="stroke:#181818;stroke-width:0.5;" width="15" x="340" y="532"/><rect fill="#F1F1F1" height="2" style="stroke:#181818;stroke-width:0.5;" width="4" x="338" y="534"/><rect fill="#F1F1F1" height="2" style="stroke:#181818;stroke-width:0.5;" width="4" x="338" y="538"/><text fill="#000000" font-family="sans-serif" font-size="14" lengthAdjust="spacing" textLength="113" x="222" y="559.9951">Testing Utilities</text></g><!--entity US6--><g id="elem_US6"><rect fill="#F1F1F1" height="46.2969" rx="2.5" ry="2.5" style="stroke:#181818;stroke-width:0.5;" width="259" x="154" y="203"/><rect fill="#F1F1F1" height="10" style="stroke:#181818;stroke-width:0.5;" width="15" x="393" y="208"/><rect fill="#F1F1F1" height="2" style="stroke:#181818;stroke-width:0.5;" width="4" x="391" y="210"/><rect fill="#F1F1F1" height="2" style="stroke:#181818;stroke-width:0.5;" width="4" x="391" y="214"/><text fill="#000000" font-family="sans-serif" font-size="14" lengthAdjust="spacing" textLength="219" x="169" y="235.9951">Responsiveness and Efficiency</text></g><!--entity US7--><g id="elem_US7"><rect fill="#F1F1F1" height="46.2969" rx="2.5" ry="2.5" style="stroke:#181818;stroke-width:0.5;" width="117" x="225" y="284"/><rect fill="#F1F1F1" height="10" style="stroke:#181818;stroke-width:0.5;" width="15" x="322" y="289"/><rect fill="#F1F1F1" height="2" style="stroke:#181818;stroke-width:0.5;" width="4" x="320" y="291"/><rect fill="#F1F1F1" height="2" style="stroke:#181818;stroke-width:0.5;" width="4" x="320" y="295"/><text fill="#000000" font-family="sans-serif" font-size="14" lengthAdjust="spacing" textLength="77" x="240" y="316.9951">Intuitive UI</text></g><!--entity US8--><g id="elem_US8"><rect fill="#F1F1F1" height="46.2969" rx="2.5" ry="2.5" style="stroke:#181818;stroke-width:0.5;" width="114" x="226.5" y="851"/><rect fill="#F1F1F1" height="10" style="stroke:#181818;stroke-width:0.5;" width="15" x="320.5" y="856"/><rect fill="#F1F1F1" height="2" style="stroke:#181818;stroke-width:0.5;" width="4" x="318.5" y="858"/><rect fill="#F1F1F1" height="2" style="stroke:#181818;stroke-width:0.5;" width="4" x="318.5" y="862"/><text fill="#000000" font-family="sans-serif" font-size="14" lengthAdjust="spacing" textLength="74" x="241.5" y="883.9951">Scalability</text></g><!--entity US9--><g id="elem_US9"><rect fill="#F1F1F1" height="46.2969" rx="2.5" ry="2.5" style="stroke:#181818;stroke-width:0.5;" width="189" x="189" y="365"/><rect fill="#F1F1F1" height="10" style="stroke:#181818;stroke-width:0.5;" width="15" x="358" y="370"/><rect fill="#F1F1F1" height="2" style="stroke:#181818;stroke-width:0.5;" width="4" x="356" y="372"/><rect fill="#F1F1F1" height="2" style="stroke:#181818;stroke-width:0.5;" width="4" x="356" y="376"/><text fill="#000000" font-family="sans-serif" font-size="14" lengthAdjust="spacing" textLength="149" x="204" y="397.9951">Clear Error Messages</text></g><!--entity US10--><g id="elem_US10"><rect fill="#F1F1F1" height="46.2969" rx="2.5" ry="2.5" style="stroke:#181818;stroke-width:0.5;" width="223" x="172" y="689"/><rect fill="#F1F1F1" height="10" style="stroke:#181818;stroke-width:0.5;" width="15" x="375" y="694"/><rect fill="#F1F1F1" height="2" style="stroke:#181818;stroke-width:0.5;" width="4" x="373" y="696"/><rect fill="#F1F1F1" height="2" style="stroke:#181818;stroke-width:0.5;" width="4" x="373" y="700"/><text fill="#000000" font-family="sans-serif" font-size="14" lengthAdjust="spacing" textLength="183" x="187" y="721.9951">Well-organized Codebase</text></g><!--entity US11--><g id="elem_US11"><rect fill="#F1F1F1" height="46.2969" rx="2.5" ry="2.5" style="stroke:#181818;stroke-width:0.5;" width="215" x="176" y="770"/><rect fill="#F1F1F1" height="10" style="stroke:#181818;stroke-width:0.5;" width="15" x="371" y="775"/><rect fill="#F1F1F1" height="2" style="stroke:#181818;stroke-width:0.5;" width="4" x="369" y="777"/><rect fill="#F1F1F1" height="2" style="stroke:#181818;stroke-width:0.5;" width="4" x="369" y="781"/><text fill="#000000" font-family="sans-serif" font-size="14" lengthAdjust="spacing" textLength="175" x="191" y="802.9951">Alignment with UN SDGs</text></g><!--entity U--><g id="elem_U"><ellipse cx="50" cy="237.5" fill="#F1F1F1" rx="8" ry="8" style="stroke:#181818;stroke-width:0.5;"/><path d="M50,245.5 L50,272.5 M37,253.5 L63,253.5 M50,272.5 L37,287.5 M50,272.5 L63,287.5 " fill="none" style="stroke:#181818;stroke-width:0.5;"/><text fill="#000000" font-family="sans-serif" font-size="14" lengthAdjust="spacing" textLength="31" x="34.5" y="301.9951">User</text></g><!--entity D--><g id="elem_D"><ellipse cx="50" cy="601.5" fill="#F1F1F1" rx="8" ry="8" style="stroke:#181818;stroke-width:0.5;"/><path d="M50,609.5 L50,636.5 M37,617.5 L63,617.5 M50,636.5 L37,651.5 M50,636.5 L63,651.5 " fill="none" style="stroke:#181818;stroke-width:0.5;"/><text fill="#000000" font-family="sans-serif" font-size="14" lengthAdjust="spacing" textLength="75" x="12.5" y="665.9951">Developer</text></g><!--entity S--><g id="elem_S"><ellipse cx="50" cy="803.5" fill="#F1F1F1" rx="8" ry="8" style="stroke:#181818;stroke-width:0.5;"/><path d="M50,811.5 L50,838.5 M37,819.5 L63,819.5 M50,838.5 L37,853.5 M50,838.5 L63,853.5 " fill="none" style="stroke:#181818;stroke-width:0.5;"/><text fill="#000000" font-family="sans-serif" font-size="14" lengthAdjust="spacing" textLength="88" x="6" y="867.9951">Stakeholder</text></g><!--link U to US1--><g id="link_U_US1"><path d="M59.9678,305.278 C70.5591,342.053 91.7768,396.541 130,428 C147.04,442.025 162.6743,449.634 184.0113,455.737 " fill="none" id="U-to-US1" style="stroke:#181818;stroke-width:1.0;"/><polygon fill="#181818" points="189.78,457.387,182.227,451.0662,184.9728,456.012,180.027,458.7578,189.78,457.387" style="stroke:#181818;stroke-width:1.0;"/></g><!--link U to US2--><g id="link_U_US2"><path d="M59.5981,228.905 C69.9886,191.634 91.1307,135.95 130,104 C142.793,93.485 152.4155,87.7506 168.2675,82.0016 " fill="none" id="U-to-US2" style="stroke:#181818;stroke-width:1.0;"/><polygon fill="#181818" points="173.908,79.956,164.0835,79.2641,169.2076,81.6607,166.811,86.7848,173.908,79.956" style="stroke:#181818;stroke-width:1.0;"/></g><!--link U to US4--><g id="link_U_US4"><path d="M65.5679,246.378 C79.8806,227.635 103.3969,200.597 130,185 C148.654,174.064 164.5348,167.67 185.5738,161.841 " fill="none" id="U-to-US4" style="stroke:#181818;stroke-width:1.0;"/><polygon fill="#181818" points="191.356,160.239,181.6147,158.7872,186.5375,161.574,183.7507,166.4968,191.356,160.239" style="stroke:#181818;stroke-width:1.0;"/></g><!--link U to US6--><g id="link_U_US6"><path d="M65.8335,264.373 C84.495,261.068 112.5189,256.1042 148.0779,249.8072 " fill="none" id="U-to-US6" style="stroke:#181818;stroke-width:1.0;"/><polygon fill="#181818" points="153.986,248.761,144.4264,246.3916,149.0626,249.6329,145.8214,254.2691,153.986,248.761" style="stroke:#181818;stroke-width:1.0;"/></g><!--link U to US7--><g id="link_U_US7"><path d="M65.8335,269.563 C97.2686,274.995 166.1226,286.8914 219.0036,296.0284 " fill="none" id="U-to-US7" style="stroke:#181818;stroke-width:1.0;"/><polygon fill="#181818" points="224.916,297.05,216.7285,291.5761,219.989,296.1987,215.3664,299.4592,224.916,297.05" style="stroke:#181818;stroke-width:1.0;"/></g><!--link U to US9--><g id="link_U_US9"><path d="M65.6991,287.072 C80.1047,305.325 103.6836,331.681 130,347 C147.889,357.413 162.7296,363.5724 182.8876,369.4464 " fill="none" id="U-to-US9" style="stroke:#181818;stroke-width:1.0;"/><polygon fill="#181818" points="188.648,371.125,181.1264,364.7669,183.8477,369.7262,178.8883,372.4474,188.648,371.125" style="stroke:#181818;stroke-width:1.0;"/></g><!--link D to US3--><g id="link_D_US3"><path d="M87.6819,631 C121.085,631 165.317,631 206.407,631 " fill="none" id="D-to-US3" style="stroke:#181818;stroke-width:1.0;"/><polygon fill="#181818" points="212.407,631,203.407,627,207.407,631,203.407,635,212.407,631" style="stroke:#181818;stroke-width:1.0;"/></g><!--link D to US5--><g id="link_D_US5"><path d="M87.5862,609.856 C100.6754,602.875 115.724,595.498 130,590 C154.521,580.556 176.279,574.0407 201.17,567.7477 " fill="none" id="D-to-US5" style="stroke:#181818;stroke-width:1.0;"/><polygon fill="#181818" points="206.987,566.277,197.2811,564.605,202.1395,567.5026,199.242,572.361,206.987,566.277" style="stroke:#181818;stroke-width:1.0;"/></g><!--link D to US10--><g id="link_D_US10"><path d="M87.5862,652.144 C100.6754,659.125 115.724,666.502 130,672 C146.475,678.345 158.5563,682.3961 176.0483,687.3531 " fill="none" id="D-to-US10" style="stroke:#181818;stroke-width:1.0;"/><polygon fill="#181818" points="181.821,688.989,174.2526,682.6867,177.0104,687.6257,172.0714,690.3836,181.821,688.989" style="stroke:#181818;stroke-width:1.0;"/></g><!--link S to US8--><g id="link_S_US8"><path d="M94.0008,840.6157 C131.267,847.2157 179.5439,855.7659 220.2649,862.9778 " fill="none" id="S-to-US8" style="stroke:#181818;stroke-width:1.0;"/><polygon fill="#181818" points="226.173,864.0241,218.0085,858.5159,221.2496,863.1521,216.6133,866.3933,226.173,864.0241" style="stroke:#181818;stroke-width:1.0;"/></g><!--link S to US11--><g id="link_S_US11"><path d="M94.0008,825.57 C117.145,821.571 140.9026,817.4667 169.8196,812.4697 " fill="none" id="S-to-US11" style="stroke:#181818;stroke-width:1.0;"/><polygon fill="#181818" points="175.732,811.448,166.1823,809.0389,170.805,812.2994,167.5446,816.9221,175.732,811.448" style="stroke:#181818;stroke-width:1.0;"/></g><!--SRC=[JP1FRy8m3CNl-HGMTxIL_xjCGfHD741efTfXsi6qfbYaIPM4JcpQTrzAqsezlTe_lpnRqic1qs2uE3l8sL3cM2iXC7FQG6h905f8mtzCDKbTjSKu51E75pfhcRVbH8WAimiM18CjIx9EAu88Xh2iAdYvgXnBKWwb7S2F0Fzz98Ib1otiiEO2cmIVzsUJA02brkuC-yRqO51PRXWRe54BhJOFgnZsN95aHQ4tRdi7BadUOASTdpZ3_zEJGFYWh0f87KllJbrxshRVo5P-XcjIJL1KEQnFtef9PRU0pbfqezpLEzG4wIPqvc6D32KU6_zkP16YIq83QsFyERVUt-_PlV_K4kyavL2R0XL_KmuhdTCHRRTbzDXIIyc5QguBN-plbUuWYLyxfoWIlqAaC1m-to_RgL6l9hsQzMhUgoSXuY37lPhsocSGIT2BNaNH7m00]--></g></svg>