<?xml version="1.0" encoding="us-ascii" standalone="no"?><svg xmlns="http://www.w3.org/2000/svg" xmlns:xlink="http://www.w3.org/1999/xlink" contentStyleType="text/css" height="515px" preserveAspectRatio="none" style="width:561px;height:515px;background:#FFFFFF;" version="1.1" viewBox="0 0 561 515" width="561px" zoomAndPan="magnify"><defs/><g><!--cluster Milestone 3 - Windesheim TechRadar--><g id="cluster_Milestone 3 - Windesheim TechRadar"><path d="M237.5,6 L537.5,6 A3.75,3.75 0 0 1 540,8.5 L547,28.2969 L551.5,28.2969 A2.5,2.5 0 0 1 554,30.7969 L554,505.5 A2.5,2.5 0 0 1 551.5,508 L237.5,508 A2.5,2.5 0 0 1 235,505.5 L235,8.5 A2.5,2.5 0 0 1 237.5,6 " fill="none" style="stroke:#000000;stroke-width:1.5;"/><line style="stroke:#000000;stroke-width:1.5;" x1="235" x2="547" y1="28.2969" y2="28.2969"/><text fill="#000000" font-family="sans-serif" font-size="14" font-weight="bold" lengthAdjust="spacing" textLength="299" x="239" y="20.9951">Milestone 3 - Windesheim TechRadar</text></g><!--entity UC4--><g id="elem_UC4"><rect fill="#F1F1F1" height="46.2969" rx="2.5" ry="2.5" style="stroke:#181818;stroke-width:0.5;" width="237" x="276" y="365"/><rect fill="#F1F1F1" height="10" style="stroke:#181818;stroke-width:0.5;" width="15" x="493" y="370"/><rect fill="#F1F1F1" height="2" style="stroke:#181818;stroke-width:0.5;" width="4" x="491" y="372"/><rect fill="#F1F1F1" height="2" style="stroke:#181818;stroke-width:0.5;" width="4" x="491" y="376"/><text fill="#000000" font-family="sans-serif" font-size="14" lengthAdjust="spacing" textLength="197" x="291" y="397.9951">Manage via WTR Dashboard</text></g><!--entity UC5--><g id="elem_UC5"><rect fill="#F1F1F1" height="46.2969" rx="2.5" ry="2.5" style="stroke:#181818;stroke-width:0.5;" width="287" x="251" y="446"/><rect fill="#F1F1F1" height="10" style="stroke:#181818;stroke-width:0.5;" width="15" x="518" y="451"/><rect fill="#F1F1F1" height="2" style="stroke:#181818;stroke-width:0.5;" width="4" x="516" y="453"/><rect fill="#F1F1F1" height="2" style="stroke:#181818;stroke-width:0.5;" width="4" x="516" y="457"/><text fill="#000000" font-family="sans-serif" font-size="14" lengthAdjust="spacing" textLength="247" x="266" y="478.9951">Update App Content in WordPress</text></g><!--entity UC6--><g id="elem_UC6"><rect fill="#F1F1F1" height="46.2969" rx="2.5" ry="2.5" style="stroke:#181818;stroke-width:0.5;" width="246" x="271.5" y="203"/><rect fill="#F1F1F1" height="10" style="stroke:#181818;stroke-width:0.5;" width="15" x="497.5" y="208"/><rect fill="#F1F1F1" height="2" style="stroke:#181818;stroke-width:0.5;" width="4" x="495.5" y="210"/><rect fill="#F1F1F1" height="2" style="stroke:#181818;stroke-width:0.5;" width="4" x="495.5" y="214"/><text fill="#000000" font-family="sans-serif" font-size="14" lengthAdjust="spacing" textLength="206" x="286.5" y="235.9951">Read WTR Use Case Prompts</text></g><!--entity UC7--><g id="elem_UC7"><rect fill="#F1F1F1" height="46.2969" rx="2.5" ry="2.5" style="stroke:#181818;stroke-width:0.5;" width="191" x="299" y="284"/><rect fill="#F1F1F1" height="10" style="stroke:#181818;stroke-width:0.5;" width="15" x="470" y="289"/><rect fill="#F1F1F1" height="2" style="stroke:#181818;stroke-width:0.5;" width="4" x="468" y="291"/><rect fill="#F1F1F1" height="2" style="stroke:#181818;stroke-width:0.5;" width="4" x="468" y="295"/><text fill="#000000" font-family="sans-serif" font-size="14" lengthAdjust="spacing" textLength="151" x="314" y="316.9951">Browse WTR content</text></g><!--entity UC8--><g id="elem_UC8"><rect fill="#F1F1F1" height="46.2969" rx="2.5" ry="2.5" style="stroke:#181818;stroke-width:0.5;" width="200" x="294.5" y="41"/><rect fill="#F1F1F1" height="10" style="stroke:#181818;stroke-width:0.5;" width="15" x="474.5" y="46"/><rect fill="#F1F1F1" height="2" style="stroke:#181818;stroke-width:0.5;" width="4" x="472.5" y="48"/><rect fill="#F1F1F1" height="2" style="stroke:#181818;stroke-width:0.5;" width="4" x="472.5" y="52"/><text fill="#000000" font-family="sans-serif" font-size="14" lengthAdjust="spacing" textLength="160" x="309.5" y="73.9951">Browse WTR use cases</text></g><!--entity UC9--><g id="elem_UC9"><rect fill="#F1F1F1" height="46.2969" rx="2.5" ry="2.5" style="stroke:#181818;stroke-width:0.5;" width="234" x="277.5" y="122"/><rect fill="#F1F1F1" height="10" style="stroke:#181818;stroke-width:0.5;" width="15" x="491.5" y="127"/><rect fill="#F1F1F1" height="2" style="stroke:#181818;stroke-width:0.5;" width="4" x="489.5" y="129"/><rect fill="#F1F1F1" height="2" style="stroke:#181818;stroke-width:0.5;" width="4" x="489.5" y="133"/><text fill="#000000" font-family="sans-serif" font-size="14" lengthAdjust="spacing" textLength="194" x="292.5" y="154.9951">Add a new use case to WTR</text></g><!--entity Manager--><g id="elem_Manager"><ellipse cx="53" cy="358.5" fill="#F1F1F1" rx="8" ry="8" style="stroke:#181818;stroke-width:0.5;"/><path d="M53,366.5 L53,393.5 M40,374.5 L66,374.5 M53,393.5 L40,408.5 M53,393.5 L66,408.5 " fill="none" style="stroke:#181818;stroke-width:0.5;"/><text fill="#000000" font-family="sans-serif" font-size="14" lengthAdjust="spacing" textLength="94" x="6" y="422.9951">WTRManager</text></g><!--entity AppUser--><g id="elem_AppUser"><ellipse cx="175.5" cy="196.5" fill="#F1F1F1" rx="8" ry="8" style="stroke:#181818;stroke-width:0.5;"/><path d="M175.5,204.5 L175.5,231.5 M162.5,212.5 L188.5,212.5 M175.5,231.5 L162.5,246.5 M175.5,231.5 L188.5,246.5 " fill="none" style="stroke:#181818;stroke-width:0.5;"/><text fill="#000000" font-family="sans-serif" font-size="14" lengthAdjust="spacing" textLength="31" x="160" y="260.9951">User</text></g><!--link Manager to UC4--><g id="link_Manager_UC4"><path d="M100.1398,388 C145.102,388 209.335,388 269.809,388 " fill="none" id="Manager-to-UC4" style="stroke:#181818;stroke-width:1.0;"/><polygon fill="#181818" points="275.809,388,266.809,384,270.809,388,266.809,392,275.809,388" style="stroke:#181818;stroke-width:1.0;"/></g><!--link Manager to UC5--><g id="link_Manager_UC5"><path d="M100.1398,399.008 C150.451,411.012 226.5648,429.1717 291.0798,444.564 " fill="none" id="Manager-to-UC5" style="stroke:#181818;stroke-width:1.0;"/><polygon fill="#181818" points="296.916,445.9564,289.09,439.977,292.0525,444.796,287.2334,447.7586,296.916,445.9564" style="stroke:#181818;stroke-width:1.0;"/></g><!--link AppUser to UC6--><g id="link_AppUser_UC6"><path d="M191.075,226 C208.417,226 233.115,226 265.444,226 " fill="none" id="AppUser-to-UC6" style="stroke:#181818;stroke-width:1.0;"/><polygon fill="#181818" points="271.444,226,262.444,222,266.444,226,262.444,230,271.444,226" style="stroke:#181818;stroke-width:1.0;"/></g><!--link AppUser to UC7--><g id="link_AppUser_UC7"><path d="M191.236,240.49 C200.731,249.071 213.743,259.503 227,266 C249.321,276.939 268.9735,283.6514 293.1685,289.6884 " fill="none" id="AppUser-to-UC7" style="stroke:#181818;stroke-width:1.0;"/><polygon fill="#181818" points="298.99,291.141,291.2261,285.0812,294.1387,289.9305,289.2894,292.8432,298.99,291.141" style="stroke:#181818;stroke-width:1.0;"/></g><!--link AppUser to UC8--><g id="link_AppUser_UC8"><path d="M182.832,187.834 C189.331,160.617 202.165,125.22 227,104 C245.873,87.875 264.3233,79.4527 288.4683,73.4847 " fill="none" id="AppUser-to-UC8" style="stroke:#181818;stroke-width:1.0;"/><polygon fill="#181818" points="294.293,72.045,284.5961,70.3214,289.4391,73.2448,286.5157,78.0877,294.293,72.045" style="stroke:#181818;stroke-width:1.0;"/></g><!--link AppUser to UC9--><g id="link_AppUser_UC9"><path d="M191.16,211.108 C200.626,202.297 213.635,191.603 227,185 C242.726,177.231 254.291,172.616 271.637,167.501 " fill="none" id="AppUser-to-UC9" style="stroke:#181818;stroke-width:1.0;"/><polygon fill="#181818" points="277.392,165.804,267.6281,164.5129,272.5962,167.2182,269.8909,172.1862,277.392,165.804" style="stroke:#181818;stroke-width:1.0;"/></g><!--link Manager to AppUser--><g id="link_Manager_AppUser"><path d="M82.5568,349.608 C106.776,317.047 129.8051,286.0876 148.9551,260.3426 " fill="none" id="Manager-to-AppUser" style="stroke:#181818;stroke-width:1.0;"/><polygon fill="none" points="159.698,245.9,144.1409,256.7617,153.7693,263.9236,159.698,245.9" style="stroke:#181818;stroke-width:1.0;"/></g><!--SRC=[PP6zRiCW58Ltdk8ekwSsVqkar5aZHLOi3rM7MxYDKHEmW3P3stSl15orhWVCuNoS2vSplmG42wTFVO3IZcNGrWX1CbY7xjZioT297SYZJ8lN-how7OOq5M8W-HfzpFRwp3vOmxX3XKuRnRvdVS6HPT-G8ZV3Xq3y7dCatZMbMjYHxvyjEVMKajlwFbFje2XmgeJQci0cG1jqrgc3O-yBFCzmmwHkOV5Kg2aE1sSlGnYnHSOUdBr6Bu4oPnP_-Sz_YtyPWyQ4LIQsIe5W-Fe3f4x63GLRYoyXnlPLrUPsdxzwBahtYbvCz7AYLnEz_btWSpE-nJS0]--></g></svg>