<?xml version="1.0" encoding="us-ascii" standalone="no"?><svg xmlns="http://www.w3.org/2000/svg" xmlns:xlink="http://www.w3.org/1999/xlink" contentStyleType="text/css" height="596px" preserveAspectRatio="none" style="width:400px;height:596px;background:#FFFFFF;" version="1.1" viewBox="0 0 400 596" width="400px" zoomAndPan="magnify"><defs/><g><!--cluster Milestone 7 - Community of Practice--><g id="cluster_Milestone 7 - Community of Practice"><path d="M83.5,6 L380.5,6 A3.75,3.75 0 0 1 383,8.5 L390,28.2969 L390.5,28.2969 A2.5,2.5 0 0 1 393,30.7969 L393,586.5 A2.5,2.5 0 0 1 390.5,589 L83.5,589 A2.5,2.5 0 0 1 81,586.5 L81,8.5 A2.5,2.5 0 0 1 83.5,6 " fill="none" style="stroke:#000000;stroke-width:1.5;"/><line style="stroke:#000000;stroke-width:1.5;" x1="81" x2="390" y1="28.2969" y2="28.2969"/><text fill="#000000" font-family="sans-serif" font-size="14" font-weight="bold" lengthAdjust="spacing" textLength="296" x="85" y="20.9951">Milestone 7 - Community of Practice</text></g><!--entity UC7_1--><g id="elem_UC7_1"><rect fill="#F1F1F1" height="46.2969" rx="2.5" ry="2.5" style="stroke:#181818;stroke-width:0.5;" width="147" x="163.5" y="41"/><rect fill="#F1F1F1" height="10" style="stroke:#181818;stroke-width:0.5;" width="15" x="290.5" y="46"/><rect fill="#F1F1F1" height="2" style="stroke:#181818;stroke-width:0.5;" width="4" x="288.5" y="48"/><rect fill="#F1F1F1" height="2" style="stroke:#181818;stroke-width:0.5;" width="4" x="288.5" y="52"/><text fill="#000000" font-family="sans-serif" font-size="14" lengthAdjust="spacing" textLength="107" x="178.5" y="73.9951">Share Prompts</text></g><!--entity UC7_2--><g id="elem_UC7_2"><rect fill="#F1F1F1" height="46.2969" rx="2.5" ry="2.5" style="stroke:#181818;stroke-width:0.5;" width="135" x="169.5" y="122"/><rect fill="#F1F1F1" height="10" style="stroke:#181818;stroke-width:0.5;" width="15" x="284.5" y="127"/><rect fill="#F1F1F1" height="2" style="stroke:#181818;stroke-width:0.5;" width="4" x="282.5" y="129"/><rect fill="#F1F1F1" height="2" style="stroke:#181818;stroke-width:0.5;" width="4" x="282.5" y="133"/><text fill="#000000" font-family="sans-serif" font-size="14" lengthAdjust="spacing" textLength="95" x="184.5" y="154.9951">Browse Posts</text></g><!--entity UC7_3--><g id="elem_UC7_3"><rect fill="#F1F1F1" height="46.2969" rx="2.5" ry="2.5" style="stroke:#181818;stroke-width:0.5;" width="153" x="160.5" y="203"/><rect fill="#F1F1F1" height="10" style="stroke:#181818;stroke-width:0.5;" width="15" x="293.5" y="208"/><rect fill="#F1F1F1" height="2" style="stroke:#181818;stroke-width:0.5;" width="4" x="291.5" y="210"/><rect fill="#F1F1F1" height="2" style="stroke:#181818;stroke-width:0.5;" width="4" x="291.5" y="214"/><text fill="#000000" font-family="sans-serif" font-size="14" lengthAdjust="spacing" textLength="113" x="175.5" y="235.9951">Search Content</text></g><!--entity UC7_4--><g id="elem_UC7_4"><rect fill="#F1F1F1" height="46.2969" rx="2.5" ry="2.5" style="stroke:#181818;stroke-width:0.5;" width="114" x="180" y="284"/><rect fill="#F1F1F1" height="10" style="stroke:#181818;stroke-width:0.5;" width="15" x="274" y="289"/><rect fill="#F1F1F1" height="2" style="stroke:#181818;stroke-width:0.5;" width="4" x="272" y="291"/><rect fill="#F1F1F1" height="2" style="stroke:#181818;stroke-width:0.5;" width="4" x="272" y="295"/><text fill="#000000" font-family="sans-serif" font-size="14" lengthAdjust="spacing" textLength="74" x="195" y="316.9951">View Rank</text></g><!--entity UC7_5--><g id="elem_UC7_5"><rect fill="#F1F1F1" height="46.2969" rx="2.5" ry="2.5" style="stroke:#181818;stroke-width:0.5;" width="155" x="159.5" y="365"/><rect fill="#F1F1F1" height="10" style="stroke:#181818;stroke-width:0.5;" width="15" x="294.5" y="370"/><rect fill="#F1F1F1" height="2" style="stroke:#181818;stroke-width:0.5;" width="4" x="292.5" y="372"/><rect fill="#F1F1F1" height="2" style="stroke:#181818;stroke-width:0.5;" width="4" x="292.5" y="376"/><text fill="#000000" font-family="sans-serif" font-size="14" lengthAdjust="spacing" textLength="115" x="174.5" y="397.9951">Report Content</text></g><!--entity UC7_6--><g id="elem_UC7_6"><rect fill="#F1F1F1" height="46.2969" rx="2.5" ry="2.5" style="stroke:#181818;stroke-width:0.5;" width="196" x="139" y="446"/><rect fill="#F1F1F1" height="10" style="stroke:#181818;stroke-width:0.5;" width="15" x="315" y="451"/><rect fill="#F1F1F1" height="2" style="stroke:#181818;stroke-width:0.5;" width="4" x="313" y="453"/><rect fill="#F1F1F1" height="2" style="stroke:#181818;stroke-width:0.5;" width="4" x="313" y="457"/><text fill="#000000" font-family="sans-serif" font-size="14" lengthAdjust="spacing" textLength="156" x="154" y="478.9951">Unsubscribe Channels</text></g><!--entity UC7_7--><g id="elem_UC7_7"><rect fill="#F1F1F1" height="46.2969" rx="2.5" ry="2.5" style="stroke:#181818;stroke-width:0.5;" width="145" x="164.5" y="527"/><rect fill="#F1F1F1" height="10" style="stroke:#181818;stroke-width:0.5;" width="15" x="289.5" y="532"/><rect fill="#F1F1F1" height="2" style="stroke:#181818;stroke-width:0.5;" width="4" x="287.5" y="534"/><rect fill="#F1F1F1" height="2" style="stroke:#181818;stroke-width:0.5;" width="4" x="287.5" y="538"/><text fill="#000000" font-family="sans-serif" font-size="14" lengthAdjust="spacing" textLength="105" x="179.5" y="559.9951">Mute Channels</text></g><!--entity User--><g id="elem_User"><ellipse cx="21.5" cy="277.5" fill="#F1F1F1" rx="8" ry="8" style="stroke:#181818;stroke-width:0.5;"/><path d="M21.5,285.5 L21.5,312.5 M8.5,293.5 L34.5,293.5 M21.5,312.5 L8.5,327.5 M21.5,312.5 L34.5,327.5 " fill="none" style="stroke:#181818;stroke-width:0.5;"/><text fill="#000000" font-family="sans-serif" font-size="14" lengthAdjust="spacing" textLength="31" x="6" y="341.9951">User</text></g><!--link User to UC7_1--><g id="link_User_UC7_1"><path d="M27.2708,268.742 C34.5489,216.549 50.0441,126.883 73,104 C96.6288,80.446 125.7863,70.7872 157.3683,66.3912 " fill="none" id="User-to-UC7_1" style="stroke:#181818;stroke-width:1.0;"/><polygon fill="#181818" points="163.311,65.564,153.8455,62.843,158.3587,66.2533,154.9484,70.7666,163.311,65.564" style="stroke:#181818;stroke-width:1.0;"/></g><!--link User to UC7_2--><g id="link_User_UC7_2"><path d="M28.863,268.87 C35.3767,241.671 48.2166,206.28 73,185 C99.5284,162.222 131.0574,152.8221 163.3854,148.4001 " fill="none" id="User-to-UC7_2" style="stroke:#181818;stroke-width:1.0;"/><polygon fill="#181818" points="169.33,147.587,159.8709,144.8436,164.3761,148.2646,160.9551,152.7698,169.33,147.587" style="stroke:#181818;stroke-width:1.0;"/></g><!--link User to UC7_3--><g id="link_User_UC7_3"><path d="M37.1712,292.131 C46.642,283.328 59.6513,272.635 73,266 C100.0059,252.576 125.952,244.7299 154.27,238.6429 " fill="none" id="User-to-UC7_3" style="stroke:#181818;stroke-width:1.0;"/><polygon fill="#181818" points="160.136,237.382,150.4964,235.3627,155.2477,238.4328,152.1776,243.184,160.136,237.382" style="stroke:#181818;stroke-width:1.0;"/></g><!--link User to UC7_4--><g id="link_User_UC7_4"><path d="M37.1747,307 C66.0973,307 125.819,307 173.812,307 " fill="none" id="User-to-UC7_4" style="stroke:#181818;stroke-width:1.0;"/><polygon fill="#181818" points="179.812,307,170.812,303,174.812,307,170.812,311,179.812,307" style="stroke:#181818;stroke-width:1.0;"/></g><!--link User to UC7_5--><g id="link_User_UC7_5"><path d="M37.2471,321.467 C46.7465,330.039 59.7591,340.47 73,347 C99.825,360.229 125.4448,368.127 153.5458,374.414 " fill="none" id="User-to-UC7_5" style="stroke:#181818;stroke-width:1.0;"/><polygon fill="#181818" points="159.401,375.724,151.4915,369.8555,154.5216,374.6323,149.7448,377.6625,159.401,375.724" style="stroke:#181818;stroke-width:1.0;"/></g><!--link User to UC7_6--><g id="link_User_UC7_6"><path d="M29.0525,345.066 C35.6477,371.986 48.5064,406.908 73,428 C91.4632,443.899 109.4138,452.2879 133.0518,458.3959 " fill="none" id="User-to-UC7_6" style="stroke:#181818;stroke-width:1.0;"/><polygon fill="#181818" points="138.861,459.897,131.1479,453.7726,134.02,458.6461,129.1465,461.5182,138.861,459.897" style="stroke:#181818;stroke-width:1.0;"/></g><!--link User to UC7_7--><g id="link_User_UC7_7"><path d="M27.3146,345.053 C34.6452,396.969 50.2032,486.17 73,509 C96.8144,532.8488 126.3801,542.6767 158.1791,547.2104 " fill="none" id="User-to-UC7_7" style="stroke:#181818;stroke-width:1.0;"/><polygon fill="#181818" points="164.119,548.0573,155.7737,542.827,159.1691,547.3516,154.6445,550.7469,164.119,548.0573" style="stroke:#181818;stroke-width:1.0;"/></g><!--SRC=[RP1DYm8n38Rl_HN1-npyd9k7dRCWYbvaMMetEiMPP4WpYCZ-zorJKSjkB-N9qpSXRV2ae0pYpxN2jnTqwfcCiKvPO1TGm8RXDgQpxcBF2AELRp0e4q891LJSjZrvlG6VO2qnwHsEu6uWdiEsjeAnp6sduNDeLfLVuoG_XAyXMWvlRl88eXLNn-waIFgqqsJt7g-miNHvYbaI6-nOz4zidkoEGdyCJlmHeQej4JQlmOlqPjNhFx8qFyOC_r4KoySE6KvodEOuot6UuoB7yXS0]--></g></svg>