<?xml version="1.0" encoding="us-ascii" standalone="no"?><svg xmlns="http://www.w3.org/2000/svg" xmlns:xlink="http://www.w3.org/1999/xlink" contentStyleType="text/css" height="733px" preserveAspectRatio="none" style="width:1103px;height:733px;background:#FFFFFF;" version="1.1" viewBox="0 0 1103 733" width="1103px" zoomAndPan="magnify"><defs/><g><text fill="#000000" font-family="sans-serif" font-size="14" font-weight="bold" lengthAdjust="spacing" textLength="239" x="425" y="22.9951">Redux Implementation in App</text><!--cluster Redux Store--><g id="cluster_Redux Store"><path d="M8.5,221.2969 L107.5,221.2969 A3.75,3.75 0 0 1 110,223.7969 L117,243.5938 L313.5,243.5938 A2.5,2.5 0 0 1 316,246.0938 L316,491.7969 A2.5,2.5 0 0 1 313.5,494.2969 L8.5,494.2969 A2.5,2.5 0 0 1 6,491.7969 L6,223.7969 A2.5,2.5 0 0 1 8.5,221.2969 " fill="none" style="stroke:#000000;stroke-width:1.5;"/><line style="stroke:#000000;stroke-width:1.5;" x1="6" x2="117" y1="243.5938" y2="243.5938"/><text fill="#000000" font-family="sans-serif" font-size="14" font-weight="bold" lengthAdjust="spacing" textLength="98" x="10" y="236.292">Redux Store</text></g><!--cluster Redux Slices--><g id="cluster_Redux Slices"><path d="M358.5,381.2969 L460.5,381.2969 A3.75,3.75 0 0 1 463,383.7969 L470,403.5938 L1093.5,403.5938 A2.5,2.5 0 0 1 1096,406.0938 L1096,723.7969 A2.5,2.5 0 0 1 1093.5,726.2969 L358.5,726.2969 A2.5,2.5 0 0 1 356,723.7969 L356,383.7969 A2.5,2.5 0 0 1 358.5,381.2969 " fill="none" style="stroke:#000000;stroke-width:1.5;"/><line style="stroke:#000000;stroke-width:1.5;" x1="356" x2="470" y1="403.5938" y2="403.5938"/><text fill="#000000" font-family="sans-serif" font-size="14" font-weight="bold" lengthAdjust="spacing" textLength="101" x="360" y="396.292">Redux Slices</text></g><!--cluster Redux Hooks--><g id="cluster_Redux Hooks"><path d="M302.5,43.2969 L406.5,43.2969 A3.75,3.75 0 0 1 409,45.7969 L416,65.5938 L713.5,65.5938 A2.5,2.5 0 0 1 716,68.0938 L716,153.7969 A2.5,2.5 0 0 1 713.5,156.2969 L302.5,156.2969 A2.5,2.5 0 0 1 300,153.7969 L300,45.7969 A2.5,2.5 0 0 1 302.5,43.2969 " fill="none" style="stroke:#000000;stroke-width:1.5;"/><line style="stroke:#000000;stroke-width:1.5;" x1="300" x2="416" y1="65.5938" y2="65.5938"/><text fill="#000000" font-family="sans-serif" font-size="14" font-weight="bold" lengthAdjust="spacing" textLength="103" x="304" y="58.292">Redux Hooks</text></g><!--entity rootReducer--><g id="elem_rootReducer"><rect fill="#F1F1F1" height="46.2969" rx="2.5" ry="2.5" style="stroke:#181818;stroke-width:0.5;" width="130" x="30" y="264.2969"/><rect fill="#F1F1F1" height="10" style="stroke:#181818;stroke-width:0.5;" width="15" x="140" y="269.2969"/><rect fill="#F1F1F1" height="2" style="stroke:#181818;stroke-width:0.5;" width="4" x="138" y="271.2969"/><rect fill="#F1F1F1" height="2" style="stroke:#181818;stroke-width:0.5;" width="4" x="138" y="275.2969"/><text fill="#000000" font-family="sans-serif" font-size="14" lengthAdjust="spacing" textLength="90" x="45" y="297.292">rootReducer</text></g><!--entity store--><g id="elem_store"><rect fill="#F1F1F1" height="46.2969" rx="2.5" ry="2.5" style="stroke:#181818;stroke-width:0.5;" width="78" x="195" y="264.2969"/><rect fill="#F1F1F1" height="10" style="stroke:#181818;stroke-width:0.5;" width="15" x="253" y="269.2969"/><rect fill="#F1F1F1" height="2" style="stroke:#181818;stroke-width:0.5;" width="4" x="251" y="271.2969"/><rect fill="#F1F1F1" height="2" style="stroke:#181818;stroke-width:0.5;" width="4" x="251" y="275.2969"/><text fill="#000000" font-family="sans-serif" font-size="14" lengthAdjust="spacing" textLength="38" x="210" y="297.292">store</text></g><!--entity persistedStore--><g id="elem_persistedStore"><rect fill="#F1F1F1" height="46.2969" rx="2.5" ry="2.5" style="stroke:#181818;stroke-width:0.5;" width="148" x="30" y="424.2969"/><rect fill="#F1F1F1" height="10" style="stroke:#181818;stroke-width:0.5;" width="15" x="158" y="429.2969"/><rect fill="#F1F1F1" height="2" style="stroke:#181818;stroke-width:0.5;" width="4" x="156" y="431.2969"/><rect fill="#F1F1F1" height="2" style="stroke:#181818;stroke-width:0.5;" width="4" x="156" y="435.2969"/><text fill="#000000" font-family="sans-serif" font-size="14" lengthAdjust="spacing" textLength="108" x="45" y="457.292">persistedStore</text></g><!--entity notificationSlice--><g id="elem_notificationSlice"><rect fill="#F1F1F1" height="46.2969" rx="2.5" ry="2.5" style="stroke:#181818;stroke-width:0.5;" width="158" x="399" y="424.2969"/><rect fill="#F1F1F1" height="10" style="stroke:#181818;stroke-width:0.5;" width="15" x="537" y="429.2969"/><rect fill="#F1F1F1" height="2" style="stroke:#181818;stroke-width:0.5;" width="4" x="535" y="431.2969"/><rect fill="#F1F1F1" height="2" style="stroke:#181818;stroke-width:0.5;" width="4" x="535" y="435.2969"/><text fill="#000000" font-family="sans-serif" font-size="14" lengthAdjust="spacing" textLength="118" x="414" y="457.292">notificationSlice</text></g><!--entity navigationSlice--><g id="elem_navigationSlice"><rect fill="#F1F1F1" height="46.2969" rx="2.5" ry="2.5" style="stroke:#181818;stroke-width:0.5;" width="149" x="592.5" y="424.2969"/><rect fill="#F1F1F1" height="10" style="stroke:#181818;stroke-width:0.5;" width="15" x="721.5" y="429.2969"/><rect fill="#F1F1F1" height="2" style="stroke:#181818;stroke-width:0.5;" width="4" x="719.5" y="431.2969"/><rect fill="#F1F1F1" height="2" style="stroke:#181818;stroke-width:0.5;" width="4" x="719.5" y="435.2969"/><text fill="#000000" font-family="sans-serif" font-size="14" lengthAdjust="spacing" textLength="109" x="607.5" y="457.292">navigationSlice</text></g><!--entity themeSlice--><g id="elem_themeSlice"><rect fill="#F1F1F1" height="46.2969" rx="2.5" ry="2.5" style="stroke:#181818;stroke-width:0.5;" width="122" x="777" y="424.2969"/><rect fill="#F1F1F1" height="10" style="stroke:#181818;stroke-width:0.5;" width="15" x="879" y="429.2969"/><rect fill="#F1F1F1" height="2" style="stroke:#181818;stroke-width:0.5;" width="4" x="877" y="431.2969"/><rect fill="#F1F1F1" height="2" style="stroke:#181818;stroke-width:0.5;" width="4" x="877" y="435.2969"/><text fill="#000000" font-family="sans-serif" font-size="14" lengthAdjust="spacing" textLength="82" x="792" y="457.292">themeSlice</text></g><!--entity languageSlice--><g id="elem_languageSlice"><rect fill="#F1F1F1" height="46.2969" rx="2.5" ry="2.5" style="stroke:#181818;stroke-width:0.5;" width="138" x="934" y="424.2969"/><rect fill="#F1F1F1" height="10" style="stroke:#181818;stroke-width:0.5;" width="15" x="1052" y="429.2969"/><rect fill="#F1F1F1" height="2" style="stroke:#181818;stroke-width:0.5;" width="4" x="1050" y="431.2969"/><rect fill="#F1F1F1" height="2" style="stroke:#181818;stroke-width:0.5;" width="4" x="1050" y="435.2969"/><text fill="#000000" font-family="sans-serif" font-size="14" lengthAdjust="spacing" textLength="98" x="949" y="457.292">languageSlice</text></g><!--entity layoutSlice--><g id="elem_layoutSlice"><rect fill="#F1F1F1" height="46.2969" rx="2.5" ry="2.5" style="stroke:#181818;stroke-width:0.5;" width="118" x="419" y="549.2969"/><rect fill="#F1F1F1" height="10" style="stroke:#181818;stroke-width:0.5;" width="15" x="517" y="554.2969"/><rect fill="#F1F1F1" height="2" style="stroke:#181818;stroke-width:0.5;" width="4" x="515" y="556.2969"/><rect fill="#F1F1F1" height="2" style="stroke:#181818;stroke-width:0.5;" width="4" x="515" y="560.2969"/><text fill="#000000" font-family="sans-serif" font-size="14" lengthAdjust="spacing" textLength="78" x="434" y="582.292">layoutSlice</text></g><!--entity loadingSlice--><g id="elem_loadingSlice"><rect fill="#F1F1F1" height="46.2969" rx="2.5" ry="2.5" style="stroke:#181818;stroke-width:0.5;" width="126" x="572" y="549.2969"/><rect fill="#F1F1F1" height="10" style="stroke:#181818;stroke-width:0.5;" width="15" x="678" y="554.2969"/><rect fill="#F1F1F1" height="2" style="stroke:#181818;stroke-width:0.5;" width="4" x="676" y="556.2969"/><rect fill="#F1F1F1" height="2" style="stroke:#181818;stroke-width:0.5;" width="4" x="676" y="560.2969"/><text fill="#000000" font-family="sans-serif" font-size="14" lengthAdjust="spacing" textLength="86" x="587" y="582.292">loadingSlice</text></g><!--entity fontSlice--><g id="elem_fontSlice"><rect fill="#F1F1F1" height="46.2969" rx="2.5" ry="2.5" style="stroke:#181818;stroke-width:0.5;" width="105" x="733.5" y="549.2969"/><rect fill="#F1F1F1" height="10" style="stroke:#181818;stroke-width:0.5;" width="15" x="818.5" y="554.2969"/><rect fill="#F1F1F1" height="2" style="stroke:#181818;stroke-width:0.5;" width="4" x="816.5" y="556.2969"/><rect fill="#F1F1F1" height="2" style="stroke:#181818;stroke-width:0.5;" width="4" x="816.5" y="560.2969"/><text fill="#000000" font-family="sans-serif" font-size="14" lengthAdjust="spacing" textLength="65" x="748.5" y="582.292">fontSlice</text></g><!--entity courseDataSlice--><g id="elem_courseDataSlice"><rect fill="#F1F1F1" height="46.2969" rx="2.5" ry="2.5" style="stroke:#181818;stroke-width:0.5;" width="155" x="873.5" y="549.2969"/><rect fill="#F1F1F1" height="10" style="stroke:#181818;stroke-width:0.5;" width="15" x="1008.5" y="554.2969"/><rect fill="#F1F1F1" height="2" style="stroke:#181818;stroke-width:0.5;" width="4" x="1006.5" y="556.2969"/><rect fill="#F1F1F1" height="2" style="stroke:#181818;stroke-width:0.5;" width="4" x="1006.5" y="560.2969"/><text fill="#000000" font-family="sans-serif" font-size="14" lengthAdjust="spacing" textLength="115" x="888.5" y="582.292">courseDataSlice</text></g><!--entity tutorialSlice--><g id="elem_tutorialSlice"><rect fill="#F1F1F1" height="46.2969" rx="2.5" ry="2.5" style="stroke:#181818;stroke-width:0.5;" width="127" x="414.5" y="656.2969"/><rect fill="#F1F1F1" height="10" style="stroke:#181818;stroke-width:0.5;" width="15" x="521.5" y="661.2969"/><rect fill="#F1F1F1" height="2" style="stroke:#181818;stroke-width:0.5;" width="4" x="519.5" y="663.2969"/><rect fill="#F1F1F1" height="2" style="stroke:#181818;stroke-width:0.5;" width="4" x="519.5" y="667.2969"/><text fill="#000000" font-family="sans-serif" font-size="14" lengthAdjust="spacing" textLength="87" x="429.5" y="689.292">tutorialSlice</text></g><!--entity animationSlice--><g id="elem_animationSlice"><rect fill="#F1F1F1" height="46.2969" rx="2.5" ry="2.5" style="stroke:#181818;stroke-width:0.5;" width="146" x="577" y="656.2969"/><rect fill="#F1F1F1" height="10" style="stroke:#181818;stroke-width:0.5;" width="15" x="703" y="661.2969"/><rect fill="#F1F1F1" height="2" style="stroke:#181818;stroke-width:0.5;" width="4" x="701" y="663.2969"/><rect fill="#F1F1F1" height="2" style="stroke:#181818;stroke-width:0.5;" width="4" x="701" y="667.2969"/><text fill="#000000" font-family="sans-serif" font-size="14" lengthAdjust="spacing" textLength="106" x="592" y="689.292">animationSlice</text></g><!--entity backgroundInformationSlice--><g id="elem_backgroundInformationSlice"><rect fill="#F1F1F1" height="46.2969" rx="2.5" ry="2.5" style="stroke:#181818;stroke-width:0.5;" width="244" x="758" y="656.2969"/><rect fill="#F1F1F1" height="10" style="stroke:#181818;stroke-width:0.5;" width="15" x="982" y="661.2969"/><rect fill="#F1F1F1" height="2" style="stroke:#181818;stroke-width:0.5;" width="4" x="980" y="663.2969"/><rect fill="#F1F1F1" height="2" style="stroke:#181818;stroke-width:0.5;" width="4" x="980" y="667.2969"/><text fill="#000000" font-family="sans-serif" font-size="14" lengthAdjust="spacing" textLength="204" x="773" y="689.292">backgroundInformationSlice</text></g><!--entity useAppDispatch--><g id="elem_useAppDispatch"><rect fill="#F1F1F1" height="46.2969" rx="2.5" ry="2.5" style="stroke:#181818;stroke-width:0.5;" width="158" x="534" y="86.2969"/><rect fill="#F1F1F1" height="10" style="stroke:#181818;stroke-width:0.5;" width="15" x="672" y="91.2969"/><rect fill="#F1F1F1" height="2" style="stroke:#181818;stroke-width:0.5;" width="4" x="670" y="93.2969"/><rect fill="#F1F1F1" height="2" style="stroke:#181818;stroke-width:0.5;" width="4" x="670" y="97.2969"/><text fill="#000000" font-family="sans-serif" font-size="14" lengthAdjust="spacing" textLength="118" x="549" y="119.292">useAppDispatch</text></g><!--entity useAppSelector--><g id="elem_useAppSelector"><rect fill="#F1F1F1" height="46.2969" rx="2.5" ry="2.5" style="stroke:#181818;stroke-width:0.5;" width="155" x="343.5" y="86.2969"/><rect fill="#F1F1F1" height="10" style="stroke:#181818;stroke-width:0.5;" width="15" x="478.5" y="91.2969"/><rect fill="#F1F1F1" height="2" style="stroke:#181818;stroke-width:0.5;" width="4" x="476.5" y="93.2969"/><rect fill="#F1F1F1" height="2" style="stroke:#181818;stroke-width:0.5;" width="4" x="476.5" y="97.2969"/><text fill="#000000" font-family="sans-serif" font-size="14" lengthAdjust="spacing" textLength="115" x="358.5" y="119.292">useAppSelector</text></g><!--link Redux Store to Redux Slices--><g id="link_Redux Store_Redux Slices"><path d="M316.0644,311.0494 C316.1415,311.2669 316.219,311.4856 316.2969,311.7055 C316.6086,312.5849 316.9269,313.483 317.2514,314.3986 C322.4437,329.0484 329.2274,348.1883 336.0104,367.3259 C342.7933,386.4635 349.5755,405.5989 354.7646,420.2397 C355.089,421.1547 355.4071,422.0522 355.7186,422.931 C355.7964,423.1507 353.8695,417.714 353.9465,417.9314 " fill="none" id="Redux Store-to-Redux Slices" style="stroke:#181818;stroke-width:1.0;"/><polygon fill="#181818" points="355.9509,423.5866,356.7145,413.7674,354.2806,418.8739,349.1741,416.44,355.9509,423.5866" style="stroke:#181818;stroke-width:1.0;"/><text fill="#000000" font-family="sans-serif" font-size="13" lengthAdjust="spacing" textLength="52" x="332" y="353.3638">includes</text></g><!--link Redux Hooks to Redux Store--><g id="link_Redux Hooks_Redux Store"><path d="M308,156.8748 C308,157.1727 308,157.4713 308,157.7708 C308,158.3698 308,158.9719 308,159.5771 C308,161.9979 308,164.4675 308,166.9761 C308,177.0108 308,187.6703 308,198.3293 C308,203.6587 308,208.988 308,214.2389 C308,215.5517 308,216.8595 308,218.1612 C308,218.8121 308,219.4614 308,220.1091 C308,220.4329 308,214.7563 308,215.0793 " fill="none" id="Redux Hooks-to-Redux Store" style="stroke:#181818;stroke-width:1.0;"/><polygon fill="#181818" points="308,221.0793,312,212.0793,308,216.0793,304,212.0793,308,221.0793" style="stroke:#181818;stroke-width:1.0;"/><text fill="#000000" font-family="sans-serif" font-size="13" lengthAdjust="spacing" textLength="30" x="309" y="193.3638">uses</text></g><!--SRC=[PP4nRiCm34LtdqB8dWjaA50WGxFMOv61bMY5Y4mA4bMqA7htodOBoyuclY_zJr9A6j2yeYkVvZB6W2EoWfAm8JRFCNPT17i7Z-QmtEfL4XxCTsVCMnBHYLfCrwdEapQV8gPCMT7r2_fvz0baCVyPiIWDPEVWMPXD63x8xvZUQejh6O1zgQuj-PAYJItWYFqA1k56jb9InZCeD1cbDaqGLW9CuwwHzpgEJrBONNYGj94VftqHkVyFMpBMnPufHr1xkwwenu2sHiy6stKVZq_xnPtg3zbG7EPk6zBUNLwVJ0t8lm00]--></g></svg>