<?xml version="1.0" encoding="us-ascii" standalone="no"?><svg xmlns="http://www.w3.org/2000/svg" xmlns:xlink="http://www.w3.org/1999/xlink" contentStyleType="text/css" height="377px" preserveAspectRatio="none" style="width:1207px;height:377px;background:#FFFFFF;" version="1.1" viewBox="0 0 1207 377" width="1207px" zoomAndPan="magnify"><defs/><g><!--class Routes--><g id="elem_Routes"><rect codeLine="1" fill="#F1F1F1" height="64.2969" id="Routes" rx="2.5" ry="2.5" style="stroke:#181818;stroke-width:0.5;" width="147" x="346" y="306"/><ellipse cx="390.25" cy="322" fill="#EB937F" rx="11" ry="11" style="stroke:#181818;stroke-width:1.0;"/><path d="M389.0469,322.875 L390.5,322.875 L390.5,322.9844 C390.5,323.3906 390.5313,323.5469 390.6094,323.7031 C390.7656,323.9531 391.0469,324.1094 391.3438,324.1094 C391.5938,324.1094 391.8594,323.9688 392.0156,323.75 C392.1406,323.5938 392.1719,323.4375 392.1719,322.9844 L392.1719,321.0625 C392.1719,320.9063 392.1719,320.8594 392.1563,320.7031 C392.0938,320.2344 391.7813,319.9219 391.3281,319.9219 C391.0781,319.9219 390.8125,320.0625 390.6406,320.2813 C390.5313,320.4531 390.5,320.6094 390.5,321.0625 L390.5,321.1875 L389.0469,321.1875 L389.0469,318.7813 L393.0313,318.7813 L393.0313,319.6406 C393.0313,320.0469 393.0625,320.2188 393.1406,320.375 C393.3125,320.625 393.5938,320.7813 393.875,320.7813 C394.1406,320.7813 394.4063,320.6406 394.5781,320.4219 C394.6875,320.25 394.7188,320.1094 394.7188,319.6406 L394.7188,317.0938 L387.0938,317.0938 C386.6563,317.0938 386.5313,317.1094 386.375,317.2031 C386.125,317.3594 385.9688,317.6563 385.9688,317.9375 C385.9688,318.2188 386.1094,318.4688 386.3281,318.6406 C386.4844,318.75 386.6719,318.7813 387.0938,318.7813 L387.3438,318.7813 L387.3438,325.2969 L387.0938,325.2969 C386.6875,325.2969 386.5313,325.3125 386.375,325.4219 C386.125,325.5938 385.9688,325.8594 385.9688,326.1563 C385.9688,326.4219 386.1094,326.6719 386.3281,326.8281 C386.4688,326.9531 386.7031,327 387.0938,327 L395.0938,327 L395.0938,324.4219 C395.0938,323.9844 395.0625,323.8438 394.9844,323.6875 C394.8125,323.4375 394.5313,323.2813 394.25,323.2813 C393.9844,323.2813 393.7188,323.3906 393.5469,323.6406 C393.4375,323.7969 393.4063,323.9375 393.4063,324.4219 L393.4063,325.2969 L389.0469,325.2969 L389.0469,322.875 Z " fill="#000000"/><text fill="#000000" font-family="sans-serif" font-size="14" lengthAdjust="spacing" textLength="50" x="410.75" y="326.8467">Routes</text><line style="stroke:#181818;stroke-width:0.5;" x1="347" x2="492" y1="338" y2="338"/><text fill="#000000" font-family="sans-serif" font-size="14" lengthAdjust="spacing" textLength="135" x="352" y="354.9951">RouteName: string</text><line style="stroke:#181818;stroke-width:0.5;" x1="347" x2="492" y1="362.2969" y2="362.2969"/></g><!--class RouteLinking--><g id="elem_RouteLinking"><rect codeLine="5" fill="#F1F1F1" height="80.5938" id="RouteLinking" rx="2.5" ry="2.5" style="stroke:#181818;stroke-width:0.5;" width="188" x="23.5" y="140"/><ellipse cx="65.95" cy="156" fill="#ADD1B2" rx="11" ry="11" style="stroke:#181818;stroke-width:1.0;"/><path d="M68.2938,151.6719 C67.3563,151.2344 66.7625,151.0938 65.8875,151.0938 C63.2625,151.0938 61.2625,153.1719 61.2625,155.8906 L61.2625,157.0156 C61.2625,159.5938 63.3719,161.4844 66.2625,161.4844 C67.4813,161.4844 68.6375,161.1875 69.3875,160.6406 C69.9656,160.2344 70.2938,159.7813 70.2938,159.3906 C70.2938,158.9375 69.9031,158.5469 69.4344,158.5469 C69.2156,158.5469 69.0125,158.625 68.825,158.8125 C68.3719,159.2969 68.3719,159.2969 68.1844,159.3906 C67.7625,159.6563 67.075,159.7813 66.3094,159.7813 C64.2625,159.7813 62.9656,158.6875 62.9656,156.9844 L62.9656,155.8906 C62.9656,154.1094 64.2156,152.7969 65.95,152.7969 C66.5281,152.7969 67.1375,152.9531 67.6063,153.2031 C68.0906,153.4844 68.2625,153.7031 68.3563,154.1094 C68.4188,154.5156 68.45,154.6406 68.5906,154.7656 C68.7313,154.9063 68.9656,155.0156 69.1844,155.0156 C69.45,155.0156 69.7156,154.875 69.8875,154.6563 C69.9969,154.5 70.0281,154.3125 70.0281,153.8906 L70.0281,152.4688 C70.0281,152.0313 70.0125,151.9063 69.9188,151.75 C69.7625,151.4844 69.4813,151.3438 69.1844,151.3438 C68.8875,151.3438 68.6844,151.4375 68.4656,151.75 L68.2938,151.6719 Z " fill="#000000"/><text fill="#000000" font-family="sans-serif" font-size="14" lengthAdjust="spacing" textLength="95" x="86.05" y="160.8467">RouteLinking</text><line style="stroke:#181818;stroke-width:0.5;" x1="24.5" x2="210.5" y1="172" y2="172"/><rect fill="none" height="6" style="stroke:#C82930;stroke-width:1.0;" width="6" x="31.5" y="182.6484"/><text fill="#000000" font-family="sans-serif" font-size="14" lengthAdjust="spacing" textLength="120" x="43.5" y="188.9951">prefixes: string[]</text><rect fill="none" height="6" style="stroke:#C82930;stroke-width:1.0;" width="6" x="31.5" y="198.9453"/><text fill="#000000" font-family="sans-serif" font-size="14" lengthAdjust="spacing" textLength="162" x="43.5" y="205.292">config: { screens: {} }</text><line style="stroke:#181818;stroke-width:0.5;" x1="24.5" x2="210.5" y1="212.5938" y2="212.5938"/></g><!--class NavigationBarLink--><g id="elem_NavigationBarLink"><rect codeLine="10" fill="#F1F1F1" height="96.8906" id="NavigationBarLink" rx="2.5" ry="2.5" style="stroke:#181818;stroke-width:0.5;" width="345" x="247" y="132"/><ellipse cx="350.25" cy="148" fill="#ADD1B2" rx="11" ry="11" style="stroke:#181818;stroke-width:1.0;"/><path d="M352.5938,143.6719 C351.6563,143.2344 351.0625,143.0938 350.1875,143.0938 C347.5625,143.0938 345.5625,145.1719 345.5625,147.8906 L345.5625,149.0156 C345.5625,151.5938 347.6719,153.4844 350.5625,153.4844 C351.7813,153.4844 352.9375,153.1875 353.6875,152.6406 C354.2656,152.2344 354.5938,151.7813 354.5938,151.3906 C354.5938,150.9375 354.2031,150.5469 353.7344,150.5469 C353.5156,150.5469 353.3125,150.625 353.125,150.8125 C352.6719,151.2969 352.6719,151.2969 352.4844,151.3906 C352.0625,151.6563 351.375,151.7813 350.6094,151.7813 C348.5625,151.7813 347.2656,150.6875 347.2656,148.9844 L347.2656,147.8906 C347.2656,146.1094 348.5156,144.7969 350.25,144.7969 C350.8281,144.7969 351.4375,144.9531 351.9063,145.2031 C352.3906,145.4844 352.5625,145.7031 352.6563,146.1094 C352.7188,146.5156 352.75,146.6406 352.8906,146.7656 C353.0313,146.9063 353.2656,147.0156 353.4844,147.0156 C353.75,147.0156 354.0156,146.875 354.1875,146.6563 C354.2969,146.5 354.3281,146.3125 354.3281,145.8906 L354.3281,144.4688 C354.3281,144.0313 354.3125,143.9063 354.2188,143.75 C354.0625,143.4844 353.7813,143.3438 353.4844,143.3438 C353.1875,143.3438 352.9844,143.4375 352.7656,143.75 L352.5938,143.6719 Z " fill="#000000"/><text fill="#000000" font-family="sans-serif" font-size="14" lengthAdjust="spacing" textLength="130" x="370.75" y="152.8467">NavigationBarLink</text><line style="stroke:#181818;stroke-width:0.5;" x1="248" x2="591" y1="164" y2="164"/><rect fill="none" height="6" style="stroke:#C82930;stroke-width:1.0;" width="6" x="255" y="174.6484"/><text fill="#000000" font-family="sans-serif" font-size="14" lengthAdjust="spacing" textLength="81" x="267" y="180.9951">icon: string</text><rect fill="none" height="6" style="stroke:#C82930;stroke-width:1.0;" width="6" x="255" y="190.9453"/><text fill="#000000" font-family="sans-serif" font-size="14" lengthAdjust="spacing" textLength="90" x="267" y="197.292">route: string</text><line style="stroke:#181818;stroke-width:0.5;" x1="248" x2="591" y1="204.5938" y2="204.5938"/><ellipse cx="258" cy="218.2422" fill="#84BE84" rx="3" ry="3" style="stroke:#038048;stroke-width:1.0;"/><text fill="#000000" font-family="sans-serif" font-size="14" lengthAdjust="spacing" textLength="319" x="267" y="221.5889">NavigationBarLink(icon: string, route: string)</text></g><!--class ReactNavigationContainer--><g id="elem_ReactNavigationContainer"><rect codeLine="17" fill="#F1F1F1" height="48" id="ReactNavigationContainer" rx="2.5" ry="2.5" style="stroke:#181818;stroke-width:0.5;" width="221" x="7" y="7"/><ellipse cx="22" cy="23" fill="#ADD1B2" rx="11" ry="11" style="stroke:#181818;stroke-width:1.0;"/><path d="M24.3438,18.6719 C23.4063,18.2344 22.8125,18.0938 21.9375,18.0938 C19.3125,18.0938 17.3125,20.1719 17.3125,22.8906 L17.3125,24.0156 C17.3125,26.5938 19.4219,28.4844 22.3125,28.4844 C23.5313,28.4844 24.6875,28.1875 25.4375,27.6406 C26.0156,27.2344 26.3438,26.7813 26.3438,26.3906 C26.3438,25.9375 25.9531,25.5469 25.4844,25.5469 C25.2656,25.5469 25.0625,25.625 24.875,25.8125 C24.4219,26.2969 24.4219,26.2969 24.2344,26.3906 C23.8125,26.6563 23.125,26.7813 22.3594,26.7813 C20.3125,26.7813 19.0156,25.6875 19.0156,23.9844 L19.0156,22.8906 C19.0156,21.1094 20.2656,19.7969 22,19.7969 C22.5781,19.7969 23.1875,19.9531 23.6563,20.2031 C24.1406,20.4844 24.3125,20.7031 24.4063,21.1094 C24.4688,21.5156 24.5,21.6406 24.6406,21.7656 C24.7813,21.9063 25.0156,22.0156 25.2344,22.0156 C25.5,22.0156 25.7656,21.875 25.9375,21.6563 C26.0469,21.5 26.0781,21.3125 26.0781,20.8906 L26.0781,19.4688 C26.0781,19.0313 26.0625,18.9063 25.9688,18.75 C25.8125,18.4844 25.5313,18.3438 25.2344,18.3438 C24.9375,18.3438 24.7344,18.4375 24.5156,18.75 L24.3438,18.6719 Z " fill="#000000"/><text fill="#000000" font-family="sans-serif" font-size="14" lengthAdjust="spacing" textLength="189" x="36" y="27.8467">ReactNavigationContainer</text><line style="stroke:#181818;stroke-width:0.5;" x1="8" x2="227" y1="39" y2="39"/><line style="stroke:#181818;stroke-width:0.5;" x1="8" x2="227" y1="47" y2="47"/></g><!--class Router--><g id="elem_Router"><rect codeLine="20" fill="#F1F1F1" height="96.8906" id="Router" rx="2.5" ry="2.5" style="stroke:#181818;stroke-width:0.5;" width="573" x="627" y="132"/><ellipse cx="884.75" cy="148" fill="#ADD1B2" rx="11" ry="11" style="stroke:#181818;stroke-width:1.0;"/><path d="M887.0938,143.6719 C886.1563,143.2344 885.5625,143.0938 884.6875,143.0938 C882.0625,143.0938 880.0625,145.1719 880.0625,147.8906 L880.0625,149.0156 C880.0625,151.5938 882.1719,153.4844 885.0625,153.4844 C886.2813,153.4844 887.4375,153.1875 888.1875,152.6406 C888.7656,152.2344 889.0938,151.7813 889.0938,151.3906 C889.0938,150.9375 888.7031,150.5469 888.2344,150.5469 C888.0156,150.5469 887.8125,150.625 887.625,150.8125 C887.1719,151.2969 887.1719,151.2969 886.9844,151.3906 C886.5625,151.6563 885.875,151.7813 885.1094,151.7813 C883.0625,151.7813 881.7656,150.6875 881.7656,148.9844 L881.7656,147.8906 C881.7656,146.1094 883.0156,144.7969 884.75,144.7969 C885.3281,144.7969 885.9375,144.9531 886.4063,145.2031 C886.8906,145.4844 887.0625,145.7031 887.1563,146.1094 C887.2188,146.5156 887.25,146.6406 887.3906,146.7656 C887.5313,146.9063 887.7656,147.0156 887.9844,147.0156 C888.25,147.0156 888.5156,146.875 888.6875,146.6563 C888.7969,146.5 888.8281,146.3125 888.8281,145.8906 L888.8281,144.4688 C888.8281,144.0313 888.8125,143.9063 888.7188,143.75 C888.5625,143.4844 888.2813,143.3438 887.9844,143.3438 C887.6875,143.3438 887.4844,143.4375 887.2656,143.75 L887.0938,143.6719 Z " fill="#000000"/><text fill="#000000" font-family="sans-serif" font-size="14" lengthAdjust="spacing" textLength="49" x="905.25" y="152.8467">Router</text><line style="stroke:#181818;stroke-width:0.5;" x1="628" x2="1199" y1="164" y2="164"/><rect fill="none" height="6" style="stroke:#C82930;stroke-width:1.0;" width="6" x="635" y="174.6484"/><text fill="#000000" font-family="sans-serif" font-size="14" lengthAdjust="spacing" textLength="195" x="647" y="180.9951">routeLinking: RouteLinking</text><rect fill="none" height="6" style="stroke:#C82930;stroke-width:1.0;" width="6" x="635" y="190.9453"/><text fill="#000000" font-family="sans-serif" font-size="14" lengthAdjust="spacing" textLength="285" x="647" y="197.292">navigationBarLinks: NavigationBarLink[]</text><line style="stroke:#181818;stroke-width:0.5;" x1="628" x2="1199" y1="204.5938" y2="204.5938"/><ellipse cx="638" cy="218.2422" fill="#84BE84" rx="3" ry="3" style="stroke:#038048;stroke-width:1.0;"/><text fill="#000000" font-family="sans-serif" font-size="14" lengthAdjust="spacing" textLength="547" x="647" y="221.5889">Router(routeLinking: RouteLinking, navigationBarLinks: NavigationBarLink[])</text></g><!--link RouteLinking to Routes--><g id="link_RouteLinking_Routes"><path codeLine="27" d="M194.489,221.142 C245.517,247.416 295.5248,273.165 342.8308,297.523 " fill="none" id="RouteLinking-to-Routes" style="stroke:#181818;stroke-width:1.0;"/><polygon fill="none" points="358.834,305.7631,345.5775,292.1886,340.0841,302.8574,358.834,305.7631" style="stroke:#181818;stroke-width:1.0;"/><text fill="#000000" font-family="sans-serif" font-size="13" lengthAdjust="spacing" textLength="31" x="297.5" y="272.0669">Uses</text></g><!--link Router to Routes--><g id="link_Router_Routes"><path codeLine="28" d="M762.599,229 C673.22,257.135 581.1215,286.1253 510.2675,308.4284 " fill="none" id="Router-to-Routes" style="stroke:#181818;stroke-width:1.0;"/><polygon fill="none" points="493.098,313.8329,512.069,314.1515,508.466,302.7052,493.098,313.8329" style="stroke:#181818;stroke-width:1.0;"/><text fill="#000000" font-family="sans-serif" font-size="13" lengthAdjust="spacing" textLength="31" x="667.5" y="272.0669">Uses</text></g><!--link NavigationBarLink to Routes--><g id="link_NavigationBarLink_Routes"><path codeLine="29" d="M419.5,229 C419.5,254.008 419.5,265.9637 419.5,287.9759 " fill="none" id="NavigationBarLink-to-Routes" style="stroke:#181818;stroke-width:1.0;"/><polygon fill="none" points="419.5,305.9759,425.5,287.9759,413.5,287.9759,419.5,305.9759" style="stroke:#181818;stroke-width:1.0;"/><text fill="#000000" font-family="sans-serif" font-size="13" lengthAdjust="spacing" textLength="31" x="420.5" y="272.0669">Uses</text></g><!--link ReactNavigationContainer to RouteLinking--><g id="link_ReactNavigationContainer_RouteLinking"><path codeLine="30" d="M117.5,55.047 C117.5,77.734 117.5,94.827 117.5,121.973 " fill="none" id="ReactNavigationContainer-to-RouteLinking" style="stroke:#181818;stroke-width:1.0;"/><polygon fill="none" points="117.5,139.973,123.5,121.973,111.5,121.973,117.5,139.973" style="stroke:#181818;stroke-width:1.0;"/><text fill="#000000" font-family="sans-serif" font-size="13" lengthAdjust="spacing" textLength="31" x="118.5" y="98.0669">Uses</text></g><!--SRC=[ZL6n3e8m4Dtx5JTgX1_euA2hOJ1nCWuDEKYZ7AOjngJoxnQefOWaTklTU-_UkqDgAZZMZK4Dbe5x_ISJ5NBGHaagMSjOVXDQ3ws3fAkhUdGATuM5VAB-mCyNtyXhAcJ9mOBE5I8vX6sX7UKoyP2bCBAcdL2TRD2KZXl63oNLpGwrlhYPAwnYPZ8bhQCWA78palSr6I49bMKE4sLLmP6AelF98Zo0lgsuk3DxRZVU-I2_MfPD_bNiOqqkawQlhRyfXvD6pNoOUMD-WX_aXML5q92W8xm1]--></g></svg>