<?xml version="1.0" encoding="us-ascii" standalone="no"?><svg xmlns="http://www.w3.org/2000/svg" xmlns:xlink="http://www.w3.org/1999/xlink" contentStyleType="text/css" height="619px" preserveAspectRatio="none" style="width:1432px;height:619px;background:#FFFFFF;" version="1.1" viewBox="0 0 1432 619" width="1432px" zoomAndPan="magnify"><defs/><g><rect fill="#FFFFFF" height="407.8594" style="stroke:#181818;stroke-width:1.0;" width="10" x="460.5" y="112.4297"/><rect fill="#FFFFFF" height="58.2656" style="stroke:#181818;stroke-width:1.0;" width="10" x="907.5" y="141.5625"/><rect fill="#FFFFFF" height="29.1328" style="stroke:#181818;stroke-width:1.0;" width="10" x="1032.5" y="228.9609"/><rect fill="#FFFFFF" height="58.2656" style="stroke:#181818;stroke-width:1.0;" width="10" x="1134.5" y="374.625"/><rect fill="#FFFFFF" height="58.2656" style="stroke:#181818;stroke-width:1.0;" width="10" x="1267" y="287.2266"/><rect fill="#FFFFFF" height="58.2656" style="stroke:#181818;stroke-width:1.0;" width="10" x="1393" y="462.0234"/><line style="stroke:#181818;stroke-width:0.5;stroke-dasharray:5.0,5.0;" x1="23" x2="23" y1="81.2969" y2="538.2891"/><line style="stroke:#181818;stroke-width:0.5;stroke-dasharray:5.0,5.0;" x1="465.5" x2="465.5" y1="81.2969" y2="538.2891"/><line style="stroke:#181818;stroke-width:0.5;stroke-dasharray:5.0,5.0;" x1="912" x2="912" y1="81.2969" y2="538.2891"/><line style="stroke:#181818;stroke-width:0.5;stroke-dasharray:5.0,5.0;" x1="1037" x2="1037" y1="81.2969" y2="538.2891"/><line style="stroke:#181818;stroke-width:0.5;stroke-dasharray:5.0,5.0;" x1="1139" x2="1139" y1="81.2969" y2="538.2891"/><line style="stroke:#181818;stroke-width:0.5;stroke-dasharray:5.0,5.0;" x1="1272" x2="1272" y1="81.2969" y2="538.2891"/><line style="stroke:#181818;stroke-width:0.5;stroke-dasharray:5.0,5.0;" x1="1398" x2="1398" y1="81.2969" y2="538.2891"/><text fill="#000000" font-family="sans-serif" font-size="14" lengthAdjust="spacing" textLength="31" x="5" y="77.9951">User</text><ellipse cx="23.5" cy="13.5" fill="#E2E2F0" rx="8" ry="8" style="stroke:#181818;stroke-width:0.5;"/><path d="M23.5,21.5 L23.5,48.5 M10.5,29.5 L36.5,29.5 M23.5,48.5 L10.5,63.5 M23.5,48.5 L36.5,63.5 " fill="none" style="stroke:#181818;stroke-width:0.5;"/><text fill="#000000" font-family="sans-serif" font-size="14" lengthAdjust="spacing" textLength="31" x="5" y="550.2842">User</text><ellipse cx="23.5" cy="562.0859" fill="#E2E2F0" rx="8" ry="8" style="stroke:#181818;stroke-width:0.5;"/><path d="M23.5,570.0859 L23.5,597.0859 M10.5,578.0859 L36.5,578.0859 M23.5,597.0859 L10.5,612.0859 M23.5,597.0859 L36.5,612.0859 " fill="none" style="stroke:#181818;stroke-width:0.5;"/><rect fill="#E2E2F0" height="30.2969" rx="2.5" ry="2.5" style="stroke:#181818;stroke-width:0.5;" width="44" x="443.5" y="50"/><text fill="#000000" font-family="sans-serif" font-size="14" lengthAdjust="spacing" textLength="30" x="450.5" y="69.9951">App</text><rect fill="#E2E2F0" height="30.2969" rx="2.5" ry="2.5" style="stroke:#181818;stroke-width:0.5;" width="44" x="443.5" y="537.2891"/><text fill="#000000" font-family="sans-serif" font-size="14" lengthAdjust="spacing" textLength="30" x="450.5" y="557.2842">App</text><rect fill="#E2E2F0" height="30.2969" rx="2.5" ry="2.5" style="stroke:#181818;stroke-width:0.5;" width="115" x="855" y="50"/><text fill="#000000" font-family="sans-serif" font-size="14" lengthAdjust="spacing" textLength="101" x="862" y="69.9951">Splash Screen</text><rect fill="#E2E2F0" height="30.2969" rx="2.5" ry="2.5" style="stroke:#181818;stroke-width:0.5;" width="115" x="855" y="537.2891"/><text fill="#000000" font-family="sans-serif" font-size="14" lengthAdjust="spacing" textLength="101" x="862" y="557.2842">Splash Screen</text><rect fill="#E2E2F0" height="30.2969" rx="2.5" ry="2.5" style="stroke:#181818;stroke-width:0.5;" width="115" x="980" y="50"/><text fill="#000000" font-family="sans-serif" font-size="14" lengthAdjust="spacing" textLength="101" x="987" y="69.9951">App Providers</text><rect fill="#E2E2F0" height="30.2969" rx="2.5" ry="2.5" style="stroke:#181818;stroke-width:0.5;" width="115" x="980" y="537.2891"/><text fill="#000000" font-family="sans-serif" font-size="14" lengthAdjust="spacing" textLength="101" x="987" y="557.2842">App Providers</text><rect fill="#E2E2F0" height="30.2969" rx="2.5" ry="2.5" style="stroke:#181818;stroke-width:0.5;" width="69" x="1105" y="50"/><text fill="#000000" font-family="sans-serif" font-size="14" lengthAdjust="spacing" textLength="55" x="1112" y="69.9951">Tutorial</text><rect fill="#E2E2F0" height="30.2969" rx="2.5" ry="2.5" style="stroke:#181818;stroke-width:0.5;" width="69" x="1105" y="537.2891"/><text fill="#000000" font-family="sans-serif" font-size="14" lengthAdjust="spacing" textLength="55" x="1112" y="557.2842">Tutorial</text><rect fill="#E2E2F0" height="30.2969" rx="2.5" ry="2.5" style="stroke:#181818;stroke-width:0.5;" width="176" x="1184" y="50"/><text fill="#000000" font-family="sans-serif" font-size="14" lengthAdjust="spacing" textLength="162" x="1191" y="69.9951">Background Collection</text><rect fill="#E2E2F0" height="30.2969" rx="2.5" ry="2.5" style="stroke:#181818;stroke-width:0.5;" width="176" x="1184" y="537.2891"/><text fill="#000000" font-family="sans-serif" font-size="14" lengthAdjust="spacing" textLength="162" x="1191" y="557.2842">Background Collection</text><rect fill="#E2E2F0" height="30.2969" rx="2.5" ry="2.5" style="stroke:#181818;stroke-width:0.5;" width="56" x="1370" y="50"/><text fill="#000000" font-family="sans-serif" font-size="14" lengthAdjust="spacing" textLength="42" x="1377" y="69.9951">Home</text><rect fill="#E2E2F0" height="30.2969" rx="2.5" ry="2.5" style="stroke:#181818;stroke-width:0.5;" width="56" x="1370" y="537.2891"/><text fill="#000000" font-family="sans-serif" font-size="14" lengthAdjust="spacing" textLength="42" x="1377" y="557.2842">Home</text><rect fill="#FFFFFF" height="407.8594" style="stroke:#181818;stroke-width:1.0;" width="10" x="460.5" y="112.4297"/><rect fill="#FFFFFF" height="58.2656" style="stroke:#181818;stroke-width:1.0;" width="10" x="907.5" y="141.5625"/><rect fill="#FFFFFF" height="29.1328" style="stroke:#181818;stroke-width:1.0;" width="10" x="1032.5" y="228.9609"/><rect fill="#FFFFFF" height="58.2656" style="stroke:#181818;stroke-width:1.0;" width="10" x="1134.5" y="374.625"/><rect fill="#FFFFFF" height="58.2656" style="stroke:#181818;stroke-width:1.0;" width="10" x="1267" y="287.2266"/><rect fill="#FFFFFF" height="58.2656" style="stroke:#181818;stroke-width:1.0;" width="10" x="1393" y="462.0234"/><polygon fill="#181818" points="448.5,108.4297,458.5,112.4297,448.5,116.4297,452.5,112.4297" style="stroke:#181818;stroke-width:1.0;"/><line style="stroke:#181818;stroke-width:1.0;" x1="23.5" x2="454.5" y1="112.4297" y2="112.4297"/><text fill="#000000" font-family="sans-serif" font-size="13" lengthAdjust="spacing" textLength="69" x="30.5" y="107.3638">OpenApp()</text><polygon fill="#181818" points="895.5,137.5625,905.5,141.5625,895.5,145.5625,899.5,141.5625" style="stroke:#181818;stroke-width:1.0;"/><line style="stroke:#181818;stroke-width:1.0;" x1="470.5" x2="901.5" y1="141.5625" y2="141.5625"/><text fill="#000000" font-family="sans-serif" font-size="13" lengthAdjust="spacing" textLength="242" x="477.5" y="136.4966">LoadSplashScreenOrAppComponent()</text><polygon fill="#181818" points="481.5,166.6953,471.5,170.6953,481.5,174.6953,477.5,170.6953" style="stroke:#181818;stroke-width:1.0;"/><line style="stroke:#181818;stroke-width:1.0;stroke-dasharray:2.0,2.0;" x1="475.5" x2="906.5" y1="170.6953" y2="170.6953"/><text fill="#000000" font-family="sans-serif" font-size="13" lengthAdjust="spacing" textLength="413" x="487.5" y="165.6294">ReturnSplashScreenOrAppComponent : Splash Screen Rendered</text><polygon fill="#181818" points="34.5,195.8281,24.5,199.8281,34.5,203.8281,30.5,199.8281" style="stroke:#181818;stroke-width:1.0;"/><line style="stroke:#181818;stroke-width:1.0;stroke-dasharray:2.0,2.0;" x1="28.5" x2="459.5" y1="199.8281" y2="199.8281"/><text fill="#000000" font-family="sans-serif" font-size="13" lengthAdjust="spacing" textLength="227" x="40.5" y="194.7622">RenderSplashScreenOrAppToUser()</text><polygon fill="#181818" points="1020.5,224.9609,1030.5,228.9609,1020.5,232.9609,1024.5,228.9609" style="stroke:#181818;stroke-width:1.0;"/><line style="stroke:#181818;stroke-width:1.0;" x1="470.5" x2="1026.5" y1="228.9609" y2="228.9609"/><text fill="#000000" font-family="sans-serif" font-size="13" lengthAdjust="spacing" textLength="221" x="477.5" y="223.895">InitializeAppProvidersComponent()</text><polygon fill="#181818" points="481.5,254.0938,471.5,258.0938,481.5,262.0938,477.5,258.0938" style="stroke:#181818;stroke-width:1.0;"/><line style="stroke:#181818;stroke-width:1.0;stroke-dasharray:2.0,2.0;" x1="475.5" x2="1036.5" y1="258.0938" y2="258.0938"/><text fill="#000000" font-family="sans-serif" font-size="13" lengthAdjust="spacing" textLength="281" x="487.5" y="253.0278">RenderAppProvidersComponentWithinApp()</text><polygon fill="#181818" points="1255,283.2266,1265,287.2266,1255,291.2266,1259,287.2266" style="stroke:#181818;stroke-width:1.0;"/><line style="stroke:#181818;stroke-width:1.0;" x1="470.5" x2="1261" y1="287.2266" y2="287.2266"/><text fill="#000000" font-family="sans-serif" font-size="13" lengthAdjust="spacing" textLength="338" x="477.5" y="282.1606">InitializeBackgroundCollectionComponentWithinApp()</text><polygon fill="#181818" points="481.5,312.3594,471.5,316.3594,481.5,320.3594,477.5,316.3594" style="stroke:#181818;stroke-width:1.0;"/><line style="stroke:#181818;stroke-width:1.0;stroke-dasharray:2.0,2.0;" x1="475.5" x2="1266" y1="316.3594" y2="316.3594"/><text fill="#000000" font-family="sans-serif" font-size="13" lengthAdjust="spacing" textLength="229" x="487.5" y="311.2935">RenderBackgroundCollectionInApp()</text><polygon fill="#181818" points="34.5,341.4922,24.5,345.4922,34.5,349.4922,30.5,345.4922" style="stroke:#181818;stroke-width:1.0;"/><line style="stroke:#181818;stroke-width:1.0;stroke-dasharray:2.0,2.0;" x1="28.5" x2="459.5" y1="345.4922" y2="345.4922"/><text fill="#000000" font-family="sans-serif" font-size="13" lengthAdjust="spacing" textLength="238" x="40.5" y="340.4263">RenderBackgroundCollectionToUser()</text><polygon fill="#181818" points="1122.5,370.625,1132.5,374.625,1122.5,378.625,1126.5,374.625" style="stroke:#181818;stroke-width:1.0;"/><line style="stroke:#181818;stroke-width:1.0;" x1="470.5" x2="1128.5" y1="374.625" y2="374.625"/><text fill="#000000" font-family="sans-serif" font-size="13" lengthAdjust="spacing" textLength="184" x="477.5" y="369.5591">InitializeTutorialComponent()</text><polygon fill="#181818" points="481.5,399.7578,471.5,403.7578,481.5,407.7578,477.5,403.7578" style="stroke:#181818;stroke-width:1.0;"/><line style="stroke:#181818;stroke-width:1.0;stroke-dasharray:2.0,2.0;" x1="475.5" x2="1133.5" y1="403.7578" y2="403.7578"/><text fill="#000000" font-family="sans-serif" font-size="13" lengthAdjust="spacing" textLength="244" x="487.5" y="398.6919">RenderTutorialComponentWithinApp()</text><polygon fill="#181818" points="34.5,428.8906,24.5,432.8906,34.5,436.8906,30.5,432.8906" style="stroke:#181818;stroke-width:1.0;"/><line style="stroke:#181818;stroke-width:1.0;stroke-dasharray:2.0,2.0;" x1="28.5" x2="459.5" y1="432.8906" y2="432.8906"/><text fill="#000000" font-family="sans-serif" font-size="13" lengthAdjust="spacing" textLength="149" x="40.5" y="427.8247">RenderTutorialToUser()</text><polygon fill="#181818" points="1381,458.0234,1391,462.0234,1381,466.0234,1385,462.0234" style="stroke:#181818;stroke-width:1.0;"/><line style="stroke:#181818;stroke-width:1.0;" x1="470.5" x2="1387" y1="462.0234" y2="462.0234"/><text fill="#000000" font-family="sans-serif" font-size="13" lengthAdjust="spacing" textLength="143" x="477.5" y="456.9575">InitializeHomeScreen()</text><polygon fill="#181818" points="481.5,487.1563,471.5,491.1563,481.5,495.1563,477.5,491.1563" style="stroke:#181818;stroke-width:1.0;"/><line style="stroke:#181818;stroke-width:1.0;stroke-dasharray:2.0,2.0;" x1="475.5" x2="1392" y1="491.1563" y2="491.1563"/><text fill="#000000" font-family="sans-serif" font-size="13" lengthAdjust="spacing" textLength="362" x="487.5" y="486.0903">ReturnHomeScreenComponent : Home Screen Initialized</text><polygon fill="#181818" points="34.5,516.2891,24.5,520.2891,34.5,524.2891,30.5,520.2891" style="stroke:#181818;stroke-width:1.0;"/><line style="stroke:#181818;stroke-width:1.0;stroke-dasharray:2.0,2.0;" x1="28.5" x2="464.5" y1="520.2891" y2="520.2891"/><text fill="#000000" font-family="sans-serif" font-size="13" lengthAdjust="spacing" textLength="413" x="40.5" y="515.2231">RenderHomeScreenComponentToUser : Home Screen Rendered</text><!--SRC=[TP9DRiCW48Ntd6AKLRB81RoePF2YaIgbQh2wHlQeGNK0OPn5Jr_mJmqsNNhcpRpFZn6DqnOETO_s0AA7cXXXdMoa4Sh1eJHcB9Tf-MOwqT_XrbX4DGhORWxUhNxA5cq_2cWgu8FtbQ8RUppjKT5yVrazg1QOxZfidDIJ2ztOlEe7ZesAa1hEBr0MS3MelFtnH8GVV0g7dhuCJLR0cnRj13-nNwsNClqmMg5oyGmZ3CxJnWzqWrN_Zq41II1-GFd_nXQ2hzzH5tDfjuFhaFpn1AJ5o7h4fGLSb7G-9Fc3NlkNPvQN4hho1g_inATqTpd74pbICbkos7DzX_KPiflMFOnGbcBabbpckKqwEUaIK48x1yHZsEMWik5mmbEgdJh-dGtMeisXy3cuAaO9LpczSSnGaIezg5KMNrAeBdUqhcotK9dXYM-pOZd56BgAFyfV]--></g></svg>