<?xml version="1.0" encoding="us-ascii" standalone="no"?><svg xmlns="http://www.w3.org/2000/svg" xmlns:xlink="http://www.w3.org/1999/xlink" contentStyleType="text/css" height="677px" preserveAspectRatio="none" style="width:1486px;height:677px;background:#FFFFFF;" version="1.1" viewBox="0 0 1486 677" width="1486px" zoomAndPan="magnify"><defs/><g><rect fill="#FFFFFF" height="262.1953" style="stroke:#181818;stroke-width:1.0;" width="10" x="480.5" y="112.4297"/><rect fill="#FFFFFF" height="174.7969" style="stroke:#181818;stroke-width:1.0;" width="10" x="480.5" y="403.7578"/><rect fill="#FFFFFF" height="29.1328" style="stroke:#181818;stroke-width:1.0;" width="10" x="927.5" y="141.5625"/><rect fill="#FFFFFF" height="29.1328" style="stroke:#181818;stroke-width:1.0;" width="10" x="1052.5" y="199.8281"/><rect fill="#FFFFFF" height="58.2656" style="stroke:#181818;stroke-width:1.0;" width="10" x="1154.5" y="432.8906"/><rect fill="#FFFFFF" height="87.3984" style="stroke:#181818;stroke-width:1.0;" width="10" x="1287" y="287.2266"/><rect fill="#FFFFFF" height="58.2656" style="stroke:#181818;stroke-width:1.0;" width="10" x="1413" y="520.2891"/><line style="stroke:#181818;stroke-width:0.5;stroke-dasharray:5.0,5.0;" x1="23" x2="23" y1="81.2969" y2="596.5547"/><line style="stroke:#181818;stroke-width:0.5;stroke-dasharray:5.0,5.0;" x1="485.5" x2="485.5" y1="81.2969" y2="596.5547"/><line style="stroke:#181818;stroke-width:0.5;stroke-dasharray:5.0,5.0;" x1="932" x2="932" y1="81.2969" y2="596.5547"/><line style="stroke:#181818;stroke-width:0.5;stroke-dasharray:5.0,5.0;" x1="1057" x2="1057" y1="81.2969" y2="596.5547"/><line style="stroke:#181818;stroke-width:0.5;stroke-dasharray:5.0,5.0;" x1="1159" x2="1159" y1="81.2969" y2="596.5547"/><line style="stroke:#181818;stroke-width:0.5;stroke-dasharray:5.0,5.0;" x1="1292" x2="1292" y1="81.2969" y2="596.5547"/><line style="stroke:#181818;stroke-width:0.5;stroke-dasharray:5.0,5.0;" x1="1418" x2="1418" y1="81.2969" y2="596.5547"/><line style="stroke:#181818;stroke-width:0.5;stroke-dasharray:5.0,5.0;" x1="1468" x2="1468" y1="81.2969" y2="596.5547"/><text fill="#000000" font-family="sans-serif" font-size="14" lengthAdjust="spacing" textLength="31" x="5" y="77.9951">User</text><ellipse cx="23.5" cy="13.5" fill="#E2E2F0" rx="8" ry="8" style="stroke:#181818;stroke-width:0.5;"/><path d="M23.5,21.5 L23.5,48.5 M10.5,29.5 L36.5,29.5 M23.5,48.5 L10.5,63.5 M23.5,48.5 L36.5,63.5 " fill="none" style="stroke:#181818;stroke-width:0.5;"/><text fill="#000000" font-family="sans-serif" font-size="14" lengthAdjust="spacing" textLength="31" x="5" y="608.5498">User</text><ellipse cx="23.5" cy="620.3516" fill="#E2E2F0" rx="8" ry="8" style="stroke:#181818;stroke-width:0.5;"/><path d="M23.5,628.3516 L23.5,655.3516 M10.5,636.3516 L36.5,636.3516 M23.5,655.3516 L10.5,670.3516 M23.5,655.3516 L36.5,670.3516 " fill="none" style="stroke:#181818;stroke-width:0.5;"/><rect fill="#E2E2F0" height="30.2969" rx="2.5" ry="2.5" style="stroke:#181818;stroke-width:0.5;" width="44" x="463.5" y="50"/><text fill="#000000" font-family="sans-serif" font-size="14" lengthAdjust="spacing" textLength="30" x="470.5" y="69.9951">App</text><rect fill="#E2E2F0" height="30.2969" rx="2.5" ry="2.5" style="stroke:#181818;stroke-width:0.5;" width="44" x="463.5" y="595.5547"/><text fill="#000000" font-family="sans-serif" font-size="14" lengthAdjust="spacing" textLength="30" x="470.5" y="615.5498">App</text><rect fill="#E2E2F0" height="30.2969" rx="2.5" ry="2.5" style="stroke:#181818;stroke-width:0.5;" width="115" x="875" y="50"/><text fill="#000000" font-family="sans-serif" font-size="14" lengthAdjust="spacing" textLength="101" x="882" y="69.9951">Splash Screen</text><rect fill="#E2E2F0" height="30.2969" rx="2.5" ry="2.5" style="stroke:#181818;stroke-width:0.5;" width="115" x="875" y="595.5547"/><text fill="#000000" font-family="sans-serif" font-size="14" lengthAdjust="spacing" textLength="101" x="882" y="615.5498">Splash Screen</text><rect fill="#E2E2F0" height="30.2969" rx="2.5" ry="2.5" style="stroke:#181818;stroke-width:0.5;" width="115" x="1000" y="50"/><text fill="#000000" font-family="sans-serif" font-size="14" lengthAdjust="spacing" textLength="101" x="1007" y="69.9951">App Providers</text><rect fill="#E2E2F0" height="30.2969" rx="2.5" ry="2.5" style="stroke:#181818;stroke-width:0.5;" width="115" x="1000" y="595.5547"/><text fill="#000000" font-family="sans-serif" font-size="14" lengthAdjust="spacing" textLength="101" x="1007" y="615.5498">App Providers</text><rect fill="#E2E2F0" height="30.2969" rx="2.5" ry="2.5" style="stroke:#181818;stroke-width:0.5;" width="69" x="1125" y="50"/><text fill="#000000" font-family="sans-serif" font-size="14" lengthAdjust="spacing" textLength="55" x="1132" y="69.9951">Tutorial</text><rect fill="#E2E2F0" height="30.2969" rx="2.5" ry="2.5" style="stroke:#181818;stroke-width:0.5;" width="69" x="1125" y="595.5547"/><text fill="#000000" font-family="sans-serif" font-size="14" lengthAdjust="spacing" textLength="55" x="1132" y="615.5498">Tutorial</text><rect fill="#E2E2F0" height="30.2969" rx="2.5" ry="2.5" style="stroke:#181818;stroke-width:0.5;" width="176" x="1204" y="50"/><text fill="#000000" font-family="sans-serif" font-size="14" lengthAdjust="spacing" textLength="162" x="1211" y="69.9951">Background Collection</text><rect fill="#E2E2F0" height="30.2969" rx="2.5" ry="2.5" style="stroke:#181818;stroke-width:0.5;" width="176" x="1204" y="595.5547"/><text fill="#000000" font-family="sans-serif" font-size="14" lengthAdjust="spacing" textLength="162" x="1211" y="615.5498">Background Collection</text><rect fill="#E2E2F0" height="30.2969" rx="2.5" ry="2.5" style="stroke:#181818;stroke-width:0.5;" width="56" x="1390" y="50"/><text fill="#000000" font-family="sans-serif" font-size="14" lengthAdjust="spacing" textLength="42" x="1397" y="69.9951">Home</text><rect fill="#E2E2F0" height="30.2969" rx="2.5" ry="2.5" style="stroke:#181818;stroke-width:0.5;" width="56" x="1390" y="595.5547"/><text fill="#000000" font-family="sans-serif" font-size="14" lengthAdjust="spacing" textLength="42" x="1397" y="615.5498">Home</text><rect fill="#E2E2F0" height="30.2969" rx="2.5" ry="2.5" style="stroke:#181818;stroke-width:0.5;" width="24" x="1456" y="50"/><text fill="#000000" font-family="sans-serif" font-size="14" lengthAdjust="spacing" textLength="10" x="1463" y="69.9951">R</text><rect fill="#E2E2F0" height="30.2969" rx="2.5" ry="2.5" style="stroke:#181818;stroke-width:0.5;" width="24" x="1456" y="595.5547"/><text fill="#000000" font-family="sans-serif" font-size="14" lengthAdjust="spacing" textLength="10" x="1463" y="615.5498">R</text><rect fill="#FFFFFF" height="262.1953" style="stroke:#181818;stroke-width:1.0;" width="10" x="480.5" y="112.4297"/><rect fill="#FFFFFF" height="174.7969" style="stroke:#181818;stroke-width:1.0;" width="10" x="480.5" y="403.7578"/><rect fill="#FFFFFF" height="29.1328" style="stroke:#181818;stroke-width:1.0;" width="10" x="927.5" y="141.5625"/><rect fill="#FFFFFF" height="29.1328" style="stroke:#181818;stroke-width:1.0;" width="10" x="1052.5" y="199.8281"/><rect fill="#FFFFFF" height="58.2656" style="stroke:#181818;stroke-width:1.0;" width="10" x="1154.5" y="432.8906"/><rect fill="#FFFFFF" height="87.3984" style="stroke:#181818;stroke-width:1.0;" width="10" x="1287" y="287.2266"/><rect fill="#FFFFFF" height="58.2656" style="stroke:#181818;stroke-width:1.0;" width="10" x="1413" y="520.2891"/><polygon fill="#181818" points="468.5,108.4297,478.5,112.4297,468.5,116.4297,472.5,112.4297" style="stroke:#181818;stroke-width:1.0;"/><line style="stroke:#181818;stroke-width:1.0;" x1="23.5" x2="474.5" y1="112.4297" y2="112.4297"/><text fill="#000000" font-family="sans-serif" font-size="13" lengthAdjust="spacing" textLength="69" x="30.5" y="107.3638">OpenApp()</text><polygon fill="#181818" points="915.5,137.5625,925.5,141.5625,915.5,145.5625,919.5,141.5625" style="stroke:#181818;stroke-width:1.0;"/><line style="stroke:#181818;stroke-width:1.0;" x1="490.5" x2="921.5" y1="141.5625" y2="141.5625"/><text fill="#000000" font-family="sans-serif" font-size="13" lengthAdjust="spacing" textLength="242" x="497.5" y="136.4966">LoadSplashScreenOrAppComponent()</text><polygon fill="#181818" points="501.5,166.6953,491.5,170.6953,501.5,174.6953,497.5,170.6953" style="stroke:#181818;stroke-width:1.0;"/><line style="stroke:#181818;stroke-width:1.0;stroke-dasharray:2.0,2.0;" x1="495.5" x2="931.5" y1="170.6953" y2="170.6953"/><text fill="#000000" font-family="sans-serif" font-size="13" lengthAdjust="spacing" textLength="413" x="507.5" y="165.6294">ReturnSplashScreenOrAppComponent : Splash Screen Rendered</text><polygon fill="#181818" points="1040.5,195.8281,1050.5,199.8281,1040.5,203.8281,1044.5,199.8281" style="stroke:#181818;stroke-width:1.0;"/><line style="stroke:#181818;stroke-width:1.0;" x1="490.5" x2="1046.5" y1="199.8281" y2="199.8281"/><text fill="#000000" font-family="sans-serif" font-size="13" lengthAdjust="spacing" textLength="221" x="497.5" y="194.7622">InitializeAppProvidersComponent()</text><polygon fill="#181818" points="501.5,224.9609,491.5,228.9609,501.5,232.9609,497.5,228.9609" style="stroke:#181818;stroke-width:1.0;"/><line style="stroke:#181818;stroke-width:1.0;stroke-dasharray:2.0,2.0;" x1="495.5" x2="1056.5" y1="228.9609" y2="228.9609"/><text fill="#000000" font-family="sans-serif" font-size="13" lengthAdjust="spacing" textLength="281" x="507.5" y="223.895">RenderAppProvidersComponentWithinApp()</text><polygon fill="#181818" points="468.5,254.0938,478.5,258.0938,468.5,262.0938,472.5,258.0938" style="stroke:#181818;stroke-width:1.0;"/><line style="stroke:#181818;stroke-width:1.0;" x1="23.5" x2="474.5" y1="258.0938" y2="258.0938"/><text fill="#000000" font-family="sans-serif" font-size="13" lengthAdjust="spacing" textLength="178" x="30.5" y="253.0278">StartBackgroundCollection()</text><polygon fill="#181818" points="1275,283.2266,1285,287.2266,1275,291.2266,1279,287.2266" style="stroke:#181818;stroke-width:1.0;"/><line style="stroke:#181818;stroke-width:1.0;" x1="490.5" x2="1281" y1="287.2266" y2="287.2266"/><text fill="#000000" font-family="sans-serif" font-size="13" lengthAdjust="spacing" textLength="338" x="497.5" y="282.1606">InitializeBackgroundCollectionComponentWithinApp()</text><polygon fill="#181818" points="501.5,312.3594,491.5,316.3594,501.5,320.3594,497.5,316.3594" style="stroke:#181818;stroke-width:1.0;"/><line style="stroke:#181818;stroke-width:1.0;stroke-dasharray:2.0,2.0;" x1="495.5" x2="1286" y1="316.3594" y2="316.3594"/><text fill="#000000" font-family="sans-serif" font-size="13" lengthAdjust="spacing" textLength="217" x="507.5" y="311.2935">BackgroundCollectionCompleted()</text><polygon fill="#181818" points="34.5,341.4922,24.5,345.4922,34.5,349.4922,30.5,345.4922" style="stroke:#181818;stroke-width:1.0;"/><line style="stroke:#181818;stroke-width:1.0;stroke-dasharray:2.0,2.0;" x1="28.5" x2="479.5" y1="345.4922" y2="345.4922"/><text fill="#000000" font-family="sans-serif" font-size="13" lengthAdjust="spacing" textLength="333" x="40.5" y="340.4263">RenderBackgroundCollectionComponentWithinApp()</text><polygon fill="#181818" points="1456,370.625,1466,374.625,1456,378.625,1460,374.625" style="stroke:#181818;stroke-width:1.0;"/><line style="stroke:#181818;stroke-width:1.0;" x1="1292" x2="1462" y1="374.625" y2="374.625"/><text fill="#000000" font-family="sans-serif" font-size="13" lengthAdjust="spacing" textLength="143" x="1299" y="369.5591">StoreBackgroundInfo()</text><polygon fill="#181818" points="468.5,399.7578,478.5,403.7578,468.5,407.7578,472.5,403.7578" style="stroke:#181818;stroke-width:1.0;"/><line style="stroke:#181818;stroke-width:1.0;" x1="23.5" x2="474.5" y1="403.7578" y2="403.7578"/><text fill="#000000" font-family="sans-serif" font-size="13" lengthAdjust="spacing" textLength="89" x="30.5" y="398.6919">StartTutorial()</text><polygon fill="#181818" points="1142.5,428.8906,1152.5,432.8906,1142.5,436.8906,1146.5,432.8906" style="stroke:#181818;stroke-width:1.0;"/><line style="stroke:#181818;stroke-width:1.0;" x1="490.5" x2="1148.5" y1="432.8906" y2="432.8906"/><text fill="#000000" font-family="sans-serif" font-size="13" lengthAdjust="spacing" textLength="184" x="497.5" y="427.8247">InitializeTutorialComponent()</text><polygon fill="#181818" points="501.5,458.0234,491.5,462.0234,501.5,466.0234,497.5,462.0234" style="stroke:#181818;stroke-width:1.0;"/><line style="stroke:#181818;stroke-width:1.0;stroke-dasharray:2.0,2.0;" x1="495.5" x2="1153.5" y1="462.0234" y2="462.0234"/><text fill="#000000" font-family="sans-serif" font-size="13" lengthAdjust="spacing" textLength="105" x="507.5" y="456.9575">TutorialStarted()</text><polygon fill="#181818" points="34.5,487.1563,24.5,491.1563,34.5,495.1563,30.5,491.1563" style="stroke:#181818;stroke-width:1.0;"/><line style="stroke:#181818;stroke-width:1.0;stroke-dasharray:2.0,2.0;" x1="28.5" x2="479.5" y1="491.1563" y2="491.1563"/><text fill="#000000" font-family="sans-serif" font-size="13" lengthAdjust="spacing" textLength="244" x="40.5" y="486.0903">RenderTutorialComponentWithinApp()</text><polygon fill="#181818" points="1401,516.2891,1411,520.2891,1401,524.2891,1405,520.2891" style="stroke:#181818;stroke-width:1.0;"/><line style="stroke:#181818;stroke-width:1.0;" x1="490.5" x2="1407" y1="520.2891" y2="520.2891"/><text fill="#000000" font-family="sans-serif" font-size="13" lengthAdjust="spacing" textLength="143" x="497.5" y="515.2231">InitializeHomeScreen()</text><polygon fill="#181818" points="501.5,545.4219,491.5,549.4219,501.5,553.4219,497.5,549.4219" style="stroke:#181818;stroke-width:1.0;"/><line style="stroke:#181818;stroke-width:1.0;stroke-dasharray:2.0,2.0;" x1="495.5" x2="1412" y1="549.4219" y2="549.4219"/><text fill="#000000" font-family="sans-serif" font-size="13" lengthAdjust="spacing" textLength="362" x="507.5" y="544.356">ReturnHomeScreenComponent : Home Screen Initialized</text><polygon fill="#181818" points="34.5,574.5547,24.5,578.5547,34.5,582.5547,30.5,578.5547" style="stroke:#181818;stroke-width:1.0;"/><line style="stroke:#181818;stroke-width:1.0;stroke-dasharray:2.0,2.0;" x1="28.5" x2="484.5" y1="578.5547" y2="578.5547"/><text fill="#000000" font-family="sans-serif" font-size="13" lengthAdjust="spacing" textLength="433" x="40.5" y="573.4888">RenderHomeScreenComponentWithinApp : Home Screen Rendered</text><!--SRC=[ZL8zRyCW4Dtv5QTCxP0_u26ImKCZLKgLsEgCpBL5TG1Xag6_lXXAZ1qYTJJtthqF7- -Tjh3fHhGRu2Dqn73hP2yDLmusjJ7XkLu-dyp0noyuzHPH1G2xuy6RrLSfq8u1G9U0zk9r9H_2h5tEAE-_Fws-A05C3mFsJkgeGbSoB_gCOT0GGZhOxg2ku61GUVsdPy8zyyeTUllrD6GLl6ekelje_c0zbEcpqGgLopcCCDZ6ZKTq5wiUqw22HIEUe7nm5404PWk32Lh1NaddiyiVz5jkDHLTK49d5zFI8kDTkY_v5pfJf7Cf9-TxcukTU_MCQ8lblah8ejginGYz5VQ8Fg134HKzi4kP_gqsAUpWECNHDZEvLnzw5PtbN_MgY7HzXHjfyneIhlXhMjAcl0aNbfSItYrwyCTQ4bqqkOlfokDXvV8DQPRtESFomvnUqrdEAyNQO85yixZQaeuxzzqislu5]--></g></svg>