<?xml version="1.0" encoding="us-ascii" standalone="no"?><svg xmlns="http://www.w3.org/2000/svg" xmlns:xlink="http://www.w3.org/1999/xlink" contentStyleType="text/css" height="563px" preserveAspectRatio="none" style="width:380px;height:563px;background:#FFFFFF;" version="1.1" viewBox="0 0 380 563" width="380px" zoomAndPan="magnify"><defs/><g><ellipse cx="190" cy="20" fill="#222222" rx="10" ry="10" style="stroke:#222222;stroke-width:1.0;"/><rect fill="#F1F1F1" height="33.9688" rx="12.5" ry="12.5" style="stroke:#181818;stroke-width:0.5;" width="126" x="127" y="50"/><text fill="#000000" font-family="sans-serif" font-size="12" lengthAdjust="spacing" textLength="106" x="137" y="71.1387">App gets opened</text><rect fill="#F1F1F1" height="33.9688" rx="12.5" ry="12.5" style="stroke:#181818;stroke-width:0.5;" width="155" x="112.5" y="103.9688"/><text fill="#000000" font-family="sans-serif" font-size="12" lengthAdjust="spacing" textLength="135" x="122.5" y="125.1074">Display Splash Screen</text><rect fill="#F1F1F1" height="33.9688" rx="12.5" ry="12.5" style="stroke:#181818;stroke-width:0.5;" width="93" x="143.5" y="157.9375"/><text fill="#000000" font-family="sans-serif" font-size="12" lengthAdjust="spacing" textLength="73" x="153.5" y="179.0762">Load assets</text><polygon fill="#F1F1F1" points="149,211.9063,231,211.9063,243,223.9063,231,235.9063,149,235.9063,137,223.9063,149,211.9063" style="stroke:#181818;stroke-width:0.5;"/><text fill="#000000" font-family="sans-serif" font-size="11" lengthAdjust="spacing" textLength="82" x="149" y="227.7144">Theme is dark</text><text fill="#000000" font-family="sans-serif" font-size="11" lengthAdjust="spacing" textLength="21" x="116" y="221.312">yes</text><text fill="#000000" font-family="sans-serif" font-size="11" lengthAdjust="spacing" textLength="14" x="243" y="221.312">no</text><rect fill="#F1F1F1" height="33.9688" rx="12.5" ry="12.5" style="stroke:#181818;stroke-width:0.5;" width="169" x="11" y="245.9063"/><text fill="#000000" font-family="sans-serif" font-size="12" lengthAdjust="spacing" textLength="149" x="21" y="267.0449">Display Dark Theme App</text><rect fill="#F1F1F1" height="33.9688" rx="12.5" ry="12.5" style="stroke:#181818;stroke-width:0.5;" width="169" x="200" y="245.9063"/><text fill="#000000" font-family="sans-serif" font-size="12" lengthAdjust="spacing" textLength="149" x="210" y="267.0449">Display Light Theme App</text><polygon fill="#F1F1F1" points="190,285.875,202,297.875,190,309.875,178,297.875,190,285.875" style="stroke:#181818;stroke-width:0.5;"/><rect fill="#F1F1F1" height="33.9688" rx="12.5" ry="12.5" style="stroke:#181818;stroke-width:0.5;" width="162" x="109" y="378.2773"/><text fill="#000000" font-family="sans-serif" font-size="12" lengthAdjust="spacing" textLength="142" x="119" y="399.416">Display Loading Screen</text><polygon fill="#F1F1F1" points="145,329.875,235,329.875,247,341.875,235,353.875,145,353.875,133,341.875,145,329.875" style="stroke:#181818;stroke-width:0.5;"/><text fill="#000000" font-family="sans-serif" font-size="11" lengthAdjust="spacing" textLength="21" x="194" y="364.0854">yes</text><text fill="#000000" font-family="sans-serif" font-size="11" lengthAdjust="spacing" textLength="90" x="145" y="345.6831">isloading is true</text><polygon fill="#F1F1F1" points="190,432.2461,202,444.2461,190,456.2461,178,444.2461,190,432.2461" style="stroke:#181818;stroke-width:0.5;"/><rect fill="#F1F1F1" height="33.9688" rx="12.5" ry="12.5" style="stroke:#181818;stroke-width:0.5;" width="151" x="114.5" y="476.2461"/><text fill="#000000" font-family="sans-serif" font-size="12" lengthAdjust="spacing" textLength="131" x="124.5" y="497.3848">Display Home Screen</text><ellipse cx="190" cy="541.2148" fill="none" rx="11" ry="11" style="stroke:#222222;stroke-width:1.0;"/><ellipse cx="190" cy="541.2148" fill="#222222" rx="6" ry="6" style="stroke:#222222;stroke-width:1.0;"/><line style="stroke:#181818;stroke-width:1.0;" x1="190" x2="190" y1="30" y2="50"/><polygon fill="#181818" points="186,40,190,50,194,40,190,44" style="stroke:#181818;stroke-width:1.0;"/><line style="stroke:#181818;stroke-width:1.0;" x1="190" x2="190" y1="83.9688" y2="103.9688"/><polygon fill="#181818" points="186,93.9688,190,103.9688,194,93.9688,190,97.9688" style="stroke:#181818;stroke-width:1.0;"/><line style="stroke:#181818;stroke-width:1.0;" x1="190" x2="190" y1="137.9375" y2="157.9375"/><polygon fill="#181818" points="186,147.9375,190,157.9375,194,147.9375,190,151.9375" style="stroke:#181818;stroke-width:1.0;"/><line style="stroke:#181818;stroke-width:1.0;" x1="137" x2="95.5" y1="223.9063" y2="223.9063"/><line style="stroke:#181818;stroke-width:1.0;" x1="95.5" x2="95.5" y1="223.9063" y2="245.9063"/><polygon fill="#181818" points="91.5,235.9063,95.5,245.9063,99.5,235.9063,95.5,239.9063" style="stroke:#181818;stroke-width:1.0;"/><line style="stroke:#181818;stroke-width:1.0;" x1="243" x2="284.5" y1="223.9063" y2="223.9063"/><line style="stroke:#181818;stroke-width:1.0;" x1="284.5" x2="284.5" y1="223.9063" y2="245.9063"/><polygon fill="#181818" points="280.5,235.9063,284.5,245.9063,288.5,235.9063,284.5,239.9063" style="stroke:#181818;stroke-width:1.0;"/><line style="stroke:#181818;stroke-width:1.0;" x1="95.5" x2="95.5" y1="279.875" y2="297.875"/><line style="stroke:#181818;stroke-width:1.0;" x1="95.5" x2="178" y1="297.875" y2="297.875"/><polygon fill="#181818" points="168,293.875,178,297.875,168,301.875,172,297.875" style="stroke:#181818;stroke-width:1.0;"/><line style="stroke:#181818;stroke-width:1.0;" x1="284.5" x2="284.5" y1="279.875" y2="297.875"/><line style="stroke:#181818;stroke-width:1.0;" x1="284.5" x2="202" y1="297.875" y2="297.875"/><polygon fill="#181818" points="212,293.875,202,297.875,212,301.875,208,297.875" style="stroke:#181818;stroke-width:1.0;"/><line style="stroke:#181818;stroke-width:1.0;" x1="190" x2="190" y1="191.9063" y2="211.9063"/><polygon fill="#181818" points="186,201.9063,190,211.9063,194,201.9063,190,205.9063" style="stroke:#181818;stroke-width:1.0;"/><line style="stroke:#181818;stroke-width:1.0;" x1="190" x2="190" y1="353.875" y2="378.2773"/><polygon fill="#181818" points="186,368.2773,190,378.2773,194,368.2773,190,372.2773" style="stroke:#181818;stroke-width:1.0;"/><line style="stroke:#181818;stroke-width:1.0;" x1="247" x2="281" y1="341.875" y2="341.875"/><polygon fill="#181818" points="277,385.2617,281,395.2617,285,385.2617,281,389.2617" style="stroke:#181818;stroke-width:1.0;"/><line style="stroke:#181818;stroke-width:1.0;" x1="281" x2="281" y1="341.875" y2="444.2461"/><line style="stroke:#181818;stroke-width:1.0;" x1="281" x2="202" y1="444.2461" y2="444.2461"/><polygon fill="#181818" points="212,440.2461,202,444.2461,212,448.2461,208,444.2461" style="stroke:#181818;stroke-width:1.0;"/><line style="stroke:#181818;stroke-width:1.0;" x1="190" x2="190" y1="412.2461" y2="432.2461"/><polygon fill="#181818" points="186,422.2461,190,432.2461,194,422.2461,190,426.2461" style="stroke:#181818;stroke-width:1.0;"/><line style="stroke:#181818;stroke-width:1.0;" x1="190" x2="190" y1="309.875" y2="329.875"/><polygon fill="#181818" points="186,319.875,190,329.875,194,319.875,190,323.875" style="stroke:#181818;stroke-width:1.0;"/><line style="stroke:#181818;stroke-width:1.0;" x1="190" x2="190" y1="456.2461" y2="476.2461"/><polygon fill="#181818" points="186,466.2461,190,476.2461,194,466.2461,190,470.2461" style="stroke:#181818;stroke-width:1.0;"/><line style="stroke:#181818;stroke-width:1.0;" x1="190" x2="190" y1="510.2148" y2="530.2148"/><polygon fill="#181818" points="186,520.2148,190,530.2148,194,520.2148,190,524.2148" style="stroke:#181818;stroke-width:1.0;"/><!--SRC=[TOuz3i8m34RtdC9ZUuLsGkh0aArS829kOX6IA3P3RuzHVoIGyE31tzFtpEAQcE5IAmGKXb8nen_DC17Nv5QOTNE4-TuGizvjSHuSiyAZCRH0TuluH206xzgZ1ucOeLkHUmCwPz6aAMoisaQ3YH6wN7umIo7A5vSzBPk9EAcTSlZOfBtmlytkuF7ttdBcrwBzHyXIwXi0]--></g></svg>