<?xml version="1.0" encoding="us-ascii" standalone="no"?><svg xmlns="http://www.w3.org/2000/svg" xmlns:xlink="http://www.w3.org/1999/xlink" contentStyleType="text/css" height="595px" preserveAspectRatio="none" style="width:358px;height:595px;background:#FFFFFF;" version="1.1" viewBox="0 0 358 595" width="358px" zoomAndPan="magnify"><defs/><g><!--class ColorMap--><g id="elem_ColorMap"><rect codeLine="1" fill="#F1F1F1" height="80.5938" id="ColorMap" rx="2.5" ry="2.5" style="stroke:#181818;stroke-width:0.5;" width="186" x="165.5" y="382"/><ellipse cx="220.25" cy="398" fill="#ADD1B2" rx="11" ry="11" style="stroke:#181818;stroke-width:1.0;"/><path d="M222.5938,393.6719 C221.6563,393.2344 221.0625,393.0938 220.1875,393.0938 C217.5625,393.0938 215.5625,395.1719 215.5625,397.8906 L215.5625,399.0156 C215.5625,401.5938 217.6719,403.4844 220.5625,403.4844 C221.7813,403.4844 222.9375,403.1875 223.6875,402.6406 C224.2656,402.2344 224.5938,401.7813 224.5938,401.3906 C224.5938,400.9375 224.2031,400.5469 223.7344,400.5469 C223.5156,400.5469 223.3125,400.625 223.125,400.8125 C222.6719,401.2969 222.6719,401.2969 222.4844,401.3906 C222.0625,401.6563 221.375,401.7813 220.6094,401.7813 C218.5625,401.7813 217.2656,400.6875 217.2656,398.9844 L217.2656,397.8906 C217.2656,396.1094 218.5156,394.7969 220.25,394.7969 C220.8281,394.7969 221.4375,394.9531 221.9063,395.2031 C222.3906,395.4844 222.5625,395.7031 222.6563,396.1094 C222.7188,396.5156 222.75,396.6406 222.8906,396.7656 C223.0313,396.9063 223.2656,397.0156 223.4844,397.0156 C223.75,397.0156 224.0156,396.875 224.1875,396.6563 C224.2969,396.5 224.3281,396.3125 224.3281,395.8906 L224.3281,394.4688 C224.3281,394.0313 224.3125,393.9063 224.2188,393.75 C224.0625,393.4844 223.7813,393.3438 223.4844,393.3438 C223.1875,393.3438 222.9844,393.4375 222.7656,393.75 L222.5938,393.6719 Z " fill="#000000"/><text fill="#000000" font-family="sans-serif" font-size="14" lengthAdjust="spacing" textLength="68" x="240.75" y="402.8467">ColorMap</text><line style="stroke:#181818;stroke-width:0.5;" x1="166.5" x2="350.5" y1="414" y2="414"/><text fill="#000000" font-family="sans-serif" font-size="14" lengthAdjust="spacing" textLength="174" x="171.5" y="430.9951">light: ColorSchemeType</text><text fill="#000000" font-family="sans-serif" font-size="14" lengthAdjust="spacing" textLength="173" x="171.5" y="447.292">dark: ColorSchemeType</text><line style="stroke:#181818;stroke-width:0.5;" x1="166.5" x2="350.5" y1="454.5938" y2="454.5938"/></g><!--class CurrentTheme--><g id="elem_CurrentTheme"><rect codeLine="6" fill="#F1F1F1" height="48" id="CurrentTheme" rx="2.5" ry="2.5" style="stroke:#181818;stroke-width:0.5;" width="137" x="14" y="257"/><ellipse cx="29" cy="273" fill="#ADD1B2" rx="11" ry="11" style="stroke:#181818;stroke-width:1.0;"/><path d="M31.3438,268.6719 C30.4063,268.2344 29.8125,268.0938 28.9375,268.0938 C26.3125,268.0938 24.3125,270.1719 24.3125,272.8906 L24.3125,274.0156 C24.3125,276.5938 26.4219,278.4844 29.3125,278.4844 C30.5313,278.4844 31.6875,278.1875 32.4375,277.6406 C33.0156,277.2344 33.3438,276.7813 33.3438,276.3906 C33.3438,275.9375 32.9531,275.5469 32.4844,275.5469 C32.2656,275.5469 32.0625,275.625 31.875,275.8125 C31.4219,276.2969 31.4219,276.2969 31.2344,276.3906 C30.8125,276.6563 30.125,276.7813 29.3594,276.7813 C27.3125,276.7813 26.0156,275.6875 26.0156,273.9844 L26.0156,272.8906 C26.0156,271.1094 27.2656,269.7969 29,269.7969 C29.5781,269.7969 30.1875,269.9531 30.6563,270.2031 C31.1406,270.4844 31.3125,270.7031 31.4063,271.1094 C31.4688,271.5156 31.5,271.6406 31.6406,271.7656 C31.7813,271.9063 32.0156,272.0156 32.2344,272.0156 C32.5,272.0156 32.7656,271.875 32.9375,271.6563 C33.0469,271.5 33.0781,271.3125 33.0781,270.8906 L33.0781,269.4688 C33.0781,269.0313 33.0625,268.9063 32.9688,268.75 C32.8125,268.4844 32.5313,268.3438 32.2344,268.3438 C31.9375,268.3438 31.7344,268.4375 31.5156,268.75 L31.3438,268.6719 Z " fill="#000000"/><text fill="#000000" font-family="sans-serif" font-size="14" lengthAdjust="spacing" textLength="105" x="43" y="277.8467">CurrentTheme</text><line style="stroke:#181818;stroke-width:0.5;" x1="15" x2="150" y1="289" y2="289"/><line style="stroke:#181818;stroke-width:0.5;" x1="15" x2="150" y1="297" y2="297"/></g><!--class App--><g id="elem_App"><rect codeLine="10" fill="#F1F1F1" height="48" id="App" rx="2.5" ry="2.5" style="stroke:#181818;stroke-width:0.5;" width="62" x="116.5" y="7"/><ellipse cx="131.5" cy="23" fill="#ADD1B2" rx="11" ry="11" style="stroke:#181818;stroke-width:1.0;"/><path d="M133.8438,18.6719 C132.9063,18.2344 132.3125,18.0938 131.4375,18.0938 C128.8125,18.0938 126.8125,20.1719 126.8125,22.8906 L126.8125,24.0156 C126.8125,26.5938 128.9219,28.4844 131.8125,28.4844 C133.0313,28.4844 134.1875,28.1875 134.9375,27.6406 C135.5156,27.2344 135.8438,26.7813 135.8438,26.3906 C135.8438,25.9375 135.4531,25.5469 134.9844,25.5469 C134.7656,25.5469 134.5625,25.625 134.375,25.8125 C133.9219,26.2969 133.9219,26.2969 133.7344,26.3906 C133.3125,26.6563 132.625,26.7813 131.8594,26.7813 C129.8125,26.7813 128.5156,25.6875 128.5156,23.9844 L128.5156,22.8906 C128.5156,21.1094 129.7656,19.7969 131.5,19.7969 C132.0781,19.7969 132.6875,19.9531 133.1563,20.2031 C133.6406,20.4844 133.8125,20.7031 133.9063,21.1094 C133.9688,21.5156 134,21.6406 134.1406,21.7656 C134.2813,21.9063 134.5156,22.0156 134.7344,22.0156 C135,22.0156 135.2656,21.875 135.4375,21.6563 C135.5469,21.5 135.5781,21.3125 135.5781,20.8906 L135.5781,19.4688 C135.5781,19.0313 135.5625,18.9063 135.4688,18.75 C135.3125,18.4844 135.0313,18.3438 134.7344,18.3438 C134.4375,18.3438 134.2344,18.4375 134.0156,18.75 L133.8438,18.6719 Z " fill="#000000"/><text fill="#000000" font-family="sans-serif" font-size="14" lengthAdjust="spacing" textLength="30" x="145.5" y="27.8467">App</text><line style="stroke:#181818;stroke-width:0.5;" x1="117.5" x2="177.5" y1="39" y2="39"/><line style="stroke:#181818;stroke-width:0.5;" x1="117.5" x2="177.5" y1="47" y2="47"/></g><!--class AppSelector--><g id="elem_AppSelector"><rect fill="#F1F1F1" height="48" id="AppSelector" rx="2.5" ry="2.5" style="stroke:#181818;stroke-width:0.5;" width="123" x="7" y="398.5"/><ellipse cx="22" cy="414.5" fill="#ADD1B2" rx="11" ry="11" style="stroke:#181818;stroke-width:1.0;"/><path d="M24.3438,410.1719 C23.4063,409.7344 22.8125,409.5938 21.9375,409.5938 C19.3125,409.5938 17.3125,411.6719 17.3125,414.3906 L17.3125,415.5156 C17.3125,418.0938 19.4219,419.9844 22.3125,419.9844 C23.5313,419.9844 24.6875,419.6875 25.4375,419.1406 C26.0156,418.7344 26.3438,418.2813 26.3438,417.8906 C26.3438,417.4375 25.9531,417.0469 25.4844,417.0469 C25.2656,417.0469 25.0625,417.125 24.875,417.3125 C24.4219,417.7969 24.4219,417.7969 24.2344,417.8906 C23.8125,418.1563 23.125,418.2813 22.3594,418.2813 C20.3125,418.2813 19.0156,417.1875 19.0156,415.4844 L19.0156,414.3906 C19.0156,412.6094 20.2656,411.2969 22,411.2969 C22.5781,411.2969 23.1875,411.4531 23.6563,411.7031 C24.1406,411.9844 24.3125,412.2031 24.4063,412.6094 C24.4688,413.0156 24.5,413.1406 24.6406,413.2656 C24.7813,413.4063 25.0156,413.5156 25.2344,413.5156 C25.5,413.5156 25.7656,413.375 25.9375,413.1563 C26.0469,413 26.0781,412.8125 26.0781,412.3906 L26.0781,410.9688 C26.0781,410.5313 26.0625,410.4063 25.9688,410.25 C25.8125,409.9844 25.5313,409.8438 25.2344,409.8438 C24.9375,409.8438 24.7344,409.9375 24.5156,410.25 L24.3438,410.1719 Z " fill="#000000"/><text fill="#000000" font-family="sans-serif" font-size="14" lengthAdjust="spacing" textLength="91" x="36" y="419.3467">AppSelector</text><line style="stroke:#181818;stroke-width:0.5;" x1="8" x2="129" y1="430.5" y2="430.5"/><line style="stroke:#181818;stroke-width:0.5;" x1="8" x2="129" y1="438.5" y2="438.5"/></g><!--class ColorConfig--><g id="elem_ColorConfig"><rect fill="#F1F1F1" height="48" id="ColorConfig" rx="2.5" ry="2.5" style="stroke:#181818;stroke-width:0.5;" width="117" x="89" y="132"/><ellipse cx="104" cy="148" fill="#ADD1B2" rx="11" ry="11" style="stroke:#181818;stroke-width:1.0;"/><path d="M106.3438,143.6719 C105.4063,143.2344 104.8125,143.0938 103.9375,143.0938 C101.3125,143.0938 99.3125,145.1719 99.3125,147.8906 L99.3125,149.0156 C99.3125,151.5938 101.4219,153.4844 104.3125,153.4844 C105.5313,153.4844 106.6875,153.1875 107.4375,152.6406 C108.0156,152.2344 108.3438,151.7813 108.3438,151.3906 C108.3438,150.9375 107.9531,150.5469 107.4844,150.5469 C107.2656,150.5469 107.0625,150.625 106.875,150.8125 C106.4219,151.2969 106.4219,151.2969 106.2344,151.3906 C105.8125,151.6563 105.125,151.7813 104.3594,151.7813 C102.3125,151.7813 101.0156,150.6875 101.0156,148.9844 L101.0156,147.8906 C101.0156,146.1094 102.2656,144.7969 104,144.7969 C104.5781,144.7969 105.1875,144.9531 105.6563,145.2031 C106.1406,145.4844 106.3125,145.7031 106.4063,146.1094 C106.4688,146.5156 106.5,146.6406 106.6406,146.7656 C106.7813,146.9063 107.0156,147.0156 107.2344,147.0156 C107.5,147.0156 107.7656,146.875 107.9375,146.6563 C108.0469,146.5 108.0781,146.3125 108.0781,145.8906 L108.0781,144.4688 C108.0781,144.0313 108.0625,143.9063 107.9688,143.75 C107.8125,143.4844 107.5313,143.3438 107.2344,143.3438 C106.9375,143.3438 106.7344,143.4375 106.5156,143.75 L106.3438,143.6719 Z " fill="#000000"/><text fill="#000000" font-family="sans-serif" font-size="14" lengthAdjust="spacing" textLength="85" x="118" y="152.8467">ColorConfig</text><line style="stroke:#181818;stroke-width:0.5;" x1="90" x2="205" y1="164" y2="164"/><line style="stroke:#181818;stroke-width:0.5;" x1="90" x2="205" y1="172" y2="172"/></g><!--class hasKeyInMap--><g id="elem_hasKeyInMap"><rect fill="#F1F1F1" height="48" id="hasKeyInMap" rx="2.5" ry="2.5" style="stroke:#181818;stroke-width:0.5;" width="126" x="189.5" y="257"/><ellipse cx="204.5" cy="273" fill="#ADD1B2" rx="11" ry="11" style="stroke:#181818;stroke-width:1.0;"/><path d="M206.8438,268.6719 C205.9063,268.2344 205.3125,268.0938 204.4375,268.0938 C201.8125,268.0938 199.8125,270.1719 199.8125,272.8906 L199.8125,274.0156 C199.8125,276.5938 201.9219,278.4844 204.8125,278.4844 C206.0313,278.4844 207.1875,278.1875 207.9375,277.6406 C208.5156,277.2344 208.8438,276.7813 208.8438,276.3906 C208.8438,275.9375 208.4531,275.5469 207.9844,275.5469 C207.7656,275.5469 207.5625,275.625 207.375,275.8125 C206.9219,276.2969 206.9219,276.2969 206.7344,276.3906 C206.3125,276.6563 205.625,276.7813 204.8594,276.7813 C202.8125,276.7813 201.5156,275.6875 201.5156,273.9844 L201.5156,272.8906 C201.5156,271.1094 202.7656,269.7969 204.5,269.7969 C205.0781,269.7969 205.6875,269.9531 206.1563,270.2031 C206.6406,270.4844 206.8125,270.7031 206.9063,271.1094 C206.9688,271.5156 207,271.6406 207.1406,271.7656 C207.2813,271.9063 207.5156,272.0156 207.7344,272.0156 C208,272.0156 208.2656,271.875 208.4375,271.6563 C208.5469,271.5 208.5781,271.3125 208.5781,270.8906 L208.5781,269.4688 C208.5781,269.0313 208.5625,268.9063 208.4688,268.75 C208.3125,268.4844 208.0313,268.3438 207.7344,268.3438 C207.4375,268.3438 207.2344,268.4375 207.0156,268.75 L206.8438,268.6719 Z " fill="#000000"/><text fill="#000000" font-family="sans-serif" font-size="14" lengthAdjust="spacing" textLength="94" x="218.5" y="277.8467">hasKeyInMap</text><line style="stroke:#181818;stroke-width:0.5;" x1="190.5" x2="314.5" y1="289" y2="289"/><line style="stroke:#181818;stroke-width:0.5;" x1="190.5" x2="314.5" y1="297" y2="297"/></g><!--class Redux--><g id="elem_Redux"><rect fill="#F1F1F1" height="48" id="Redux" rx="2.5" ry="2.5" style="stroke:#181818;stroke-width:0.5;" width="76" x="30.5" y="540"/><ellipse cx="45.5" cy="556" fill="#ADD1B2" rx="11" ry="11" style="stroke:#181818;stroke-width:1.0;"/><path d="M47.8438,551.6719 C46.9063,551.2344 46.3125,551.0938 45.4375,551.0938 C42.8125,551.0938 40.8125,553.1719 40.8125,555.8906 L40.8125,557.0156 C40.8125,559.5938 42.9219,561.4844 45.8125,561.4844 C47.0313,561.4844 48.1875,561.1875 48.9375,560.6406 C49.5156,560.2344 49.8438,559.7813 49.8438,559.3906 C49.8438,558.9375 49.4531,558.5469 48.9844,558.5469 C48.7656,558.5469 48.5625,558.625 48.375,558.8125 C47.9219,559.2969 47.9219,559.2969 47.7344,559.3906 C47.3125,559.6563 46.625,559.7813 45.8594,559.7813 C43.8125,559.7813 42.5156,558.6875 42.5156,556.9844 L42.5156,555.8906 C42.5156,554.1094 43.7656,552.7969 45.5,552.7969 C46.0781,552.7969 46.6875,552.9531 47.1563,553.2031 C47.6406,553.4844 47.8125,553.7031 47.9063,554.1094 C47.9688,554.5156 48,554.6406 48.1406,554.7656 C48.2813,554.9063 48.5156,555.0156 48.7344,555.0156 C49,555.0156 49.2656,554.875 49.4375,554.6563 C49.5469,554.5 49.5781,554.3125 49.5781,553.8906 L49.5781,552.4688 C49.5781,552.0313 49.5625,551.9063 49.4688,551.75 C49.3125,551.4844 49.0313,551.3438 48.7344,551.3438 C48.4375,551.3438 48.2344,551.4375 48.0156,551.75 L47.8438,551.6719 Z " fill="#000000"/><text fill="#000000" font-family="sans-serif" font-size="14" lengthAdjust="spacing" textLength="44" x="59.5" y="560.8467">Redux</text><line style="stroke:#181818;stroke-width:0.5;" x1="31.5" x2="105.5" y1="572" y2="572"/><line style="stroke:#181818;stroke-width:0.5;" x1="31.5" x2="105.5" y1="580" y2="580"/></g><!--link CurrentTheme to AppSelector--><g id="link_CurrentTheme_AppSelector"><path codeLine="16" d="M80.1882,305.036 C77.5942,330.883 74.0097,366.599 71.4143,392.46 " fill="none" id="CurrentTheme-to-AppSelector" style="stroke:#181818;stroke-width:1.0;"/><polygon fill="#181818" points="70.8152,398.43,75.6939,389.8744,71.3145,393.455,67.7339,389.0756,70.8152,398.43" style="stroke:#181818;stroke-width:1.0;"/><text fill="#000000" font-family="sans-serif" font-size="13" lengthAdjust="spacing" textLength="31" x="78.5" y="348.0669">Uses</text></g><!--link ColorConfig to hasKeyInMap--><g id="link_ColorConfig_hasKeyInMap"><path codeLine="17" d="M167.25,180.135 C186.022,202.126 210.2004,230.4486 228.9434,252.4046 " fill="none" id="ColorConfig-to-hasKeyInMap" style="stroke:#181818;stroke-width:1.0;"/><polygon fill="#181818" points="232.839,256.968,230.0379,247.5259,229.5927,253.1652,223.9534,252.72,232.839,256.968" style="stroke:#181818;stroke-width:1.0;"/><text fill="#000000" font-family="sans-serif" font-size="13" lengthAdjust="spacing" textLength="31" x="207.5" y="223.0669">Uses</text></g><!--link ColorConfig to CurrentTheme--><g id="link_ColorConfig_CurrentTheme"><path codeLine="18" d="M135.274,180.135 C123.653,202.126 109.0774,229.7072 97.4746,251.6632 " fill="none" id="ColorConfig-to-CurrentTheme" style="stroke:#181818;stroke-width:1.0;"/><polygon fill="#181818" points="94.6712,256.968,102.4128,250.8797,97.0073,252.5473,95.3397,247.1419,94.6712,256.968" style="stroke:#181818;stroke-width:1.0;"/><text fill="#000000" font-family="sans-serif" font-size="13" lengthAdjust="spacing" textLength="31" x="120.5" y="223.0669">Uses</text></g><!--link hasKeyInMap to ColorMap--><g id="link_hasKeyInMap_ColorMap"><path codeLine="19" d="M253.491,305.036 C254.386,325.853 255.4651,350.9495 256.5331,375.7725 " fill="none" id="hasKeyInMap-to-ColorMap" style="stroke:#181818;stroke-width:1.0;"/><polygon fill="#181818" points="256.791,381.767,260.4004,372.6034,256.5761,376.7716,252.4078,372.9473,256.791,381.767" style="stroke:#181818;stroke-width:1.0;"/><text fill="#000000" font-family="sans-serif" font-size="13" lengthAdjust="spacing" textLength="31" x="256.5" y="348.0669">Uses</text></g><!--link App to ColorConfig--><g id="link_App_ColorConfig"><path codeLine="20" d="M147.5,55.135 C147.5,77.126 147.5,104.012 147.5,125.968 " fill="none" id="App-to-ColorConfig" style="stroke:#181818;stroke-width:1.0;"/><polygon fill="#181818" points="147.5,131.968,151.5,122.968,147.5,126.968,143.5,122.968,147.5,131.968" style="stroke:#181818;stroke-width:1.0;"/><text fill="#000000" font-family="sans-serif" font-size="13" lengthAdjust="spacing" textLength="31" x="148.5" y="98.0669">Uses</text></g><!--link AppSelector to Redux--><g id="link_AppSelector_Redux"><path codeLine="21" d="M68.5,446.536 C68.5,472.383 68.5,508.0691 68.5,533.9302 " fill="none" id="AppSelector-to-Redux" style="stroke:#181818;stroke-width:1.0;"/><polygon fill="#181818" points="68.5,539.9302,72.5,530.9302,68.5,534.9302,64.5,530.9302,68.5,539.9302" style="stroke:#181818;stroke-width:1.0;"/><text fill="#000000" font-family="sans-serif" font-size="13" lengthAdjust="spacing" textLength="31" x="69.5" y="506.0669">Uses</text></g><!--SRC=[TOz13i8W44NtSmekq0jqOMAwCiQDhGSWT2oD20HeOjDuToc3WSJ8ZlyUVmQXkFUiCygu2xTi0nQFcYSPMafx8V69mseneP6xnozv0mWgMfn37OQTR53oexLq1QWLrZI7dVMeK0JZMdRpw27LTqRVvoaPaliphYSTD_nZrALPgHwHal-OSPnQOcegvBjFCguuBYzY7m00]--></g></svg>