<?xml version="1.0" encoding="us-ascii" standalone="no"?><svg xmlns="http://www.w3.org/2000/svg" xmlns:xlink="http://www.w3.org/1999/xlink" contentStyleType="text/css" height="486px" preserveAspectRatio="none" style="width:394px;height:486px;background:#FFFFFF;" version="1.1" viewBox="0 0 394 486" width="394px" zoomAndPan="magnify"><defs/><g><!--class ColorMap--><g id="elem_ColorMap"><rect codeLine="1" fill="#F1F1F1" height="80.5938" id="ColorMap" rx="2.5" ry="2.5" style="stroke:#181818;stroke-width:0.5;" width="186" x="7" y="132"/><ellipse cx="61.75" cy="148" fill="#ADD1B2" rx="11" ry="11" style="stroke:#181818;stroke-width:1.0;"/><path d="M64.0938,143.6719 C63.1563,143.2344 62.5625,143.0938 61.6875,143.0938 C59.0625,143.0938 57.0625,145.1719 57.0625,147.8906 L57.0625,149.0156 C57.0625,151.5938 59.1719,153.4844 62.0625,153.4844 C63.2813,153.4844 64.4375,153.1875 65.1875,152.6406 C65.7656,152.2344 66.0938,151.7813 66.0938,151.3906 C66.0938,150.9375 65.7031,150.5469 65.2344,150.5469 C65.0156,150.5469 64.8125,150.625 64.625,150.8125 C64.1719,151.2969 64.1719,151.2969 63.9844,151.3906 C63.5625,151.6563 62.875,151.7813 62.1094,151.7813 C60.0625,151.7813 58.7656,150.6875 58.7656,148.9844 L58.7656,147.8906 C58.7656,146.1094 60.0156,144.7969 61.75,144.7969 C62.3281,144.7969 62.9375,144.9531 63.4063,145.2031 C63.8906,145.4844 64.0625,145.7031 64.1563,146.1094 C64.2188,146.5156 64.25,146.6406 64.3906,146.7656 C64.5313,146.9063 64.7656,147.0156 64.9844,147.0156 C65.25,147.0156 65.5156,146.875 65.6875,146.6563 C65.7969,146.5 65.8281,146.3125 65.8281,145.8906 L65.8281,144.4688 C65.8281,144.0313 65.8125,143.9063 65.7188,143.75 C65.5625,143.4844 65.2813,143.3438 64.9844,143.3438 C64.6875,143.3438 64.4844,143.4375 64.2656,143.75 L64.0938,143.6719 Z " fill="#000000"/><text fill="#000000" font-family="sans-serif" font-size="14" lengthAdjust="spacing" textLength="68" x="82.25" y="152.8467">ColorMap</text><line style="stroke:#181818;stroke-width:0.5;" x1="8" x2="192" y1="164" y2="164"/><text fill="#000000" font-family="sans-serif" font-size="14" lengthAdjust="spacing" textLength="174" x="13" y="180.9951">light: ColorSchemeType</text><text fill="#000000" font-family="sans-serif" font-size="14" lengthAdjust="spacing" textLength="173" x="13" y="197.292">dark: ColorSchemeType</text><line style="stroke:#181818;stroke-width:0.5;" x1="8" x2="192" y1="204.5938" y2="204.5938"/></g><!--class CurrentTheme--><g id="elem_CurrentTheme"><rect codeLine="6" fill="#F1F1F1" height="48" id="CurrentTheme" rx="2.5" ry="2.5" style="stroke:#181818;stroke-width:0.5;" width="137" x="228.5" y="148.5"/><ellipse cx="243.5" cy="164.5" fill="#ADD1B2" rx="11" ry="11" style="stroke:#181818;stroke-width:1.0;"/><path d="M245.8438,160.1719 C244.9063,159.7344 244.3125,159.5938 243.4375,159.5938 C240.8125,159.5938 238.8125,161.6719 238.8125,164.3906 L238.8125,165.5156 C238.8125,168.0938 240.9219,169.9844 243.8125,169.9844 C245.0313,169.9844 246.1875,169.6875 246.9375,169.1406 C247.5156,168.7344 247.8438,168.2813 247.8438,167.8906 C247.8438,167.4375 247.4531,167.0469 246.9844,167.0469 C246.7656,167.0469 246.5625,167.125 246.375,167.3125 C245.9219,167.7969 245.9219,167.7969 245.7344,167.8906 C245.3125,168.1563 244.625,168.2813 243.8594,168.2813 C241.8125,168.2813 240.5156,167.1875 240.5156,165.4844 L240.5156,164.3906 C240.5156,162.6094 241.7656,161.2969 243.5,161.2969 C244.0781,161.2969 244.6875,161.4531 245.1563,161.7031 C245.6406,161.9844 245.8125,162.2031 245.9063,162.6094 C245.9688,163.0156 246,163.1406 246.1406,163.2656 C246.2813,163.4063 246.5156,163.5156 246.7344,163.5156 C247,163.5156 247.2656,163.375 247.4375,163.1563 C247.5469,163 247.5781,162.8125 247.5781,162.3906 L247.5781,160.9688 C247.5781,160.5313 247.5625,160.4063 247.4688,160.25 C247.3125,159.9844 247.0313,159.8438 246.7344,159.8438 C246.4375,159.8438 246.2344,159.9375 246.0156,160.25 L245.8438,160.1719 Z " fill="#000000"/><text fill="#000000" font-family="sans-serif" font-size="14" lengthAdjust="spacing" textLength="105" x="257.5" y="169.3467">CurrentTheme</text><line style="stroke:#181818;stroke-width:0.5;" x1="229.5" x2="364.5" y1="180.5" y2="180.5"/><line style="stroke:#181818;stroke-width:0.5;" x1="229.5" x2="364.5" y1="188.5" y2="188.5"/></g><!--class ThemeSlice--><g id="elem_ThemeSlice"><rect codeLine="10" fill="#F1F1F1" height="64.2969" id="ThemeSlice" rx="2.5" ry="2.5" style="stroke:#181818;stroke-width:0.5;" width="181" x="206.5" y="290"/><ellipse cx="250.75" cy="306" fill="#ADD1B2" rx="11" ry="11" style="stroke:#181818;stroke-width:1.0;"/><path d="M253.0938,301.6719 C252.1563,301.2344 251.5625,301.0938 250.6875,301.0938 C248.0625,301.0938 246.0625,303.1719 246.0625,305.8906 L246.0625,307.0156 C246.0625,309.5938 248.1719,311.4844 251.0625,311.4844 C252.2813,311.4844 253.4375,311.1875 254.1875,310.6406 C254.7656,310.2344 255.0938,309.7813 255.0938,309.3906 C255.0938,308.9375 254.7031,308.5469 254.2344,308.5469 C254.0156,308.5469 253.8125,308.625 253.625,308.8125 C253.1719,309.2969 253.1719,309.2969 252.9844,309.3906 C252.5625,309.6563 251.875,309.7813 251.1094,309.7813 C249.0625,309.7813 247.7656,308.6875 247.7656,306.9844 L247.7656,305.8906 C247.7656,304.1094 249.0156,302.7969 250.75,302.7969 C251.3281,302.7969 251.9375,302.9531 252.4063,303.2031 C252.8906,303.4844 253.0625,303.7031 253.1563,304.1094 C253.2188,304.5156 253.25,304.6406 253.3906,304.7656 C253.5313,304.9063 253.7656,305.0156 253.9844,305.0156 C254.25,305.0156 254.5156,304.875 254.6875,304.6563 C254.7969,304.5 254.8281,304.3125 254.8281,303.8906 L254.8281,302.4688 C254.8281,302.0313 254.8125,301.9063 254.7188,301.75 C254.5625,301.4844 254.2813,301.3438 253.9844,301.3438 C253.6875,301.3438 253.4844,301.4375 253.2656,301.75 L253.0938,301.6719 Z " fill="#000000"/><text fill="#000000" font-family="sans-serif" font-size="14" lengthAdjust="spacing" textLength="84" x="271.25" y="310.8467">ThemeSlice</text><line style="stroke:#181818;stroke-width:0.5;" x1="207.5" x2="386.5" y1="322" y2="322"/><ellipse cx="217.5" cy="335.6484" fill="none" rx="3" ry="3" style="stroke:#038048;stroke-width:1.0;"/><text fill="#000000" font-family="sans-serif" font-size="14" lengthAdjust="spacing" textLength="155" x="226.5" y="338.9951">theme : 'light' | 'dark'</text><line style="stroke:#181818;stroke-width:0.5;" x1="207.5" x2="386.5" y1="346.2969" y2="346.2969"/></g><!--class Redux--><g id="elem_Redux"><rect fill="#F1F1F1" height="48" id="Redux" rx="2.5" ry="2.5" style="stroke:#181818;stroke-width:0.5;" width="76" x="259" y="431"/><ellipse cx="274" cy="447" fill="#ADD1B2" rx="11" ry="11" style="stroke:#181818;stroke-width:1.0;"/><path d="M276.3438,442.6719 C275.4063,442.2344 274.8125,442.0938 273.9375,442.0938 C271.3125,442.0938 269.3125,444.1719 269.3125,446.8906 L269.3125,448.0156 C269.3125,450.5938 271.4219,452.4844 274.3125,452.4844 C275.5313,452.4844 276.6875,452.1875 277.4375,451.6406 C278.0156,451.2344 278.3438,450.7813 278.3438,450.3906 C278.3438,449.9375 277.9531,449.5469 277.4844,449.5469 C277.2656,449.5469 277.0625,449.625 276.875,449.8125 C276.4219,450.2969 276.4219,450.2969 276.2344,450.3906 C275.8125,450.6563 275.125,450.7813 274.3594,450.7813 C272.3125,450.7813 271.0156,449.6875 271.0156,447.9844 L271.0156,446.8906 C271.0156,445.1094 272.2656,443.7969 274,443.7969 C274.5781,443.7969 275.1875,443.9531 275.6563,444.2031 C276.1406,444.4844 276.3125,444.7031 276.4063,445.1094 C276.4688,445.5156 276.5,445.6406 276.6406,445.7656 C276.7813,445.9063 277.0156,446.0156 277.2344,446.0156 C277.5,446.0156 277.7656,445.875 277.9375,445.6563 C278.0469,445.5 278.0781,445.3125 278.0781,444.8906 L278.0781,443.4688 C278.0781,443.0313 278.0625,442.9063 277.9688,442.75 C277.8125,442.4844 277.5313,442.3438 277.2344,442.3438 C276.9375,442.3438 276.7344,442.4375 276.5156,442.75 L276.3438,442.6719 Z " fill="#000000"/><text fill="#000000" font-family="sans-serif" font-size="14" lengthAdjust="spacing" textLength="44" x="288" y="451.8467">Redux</text><line style="stroke:#181818;stroke-width:0.5;" x1="260" x2="334" y1="463" y2="463"/><line style="stroke:#181818;stroke-width:0.5;" x1="260" x2="334" y1="471" y2="471"/></g><!--class ColorConfig--><g id="elem_ColorConfig"><rect fill="#F1F1F1" height="48" id="ColorConfig" rx="2.5" ry="2.5" style="stroke:#181818;stroke-width:0.5;" width="117" x="115.5" y="7"/><ellipse cx="130.5" cy="23" fill="#ADD1B2" rx="11" ry="11" style="stroke:#181818;stroke-width:1.0;"/><path d="M132.8438,18.6719 C131.9063,18.2344 131.3125,18.0938 130.4375,18.0938 C127.8125,18.0938 125.8125,20.1719 125.8125,22.8906 L125.8125,24.0156 C125.8125,26.5938 127.9219,28.4844 130.8125,28.4844 C132.0313,28.4844 133.1875,28.1875 133.9375,27.6406 C134.5156,27.2344 134.8438,26.7813 134.8438,26.3906 C134.8438,25.9375 134.4531,25.5469 133.9844,25.5469 C133.7656,25.5469 133.5625,25.625 133.375,25.8125 C132.9219,26.2969 132.9219,26.2969 132.7344,26.3906 C132.3125,26.6563 131.625,26.7813 130.8594,26.7813 C128.8125,26.7813 127.5156,25.6875 127.5156,23.9844 L127.5156,22.8906 C127.5156,21.1094 128.7656,19.7969 130.5,19.7969 C131.0781,19.7969 131.6875,19.9531 132.1563,20.2031 C132.6406,20.4844 132.8125,20.7031 132.9063,21.1094 C132.9688,21.5156 133,21.6406 133.1406,21.7656 C133.2813,21.9063 133.5156,22.0156 133.7344,22.0156 C134,22.0156 134.2656,21.875 134.4375,21.6563 C134.5469,21.5 134.5781,21.3125 134.5781,20.8906 L134.5781,19.4688 C134.5781,19.0313 134.5625,18.9063 134.4688,18.75 C134.3125,18.4844 134.0313,18.3438 133.7344,18.3438 C133.4375,18.3438 133.2344,18.4375 133.0156,18.75 L132.8438,18.6719 Z " fill="#000000"/><text fill="#000000" font-family="sans-serif" font-size="14" lengthAdjust="spacing" textLength="85" x="144.5" y="27.8467">ColorConfig</text><line style="stroke:#181818;stroke-width:0.5;" x1="116.5" x2="231.5" y1="39" y2="39"/><line style="stroke:#181818;stroke-width:0.5;" x1="116.5" x2="231.5" y1="47" y2="47"/></g><!--link CurrentTheme to ThemeSlice--><g id="link_CurrentTheme_ThemeSlice"><path codeLine="13" d="M297,196.547 C297,221.664 297,255.99 297,283.899 " fill="none" id="CurrentTheme-to-ThemeSlice" style="stroke:#181818;stroke-width:1.0;"/><polygon fill="#181818" points="297,289.899,301,280.899,297,284.899,293,280.899,297,289.899" style="stroke:#181818;stroke-width:1.0;"/><text fill="#000000" font-family="sans-serif" font-size="13" lengthAdjust="spacing" textLength="61" x="298" y="256.0669">Retrieves</text></g><!--link ThemeSlice to Redux--><g id="link_ThemeSlice_Redux"><path codeLine="14" d="M297,354.045 C297,377.651 297,403.6046 297,424.9659 " fill="none" id="ThemeSlice-to-Redux" style="stroke:#181818;stroke-width:1.0;"/><polygon fill="#181818" points="297,430.9659,301,421.9659,297,425.9659,293,421.9659,297,430.9659" style="stroke:#181818;stroke-width:1.0;"/><text fill="#000000" font-family="sans-serif" font-size="13" lengthAdjust="spacing" textLength="57" x="298" y="397.0669">Stored In</text></g><!--link ColorConfig to ColorMap--><g id="link_ColorConfig_ColorMap"><path codeLine="15" d="M161.19,55.162 C156.106,64.418 150.234,75.191 145,85 C136.871,100.233 130.8384,111.7337 123.1984,126.4647 " fill="none" id="ColorConfig-to-ColorMap" style="stroke:#181818;stroke-width:1.0;"/><polygon fill="#181818" points="120.436,131.791,128.1304,125.6432,122.738,127.3524,121.0287,121.96,120.436,131.791" style="stroke:#181818;stroke-width:1.0;"/><text fill="#000000" font-family="sans-serif" font-size="13" lengthAdjust="spacing" textLength="59" x="146" y="98.0669">Builds off</text></g><!--link ColorConfig to CurrentTheme--><g id="link_ColorConfig_CurrentTheme"><path codeLine="16" d="M194.311,55.036 C217.101,80.883 249.8889,118.0685 272.6909,143.9295 " fill="none" id="ColorConfig-to-CurrentTheme" style="stroke:#181818;stroke-width:1.0;"/><polygon fill="#181818" points="276.659,148.43,273.7071,139.0339,273.3522,144.6796,267.7065,144.3247,276.659,148.43" style="stroke:#181818;stroke-width:1.0;"/><text fill="#000000" font-family="sans-serif" font-size="13" lengthAdjust="spacing" textLength="61" x="236" y="98.0669">Retrieves</text></g><!--SRC=[POyx3eCm44Hxds8w5n4NS94YL2dI01T0zW9M78pyYHAHt3rW5669BT_CpknAqtgFqXhhRks4cM4Pe_iXY8tMSg07DU-9agHQTpygNyRa5XITep4qgpApdITG6orfQpY55K20fowE3_WQpPULF0D5SSwM1IeAJjEJFDjfCbMauakW3jQHmdLawSRIZftka-7_ey0bQgCyRDSTJLbtLlO3]--></g></svg>