<?xml version="1.0" encoding="us-ascii" standalone="no"?><svg xmlns="http://www.w3.org/2000/svg" xmlns:xlink="http://www.w3.org/1999/xlink" contentStyleType="text/css" height="415px" preserveAspectRatio="none" style="width:480px;height:415px;background:#FFFFFF;" version="1.1" viewBox="0 0 480 415" width="480px" zoomAndPan="magnify"><defs/><g><rect fill="#FFFFFF" height="87.3984" style="stroke:#181818;stroke-width:1.0;" width="10" x="168.5" y="112.4297"/><rect fill="#FFFFFF" height="87.3984" style="stroke:#181818;stroke-width:1.0;" width="10" x="420.5" y="228.9609"/><line style="stroke:#181818;stroke-width:0.5;stroke-dasharray:5.0,5.0;" x1="23" x2="23" y1="81.2969" y2="334.3594"/><line style="stroke:#181818;stroke-width:0.5;stroke-dasharray:5.0,5.0;" x1="173" x2="173" y1="81.2969" y2="334.3594"/><line style="stroke:#181818;stroke-width:0.5;stroke-dasharray:5.0,5.0;" x1="309.5" x2="309.5" y1="81.2969" y2="334.3594"/><line style="stroke:#181818;stroke-width:0.5;stroke-dasharray:5.0,5.0;" x1="425.5" x2="425.5" y1="81.2969" y2="334.3594"/><text fill="#000000" font-family="sans-serif" font-size="14" lengthAdjust="spacing" textLength="31" x="5" y="77.9951">User</text><ellipse cx="23.5" cy="13.5" fill="#E2E2F0" rx="8" ry="8" style="stroke:#181818;stroke-width:0.5;"/><path d="M23.5,21.5 L23.5,48.5 M10.5,29.5 L36.5,29.5 M23.5,48.5 L10.5,63.5 M23.5,48.5 L36.5,63.5 " fill="none" style="stroke:#181818;stroke-width:0.5;"/><text fill="#000000" font-family="sans-serif" font-size="14" lengthAdjust="spacing" textLength="31" x="5" y="346.3545">User</text><ellipse cx="23.5" cy="358.1563" fill="#E2E2F0" rx="8" ry="8" style="stroke:#181818;stroke-width:0.5;"/><path d="M23.5,366.1563 L23.5,393.1563 M10.5,374.1563 L36.5,374.1563 M23.5,393.1563 L10.5,408.1563 M23.5,393.1563 L36.5,408.1563 " fill="none" style="stroke:#181818;stroke-width:0.5;"/><rect fill="#E2E2F0" height="30.2969" rx="2.5" ry="2.5" style="stroke:#181818;stroke-width:0.5;" width="59" x="144" y="50"/><text fill="#000000" font-family="sans-serif" font-size="14" lengthAdjust="spacing" textLength="45" x="151" y="69.9951">Colors</text><rect fill="#E2E2F0" height="30.2969" rx="2.5" ry="2.5" style="stroke:#181818;stroke-width:0.5;" width="59" x="144" y="333.3594"/><text fill="#000000" font-family="sans-serif" font-size="14" lengthAdjust="spacing" textLength="45" x="151" y="353.3545">Colors</text><text fill="#000000" font-family="sans-serif" font-size="14" lengthAdjust="spacing" textLength="44" x="284.5" y="77.9951">Redux</text><path d="M291.5,29 C291.5,19 309.5,19 309.5,19 C309.5,19 327.5,19 327.5,29 L327.5,55 C327.5,65 309.5,65 309.5,65 C309.5,65 291.5,65 291.5,55 L291.5,29 " fill="#E2E2F0" style="stroke:#181818;stroke-width:1.5;"/><path d="M291.5,29 C291.5,39 309.5,39 309.5,39 C309.5,39 327.5,39 327.5,29 " fill="none" style="stroke:#181818;stroke-width:1.5;"/><text fill="#000000" font-family="sans-serif" font-size="14" lengthAdjust="spacing" textLength="44" x="284.5" y="346.3545">Redux</text><path d="M291.5,359.6563 C291.5,349.6563 309.5,349.6563 309.5,349.6563 C309.5,349.6563 327.5,349.6563 327.5,359.6563 L327.5,385.6563 C327.5,395.6563 309.5,395.6563 309.5,395.6563 C309.5,395.6563 291.5,395.6563 291.5,385.6563 L291.5,359.6563 " fill="#E2E2F0" style="stroke:#181818;stroke-width:1.5;"/><path d="M291.5,359.6563 C291.5,369.6563 309.5,369.6563 309.5,369.6563 C309.5,369.6563 327.5,369.6563 327.5,359.6563 " fill="none" style="stroke:#181818;stroke-width:1.5;"/><rect fill="#E2E2F0" height="30.2969" rx="2.5" ry="2.5" style="stroke:#181818;stroke-width:0.5;" width="98" x="376.5" y="50"/><text fill="#000000" font-family="sans-serif" font-size="14" lengthAdjust="spacing" textLength="84" x="383.5" y="69.9951">ThemeSlice</text><rect fill="#E2E2F0" height="30.2969" rx="2.5" ry="2.5" style="stroke:#181818;stroke-width:0.5;" width="98" x="376.5" y="333.3594"/><text fill="#000000" font-family="sans-serif" font-size="14" lengthAdjust="spacing" textLength="84" x="383.5" y="353.3545">ThemeSlice</text><rect fill="#FFFFFF" height="87.3984" style="stroke:#181818;stroke-width:1.0;" width="10" x="168.5" y="112.4297"/><rect fill="#FFFFFF" height="87.3984" style="stroke:#181818;stroke-width:1.0;" width="10" x="420.5" y="228.9609"/><polygon fill="#181818" points="156.5,108.4297,166.5,112.4297,156.5,116.4297,160.5,112.4297" style="stroke:#181818;stroke-width:1.0;"/><line style="stroke:#181818;stroke-width:1.0;" x1="23.5" x2="162.5" y1="112.4297" y2="112.4297"/><text fill="#000000" font-family="sans-serif" font-size="13" lengthAdjust="spacing" textLength="126" x="30.5" y="107.3638">useCurrentTheme()</text><polygon fill="#181818" points="297.5,137.5625,307.5,141.5625,297.5,145.5625,301.5,141.5625" style="stroke:#181818;stroke-width:1.0;"/><line style="stroke:#181818;stroke-width:1.0;" x1="178.5" x2="303.5" y1="141.5625" y2="141.5625"/><text fill="#000000" font-family="sans-serif" font-size="13" lengthAdjust="spacing" textLength="107" x="185.5" y="136.4966">Retrieves theme</text><polygon fill="#181818" points="189.5,166.6953,179.5,170.6953,189.5,174.6953,185.5,170.6953" style="stroke:#181818;stroke-width:1.0;"/><line style="stroke:#181818;stroke-width:1.0;stroke-dasharray:2.0,2.0;" x1="183.5" x2="308.5" y1="170.6953" y2="170.6953"/><text fill="#000000" font-family="sans-serif" font-size="13" lengthAdjust="spacing" textLength="96" x="195.5" y="165.6294">Returns theme</text><polygon fill="#181818" points="34.5,195.8281,24.5,199.8281,34.5,203.8281,30.5,199.8281" style="stroke:#181818;stroke-width:1.0;"/><line style="stroke:#181818;stroke-width:1.0;stroke-dasharray:2.0,2.0;" x1="28.5" x2="172.5" y1="199.8281" y2="199.8281"/><text fill="#000000" font-family="sans-serif" font-size="13" lengthAdjust="spacing" textLength="96" x="40.5" y="194.7622">Returns theme</text><polygon fill="#181818" points="408.5,224.9609,418.5,228.9609,408.5,232.9609,412.5,228.9609" style="stroke:#181818;stroke-width:1.0;"/><line style="stroke:#181818;stroke-width:1.0;" x1="23.5" x2="414.5" y1="228.9609" y2="228.9609"/><text fill="#000000" font-family="sans-serif" font-size="13" lengthAdjust="spacing" textLength="75" x="30.5" y="223.895">setTheme()</text><polygon fill="#181818" points="320.5,254.0938,310.5,258.0938,320.5,262.0938,316.5,258.0938" style="stroke:#181818;stroke-width:1.0;"/><line style="stroke:#181818;stroke-width:1.0;" x1="314.5" x2="419.5" y1="258.0938" y2="258.0938"/><text fill="#000000" font-family="sans-serif" font-size="13" lengthAdjust="spacing" textLength="87" x="326.5" y="253.0278">Stores theme</text><polygon fill="#181818" points="408.5,283.2266,418.5,287.2266,408.5,291.2266,412.5,287.2266" style="stroke:#181818;stroke-width:1.0;"/><line style="stroke:#181818;stroke-width:1.0;stroke-dasharray:2.0,2.0;" x1="309.5" x2="414.5" y1="287.2266" y2="287.2266"/><text fill="#000000" font-family="sans-serif" font-size="13" lengthAdjust="spacing" textLength="83" x="316.5" y="282.1606">Confirmation</text><polygon fill="#181818" points="34.5,312.3594,24.5,316.3594,34.5,320.3594,30.5,316.3594" style="stroke:#181818;stroke-width:1.0;"/><line style="stroke:#181818;stroke-width:1.0;stroke-dasharray:2.0,2.0;" x1="28.5" x2="424.5" y1="316.3594" y2="316.3594"/><text fill="#000000" font-family="sans-serif" font-size="13" lengthAdjust="spacing" textLength="83" x="40.5" y="311.2935">Confirmation</text><!--SRC=[RP1D3e8m44RtFSM4bIwuW0itt03q02ECiGcqP3eGZsyfO5jqrv_tVVDQRCKot1sn6f55jtf48r1KjhVi2a07wr9rAFX0Hr1JDxrp-lQYWPfUjnGISQlKKWtbTMk12qoEgecPZ0JiT5ROYfvHQ9-qeJuKHlbCJSAQPd8WIqQjvsLQwv69pGxi5Pu80iVxZev3lw9HtgSS_LechqlOnBRnN_f7DIkkh7bg7b2qDLbDDCwGH3ZI7m00]--></g></svg>