<?xml version="1.0" encoding="us-ascii" standalone="no"?><svg xmlns="http://www.w3.org/2000/svg" xmlns:xlink="http://www.w3.org/1999/xlink" contentStyleType="text/css" height="424px" preserveAspectRatio="none" style="width:362px;height:424px;background:#FFFFFF;" version="1.1" viewBox="0 0 362 424" width="362px" zoomAndPan="magnify"><defs/><g><!--class Tutorial--><g id="elem_Tutorial"><rect codeLine="1" fill="#F1F1F1" height="129.4844" id="Tutorial" rx="2.5" ry="2.5" style="stroke:#181818;stroke-width:0.5;" width="205" x="54.5" y="7"/><ellipse cx="125.25" cy="23" fill="#ADD1B2" rx="11" ry="11" style="stroke:#181818;stroke-width:1.0;"/><path d="M127.5938,18.6719 C126.6563,18.2344 126.0625,18.0938 125.1875,18.0938 C122.5625,18.0938 120.5625,20.1719 120.5625,22.8906 L120.5625,24.0156 C120.5625,26.5938 122.6719,28.4844 125.5625,28.4844 C126.7813,28.4844 127.9375,28.1875 128.6875,27.6406 C129.2656,27.2344 129.5938,26.7813 129.5938,26.3906 C129.5938,25.9375 129.2031,25.5469 128.7344,25.5469 C128.5156,25.5469 128.3125,25.625 128.125,25.8125 C127.6719,26.2969 127.6719,26.2969 127.4844,26.3906 C127.0625,26.6563 126.375,26.7813 125.6094,26.7813 C123.5625,26.7813 122.2656,25.6875 122.2656,23.9844 L122.2656,22.8906 C122.2656,21.1094 123.5156,19.7969 125.25,19.7969 C125.8281,19.7969 126.4375,19.9531 126.9063,20.2031 C127.3906,20.4844 127.5625,20.7031 127.6563,21.1094 C127.7188,21.5156 127.75,21.6406 127.8906,21.7656 C128.0313,21.9063 128.2656,22.0156 128.4844,22.0156 C128.75,22.0156 129.0156,21.875 129.1875,21.6563 C129.2969,21.5 129.3281,21.3125 129.3281,20.8906 L129.3281,19.4688 C129.3281,19.0313 129.3125,18.9063 129.2188,18.75 C129.0625,18.4844 128.7813,18.3438 128.4844,18.3438 C128.1875,18.3438 127.9844,18.4375 127.7656,18.75 L127.5938,18.6719 Z " fill="#000000"/><text fill="#000000" font-family="sans-serif" font-size="14" lengthAdjust="spacing" textLength="55" x="145.75" y="27.8467">Tutorial</text><line style="stroke:#181818;stroke-width:0.5;" x1="55.5" x2="258.5" y1="39" y2="39"/><rect fill="none" height="6" style="stroke:#C82930;stroke-width:1.0;" width="6" x="62.5" y="49.6484"/><text fill="#000000" font-family="sans-serif" font-size="14" lengthAdjust="spacing" textLength="121" x="74.5" y="55.9951">tutorialStep : int</text><rect fill="none" height="6" style="stroke:#C82930;stroke-width:1.0;" width="6" x="62.5" y="65.9453"/><text fill="#000000" font-family="sans-serif" font-size="14" lengthAdjust="spacing" textLength="179" x="74.5" y="72.292">tutorialCompleted : bool</text><rect fill="none" height="6" style="stroke:#C82930;stroke-width:1.0;" width="6" x="62.5" y="82.2422"/><text fill="#000000" font-family="sans-serif" font-size="14" lengthAdjust="spacing" textLength="137" x="74.5" y="88.5889">modalVisible : bool</text><rect fill="none" height="6" style="stroke:#C82930;stroke-width:1.0;" width="6" x="62.5" y="98.5391"/><text fill="#000000" font-family="sans-serif" font-size="14" lengthAdjust="spacing" textLength="164" x="74.5" y="104.8857">navigation : Navigation</text><line style="stroke:#181818;stroke-width:0.5;" x1="55.5" x2="258.5" y1="112.1875" y2="112.1875"/><ellipse cx="65.5" cy="125.8359" fill="#84BE84" rx="3" ry="3" style="stroke:#038048;stroke-width:1.0;"/><text fill="#000000" font-family="sans-serif" font-size="14" lengthAdjust="spacing" textLength="135" x="74.5" y="129.1826">handleNext() : void</text></g><!--class Navigation--><g id="elem_Navigation"><rect codeLine="9" fill="#F1F1F1" height="48" id="Navigation" rx="2.5" ry="2.5" style="stroke:#181818;stroke-width:0.5;" width="108" x="7" y="228.5"/><ellipse cx="22" cy="244.5" fill="#ADD1B2" rx="11" ry="11" style="stroke:#181818;stroke-width:1.0;"/><path d="M24.3438,240.1719 C23.4063,239.7344 22.8125,239.5938 21.9375,239.5938 C19.3125,239.5938 17.3125,241.6719 17.3125,244.3906 L17.3125,245.5156 C17.3125,248.0938 19.4219,249.9844 22.3125,249.9844 C23.5313,249.9844 24.6875,249.6875 25.4375,249.1406 C26.0156,248.7344 26.3438,248.2813 26.3438,247.8906 C26.3438,247.4375 25.9531,247.0469 25.4844,247.0469 C25.2656,247.0469 25.0625,247.125 24.875,247.3125 C24.4219,247.7969 24.4219,247.7969 24.2344,247.8906 C23.8125,248.1563 23.125,248.2813 22.3594,248.2813 C20.3125,248.2813 19.0156,247.1875 19.0156,245.4844 L19.0156,244.3906 C19.0156,242.6094 20.2656,241.2969 22,241.2969 C22.5781,241.2969 23.1875,241.4531 23.6563,241.7031 C24.1406,241.9844 24.3125,242.2031 24.4063,242.6094 C24.4688,243.0156 24.5,243.1406 24.6406,243.2656 C24.7813,243.4063 25.0156,243.5156 25.2344,243.5156 C25.5,243.5156 25.7656,243.375 25.9375,243.1563 C26.0469,243 26.0781,242.8125 26.0781,242.3906 L26.0781,240.9688 C26.0781,240.5313 26.0625,240.4063 25.9688,240.25 C25.8125,239.9844 25.5313,239.8438 25.2344,239.8438 C24.9375,239.8438 24.7344,239.9375 24.5156,240.25 L24.3438,240.1719 Z " fill="#000000"/><text fill="#000000" font-family="sans-serif" font-size="14" lengthAdjust="spacing" textLength="76" x="36" y="249.3467">Navigation</text><line style="stroke:#181818;stroke-width:0.5;" x1="8" x2="114" y1="260.5" y2="260.5"/><line style="stroke:#181818;stroke-width:0.5;" x1="8" x2="114" y1="268.5" y2="268.5"/></g><!--class TutorialSlice--><g id="elem_TutorialSlice"><rect codeLine="13" fill="#F1F1F1" height="113.1875" id="TutorialSlice" rx="2.5" ry="2.5" style="stroke:#181818;stroke-width:0.5;" width="205" x="150.5" y="196"/><ellipse cx="204.25" cy="212" fill="#ADD1B2" rx="11" ry="11" style="stroke:#181818;stroke-width:1.0;"/><path d="M206.5938,207.6719 C205.6563,207.2344 205.0625,207.0938 204.1875,207.0938 C201.5625,207.0938 199.5625,209.1719 199.5625,211.8906 L199.5625,213.0156 C199.5625,215.5938 201.6719,217.4844 204.5625,217.4844 C205.7813,217.4844 206.9375,217.1875 207.6875,216.6406 C208.2656,216.2344 208.5938,215.7813 208.5938,215.3906 C208.5938,214.9375 208.2031,214.5469 207.7344,214.5469 C207.5156,214.5469 207.3125,214.625 207.125,214.8125 C206.6719,215.2969 206.6719,215.2969 206.4844,215.3906 C206.0625,215.6563 205.375,215.7813 204.6094,215.7813 C202.5625,215.7813 201.2656,214.6875 201.2656,212.9844 L201.2656,211.8906 C201.2656,210.1094 202.5156,208.7969 204.25,208.7969 C204.8281,208.7969 205.4375,208.9531 205.9063,209.2031 C206.3906,209.4844 206.5625,209.7031 206.6563,210.1094 C206.7188,210.5156 206.75,210.6406 206.8906,210.7656 C207.0313,210.9063 207.2656,211.0156 207.4844,211.0156 C207.75,211.0156 208.0156,210.875 208.1875,210.6563 C208.2969,210.5 208.3281,210.3125 208.3281,209.8906 L208.3281,208.4688 C208.3281,208.0313 208.3125,207.9063 208.2188,207.75 C208.0625,207.4844 207.7813,207.3438 207.4844,207.3438 C207.1875,207.3438 206.9844,207.4375 206.7656,207.75 L206.5938,207.6719 Z " fill="#000000"/><text fill="#000000" font-family="sans-serif" font-size="14" lengthAdjust="spacing" textLength="89" x="224.75" y="216.8467">TutorialSlice</text><line style="stroke:#181818;stroke-width:0.5;" x1="151.5" x2="354.5" y1="228" y2="228"/><ellipse cx="161.5" cy="241.6484" fill="none" rx="3" ry="3" style="stroke:#038048;stroke-width:1.0;"/><text fill="#000000" font-family="sans-serif" font-size="14" lengthAdjust="spacing" textLength="121" x="170.5" y="244.9951">tutorialStep : int</text><ellipse cx="161.5" cy="257.9453" fill="none" rx="3" ry="3" style="stroke:#038048;stroke-width:1.0;"/><text fill="#000000" font-family="sans-serif" font-size="14" lengthAdjust="spacing" textLength="179" x="170.5" y="261.292">tutorialCompleted : bool</text><line style="stroke:#181818;stroke-width:0.5;" x1="151.5" x2="354.5" y1="268.5938" y2="268.5938"/><ellipse cx="161.5" cy="282.2422" fill="#84BE84" rx="3" ry="3" style="stroke:#038048;stroke-width:1.0;"/><text fill="#000000" font-family="sans-serif" font-size="14" lengthAdjust="spacing" textLength="157" x="170.5" y="285.5889">setCompleted() : void</text><ellipse cx="161.5" cy="298.5391" fill="#84BE84" rx="3" ry="3" style="stroke:#038048;stroke-width:1.0;"/><text fill="#000000" font-family="sans-serif" font-size="14" lengthAdjust="spacing" textLength="121" x="170.5" y="301.8857">nextStep() : void</text></g><!--class RootState--><g id="elem_RootState"><rect fill="#F1F1F1" height="48" id="RootState" rx="2.5" ry="2.5" style="stroke:#181818;stroke-width:0.5;" width="107" x="199.5" y="369"/><ellipse cx="214.5" cy="385" fill="#ADD1B2" rx="11" ry="11" style="stroke:#181818;stroke-width:1.0;"/><path d="M216.8438,380.6719 C215.9063,380.2344 215.3125,380.0938 214.4375,380.0938 C211.8125,380.0938 209.8125,382.1719 209.8125,384.8906 L209.8125,386.0156 C209.8125,388.5938 211.9219,390.4844 214.8125,390.4844 C216.0313,390.4844 217.1875,390.1875 217.9375,389.6406 C218.5156,389.2344 218.8438,388.7813 218.8438,388.3906 C218.8438,387.9375 218.4531,387.5469 217.9844,387.5469 C217.7656,387.5469 217.5625,387.625 217.375,387.8125 C216.9219,388.2969 216.9219,388.2969 216.7344,388.3906 C216.3125,388.6563 215.625,388.7813 214.8594,388.7813 C212.8125,388.7813 211.5156,387.6875 211.5156,385.9844 L211.5156,384.8906 C211.5156,383.1094 212.7656,381.7969 214.5,381.7969 C215.0781,381.7969 215.6875,381.9531 216.1563,382.2031 C216.6406,382.4844 216.8125,382.7031 216.9063,383.1094 C216.9688,383.5156 217,383.6406 217.1406,383.7656 C217.2813,383.9063 217.5156,384.0156 217.7344,384.0156 C218,384.0156 218.2656,383.875 218.4375,383.6563 C218.5469,383.5 218.5781,383.3125 218.5781,382.8906 L218.5781,381.4688 C218.5781,381.0313 218.5625,380.9063 218.4688,380.75 C218.3125,380.4844 218.0313,380.3438 217.7344,380.3438 C217.4375,380.3438 217.2344,380.4375 217.0156,380.75 L216.8438,380.6719 Z " fill="#000000"/><text fill="#000000" font-family="sans-serif" font-size="14" lengthAdjust="spacing" textLength="75" x="228.5" y="389.8467">RootState</text><line style="stroke:#181818;stroke-width:0.5;" x1="200.5" x2="305.5" y1="401" y2="401"/><line style="stroke:#181818;stroke-width:0.5;" x1="200.5" x2="305.5" y1="409" y2="409"/></g><!--link Tutorial to TutorialSlice--><g id="link_Tutorial_TutorialSlice"><path codeLine="21" d="M191.116,136.113 C201.572,155.607 210.1521,171.6075 220.3011,190.5305 " fill="none" id="Tutorial-to-TutorialSlice" style="stroke:#181818;stroke-width:1.0;"/><polygon fill="#181818" points="223.137,195.818,222.4082,185.9961,220.7738,191.4117,215.3582,189.7773,223.137,195.818" style="stroke:#181818;stroke-width:1.0;"/></g><!--link Tutorial to Navigation--><g id="link_Tutorial_Navigation"><path codeLine="22" d="M122.884,136.113 C105.7457,168.068 88.86,199.5524 76.3753,222.8314 " fill="none" id="Tutorial-to-Navigation" style="stroke:#181818;stroke-width:1.0;"/><polygon fill="#181818" points="73.5395,228.119,81.3182,222.0781,75.9026,223.7127,74.2681,218.2971,73.5395,228.119" style="stroke:#181818;stroke-width:1.0;"/></g><!--link TutorialSlice to RootState--><g id="link_TutorialSlice_RootState"><path codeLine="23" d="M253,309.035 C253,329.9568 253,346.6181 253,362.9619 " fill="none" id="TutorialSlice-to-RootState" style="stroke:#181818;stroke-width:1.0;"/><polygon fill="#181818" points="253,368.9619,257,359.9619,253,363.9619,249,359.9619,253,368.9619" style="stroke:#181818;stroke-width:1.0;"/></g><!--SRC=[TP0n3i8m34Ntd28ZgEe565ZOEr34dZOMM7BZYfWAgUBkc19QWbHl_i_wUabBBaPxkWlVq94TZTKfhQIW5kZjpcAGFt3WhYSGy4eRPaguO-_eZ14RWfm4D-352NBGl9gNYHRswe8dgE0XcwtoWT6Rfp7jPBTSgv-cAVvAruGjZAbeHRnO5qyyWineSVYme5xlminj_hEotESkEVfvQtOrmIEpDZk15m00]--></g></svg>