<?xml version="1.0" encoding="us-ascii" standalone="no"?><svg xmlns="http://www.w3.org/2000/svg" xmlns:xlink="http://www.w3.org/1999/xlink" contentStyleType="text/css" height="458px" preserveAspectRatio="none" style="width:747px;height:458px;background:#FFFFFF;" version="1.1" viewBox="0 0 747 458" width="747px" zoomAndPan="magnify"><defs/><g><!--class Tutorial--><g id="elem_Tutorial"><rect codeLine="1" fill="#F1F1F1" height="129.4844" id="Tutorial" rx="2.5" ry="2.5" style="stroke:#181818;stroke-width:0.5;" width="205" x="409" y="7"/><ellipse cx="479.75" cy="23" fill="#ADD1B2" rx="11" ry="11" style="stroke:#181818;stroke-width:1.0;"/><path d="M482.0938,18.6719 C481.1563,18.2344 480.5625,18.0938 479.6875,18.0938 C477.0625,18.0938 475.0625,20.1719 475.0625,22.8906 L475.0625,24.0156 C475.0625,26.5938 477.1719,28.4844 480.0625,28.4844 C481.2813,28.4844 482.4375,28.1875 483.1875,27.6406 C483.7656,27.2344 484.0938,26.7813 484.0938,26.3906 C484.0938,25.9375 483.7031,25.5469 483.2344,25.5469 C483.0156,25.5469 482.8125,25.625 482.625,25.8125 C482.1719,26.2969 482.1719,26.2969 481.9844,26.3906 C481.5625,26.6563 480.875,26.7813 480.1094,26.7813 C478.0625,26.7813 476.7656,25.6875 476.7656,23.9844 L476.7656,22.8906 C476.7656,21.1094 478.0156,19.7969 479.75,19.7969 C480.3281,19.7969 480.9375,19.9531 481.4063,20.2031 C481.8906,20.4844 482.0625,20.7031 482.1563,21.1094 C482.2188,21.5156 482.25,21.6406 482.3906,21.7656 C482.5313,21.9063 482.7656,22.0156 482.9844,22.0156 C483.25,22.0156 483.5156,21.875 483.6875,21.6563 C483.7969,21.5 483.8281,21.3125 483.8281,20.8906 L483.8281,19.4688 C483.8281,19.0313 483.8125,18.9063 483.7188,18.75 C483.5625,18.4844 483.2813,18.3438 482.9844,18.3438 C482.6875,18.3438 482.4844,18.4375 482.2656,18.75 L482.0938,18.6719 Z " fill="#000000"/><text fill="#000000" font-family="sans-serif" font-size="14" lengthAdjust="spacing" textLength="55" x="500.25" y="27.8467">Tutorial</text><line style="stroke:#181818;stroke-width:0.5;" x1="410" x2="613" y1="39" y2="39"/><rect fill="none" height="6" style="stroke:#C82930;stroke-width:1.0;" width="6" x="417" y="49.6484"/><text fill="#000000" font-family="sans-serif" font-size="14" lengthAdjust="spacing" textLength="121" x="429" y="55.9951">tutorialStep : int</text><rect fill="none" height="6" style="stroke:#C82930;stroke-width:1.0;" width="6" x="417" y="65.9453"/><text fill="#000000" font-family="sans-serif" font-size="14" lengthAdjust="spacing" textLength="179" x="429" y="72.292">tutorialCompleted : bool</text><rect fill="none" height="6" style="stroke:#C82930;stroke-width:1.0;" width="6" x="417" y="82.2422"/><text fill="#000000" font-family="sans-serif" font-size="14" lengthAdjust="spacing" textLength="137" x="429" y="88.5889">modalVisible : bool</text><rect fill="none" height="6" style="stroke:#C82930;stroke-width:1.0;" width="6" x="417" y="98.5391"/><text fill="#000000" font-family="sans-serif" font-size="14" lengthAdjust="spacing" textLength="164" x="429" y="104.8857">navigation : Navigation</text><line style="stroke:#181818;stroke-width:0.5;" x1="410" x2="613" y1="112.1875" y2="112.1875"/><ellipse cx="420" cy="125.8359" fill="#84BE84" rx="3" ry="3" style="stroke:#038048;stroke-width:1.0;"/><text fill="#000000" font-family="sans-serif" font-size="14" lengthAdjust="spacing" textLength="135" x="429" y="129.1826">handleNext() : void</text></g><!--class Navigation--><g id="elem_Navigation"><rect codeLine="9" fill="#F1F1F1" height="48" id="Navigation" rx="2.5" ry="2.5" style="stroke:#181818;stroke-width:0.5;" width="108" x="369.5" y="245.5"/><ellipse cx="384.5" cy="261.5" fill="#ADD1B2" rx="11" ry="11" style="stroke:#181818;stroke-width:1.0;"/><path d="M386.8438,257.1719 C385.9063,256.7344 385.3125,256.5938 384.4375,256.5938 C381.8125,256.5938 379.8125,258.6719 379.8125,261.3906 L379.8125,262.5156 C379.8125,265.0938 381.9219,266.9844 384.8125,266.9844 C386.0313,266.9844 387.1875,266.6875 387.9375,266.1406 C388.5156,265.7344 388.8438,265.2813 388.8438,264.8906 C388.8438,264.4375 388.4531,264.0469 387.9844,264.0469 C387.7656,264.0469 387.5625,264.125 387.375,264.3125 C386.9219,264.7969 386.9219,264.7969 386.7344,264.8906 C386.3125,265.1563 385.625,265.2813 384.8594,265.2813 C382.8125,265.2813 381.5156,264.1875 381.5156,262.4844 L381.5156,261.3906 C381.5156,259.6094 382.7656,258.2969 384.5,258.2969 C385.0781,258.2969 385.6875,258.4531 386.1563,258.7031 C386.6406,258.9844 386.8125,259.2031 386.9063,259.6094 C386.9688,260.0156 387,260.1406 387.1406,260.2656 C387.2813,260.4063 387.5156,260.5156 387.7344,260.5156 C388,260.5156 388.2656,260.375 388.4375,260.1563 C388.5469,260 388.5781,259.8125 388.5781,259.3906 L388.5781,257.9688 C388.5781,257.5313 388.5625,257.4063 388.4688,257.25 C388.3125,256.9844 388.0313,256.8438 387.7344,256.8438 C387.4375,256.8438 387.2344,256.9375 387.0156,257.25 L386.8438,257.1719 Z " fill="#000000"/><text fill="#000000" font-family="sans-serif" font-size="14" lengthAdjust="spacing" textLength="76" x="398.5" y="266.3467">Navigation</text><line style="stroke:#181818;stroke-width:0.5;" x1="370.5" x2="476.5" y1="277.5" y2="277.5"/><line style="stroke:#181818;stroke-width:0.5;" x1="370.5" x2="476.5" y1="285.5" y2="285.5"/></g><!--class TutorialSlice--><g id="elem_TutorialSlice"><rect codeLine="12" fill="#F1F1F1" height="113.1875" id="TutorialSlice" rx="2.5" ry="2.5" style="stroke:#181818;stroke-width:0.5;" width="205" x="7" y="213"/><ellipse cx="60.75" cy="229" fill="#ADD1B2" rx="11" ry="11" style="stroke:#181818;stroke-width:1.0;"/><path d="M63.0938,224.6719 C62.1563,224.2344 61.5625,224.0938 60.6875,224.0938 C58.0625,224.0938 56.0625,226.1719 56.0625,228.8906 L56.0625,230.0156 C56.0625,232.5938 58.1719,234.4844 61.0625,234.4844 C62.2813,234.4844 63.4375,234.1875 64.1875,233.6406 C64.7656,233.2344 65.0938,232.7813 65.0938,232.3906 C65.0938,231.9375 64.7031,231.5469 64.2344,231.5469 C64.0156,231.5469 63.8125,231.625 63.625,231.8125 C63.1719,232.2969 63.1719,232.2969 62.9844,232.3906 C62.5625,232.6563 61.875,232.7813 61.1094,232.7813 C59.0625,232.7813 57.7656,231.6875 57.7656,229.9844 L57.7656,228.8906 C57.7656,227.1094 59.0156,225.7969 60.75,225.7969 C61.3281,225.7969 61.9375,225.9531 62.4063,226.2031 C62.8906,226.4844 63.0625,226.7031 63.1563,227.1094 C63.2188,227.5156 63.25,227.6406 63.3906,227.7656 C63.5313,227.9063 63.7656,228.0156 63.9844,228.0156 C64.25,228.0156 64.5156,227.875 64.6875,227.6563 C64.7969,227.5 64.8281,227.3125 64.8281,226.8906 L64.8281,225.4688 C64.8281,225.0313 64.8125,224.9063 64.7188,224.75 C64.5625,224.4844 64.2813,224.3438 63.9844,224.3438 C63.6875,224.3438 63.4844,224.4375 63.2656,224.75 L63.0938,224.6719 Z " fill="#000000"/><text fill="#000000" font-family="sans-serif" font-size="14" lengthAdjust="spacing" textLength="89" x="81.25" y="233.8467">TutorialSlice</text><line style="stroke:#181818;stroke-width:0.5;" x1="8" x2="211" y1="245" y2="245"/><ellipse cx="18" cy="258.6484" fill="none" rx="3" ry="3" style="stroke:#038048;stroke-width:1.0;"/><text fill="#000000" font-family="sans-serif" font-size="14" lengthAdjust="spacing" textLength="121" x="27" y="261.9951">tutorialStep : int</text><ellipse cx="18" cy="274.9453" fill="none" rx="3" ry="3" style="stroke:#038048;stroke-width:1.0;"/><text fill="#000000" font-family="sans-serif" font-size="14" lengthAdjust="spacing" textLength="179" x="27" y="278.292">tutorialCompleted : bool</text><line style="stroke:#181818;stroke-width:0.5;" x1="8" x2="211" y1="285.5938" y2="285.5938"/><ellipse cx="18" cy="299.2422" fill="#84BE84" rx="3" ry="3" style="stroke:#038048;stroke-width:1.0;"/><text fill="#000000" font-family="sans-serif" font-size="14" lengthAdjust="spacing" textLength="157" x="27" y="302.5889">setCompleted() : void</text><ellipse cx="18" cy="315.5391" fill="#84BE84" rx="3" ry="3" style="stroke:#038048;stroke-width:1.0;"/><text fill="#000000" font-family="sans-serif" font-size="14" lengthAdjust="spacing" textLength="121" x="27" y="318.8857">nextStep() : void</text></g><!--class TutorialResetButton--><g id="elem_TutorialResetButton"><rect codeLine="20" fill="#F1F1F1" height="80.5938" id="TutorialResetButton" rx="2.5" ry="2.5" style="stroke:#181818;stroke-width:0.5;" width="190" x="15.5" y="31"/><ellipse cx="35.45" cy="47" fill="#ADD1B2" rx="11" ry="11" style="stroke:#181818;stroke-width:1.0;"/><path d="M37.7938,42.6719 C36.8563,42.2344 36.2625,42.0938 35.3875,42.0938 C32.7625,42.0938 30.7625,44.1719 30.7625,46.8906 L30.7625,48.0156 C30.7625,50.5938 32.8719,52.4844 35.7625,52.4844 C36.9813,52.4844 38.1375,52.1875 38.8875,51.6406 C39.4656,51.2344 39.7938,50.7813 39.7938,50.3906 C39.7938,49.9375 39.4031,49.5469 38.9344,49.5469 C38.7156,49.5469 38.5125,49.625 38.325,49.8125 C37.8719,50.2969 37.8719,50.2969 37.6844,50.3906 C37.2625,50.6563 36.575,50.7813 35.8094,50.7813 C33.7625,50.7813 32.4656,49.6875 32.4656,47.9844 L32.4656,46.8906 C32.4656,45.1094 33.7156,43.7969 35.45,43.7969 C36.0281,43.7969 36.6375,43.9531 37.1063,44.2031 C37.5906,44.4844 37.7625,44.7031 37.8563,45.1094 C37.9188,45.5156 37.95,45.6406 38.0906,45.7656 C38.2313,45.9063 38.4656,46.0156 38.6844,46.0156 C38.95,46.0156 39.2156,45.875 39.3875,45.6563 C39.4969,45.5 39.5281,45.3125 39.5281,44.8906 L39.5281,43.4688 C39.5281,43.0313 39.5125,42.9063 39.4188,42.75 C39.2625,42.4844 38.9813,42.3438 38.6844,42.3438 C38.3875,42.3438 38.1844,42.4375 37.9656,42.75 L37.7938,42.6719 Z " fill="#000000"/><text fill="#000000" font-family="sans-serif" font-size="14" lengthAdjust="spacing" textLength="147" x="50.55" y="51.8467">TutorialResetButton</text><line style="stroke:#181818;stroke-width:0.5;" x1="16.5" x2="204.5" y1="63" y2="63"/><rect fill="none" height="6" style="stroke:#C82930;stroke-width:1.0;" width="6" x="23.5" y="73.6484"/><text fill="#000000" font-family="sans-serif" font-size="14" lengthAdjust="spacing" textLength="164" x="35.5" y="79.9951">navigation : Navigation</text><line style="stroke:#181818;stroke-width:0.5;" x1="16.5" x2="204.5" y1="87.2969" y2="87.2969"/><ellipse cx="26.5" cy="100.9453" fill="#84BE84" rx="3" ry="3" style="stroke:#038048;stroke-width:1.0;"/><text fill="#000000" font-family="sans-serif" font-size="14" lengthAdjust="spacing" textLength="143" x="35.5" y="104.292">handleReset() : void</text></g><!--class TutorialData--><g id="elem_TutorialData"><rect codeLine="26" fill="#F1F1F1" height="96.8906" id="TutorialData" rx="2.5" ry="2.5" style="stroke:#181818;stroke-width:0.5;" width="163" x="574" y="221"/><ellipse cx="607.9" cy="237" fill="#ADD1B2" rx="11" ry="11" style="stroke:#181818;stroke-width:1.0;"/><path d="M610.2438,232.6719 C609.3063,232.2344 608.7125,232.0938 607.8375,232.0938 C605.2125,232.0938 603.2125,234.1719 603.2125,236.8906 L603.2125,238.0156 C603.2125,240.5938 605.3219,242.4844 608.2125,242.4844 C609.4313,242.4844 610.5875,242.1875 611.3375,241.6406 C611.9156,241.2344 612.2438,240.7813 612.2438,240.3906 C612.2438,239.9375 611.8531,239.5469 611.3844,239.5469 C611.1656,239.5469 610.9625,239.625 610.775,239.8125 C610.3219,240.2969 610.3219,240.2969 610.1344,240.3906 C609.7125,240.6563 609.025,240.7813 608.2594,240.7813 C606.2125,240.7813 604.9156,239.6875 604.9156,237.9844 L604.9156,236.8906 C604.9156,235.1094 606.1656,233.7969 607.9,233.7969 C608.4781,233.7969 609.0875,233.9531 609.5563,234.2031 C610.0406,234.4844 610.2125,234.7031 610.3063,235.1094 C610.3688,235.5156 610.4,235.6406 610.5406,235.7656 C610.6813,235.9063 610.9156,236.0156 611.1344,236.0156 C611.4,236.0156 611.6656,235.875 611.8375,235.6563 C611.9469,235.5 611.9781,235.3125 611.9781,234.8906 L611.9781,233.4688 C611.9781,233.0313 611.9625,232.9063 611.8688,232.75 C611.7125,232.4844 611.4313,232.3438 611.1344,232.3438 C610.8375,232.3438 610.6344,232.4375 610.4156,232.75 L610.2438,232.6719 Z " fill="#000000"/><text fill="#000000" font-family="sans-serif" font-size="14" lengthAdjust="spacing" textLength="89" x="626.1" y="241.8467">TutorialData</text><line style="stroke:#181818;stroke-width:0.5;" x1="575" x2="736" y1="253" y2="253"/><ellipse cx="585" cy="266.6484" fill="none" rx="3" ry="3" style="stroke:#038048;stroke-width:1.0;"/><text fill="#000000" font-family="sans-serif" font-size="14" lengthAdjust="spacing" textLength="86" x="594" y="269.9951">title : string</text><ellipse cx="585" cy="282.9453" fill="none" rx="3" ry="3" style="stroke:#038048;stroke-width:1.0;"/><text fill="#000000" font-family="sans-serif" font-size="14" lengthAdjust="spacing" textLength="137" x="594" y="286.292">description : string</text><ellipse cx="585" cy="299.2422" fill="none" rx="3" ry="3" style="stroke:#038048;stroke-width:1.0;"/><text fill="#000000" font-family="sans-serif" font-size="14" lengthAdjust="spacing" textLength="124" x="594" y="302.5889">NextPage : string</text><line style="stroke:#181818;stroke-width:0.5;" x1="575" x2="736" y1="309.8906" y2="309.8906"/></g><!--class Redux--><g id="elem_Redux"><rect fill="#F1F1F1" height="48" id="Redux" rx="2.5" ry="2.5" style="stroke:#181818;stroke-width:0.5;" width="76" x="71.5" y="403"/><ellipse cx="86.5" cy="419" fill="#ADD1B2" rx="11" ry="11" style="stroke:#181818;stroke-width:1.0;"/><path d="M88.8438,414.6719 C87.9063,414.2344 87.3125,414.0938 86.4375,414.0938 C83.8125,414.0938 81.8125,416.1719 81.8125,418.8906 L81.8125,420.0156 C81.8125,422.5938 83.9219,424.4844 86.8125,424.4844 C88.0313,424.4844 89.1875,424.1875 89.9375,423.6406 C90.5156,423.2344 90.8438,422.7813 90.8438,422.3906 C90.8438,421.9375 90.4531,421.5469 89.9844,421.5469 C89.7656,421.5469 89.5625,421.625 89.375,421.8125 C88.9219,422.2969 88.9219,422.2969 88.7344,422.3906 C88.3125,422.6563 87.625,422.7813 86.8594,422.7813 C84.8125,422.7813 83.5156,421.6875 83.5156,419.9844 L83.5156,418.8906 C83.5156,417.1094 84.7656,415.7969 86.5,415.7969 C87.0781,415.7969 87.6875,415.9531 88.1563,416.2031 C88.6406,416.4844 88.8125,416.7031 88.9063,417.1094 C88.9688,417.5156 89,417.6406 89.1406,417.7656 C89.2813,417.9063 89.5156,418.0156 89.7344,418.0156 C90,418.0156 90.2656,417.875 90.4375,417.6563 C90.5469,417.5 90.5781,417.3125 90.5781,416.8906 L90.5781,415.4688 C90.5781,415.0313 90.5625,414.9063 90.4688,414.75 C90.3125,414.4844 90.0313,414.3438 89.7344,414.3438 C89.4375,414.3438 89.2344,414.4375 89.0156,414.75 L88.8438,414.6719 Z " fill="#000000"/><text fill="#000000" font-family="sans-serif" font-size="14" lengthAdjust="spacing" textLength="44" x="100.5" y="423.8467">Redux</text><line style="stroke:#181818;stroke-width:0.5;" x1="72.5" x2="146.5" y1="435" y2="435"/><line style="stroke:#181818;stroke-width:0.5;" x1="72.5" x2="146.5" y1="443" y2="443"/></g><!--link Tutorial to TutorialSlice--><g id="link_Tutorial_TutorialSlice"><path codeLine="31" d="M403.54,120.8449 C371.205,135.6719 340.922,149.937 308.5,166 C294.069,173.149 290.779,175.552 276.5,183 C255.707,193.845 238.7374,202.6142 217.4134,213.5542 " fill="none" id="Tutorial-TutorialSlice" style="stroke:#181818;stroke-width:1.0;"/><polygon fill="#181818" points="408.994,118.344,399.1458,118.4593,404.449,120.4281,402.4803,125.7313,408.994,118.344" style="stroke:#181818;stroke-width:1.0;"/><polygon fill="#181818" points="212.075,216.293,221.9085,215.7437,216.5237,214.0107,218.2568,208.6258,212.075,216.293" style="stroke:#181818;stroke-width:1.0;"/><text fill="#000000" font-family="sans-serif" font-size="13" lengthAdjust="spacing" textLength="154" x="309.5" y="179.0669">Reads and handles step</text></g><!--link Tutorial to Navigation--><g id="link_Tutorial_Navigation"><path codeLine="32" d="M491.266,136.103 C485.714,151.662 479.325,168.113 472.5,183 C462.518,204.773 451.9474,223.1948 441.5634,240.0478 " fill="none" id="Tutorial-to-Navigation" style="stroke:#181818;stroke-width:1.0;"/><polygon fill="#181818" points="438.416,245.156,446.5426,239.592,441.0389,240.8992,439.7317,235.3954,438.416,245.156" style="stroke:#181818;stroke-width:1.0;"/><text fill="#000000" font-family="sans-serif" font-size="13" lengthAdjust="spacing" textLength="102" x="480.5" y="179.0669">Navigates using</text></g><!--link Tutorial to TutorialData--><g id="link_Tutorial_TutorialData"><path codeLine="33" d="M568.099,136.103 C576.196,145.923 584.234,156.096 591.5,166 C604.22,183.338 613.8841,198.1051 624.6541,215.7191 " fill="none" id="Tutorial-to-TutorialData" style="stroke:#181818;stroke-width:1.0;"/><polygon fill="#181818" points="627.784,220.838,626.5017,211.073,625.1757,216.5722,619.6765,215.2462,627.784,220.838" style="stroke:#181818;stroke-width:1.0;"/><text fill="#000000" font-family="sans-serif" font-size="13" lengthAdjust="spacing" textLength="135" x="604.5" y="179.0669">Reads step info from</text></g><!--link TutorialSlice to Redux--><g id="link_TutorialSlice_Redux"><path codeLine="34" d="M109.5,326.2 C109.5,352.5181 109.5,376.5111 109.5,396.6872 " fill="none" id="TutorialSlice-to-Redux" style="stroke:#181818;stroke-width:1.0;"/><polygon fill="#181818" points="109.5,402.6872,113.5,393.6872,109.5,397.6872,105.5,393.6872,109.5,402.6872" style="stroke:#181818;stroke-width:1.0;"/><text fill="#000000" font-family="sans-serif" font-size="13" lengthAdjust="spacing" textLength="56" x="110.5" y="369.0669">Stores in</text></g><!--link TutorialResetButton to Navigation--><g id="link_TutorialResetButton_Navigation"><path codeLine="35" d="M122.816,112.109 C131.987,135.657 146.727,164.456 168.5,183 C184.163,196.34 293.3773,230.1308 363.4863,250.9528 " fill="none" id="TutorialResetButton-to-Navigation" style="stroke:#181818;stroke-width:1.0;"/><polygon fill="#181818" points="369.238,252.661,361.7493,246.2642,364.4449,251.2375,359.4716,253.9331,369.238,252.661" style="stroke:#181818;stroke-width:1.0;"/><text fill="#000000" font-family="sans-serif" font-size="13" lengthAdjust="spacing" textLength="102" x="169.5" y="179.0669">Navigates using</text></g><!--link TutorialResetButton to TutorialSlice--><g id="link_TutorialResetButton_TutorialSlice"><path codeLine="36" d="M74.7816,112.408 C63.0753,128.006 51.5313,146.758 45.5,166 C40.4488,182.115 41.8769,193.0498 50.3576,207.5718 " fill="none" id="TutorialResetButton-to-TutorialSlice" style="stroke:#181818;stroke-width:1.0;"/><polygon fill="#181818" points="53.3834,212.753,52.2989,202.964,50.8619,208.4353,45.3906,206.9984,53.3834,212.753" style="stroke:#181818;stroke-width:1.0;"/><text fill="#000000" font-family="sans-serif" font-size="13" lengthAdjust="spacing" textLength="81" x="46.5" y="179.0669">Resets state</text></g><!--SRC=[ZP71RiCW44JlV0N7Lf5_mAfwQ7kEgZZgdPYDkn86owoZI57-lGl5EAH9LD-ymmnlbjOex-Ls8ZUYCl8a97-Lf3He20PPIxHq9RoxVZ10e5dTEMUIt3kjp1Twt1ae5QiEs2b2Ptc-pZzHNSblPRM1DHpfwPdrWqCjpaAqaMuvpNnvEZCt1biufPmxtAlxt4dtG5bQ47urorWXy0RQ3B413dYRY2BZuyP5vMXy4FoXIELoI76hdaQqNHfgyEs8GxgcaC8wFrLtOJcB_D8lLVLQxh2M6r3QI-PAS9vzC2oUO5cAv59yRl8XlZXusM2E3d7yA7idzwFhHN5zD6r0JyTQDZpdLBJYreB_Yt7j-TEMvS34rXy0]--></g></svg>