<?xml version="1.0" encoding="us-ascii" standalone="no"?><svg xmlns="http://www.w3.org/2000/svg" xmlns:xlink="http://www.w3.org/1999/xlink" contentStyleType="text/css" height="424px" preserveAspectRatio="none" style="width:561px;height:424px;background:#FFFFFF;" version="1.1" viewBox="0 0 561 424" width="561px" zoomAndPan="magnify"><defs/><g><!--class Tutorial--><g id="elem_Tutorial"><rect codeLine="1" fill="#F1F1F1" height="129.4844" id="Tutorial" rx="2.5" ry="2.5" style="stroke:#181818;stroke-width:0.5;" width="205" x="240" y="7"/><ellipse cx="310.75" cy="23" fill="#ADD1B2" rx="11" ry="11" style="stroke:#181818;stroke-width:1.0;"/><path d="M313.0938,18.6719 C312.1563,18.2344 311.5625,18.0938 310.6875,18.0938 C308.0625,18.0938 306.0625,20.1719 306.0625,22.8906 L306.0625,24.0156 C306.0625,26.5938 308.1719,28.4844 311.0625,28.4844 C312.2813,28.4844 313.4375,28.1875 314.1875,27.6406 C314.7656,27.2344 315.0938,26.7813 315.0938,26.3906 C315.0938,25.9375 314.7031,25.5469 314.2344,25.5469 C314.0156,25.5469 313.8125,25.625 313.625,25.8125 C313.1719,26.2969 313.1719,26.2969 312.9844,26.3906 C312.5625,26.6563 311.875,26.7813 311.1094,26.7813 C309.0625,26.7813 307.7656,25.6875 307.7656,23.9844 L307.7656,22.8906 C307.7656,21.1094 309.0156,19.7969 310.75,19.7969 C311.3281,19.7969 311.9375,19.9531 312.4063,20.2031 C312.8906,20.4844 313.0625,20.7031 313.1563,21.1094 C313.2188,21.5156 313.25,21.6406 313.3906,21.7656 C313.5313,21.9063 313.7656,22.0156 313.9844,22.0156 C314.25,22.0156 314.5156,21.875 314.6875,21.6563 C314.7969,21.5 314.8281,21.3125 314.8281,20.8906 L314.8281,19.4688 C314.8281,19.0313 314.8125,18.9063 314.7188,18.75 C314.5625,18.4844 314.2813,18.3438 313.9844,18.3438 C313.6875,18.3438 313.4844,18.4375 313.2656,18.75 L313.0938,18.6719 Z " fill="#000000"/><text fill="#000000" font-family="sans-serif" font-size="14" lengthAdjust="spacing" textLength="55" x="331.25" y="27.8467">Tutorial</text><line style="stroke:#181818;stroke-width:0.5;" x1="241" x2="444" y1="39" y2="39"/><rect fill="none" height="6" style="stroke:#C82930;stroke-width:1.0;" width="6" x="248" y="49.6484"/><text fill="#000000" font-family="sans-serif" font-size="14" lengthAdjust="spacing" textLength="121" x="260" y="55.9951">tutorialStep : int</text><rect fill="none" height="6" style="stroke:#C82930;stroke-width:1.0;" width="6" x="248" y="65.9453"/><text fill="#000000" font-family="sans-serif" font-size="14" lengthAdjust="spacing" textLength="179" x="260" y="72.292">tutorialCompleted : bool</text><rect fill="none" height="6" style="stroke:#C82930;stroke-width:1.0;" width="6" x="248" y="82.2422"/><text fill="#000000" font-family="sans-serif" font-size="14" lengthAdjust="spacing" textLength="137" x="260" y="88.5889">modalVisible : bool</text><rect fill="none" height="6" style="stroke:#C82930;stroke-width:1.0;" width="6" x="248" y="98.5391"/><text fill="#000000" font-family="sans-serif" font-size="14" lengthAdjust="spacing" textLength="164" x="260" y="104.8857">navigation : Navigation</text><line style="stroke:#181818;stroke-width:0.5;" x1="241" x2="444" y1="112.1875" y2="112.1875"/><ellipse cx="251" cy="125.8359" fill="#84BE84" rx="3" ry="3" style="stroke:#038048;stroke-width:1.0;"/><text fill="#000000" font-family="sans-serif" font-size="14" lengthAdjust="spacing" textLength="135" x="260" y="129.1826">handleNext() : void</text></g><!--class Navigation--><g id="elem_Navigation"><rect codeLine="9" fill="#F1F1F1" height="48" id="Navigation" rx="2.5" ry="2.5" style="stroke:#181818;stroke-width:0.5;" width="108" x="247.5" y="228.5"/><ellipse cx="262.5" cy="244.5" fill="#ADD1B2" rx="11" ry="11" style="stroke:#181818;stroke-width:1.0;"/><path d="M264.8438,240.1719 C263.9063,239.7344 263.3125,239.5938 262.4375,239.5938 C259.8125,239.5938 257.8125,241.6719 257.8125,244.3906 L257.8125,245.5156 C257.8125,248.0938 259.9219,249.9844 262.8125,249.9844 C264.0313,249.9844 265.1875,249.6875 265.9375,249.1406 C266.5156,248.7344 266.8438,248.2813 266.8438,247.8906 C266.8438,247.4375 266.4531,247.0469 265.9844,247.0469 C265.7656,247.0469 265.5625,247.125 265.375,247.3125 C264.9219,247.7969 264.9219,247.7969 264.7344,247.8906 C264.3125,248.1563 263.625,248.2813 262.8594,248.2813 C260.8125,248.2813 259.5156,247.1875 259.5156,245.4844 L259.5156,244.3906 C259.5156,242.6094 260.7656,241.2969 262.5,241.2969 C263.0781,241.2969 263.6875,241.4531 264.1563,241.7031 C264.6406,241.9844 264.8125,242.2031 264.9063,242.6094 C264.9688,243.0156 265,243.1406 265.1406,243.2656 C265.2813,243.4063 265.5156,243.5156 265.7344,243.5156 C266,243.5156 266.2656,243.375 266.4375,243.1563 C266.5469,243 266.5781,242.8125 266.5781,242.3906 L266.5781,240.9688 C266.5781,240.5313 266.5625,240.4063 266.4688,240.25 C266.3125,239.9844 266.0313,239.8438 265.7344,239.8438 C265.4375,239.8438 265.2344,239.9375 265.0156,240.25 L264.8438,240.1719 Z " fill="#000000"/><text fill="#000000" font-family="sans-serif" font-size="14" lengthAdjust="spacing" textLength="76" x="276.5" y="249.3467">Navigation</text><line style="stroke:#181818;stroke-width:0.5;" x1="248.5" x2="354.5" y1="260.5" y2="260.5"/><line style="stroke:#181818;stroke-width:0.5;" x1="248.5" x2="354.5" y1="268.5" y2="268.5"/></g><!--class TutorialSlice--><g id="elem_TutorialSlice"><rect codeLine="12" fill="#F1F1F1" height="113.1875" id="TutorialSlice" rx="2.5" ry="2.5" style="stroke:#181818;stroke-width:0.5;" width="205" x="7" y="196"/><ellipse cx="60.75" cy="212" fill="#ADD1B2" rx="11" ry="11" style="stroke:#181818;stroke-width:1.0;"/><path d="M63.0938,207.6719 C62.1563,207.2344 61.5625,207.0938 60.6875,207.0938 C58.0625,207.0938 56.0625,209.1719 56.0625,211.8906 L56.0625,213.0156 C56.0625,215.5938 58.1719,217.4844 61.0625,217.4844 C62.2813,217.4844 63.4375,217.1875 64.1875,216.6406 C64.7656,216.2344 65.0938,215.7813 65.0938,215.3906 C65.0938,214.9375 64.7031,214.5469 64.2344,214.5469 C64.0156,214.5469 63.8125,214.625 63.625,214.8125 C63.1719,215.2969 63.1719,215.2969 62.9844,215.3906 C62.5625,215.6563 61.875,215.7813 61.1094,215.7813 C59.0625,215.7813 57.7656,214.6875 57.7656,212.9844 L57.7656,211.8906 C57.7656,210.1094 59.0156,208.7969 60.75,208.7969 C61.3281,208.7969 61.9375,208.9531 62.4063,209.2031 C62.8906,209.4844 63.0625,209.7031 63.1563,210.1094 C63.2188,210.5156 63.25,210.6406 63.3906,210.7656 C63.5313,210.9063 63.7656,211.0156 63.9844,211.0156 C64.25,211.0156 64.5156,210.875 64.6875,210.6563 C64.7969,210.5 64.8281,210.3125 64.8281,209.8906 L64.8281,208.4688 C64.8281,208.0313 64.8125,207.9063 64.7188,207.75 C64.5625,207.4844 64.2813,207.3438 63.9844,207.3438 C63.6875,207.3438 63.4844,207.4375 63.2656,207.75 L63.0938,207.6719 Z " fill="#000000"/><text fill="#000000" font-family="sans-serif" font-size="14" lengthAdjust="spacing" textLength="89" x="81.25" y="216.8467">TutorialSlice</text><line style="stroke:#181818;stroke-width:0.5;" x1="8" x2="211" y1="228" y2="228"/><ellipse cx="18" cy="241.6484" fill="none" rx="3" ry="3" style="stroke:#038048;stroke-width:1.0;"/><text fill="#000000" font-family="sans-serif" font-size="14" lengthAdjust="spacing" textLength="121" x="27" y="244.9951">tutorialStep : int</text><ellipse cx="18" cy="257.9453" fill="none" rx="3" ry="3" style="stroke:#038048;stroke-width:1.0;"/><text fill="#000000" font-family="sans-serif" font-size="14" lengthAdjust="spacing" textLength="179" x="27" y="261.292">tutorialCompleted : bool</text><line style="stroke:#181818;stroke-width:0.5;" x1="8" x2="211" y1="268.5938" y2="268.5938"/><ellipse cx="18" cy="282.2422" fill="#84BE84" rx="3" ry="3" style="stroke:#038048;stroke-width:1.0;"/><text fill="#000000" font-family="sans-serif" font-size="14" lengthAdjust="spacing" textLength="157" x="27" y="285.5889">setCompleted() : void</text><ellipse cx="18" cy="298.5391" fill="#84BE84" rx="3" ry="3" style="stroke:#038048;stroke-width:1.0;"/><text fill="#000000" font-family="sans-serif" font-size="14" lengthAdjust="spacing" textLength="121" x="27" y="301.8857">nextStep() : void</text></g><!--class TutorialResetButton--><g id="elem_TutorialResetButton"><rect codeLine="20" fill="#F1F1F1" height="80.5938" id="TutorialResetButton" rx="2.5" ry="2.5" style="stroke:#181818;stroke-width:0.5;" width="190" x="14.5" y="31"/><ellipse cx="34.45" cy="47" fill="#ADD1B2" rx="11" ry="11" style="stroke:#181818;stroke-width:1.0;"/><path d="M36.7938,42.6719 C35.8563,42.2344 35.2625,42.0938 34.3875,42.0938 C31.7625,42.0938 29.7625,44.1719 29.7625,46.8906 L29.7625,48.0156 C29.7625,50.5938 31.8719,52.4844 34.7625,52.4844 C35.9813,52.4844 37.1375,52.1875 37.8875,51.6406 C38.4656,51.2344 38.7938,50.7813 38.7938,50.3906 C38.7938,49.9375 38.4031,49.5469 37.9344,49.5469 C37.7156,49.5469 37.5125,49.625 37.325,49.8125 C36.8719,50.2969 36.8719,50.2969 36.6844,50.3906 C36.2625,50.6563 35.575,50.7813 34.8094,50.7813 C32.7625,50.7813 31.4656,49.6875 31.4656,47.9844 L31.4656,46.8906 C31.4656,45.1094 32.7156,43.7969 34.45,43.7969 C35.0281,43.7969 35.6375,43.9531 36.1063,44.2031 C36.5906,44.4844 36.7625,44.7031 36.8563,45.1094 C36.9188,45.5156 36.95,45.6406 37.0906,45.7656 C37.2313,45.9063 37.4656,46.0156 37.6844,46.0156 C37.95,46.0156 38.2156,45.875 38.3875,45.6563 C38.4969,45.5 38.5281,45.3125 38.5281,44.8906 L38.5281,43.4688 C38.5281,43.0313 38.5125,42.9063 38.4188,42.75 C38.2625,42.4844 37.9813,42.3438 37.6844,42.3438 C37.3875,42.3438 37.1844,42.4375 36.9656,42.75 L36.7938,42.6719 Z " fill="#000000"/><text fill="#000000" font-family="sans-serif" font-size="14" lengthAdjust="spacing" textLength="147" x="49.55" y="51.8467">TutorialResetButton</text><line style="stroke:#181818;stroke-width:0.5;" x1="15.5" x2="203.5" y1="63" y2="63"/><rect fill="none" height="6" style="stroke:#C82930;stroke-width:1.0;" width="6" x="22.5" y="73.6484"/><text fill="#000000" font-family="sans-serif" font-size="14" lengthAdjust="spacing" textLength="164" x="34.5" y="79.9951">navigation : Navigation</text><line style="stroke:#181818;stroke-width:0.5;" x1="15.5" x2="203.5" y1="87.2969" y2="87.2969"/><ellipse cx="25.5" cy="100.9453" fill="#84BE84" rx="3" ry="3" style="stroke:#038048;stroke-width:1.0;"/><text fill="#000000" font-family="sans-serif" font-size="14" lengthAdjust="spacing" textLength="143" x="34.5" y="104.292">handleReset() : void</text></g><!--class TutorialData--><g id="elem_TutorialData"><rect codeLine="26" fill="#F1F1F1" height="96.8906" id="TutorialData" rx="2.5" ry="2.5" style="stroke:#181818;stroke-width:0.5;" width="163" x="391" y="204"/><ellipse cx="424.9" cy="220" fill="#ADD1B2" rx="11" ry="11" style="stroke:#181818;stroke-width:1.0;"/><path d="M427.2438,215.6719 C426.3063,215.2344 425.7125,215.0938 424.8375,215.0938 C422.2125,215.0938 420.2125,217.1719 420.2125,219.8906 L420.2125,221.0156 C420.2125,223.5938 422.3219,225.4844 425.2125,225.4844 C426.4313,225.4844 427.5875,225.1875 428.3375,224.6406 C428.9156,224.2344 429.2438,223.7813 429.2438,223.3906 C429.2438,222.9375 428.8531,222.5469 428.3844,222.5469 C428.1656,222.5469 427.9625,222.625 427.775,222.8125 C427.3219,223.2969 427.3219,223.2969 427.1344,223.3906 C426.7125,223.6563 426.025,223.7813 425.2594,223.7813 C423.2125,223.7813 421.9156,222.6875 421.9156,220.9844 L421.9156,219.8906 C421.9156,218.1094 423.1656,216.7969 424.9,216.7969 C425.4781,216.7969 426.0875,216.9531 426.5563,217.2031 C427.0406,217.4844 427.2125,217.7031 427.3063,218.1094 C427.3688,218.5156 427.4,218.6406 427.5406,218.7656 C427.6813,218.9063 427.9156,219.0156 428.1344,219.0156 C428.4,219.0156 428.6656,218.875 428.8375,218.6563 C428.9469,218.5 428.9781,218.3125 428.9781,217.8906 L428.9781,216.4688 C428.9781,216.0313 428.9625,215.9063 428.8688,215.75 C428.7125,215.4844 428.4313,215.3438 428.1344,215.3438 C427.8375,215.3438 427.6344,215.4375 427.4156,215.75 L427.2438,215.6719 Z " fill="#000000"/><text fill="#000000" font-family="sans-serif" font-size="14" lengthAdjust="spacing" textLength="89" x="443.1" y="224.8467">TutorialData</text><line style="stroke:#181818;stroke-width:0.5;" x1="392" x2="553" y1="236" y2="236"/><ellipse cx="402" cy="249.6484" fill="none" rx="3" ry="3" style="stroke:#038048;stroke-width:1.0;"/><text fill="#000000" font-family="sans-serif" font-size="14" lengthAdjust="spacing" textLength="86" x="411" y="252.9951">title : string</text><ellipse cx="402" cy="265.9453" fill="none" rx="3" ry="3" style="stroke:#038048;stroke-width:1.0;"/><text fill="#000000" font-family="sans-serif" font-size="14" lengthAdjust="spacing" textLength="137" x="411" y="269.292">description : string</text><ellipse cx="402" cy="282.2422" fill="none" rx="3" ry="3" style="stroke:#038048;stroke-width:1.0;"/><text fill="#000000" font-family="sans-serif" font-size="14" lengthAdjust="spacing" textLength="124" x="411" y="285.5889">NextPage : string</text><line style="stroke:#181818;stroke-width:0.5;" x1="392" x2="553" y1="292.8906" y2="292.8906"/></g><!--class RootState--><g id="elem_RootState"><rect fill="#F1F1F1" height="48" id="RootState" rx="2.5" ry="2.5" style="stroke:#181818;stroke-width:0.5;" width="107" x="56" y="369"/><ellipse cx="71" cy="385" fill="#ADD1B2" rx="11" ry="11" style="stroke:#181818;stroke-width:1.0;"/><path d="M73.3438,380.6719 C72.4063,380.2344 71.8125,380.0938 70.9375,380.0938 C68.3125,380.0938 66.3125,382.1719 66.3125,384.8906 L66.3125,386.0156 C66.3125,388.5938 68.4219,390.4844 71.3125,390.4844 C72.5313,390.4844 73.6875,390.1875 74.4375,389.6406 C75.0156,389.2344 75.3438,388.7813 75.3438,388.3906 C75.3438,387.9375 74.9531,387.5469 74.4844,387.5469 C74.2656,387.5469 74.0625,387.625 73.875,387.8125 C73.4219,388.2969 73.4219,388.2969 73.2344,388.3906 C72.8125,388.6563 72.125,388.7813 71.3594,388.7813 C69.3125,388.7813 68.0156,387.6875 68.0156,385.9844 L68.0156,384.8906 C68.0156,383.1094 69.2656,381.7969 71,381.7969 C71.5781,381.7969 72.1875,381.9531 72.6563,382.2031 C73.1406,382.4844 73.3125,382.7031 73.4063,383.1094 C73.4688,383.5156 73.5,383.6406 73.6406,383.7656 C73.7813,383.9063 74.0156,384.0156 74.2344,384.0156 C74.5,384.0156 74.7656,383.875 74.9375,383.6563 C75.0469,383.5 75.0781,383.3125 75.0781,382.8906 L75.0781,381.4688 C75.0781,381.0313 75.0625,380.9063 74.9688,380.75 C74.8125,380.4844 74.5313,380.3438 74.2344,380.3438 C73.9375,380.3438 73.7344,380.4375 73.5156,380.75 L73.3438,380.6719 Z " fill="#000000"/><text fill="#000000" font-family="sans-serif" font-size="14" lengthAdjust="spacing" textLength="75" x="85" y="389.8467">RootState</text><line style="stroke:#181818;stroke-width:0.5;" x1="57" x2="162" y1="401" y2="401"/><line style="stroke:#181818;stroke-width:0.5;" x1="57" x2="162" y1="409" y2="409"/></g><!--link Tutorial to TutorialSlice--><g id="link_Tutorial_TutorialSlice"><path codeLine="31" d="M259.697,136.113 C234.321,155.607 211.37,173.2397 186.738,192.1627 " fill="none" id="Tutorial-to-TutorialSlice" style="stroke:#181818;stroke-width:1.0;"/><polygon fill="#181818" points="181.98,195.818,191.5539,193.5071,185.945,192.7719,186.6802,187.1631,181.98,195.818" style="stroke:#181818;stroke-width:1.0;"/></g><!--link Tutorial to Navigation--><g id="link_Tutorial_Navigation"><path codeLine="32" d="M327.929,136.113 C320.61,168.068 313.5266,198.9915 308.1946,222.2705 " fill="none" id="Tutorial-to-Navigation" style="stroke:#181818;stroke-width:1.0;"/><polygon fill="#181818" points="306.855,228.119,312.7634,220.2392,307.9713,223.2452,304.9654,218.4531,306.855,228.119" style="stroke:#181818;stroke-width:1.0;"/></g><!--link Tutorial to TutorialData--><g id="link_Tutorial_TutorialData"><path codeLine="33" d="M388.699,136.113 C404.901,158.421 419.2812,178.2222 434.3682,198.9962 " fill="none" id="Tutorial-to-TutorialData" style="stroke:#181818;stroke-width:1.0;"/><polygon fill="#181818" points="437.894,203.851,435.8419,194.2183,434.9559,199.8053,429.3688,198.9193,437.894,203.851" style="stroke:#181818;stroke-width:1.0;"/></g><!--link TutorialSlice to RootState--><g id="link_TutorialSlice_RootState"><path codeLine="34" d="M109.5,309.035 C109.5,329.9568 109.5,346.6181 109.5,362.9619 " fill="none" id="TutorialSlice-to-RootState" style="stroke:#181818;stroke-width:1.0;"/><polygon fill="#181818" points="109.5,368.9619,113.5,359.9619,109.5,363.9619,105.5,359.9619,109.5,368.9619" style="stroke:#181818;stroke-width:1.0;"/></g><!--link TutorialResetButton to Navigation--><g id="link_TutorialResetButton_Navigation"><path codeLine="35" d="M152.111,112.226 C190.336,147.863 240.7324,194.8465 272.2384,224.2195 " fill="none" id="TutorialResetButton-to-Navigation" style="stroke:#181818;stroke-width:1.0;"/><polygon fill="#181818" points="276.627,228.311,272.7718,219.248,272.9698,224.9014,267.3165,225.0995,276.627,228.311" style="stroke:#181818;stroke-width:1.0;"/></g><!--link TutorialResetButton to TutorialSlice--><g id="link_TutorialResetButton_TutorialSlice"><path codeLine="36" d="M109.5,112.226 C109.5,136.842 109.5,162.825 109.5,189.932 " fill="none" id="TutorialResetButton-to-TutorialSlice" style="stroke:#181818;stroke-width:1.0;"/><polygon fill="#181818" points="109.5,195.932,113.5,186.932,109.5,190.932,105.5,186.932,109.5,195.932" style="stroke:#181818;stroke-width:1.0;"/></g><!--SRC=[VP71Ri8m38RlUOeSXr1VO8STW3EQODhTRQpEKeYhng19Y7Sd3MdQ84fkzHV__Umq5hpNFsVXdi3ggzBXL5fIuIZOwKzDJfx0ba-THK4JQCri4pwn0VjBdcgB9N5meHQ4s8NwFdz4kjP_u8p5FVxBnohm2vDHDwMQQ3VT3dwvEZeVBJLuJJaBtkjbxyGzIaQJmeEve3K4lb0R9GuO0ZPdaUZuVk9YvDZu9dW70dauahXLBpsvDXKD-gQdBlscGCCwlw6TjTnKVkcg-YfNMAAPxykMmKiL_H4VcCEgGAQq-MOMWf-l5B5t]--></g></svg>