<?xml version="1.0" encoding="us-ascii" standalone="no"?><svg xmlns="http://www.w3.org/2000/svg" xmlns:xlink="http://www.w3.org/1999/xlink" contentStyleType="text/css" height="424px" preserveAspectRatio="none" style="width:486px;height:424px;background:#FFFFFF;" version="1.1" viewBox="0 0 486 424" width="486px" zoomAndPan="magnify"><defs/><g><!--class Tutorial--><g id="elem_Tutorial"><rect codeLine="1" fill="#F1F1F1" height="129.4844" id="Tutorial" rx="2.5" ry="2.5" style="stroke:#181818;stroke-width:0.5;" width="205" x="7" y="7"/><ellipse cx="77.75" cy="23" fill="#ADD1B2" rx="11" ry="11" style="stroke:#181818;stroke-width:1.0;"/><path d="M80.0938,18.6719 C79.1563,18.2344 78.5625,18.0938 77.6875,18.0938 C75.0625,18.0938 73.0625,20.1719 73.0625,22.8906 L73.0625,24.0156 C73.0625,26.5938 75.1719,28.4844 78.0625,28.4844 C79.2813,28.4844 80.4375,28.1875 81.1875,27.6406 C81.7656,27.2344 82.0938,26.7813 82.0938,26.3906 C82.0938,25.9375 81.7031,25.5469 81.2344,25.5469 C81.0156,25.5469 80.8125,25.625 80.625,25.8125 C80.1719,26.2969 80.1719,26.2969 79.9844,26.3906 C79.5625,26.6563 78.875,26.7813 78.1094,26.7813 C76.0625,26.7813 74.7656,25.6875 74.7656,23.9844 L74.7656,22.8906 C74.7656,21.1094 76.0156,19.7969 77.75,19.7969 C78.3281,19.7969 78.9375,19.9531 79.4063,20.2031 C79.8906,20.4844 80.0625,20.7031 80.1563,21.1094 C80.2188,21.5156 80.25,21.6406 80.3906,21.7656 C80.5313,21.9063 80.7656,22.0156 80.9844,22.0156 C81.25,22.0156 81.5156,21.875 81.6875,21.6563 C81.7969,21.5 81.8281,21.3125 81.8281,20.8906 L81.8281,19.4688 C81.8281,19.0313 81.8125,18.9063 81.7188,18.75 C81.5625,18.4844 81.2813,18.3438 80.9844,18.3438 C80.6875,18.3438 80.4844,18.4375 80.2656,18.75 L80.0938,18.6719 Z " fill="#000000"/><text fill="#000000" font-family="sans-serif" font-size="14" lengthAdjust="spacing" textLength="55" x="98.25" y="27.8467">Tutorial</text><line style="stroke:#181818;stroke-width:0.5;" x1="8" x2="211" y1="39" y2="39"/><rect fill="none" height="6" style="stroke:#C82930;stroke-width:1.0;" width="6" x="15" y="49.6484"/><text fill="#000000" font-family="sans-serif" font-size="14" lengthAdjust="spacing" textLength="121" x="27" y="55.9951">tutorialStep : int</text><rect fill="none" height="6" style="stroke:#C82930;stroke-width:1.0;" width="6" x="15" y="65.9453"/><text fill="#000000" font-family="sans-serif" font-size="14" lengthAdjust="spacing" textLength="179" x="27" y="72.292">tutorialCompleted : bool</text><rect fill="none" height="6" style="stroke:#C82930;stroke-width:1.0;" width="6" x="15" y="82.2422"/><text fill="#000000" font-family="sans-serif" font-size="14" lengthAdjust="spacing" textLength="137" x="27" y="88.5889">modalVisible : bool</text><rect fill="none" height="6" style="stroke:#C82930;stroke-width:1.0;" width="6" x="15" y="98.5391"/><text fill="#000000" font-family="sans-serif" font-size="14" lengthAdjust="spacing" textLength="164" x="27" y="104.8857">navigation : Navigation</text><line style="stroke:#181818;stroke-width:0.5;" x1="8" x2="211" y1="112.1875" y2="112.1875"/><ellipse cx="18" cy="125.8359" fill="#84BE84" rx="3" ry="3" style="stroke:#038048;stroke-width:1.0;"/><text fill="#000000" font-family="sans-serif" font-size="14" lengthAdjust="spacing" textLength="135" x="27" y="129.1826">handleNext() : void</text></g><!--class Navigation--><g id="elem_Navigation"><rect codeLine="9" fill="#F1F1F1" height="48" id="Navigation" rx="2.5" ry="2.5" style="stroke:#181818;stroke-width:0.5;" width="108" x="70.5" y="228.5"/><ellipse cx="85.5" cy="244.5" fill="#ADD1B2" rx="11" ry="11" style="stroke:#181818;stroke-width:1.0;"/><path d="M87.8438,240.1719 C86.9063,239.7344 86.3125,239.5938 85.4375,239.5938 C82.8125,239.5938 80.8125,241.6719 80.8125,244.3906 L80.8125,245.5156 C80.8125,248.0938 82.9219,249.9844 85.8125,249.9844 C87.0313,249.9844 88.1875,249.6875 88.9375,249.1406 C89.5156,248.7344 89.8438,248.2813 89.8438,247.8906 C89.8438,247.4375 89.4531,247.0469 88.9844,247.0469 C88.7656,247.0469 88.5625,247.125 88.375,247.3125 C87.9219,247.7969 87.9219,247.7969 87.7344,247.8906 C87.3125,248.1563 86.625,248.2813 85.8594,248.2813 C83.8125,248.2813 82.5156,247.1875 82.5156,245.4844 L82.5156,244.3906 C82.5156,242.6094 83.7656,241.2969 85.5,241.2969 C86.0781,241.2969 86.6875,241.4531 87.1563,241.7031 C87.6406,241.9844 87.8125,242.2031 87.9063,242.6094 C87.9688,243.0156 88,243.1406 88.1406,243.2656 C88.2813,243.4063 88.5156,243.5156 88.7344,243.5156 C89,243.5156 89.2656,243.375 89.4375,243.1563 C89.5469,243 89.5781,242.8125 89.5781,242.3906 L89.5781,240.9688 C89.5781,240.5313 89.5625,240.4063 89.4688,240.25 C89.3125,239.9844 89.0313,239.8438 88.7344,239.8438 C88.4375,239.8438 88.2344,239.9375 88.0156,240.25 L87.8438,240.1719 Z " fill="#000000"/><text fill="#000000" font-family="sans-serif" font-size="14" lengthAdjust="spacing" textLength="76" x="99.5" y="249.3467">Navigation</text><line style="stroke:#181818;stroke-width:0.5;" x1="71.5" x2="177.5" y1="260.5" y2="260.5"/><line style="stroke:#181818;stroke-width:0.5;" x1="71.5" x2="177.5" y1="268.5" y2="268.5"/></g><!--class TutorialSlice--><g id="elem_TutorialSlice"><rect codeLine="13" fill="#F1F1F1" height="113.1875" id="TutorialSlice" rx="2.5" ry="2.5" style="stroke:#181818;stroke-width:0.5;" width="205" x="245" y="196"/><ellipse cx="298.75" cy="212" fill="#ADD1B2" rx="11" ry="11" style="stroke:#181818;stroke-width:1.0;"/><path d="M301.0938,207.6719 C300.1563,207.2344 299.5625,207.0938 298.6875,207.0938 C296.0625,207.0938 294.0625,209.1719 294.0625,211.8906 L294.0625,213.0156 C294.0625,215.5938 296.1719,217.4844 299.0625,217.4844 C300.2813,217.4844 301.4375,217.1875 302.1875,216.6406 C302.7656,216.2344 303.0938,215.7813 303.0938,215.3906 C303.0938,214.9375 302.7031,214.5469 302.2344,214.5469 C302.0156,214.5469 301.8125,214.625 301.625,214.8125 C301.1719,215.2969 301.1719,215.2969 300.9844,215.3906 C300.5625,215.6563 299.875,215.7813 299.1094,215.7813 C297.0625,215.7813 295.7656,214.6875 295.7656,212.9844 L295.7656,211.8906 C295.7656,210.1094 297.0156,208.7969 298.75,208.7969 C299.3281,208.7969 299.9375,208.9531 300.4063,209.2031 C300.8906,209.4844 301.0625,209.7031 301.1563,210.1094 C301.2188,210.5156 301.25,210.6406 301.3906,210.7656 C301.5313,210.9063 301.7656,211.0156 301.9844,211.0156 C302.25,211.0156 302.5156,210.875 302.6875,210.6563 C302.7969,210.5 302.8281,210.3125 302.8281,209.8906 L302.8281,208.4688 C302.8281,208.0313 302.8125,207.9063 302.7188,207.75 C302.5625,207.4844 302.2813,207.3438 301.9844,207.3438 C301.6875,207.3438 301.4844,207.4375 301.2656,207.75 L301.0938,207.6719 Z " fill="#000000"/><text fill="#000000" font-family="sans-serif" font-size="14" lengthAdjust="spacing" textLength="89" x="319.25" y="216.8467">TutorialSlice</text><line style="stroke:#181818;stroke-width:0.5;" x1="246" x2="449" y1="228" y2="228"/><ellipse cx="256" cy="241.6484" fill="none" rx="3" ry="3" style="stroke:#038048;stroke-width:1.0;"/><text fill="#000000" font-family="sans-serif" font-size="14" lengthAdjust="spacing" textLength="121" x="265" y="244.9951">tutorialStep : int</text><ellipse cx="256" cy="257.9453" fill="none" rx="3" ry="3" style="stroke:#038048;stroke-width:1.0;"/><text fill="#000000" font-family="sans-serif" font-size="14" lengthAdjust="spacing" textLength="179" x="265" y="261.292">tutorialCompleted : bool</text><line style="stroke:#181818;stroke-width:0.5;" x1="246" x2="449" y1="268.5938" y2="268.5938"/><ellipse cx="256" cy="282.2422" fill="#84BE84" rx="3" ry="3" style="stroke:#038048;stroke-width:1.0;"/><text fill="#000000" font-family="sans-serif" font-size="14" lengthAdjust="spacing" textLength="157" x="265" y="285.5889">setCompleted() : void</text><ellipse cx="256" cy="298.5391" fill="#84BE84" rx="3" ry="3" style="stroke:#038048;stroke-width:1.0;"/><text fill="#000000" font-family="sans-serif" font-size="14" lengthAdjust="spacing" textLength="121" x="265" y="301.8857">nextStep() : void</text></g><!--class TutorialResetButton--><g id="elem_TutorialResetButton"><rect codeLine="21" fill="#F1F1F1" height="80.5938" id="TutorialResetButton" rx="2.5" ry="2.5" style="stroke:#181818;stroke-width:0.5;" width="232" x="247.5" y="31"/><ellipse cx="286.35" cy="47" fill="#ADD1B2" rx="11" ry="11" style="stroke:#181818;stroke-width:1.0;"/><path d="M288.6938,42.6719 C287.7563,42.2344 287.1625,42.0938 286.2875,42.0938 C283.6625,42.0938 281.6625,44.1719 281.6625,46.8906 L281.6625,48.0156 C281.6625,50.5938 283.7719,52.4844 286.6625,52.4844 C287.8813,52.4844 289.0375,52.1875 289.7875,51.6406 C290.3656,51.2344 290.6938,50.7813 290.6938,50.3906 C290.6938,49.9375 290.3031,49.5469 289.8344,49.5469 C289.6156,49.5469 289.4125,49.625 289.225,49.8125 C288.7719,50.2969 288.7719,50.2969 288.5844,50.3906 C288.1625,50.6563 287.475,50.7813 286.7094,50.7813 C284.6625,50.7813 283.3656,49.6875 283.3656,47.9844 L283.3656,46.8906 C283.3656,45.1094 284.6156,43.7969 286.35,43.7969 C286.9281,43.7969 287.5375,43.9531 288.0063,44.2031 C288.4906,44.4844 288.6625,44.7031 288.7563,45.1094 C288.8188,45.5156 288.85,45.6406 288.9906,45.7656 C289.1313,45.9063 289.3656,46.0156 289.5844,46.0156 C289.85,46.0156 290.1156,45.875 290.2875,45.6563 C290.3969,45.5 290.4281,45.3125 290.4281,44.8906 L290.4281,43.4688 C290.4281,43.0313 290.4125,42.9063 290.3188,42.75 C290.1625,42.4844 289.8813,42.3438 289.5844,42.3438 C289.2875,42.3438 289.0844,42.4375 288.8656,42.75 L288.6938,42.6719 Z " fill="#000000"/><text fill="#000000" font-family="sans-serif" font-size="14" lengthAdjust="spacing" textLength="147" x="305.65" y="51.8467">TutorialResetButton</text><line style="stroke:#181818;stroke-width:0.5;" x1="248.5" x2="478.5" y1="63" y2="63"/><rect fill="none" height="6" style="stroke:#C82930;stroke-width:1.0;" width="6" x="255.5" y="73.6484"/><text fill="#000000" font-family="sans-serif" font-size="14" lengthAdjust="spacing" textLength="206" x="267.5" y="79.9951">navigation : ReactNavigation</text><line style="stroke:#181818;stroke-width:0.5;" x1="248.5" x2="478.5" y1="87.2969" y2="87.2969"/><ellipse cx="258.5" cy="100.9453" fill="#84BE84" rx="3" ry="3" style="stroke:#038048;stroke-width:1.0;"/><text fill="#000000" font-family="sans-serif" font-size="14" lengthAdjust="spacing" textLength="143" x="267.5" y="104.292">handleReset() : void</text></g><!--class RootState--><g id="elem_RootState"><rect fill="#F1F1F1" height="48" id="RootState" rx="2.5" ry="2.5" style="stroke:#181818;stroke-width:0.5;" width="107" x="294" y="369"/><ellipse cx="309" cy="385" fill="#ADD1B2" rx="11" ry="11" style="stroke:#181818;stroke-width:1.0;"/><path d="M311.3438,380.6719 C310.4063,380.2344 309.8125,380.0938 308.9375,380.0938 C306.3125,380.0938 304.3125,382.1719 304.3125,384.8906 L304.3125,386.0156 C304.3125,388.5938 306.4219,390.4844 309.3125,390.4844 C310.5313,390.4844 311.6875,390.1875 312.4375,389.6406 C313.0156,389.2344 313.3438,388.7813 313.3438,388.3906 C313.3438,387.9375 312.9531,387.5469 312.4844,387.5469 C312.2656,387.5469 312.0625,387.625 311.875,387.8125 C311.4219,388.2969 311.4219,388.2969 311.2344,388.3906 C310.8125,388.6563 310.125,388.7813 309.3594,388.7813 C307.3125,388.7813 306.0156,387.6875 306.0156,385.9844 L306.0156,384.8906 C306.0156,383.1094 307.2656,381.7969 309,381.7969 C309.5781,381.7969 310.1875,381.9531 310.6563,382.2031 C311.1406,382.4844 311.3125,382.7031 311.4063,383.1094 C311.4688,383.5156 311.5,383.6406 311.6406,383.7656 C311.7813,383.9063 312.0156,384.0156 312.2344,384.0156 C312.5,384.0156 312.7656,383.875 312.9375,383.6563 C313.0469,383.5 313.0781,383.3125 313.0781,382.8906 L313.0781,381.4688 C313.0781,381.0313 313.0625,380.9063 312.9688,380.75 C312.8125,380.4844 312.5313,380.3438 312.2344,380.3438 C311.9375,380.3438 311.7344,380.4375 311.5156,380.75 L311.3438,380.6719 Z " fill="#000000"/><text fill="#000000" font-family="sans-serif" font-size="14" lengthAdjust="spacing" textLength="75" x="323" y="389.8467">RootState</text><line style="stroke:#181818;stroke-width:0.5;" x1="295" x2="400" y1="401" y2="401"/><line style="stroke:#181818;stroke-width:0.5;" x1="295" x2="400" y1="409" y2="409"/></g><!--link Tutorial to TutorialSlice--><g id="link_Tutorial_TutorialSlice"><path codeLine="26" d="M194.08,136.113 C220,155.607 243.5089,173.2885 268.6689,192.2115 " fill="none" id="Tutorial-to-TutorialSlice" style="stroke:#181818;stroke-width:1.0;"/><polygon fill="#181818" points="273.464,195.818,268.6756,187.2115,269.468,192.8126,263.867,193.6051,273.464,195.818" style="stroke:#181818;stroke-width:1.0;"/></g><!--link Tutorial to Navigation--><g id="link_Tutorial_Navigation"><path codeLine="27" d="M114.831,136.113 C117.508,168.068 120.0889,198.861 122.0399,222.14 " fill="none" id="Tutorial-to-Navigation" style="stroke:#181818;stroke-width:1.0;"/><polygon fill="#181818" points="122.541,228.119,125.7754,218.8164,122.1234,223.1365,117.8033,219.4845,122.541,228.119" style="stroke:#181818;stroke-width:1.0;"/></g><!--link TutorialSlice to RootState--><g id="link_TutorialSlice_RootState"><path codeLine="28" d="M347.5,309.035 C347.5,329.9568 347.5,346.6181 347.5,362.9619 " fill="none" id="TutorialSlice-to-RootState" style="stroke:#181818;stroke-width:1.0;"/><polygon fill="#181818" points="347.5,368.9619,351.5,359.9619,347.5,363.9619,343.5,359.9619,347.5,368.9619" style="stroke:#181818;stroke-width:1.0;"/></g><!--link TutorialResetButton to Navigation--><g id="link_TutorialResetButton_Navigation"><path codeLine="29" d="M310.755,112.004 C263.191,147.627 199.6564,195.2112 160.3434,224.6552 " fill="none" id="TutorialResetButton-to-Navigation" style="stroke:#181818;stroke-width:1.0;"/><polygon fill="#181818" points="155.541,228.252,165.1425,226.0584,159.543,225.2547,160.3467,219.6552,155.541,228.252" style="stroke:#181818;stroke-width:1.0;"/></g><!--link TutorialResetButton to TutorialSlice--><g id="link_TutorialResetButton_TutorialSlice"><path codeLine="30" d="M359.949,112.226 C357.749,136.842 355.4242,162.8488 353.0012,189.9558 " fill="none" id="TutorialResetButton-to-TutorialSlice" style="stroke:#181818;stroke-width:1.0;"/><polygon fill="#181818" points="352.467,195.932,357.2524,187.3239,352.9122,190.9519,349.2842,186.6116,352.467,195.932" style="stroke:#181818;stroke-width:1.0;"/></g><!--SRC=[TP6n3e8m48PtdgAZXl023WwwCu1nBt3H9gL7x45CYE_kMGkq1DYux-xFzwUrbjQAMq_uKbABCH7yPOBye2Jen4aeGojmnRRJGD0mhH2rnoqsKj-LLPM6c1Wvg8SaXORd-VpZQ2gUqZGQSdZJuSXyGDKadoIfdTsopNuyzUD9kjIgXj47xOYd- -AUMw0PBGv_PjZh5xZXDaaKm06NdiX9RbGkGDOKz8wAk-imVNwGB3l7HMCK14PR3XQ8h2rfkGajTyxNAr7i5m00]--></g></svg>