<?xml version="1.0" encoding="us-ascii" standalone="no"?><svg xmlns="http://www.w3.org/2000/svg" xmlns:xlink="http://www.w3.org/1999/xlink" contentStyleType="text/css" height="424px" preserveAspectRatio="none" style="width:444px;height:424px;background:#FFFFFF;" version="1.1" viewBox="0 0 444 424" width="444px" zoomAndPan="magnify"><defs/><g><!--class Tutorial--><g id="elem_Tutorial"><rect codeLine="1" fill="#F1F1F1" height="129.4844" id="Tutorial" rx="2.5" ry="2.5" style="stroke:#181818;stroke-width:0.5;" width="205" x="7" y="7"/><ellipse cx="77.75" cy="23" fill="#ADD1B2" rx="11" ry="11" style="stroke:#181818;stroke-width:1.0;"/><path d="M80.0938,18.6719 C79.1563,18.2344 78.5625,18.0938 77.6875,18.0938 C75.0625,18.0938 73.0625,20.1719 73.0625,22.8906 L73.0625,24.0156 C73.0625,26.5938 75.1719,28.4844 78.0625,28.4844 C79.2813,28.4844 80.4375,28.1875 81.1875,27.6406 C81.7656,27.2344 82.0938,26.7813 82.0938,26.3906 C82.0938,25.9375 81.7031,25.5469 81.2344,25.5469 C81.0156,25.5469 80.8125,25.625 80.625,25.8125 C80.1719,26.2969 80.1719,26.2969 79.9844,26.3906 C79.5625,26.6563 78.875,26.7813 78.1094,26.7813 C76.0625,26.7813 74.7656,25.6875 74.7656,23.9844 L74.7656,22.8906 C74.7656,21.1094 76.0156,19.7969 77.75,19.7969 C78.3281,19.7969 78.9375,19.9531 79.4063,20.2031 C79.8906,20.4844 80.0625,20.7031 80.1563,21.1094 C80.2188,21.5156 80.25,21.6406 80.3906,21.7656 C80.5313,21.9063 80.7656,22.0156 80.9844,22.0156 C81.25,22.0156 81.5156,21.875 81.6875,21.6563 C81.7969,21.5 81.8281,21.3125 81.8281,20.8906 L81.8281,19.4688 C81.8281,19.0313 81.8125,18.9063 81.7188,18.75 C81.5625,18.4844 81.2813,18.3438 80.9844,18.3438 C80.6875,18.3438 80.4844,18.4375 80.2656,18.75 L80.0938,18.6719 Z " fill="#000000"/><text fill="#000000" font-family="sans-serif" font-size="14" lengthAdjust="spacing" textLength="55" x="98.25" y="27.8467">Tutorial</text><line style="stroke:#181818;stroke-width:0.5;" x1="8" x2="211" y1="39" y2="39"/><rect fill="none" height="6" style="stroke:#C82930;stroke-width:1.0;" width="6" x="15" y="49.6484"/><text fill="#000000" font-family="sans-serif" font-size="14" lengthAdjust="spacing" textLength="121" x="27" y="55.9951">tutorialStep : int</text><rect fill="none" height="6" style="stroke:#C82930;stroke-width:1.0;" width="6" x="15" y="65.9453"/><text fill="#000000" font-family="sans-serif" font-size="14" lengthAdjust="spacing" textLength="179" x="27" y="72.292">tutorialCompleted : bool</text><rect fill="none" height="6" style="stroke:#C82930;stroke-width:1.0;" width="6" x="15" y="82.2422"/><text fill="#000000" font-family="sans-serif" font-size="14" lengthAdjust="spacing" textLength="137" x="27" y="88.5889">modalVisible : bool</text><rect fill="none" height="6" style="stroke:#C82930;stroke-width:1.0;" width="6" x="15" y="98.5391"/><text fill="#000000" font-family="sans-serif" font-size="14" lengthAdjust="spacing" textLength="164" x="27" y="104.8857">navigation : Navigation</text><line style="stroke:#181818;stroke-width:0.5;" x1="8" x2="211" y1="112.1875" y2="112.1875"/><ellipse cx="18" cy="125.8359" fill="#84BE84" rx="3" ry="3" style="stroke:#038048;stroke-width:1.0;"/><text fill="#000000" font-family="sans-serif" font-size="14" lengthAdjust="spacing" textLength="135" x="27" y="129.1826">handleNext() : void</text></g><!--class Navigation--><g id="elem_Navigation"><rect codeLine="9" fill="#F1F1F1" height="48" id="Navigation" rx="2.5" ry="2.5" style="stroke:#181818;stroke-width:0.5;" width="108" x="65.5" y="228.5"/><ellipse cx="80.5" cy="244.5" fill="#ADD1B2" rx="11" ry="11" style="stroke:#181818;stroke-width:1.0;"/><path d="M82.8438,240.1719 C81.9063,239.7344 81.3125,239.5938 80.4375,239.5938 C77.8125,239.5938 75.8125,241.6719 75.8125,244.3906 L75.8125,245.5156 C75.8125,248.0938 77.9219,249.9844 80.8125,249.9844 C82.0313,249.9844 83.1875,249.6875 83.9375,249.1406 C84.5156,248.7344 84.8438,248.2813 84.8438,247.8906 C84.8438,247.4375 84.4531,247.0469 83.9844,247.0469 C83.7656,247.0469 83.5625,247.125 83.375,247.3125 C82.9219,247.7969 82.9219,247.7969 82.7344,247.8906 C82.3125,248.1563 81.625,248.2813 80.8594,248.2813 C78.8125,248.2813 77.5156,247.1875 77.5156,245.4844 L77.5156,244.3906 C77.5156,242.6094 78.7656,241.2969 80.5,241.2969 C81.0781,241.2969 81.6875,241.4531 82.1563,241.7031 C82.6406,241.9844 82.8125,242.2031 82.9063,242.6094 C82.9688,243.0156 83,243.1406 83.1406,243.2656 C83.2813,243.4063 83.5156,243.5156 83.7344,243.5156 C84,243.5156 84.2656,243.375 84.4375,243.1563 C84.5469,243 84.5781,242.8125 84.5781,242.3906 L84.5781,240.9688 C84.5781,240.5313 84.5625,240.4063 84.4688,240.25 C84.3125,239.9844 84.0313,239.8438 83.7344,239.8438 C83.4375,239.8438 83.2344,239.9375 83.0156,240.25 L82.8438,240.1719 Z " fill="#000000"/><text fill="#000000" font-family="sans-serif" font-size="14" lengthAdjust="spacing" textLength="76" x="94.5" y="249.3467">Navigation</text><line style="stroke:#181818;stroke-width:0.5;" x1="66.5" x2="172.5" y1="260.5" y2="260.5"/><line style="stroke:#181818;stroke-width:0.5;" x1="66.5" x2="172.5" y1="268.5" y2="268.5"/></g><!--class TutorialSlice--><g id="elem_TutorialSlice"><rect codeLine="13" fill="#F1F1F1" height="113.1875" id="TutorialSlice" rx="2.5" ry="2.5" style="stroke:#181818;stroke-width:0.5;" width="205" x="229" y="196"/><ellipse cx="282.75" cy="212" fill="#ADD1B2" rx="11" ry="11" style="stroke:#181818;stroke-width:1.0;"/><path d="M285.0938,207.6719 C284.1563,207.2344 283.5625,207.0938 282.6875,207.0938 C280.0625,207.0938 278.0625,209.1719 278.0625,211.8906 L278.0625,213.0156 C278.0625,215.5938 280.1719,217.4844 283.0625,217.4844 C284.2813,217.4844 285.4375,217.1875 286.1875,216.6406 C286.7656,216.2344 287.0938,215.7813 287.0938,215.3906 C287.0938,214.9375 286.7031,214.5469 286.2344,214.5469 C286.0156,214.5469 285.8125,214.625 285.625,214.8125 C285.1719,215.2969 285.1719,215.2969 284.9844,215.3906 C284.5625,215.6563 283.875,215.7813 283.1094,215.7813 C281.0625,215.7813 279.7656,214.6875 279.7656,212.9844 L279.7656,211.8906 C279.7656,210.1094 281.0156,208.7969 282.75,208.7969 C283.3281,208.7969 283.9375,208.9531 284.4063,209.2031 C284.8906,209.4844 285.0625,209.7031 285.1563,210.1094 C285.2188,210.5156 285.25,210.6406 285.3906,210.7656 C285.5313,210.9063 285.7656,211.0156 285.9844,211.0156 C286.25,211.0156 286.5156,210.875 286.6875,210.6563 C286.7969,210.5 286.8281,210.3125 286.8281,209.8906 L286.8281,208.4688 C286.8281,208.0313 286.8125,207.9063 286.7188,207.75 C286.5625,207.4844 286.2813,207.3438 285.9844,207.3438 C285.6875,207.3438 285.4844,207.4375 285.2656,207.75 L285.0938,207.6719 Z " fill="#000000"/><text fill="#000000" font-family="sans-serif" font-size="14" lengthAdjust="spacing" textLength="89" x="303.25" y="216.8467">TutorialSlice</text><line style="stroke:#181818;stroke-width:0.5;" x1="230" x2="433" y1="228" y2="228"/><ellipse cx="240" cy="241.6484" fill="none" rx="3" ry="3" style="stroke:#038048;stroke-width:1.0;"/><text fill="#000000" font-family="sans-serif" font-size="14" lengthAdjust="spacing" textLength="121" x="249" y="244.9951">tutorialStep : int</text><ellipse cx="240" cy="257.9453" fill="none" rx="3" ry="3" style="stroke:#038048;stroke-width:1.0;"/><text fill="#000000" font-family="sans-serif" font-size="14" lengthAdjust="spacing" textLength="179" x="249" y="261.292">tutorialCompleted : bool</text><line style="stroke:#181818;stroke-width:0.5;" x1="230" x2="433" y1="268.5938" y2="268.5938"/><ellipse cx="240" cy="282.2422" fill="#84BE84" rx="3" ry="3" style="stroke:#038048;stroke-width:1.0;"/><text fill="#000000" font-family="sans-serif" font-size="14" lengthAdjust="spacing" textLength="157" x="249" y="285.5889">setCompleted() : void</text><ellipse cx="240" cy="298.5391" fill="#84BE84" rx="3" ry="3" style="stroke:#038048;stroke-width:1.0;"/><text fill="#000000" font-family="sans-serif" font-size="14" lengthAdjust="spacing" textLength="121" x="249" y="301.8857">nextStep() : void</text></g><!--class TutorialResetButton--><g id="elem_TutorialResetButton"><rect codeLine="21" fill="#F1F1F1" height="80.5938" id="TutorialResetButton" rx="2.5" ry="2.5" style="stroke:#181818;stroke-width:0.5;" width="190" x="247.5" y="31"/><ellipse cx="267.45" cy="47" fill="#ADD1B2" rx="11" ry="11" style="stroke:#181818;stroke-width:1.0;"/><path d="M269.7938,42.6719 C268.8563,42.2344 268.2625,42.0938 267.3875,42.0938 C264.7625,42.0938 262.7625,44.1719 262.7625,46.8906 L262.7625,48.0156 C262.7625,50.5938 264.8719,52.4844 267.7625,52.4844 C268.9813,52.4844 270.1375,52.1875 270.8875,51.6406 C271.4656,51.2344 271.7938,50.7813 271.7938,50.3906 C271.7938,49.9375 271.4031,49.5469 270.9344,49.5469 C270.7156,49.5469 270.5125,49.625 270.325,49.8125 C269.8719,50.2969 269.8719,50.2969 269.6844,50.3906 C269.2625,50.6563 268.575,50.7813 267.8094,50.7813 C265.7625,50.7813 264.4656,49.6875 264.4656,47.9844 L264.4656,46.8906 C264.4656,45.1094 265.7156,43.7969 267.45,43.7969 C268.0281,43.7969 268.6375,43.9531 269.1063,44.2031 C269.5906,44.4844 269.7625,44.7031 269.8563,45.1094 C269.9188,45.5156 269.95,45.6406 270.0906,45.7656 C270.2313,45.9063 270.4656,46.0156 270.6844,46.0156 C270.95,46.0156 271.2156,45.875 271.3875,45.6563 C271.4969,45.5 271.5281,45.3125 271.5281,44.8906 L271.5281,43.4688 C271.5281,43.0313 271.5125,42.9063 271.4188,42.75 C271.2625,42.4844 270.9813,42.3438 270.6844,42.3438 C270.3875,42.3438 270.1844,42.4375 269.9656,42.75 L269.7938,42.6719 Z " fill="#000000"/><text fill="#000000" font-family="sans-serif" font-size="14" lengthAdjust="spacing" textLength="147" x="282.55" y="51.8467">TutorialResetButton</text><line style="stroke:#181818;stroke-width:0.5;" x1="248.5" x2="436.5" y1="63" y2="63"/><rect fill="none" height="6" style="stroke:#C82930;stroke-width:1.0;" width="6" x="255.5" y="73.6484"/><text fill="#000000" font-family="sans-serif" font-size="14" lengthAdjust="spacing" textLength="164" x="267.5" y="79.9951">navigation : Navigation</text><line style="stroke:#181818;stroke-width:0.5;" x1="248.5" x2="436.5" y1="87.2969" y2="87.2969"/><ellipse cx="258.5" cy="100.9453" fill="#84BE84" rx="3" ry="3" style="stroke:#038048;stroke-width:1.0;"/><text fill="#000000" font-family="sans-serif" font-size="14" lengthAdjust="spacing" textLength="143" x="267.5" y="104.292">handleReset() : void</text></g><!--class RootState--><g id="elem_RootState"><rect fill="#F1F1F1" height="48" id="RootState" rx="2.5" ry="2.5" style="stroke:#181818;stroke-width:0.5;" width="107" x="278" y="369"/><ellipse cx="293" cy="385" fill="#ADD1B2" rx="11" ry="11" style="stroke:#181818;stroke-width:1.0;"/><path d="M295.3438,380.6719 C294.4063,380.2344 293.8125,380.0938 292.9375,380.0938 C290.3125,380.0938 288.3125,382.1719 288.3125,384.8906 L288.3125,386.0156 C288.3125,388.5938 290.4219,390.4844 293.3125,390.4844 C294.5313,390.4844 295.6875,390.1875 296.4375,389.6406 C297.0156,389.2344 297.3438,388.7813 297.3438,388.3906 C297.3438,387.9375 296.9531,387.5469 296.4844,387.5469 C296.2656,387.5469 296.0625,387.625 295.875,387.8125 C295.4219,388.2969 295.4219,388.2969 295.2344,388.3906 C294.8125,388.6563 294.125,388.7813 293.3594,388.7813 C291.3125,388.7813 290.0156,387.6875 290.0156,385.9844 L290.0156,384.8906 C290.0156,383.1094 291.2656,381.7969 293,381.7969 C293.5781,381.7969 294.1875,381.9531 294.6563,382.2031 C295.1406,382.4844 295.3125,382.7031 295.4063,383.1094 C295.4688,383.5156 295.5,383.6406 295.6406,383.7656 C295.7813,383.9063 296.0156,384.0156 296.2344,384.0156 C296.5,384.0156 296.7656,383.875 296.9375,383.6563 C297.0469,383.5 297.0781,383.3125 297.0781,382.8906 L297.0781,381.4688 C297.0781,381.0313 297.0625,380.9063 296.9688,380.75 C296.8125,380.4844 296.5313,380.3438 296.2344,380.3438 C295.9375,380.3438 295.7344,380.4375 295.5156,380.75 L295.3438,380.6719 Z " fill="#000000"/><text fill="#000000" font-family="sans-serif" font-size="14" lengthAdjust="spacing" textLength="75" x="307" y="389.8467">RootState</text><line style="stroke:#181818;stroke-width:0.5;" x1="279" x2="384" y1="401" y2="401"/><line style="stroke:#181818;stroke-width:0.5;" x1="279" x2="384" y1="409" y2="409"/></g><!--link Tutorial to TutorialSlice--><g id="link_Tutorial_TutorialSlice"><path codeLine="26" d="M188.394,136.113 C212.572,155.607 234.3022,173.1289 257.7712,192.0519 " fill="none" id="Tutorial-to-TutorialSlice" style="stroke:#181818;stroke-width:1.0;"/><polygon fill="#181818" points="262.442,195.818,257.9465,187.055,258.5496,192.6796,252.925,193.2828,262.442,195.818" style="stroke:#181818;stroke-width:1.0;"/></g><!--link Tutorial to Navigation--><g id="link_Tutorial_Navigation"><path codeLine="27" d="M113.054,136.113 C114.839,168.068 116.5582,198.8493 117.8592,222.1283 " fill="none" id="Tutorial-to-Navigation" style="stroke:#181818;stroke-width:1.0;"/><polygon fill="#181818" points="118.194,228.119,121.6856,218.9098,117.915,223.1268,113.698,219.3562,118.194,228.119" style="stroke:#181818;stroke-width:1.0;"/></g><!--link TutorialSlice to RootState--><g id="link_TutorialSlice_RootState"><path codeLine="28" d="M331.5,309.035 C331.5,329.9568 331.5,346.6181 331.5,362.9619 " fill="none" id="TutorialSlice-to-RootState" style="stroke:#181818;stroke-width:1.0;"/><polygon fill="#181818" points="331.5,368.9619,335.5,359.9619,331.5,363.9619,327.5,359.9619,331.5,368.9619" style="stroke:#181818;stroke-width:1.0;"/></g><!--link TutorialResetButton to Navigation--><g id="link_TutorialResetButton_Navigation"><path codeLine="29" d="M293.286,112.004 C248.906,147.627 189.823,195.0521 153.142,224.4961 " fill="none" id="TutorialResetButton-to-Navigation" style="stroke:#181818;stroke-width:1.0;"/><polygon fill="#181818" points="148.463,228.252,157.9855,225.7375,152.3622,225.1221,152.9776,219.4988,148.463,228.252" style="stroke:#181818;stroke-width:1.0;"/></g><!--link TutorialResetButton to TutorialSlice--><g id="link_TutorialResetButton_TutorialSlice"><path codeLine="30" d="M340.059,112.226 C338.546,136.842 336.9491,162.8363 335.2831,189.9433 " fill="none" id="TutorialResetButton-to-TutorialSlice" style="stroke:#181818;stroke-width:1.0;"/><polygon fill="#181818" points="334.915,195.932,339.4596,187.1943,335.2217,190.9414,331.4746,186.7036,334.915,195.932" style="stroke:#181818;stroke-width:1.0;"/></g><!--SRC=[VP7B3e8m44NtV4MN6i8Fk72XUnPWt1SwqIQbG-n0J8Z_xbZBeqHanpqpDsVIsaZdnAKZV6Xfn908_Z918IW9Md4Gsj8AdB5f3H0efXMY2RX19SrLErqPY8cLlRv9qcWvpwSVJrDnbrOPoE59kptp7hLANabIUxjvclqu3V4eNHfTmn2ADiJJRV707T24PeSli-prAVpXDaeKm0MdZiXB_ZyvkjalBekdjyYoOtnZZ1Q5qPI71I8RIvftbe8Rw-kHgFOD]--></g></svg>