<?xml version="1.0" encoding="us-ascii" standalone="no"?><svg xmlns="http://www.w3.org/2000/svg" xmlns:xlink="http://www.w3.org/1999/xlink" contentStyleType="text/css" height="491px" preserveAspectRatio="none" style="width:752px;height:491px;background:#FFFFFF;" version="1.1" viewBox="0 0 752 491" width="752px" zoomAndPan="magnify"><defs/><g><!--class Tutorial--><g id="elem_Tutorial"><rect codeLine="1" fill="#F1F1F1" height="145.7813" id="Tutorial" rx="2.5" ry="2.5" style="stroke:#181818;stroke-width:0.5;" width="205" x="411" y="7"/><ellipse cx="481.75" cy="23" fill="#ADD1B2" rx="11" ry="11" style="stroke:#181818;stroke-width:1.0;"/><path d="M484.0938,18.6719 C483.1563,18.2344 482.5625,18.0938 481.6875,18.0938 C479.0625,18.0938 477.0625,20.1719 477.0625,22.8906 L477.0625,24.0156 C477.0625,26.5938 479.1719,28.4844 482.0625,28.4844 C483.2813,28.4844 484.4375,28.1875 485.1875,27.6406 C485.7656,27.2344 486.0938,26.7813 486.0938,26.3906 C486.0938,25.9375 485.7031,25.5469 485.2344,25.5469 C485.0156,25.5469 484.8125,25.625 484.625,25.8125 C484.1719,26.2969 484.1719,26.2969 483.9844,26.3906 C483.5625,26.6563 482.875,26.7813 482.1094,26.7813 C480.0625,26.7813 478.7656,25.6875 478.7656,23.9844 L478.7656,22.8906 C478.7656,21.1094 480.0156,19.7969 481.75,19.7969 C482.3281,19.7969 482.9375,19.9531 483.4063,20.2031 C483.8906,20.4844 484.0625,20.7031 484.1563,21.1094 C484.2188,21.5156 484.25,21.6406 484.3906,21.7656 C484.5313,21.9063 484.7656,22.0156 484.9844,22.0156 C485.25,22.0156 485.5156,21.875 485.6875,21.6563 C485.7969,21.5 485.8281,21.3125 485.8281,20.8906 L485.8281,19.4688 C485.8281,19.0313 485.8125,18.9063 485.7188,18.75 C485.5625,18.4844 485.2813,18.3438 484.9844,18.3438 C484.6875,18.3438 484.4844,18.4375 484.2656,18.75 L484.0938,18.6719 Z " fill="#000000"/><text fill="#000000" font-family="sans-serif" font-size="14" lengthAdjust="spacing" textLength="55" x="502.25" y="27.8467">Tutorial</text><line style="stroke:#181818;stroke-width:0.5;" x1="412" x2="615" y1="39" y2="39"/><rect fill="none" height="6" style="stroke:#C82930;stroke-width:1.0;" width="6" x="419" y="49.6484"/><text fill="#000000" font-family="sans-serif" font-size="14" lengthAdjust="spacing" textLength="121" x="431" y="55.9951">tutorialStep : int</text><rect fill="none" height="6" style="stroke:#C82930;stroke-width:1.0;" width="6" x="419" y="65.9453"/><text fill="#000000" font-family="sans-serif" font-size="14" lengthAdjust="spacing" textLength="179" x="431" y="72.292">tutorialCompleted : bool</text><rect fill="none" height="6" style="stroke:#C82930;stroke-width:1.0;" width="6" x="419" y="82.2422"/><text fill="#000000" font-family="sans-serif" font-size="14" lengthAdjust="spacing" textLength="137" x="431" y="88.5889">modalVisible : bool</text><rect fill="none" height="6" style="stroke:#C82930;stroke-width:1.0;" width="6" x="419" y="98.5391"/><text fill="#000000" font-family="sans-serif" font-size="14" lengthAdjust="spacing" textLength="164" x="431" y="104.8857">navigation : Navigation</text><line style="stroke:#181818;stroke-width:0.5;" x1="412" x2="615" y1="112.1875" y2="112.1875"/><ellipse cx="422" cy="125.8359" fill="#84BE84" rx="3" ry="3" style="stroke:#038048;stroke-width:1.0;"/><text fill="#000000" font-family="sans-serif" font-size="14" lengthAdjust="spacing" textLength="135" x="431" y="129.1826">handleNext() : void</text><ellipse cx="422" cy="142.1328" fill="#84BE84" rx="3" ry="3" style="stroke:#038048;stroke-width:1.0;"/><text fill="#000000" font-family="sans-serif" font-size="14" lengthAdjust="spacing" textLength="161" x="431" y="145.4795">handlePrevious() : void</text></g><!--class Navigation--><g id="elem_Navigation"><rect codeLine="10" fill="#F1F1F1" height="48" id="Navigation" rx="2.5" ry="2.5" style="stroke:#181818;stroke-width:0.5;" width="108" x="366.5" y="270.5"/><ellipse cx="381.5" cy="286.5" fill="#ADD1B2" rx="11" ry="11" style="stroke:#181818;stroke-width:1.0;"/><path d="M383.8438,282.1719 C382.9063,281.7344 382.3125,281.5938 381.4375,281.5938 C378.8125,281.5938 376.8125,283.6719 376.8125,286.3906 L376.8125,287.5156 C376.8125,290.0938 378.9219,291.9844 381.8125,291.9844 C383.0313,291.9844 384.1875,291.6875 384.9375,291.1406 C385.5156,290.7344 385.8438,290.2813 385.8438,289.8906 C385.8438,289.4375 385.4531,289.0469 384.9844,289.0469 C384.7656,289.0469 384.5625,289.125 384.375,289.3125 C383.9219,289.7969 383.9219,289.7969 383.7344,289.8906 C383.3125,290.1563 382.625,290.2813 381.8594,290.2813 C379.8125,290.2813 378.5156,289.1875 378.5156,287.4844 L378.5156,286.3906 C378.5156,284.6094 379.7656,283.2969 381.5,283.2969 C382.0781,283.2969 382.6875,283.4531 383.1563,283.7031 C383.6406,283.9844 383.8125,284.2031 383.9063,284.6094 C383.9688,285.0156 384,285.1406 384.1406,285.2656 C384.2813,285.4063 384.5156,285.5156 384.7344,285.5156 C385,285.5156 385.2656,285.375 385.4375,285.1563 C385.5469,285 385.5781,284.8125 385.5781,284.3906 L385.5781,282.9688 C385.5781,282.5313 385.5625,282.4063 385.4688,282.25 C385.3125,281.9844 385.0313,281.8438 384.7344,281.8438 C384.4375,281.8438 384.2344,281.9375 384.0156,282.25 L383.8438,282.1719 Z " fill="#000000"/><text fill="#000000" font-family="sans-serif" font-size="14" lengthAdjust="spacing" textLength="76" x="395.5" y="291.3467">Navigation</text><line style="stroke:#181818;stroke-width:0.5;" x1="367.5" x2="473.5" y1="302.5" y2="302.5"/><line style="stroke:#181818;stroke-width:0.5;" x1="367.5" x2="473.5" y1="310.5" y2="310.5"/></g><!--class TutorialSlice--><g id="elem_TutorialSlice"><rect codeLine="13" fill="#F1F1F1" height="129.4844" id="TutorialSlice" rx="2.5" ry="2.5" style="stroke:#181818;stroke-width:0.5;" width="205" x="7" y="230"/><ellipse cx="60.75" cy="246" fill="#ADD1B2" rx="11" ry="11" style="stroke:#181818;stroke-width:1.0;"/><path d="M63.0938,241.6719 C62.1563,241.2344 61.5625,241.0938 60.6875,241.0938 C58.0625,241.0938 56.0625,243.1719 56.0625,245.8906 L56.0625,247.0156 C56.0625,249.5938 58.1719,251.4844 61.0625,251.4844 C62.2813,251.4844 63.4375,251.1875 64.1875,250.6406 C64.7656,250.2344 65.0938,249.7813 65.0938,249.3906 C65.0938,248.9375 64.7031,248.5469 64.2344,248.5469 C64.0156,248.5469 63.8125,248.625 63.625,248.8125 C63.1719,249.2969 63.1719,249.2969 62.9844,249.3906 C62.5625,249.6563 61.875,249.7813 61.1094,249.7813 C59.0625,249.7813 57.7656,248.6875 57.7656,246.9844 L57.7656,245.8906 C57.7656,244.1094 59.0156,242.7969 60.75,242.7969 C61.3281,242.7969 61.9375,242.9531 62.4063,243.2031 C62.8906,243.4844 63.0625,243.7031 63.1563,244.1094 C63.2188,244.5156 63.25,244.6406 63.3906,244.7656 C63.5313,244.9063 63.7656,245.0156 63.9844,245.0156 C64.25,245.0156 64.5156,244.875 64.6875,244.6563 C64.7969,244.5 64.8281,244.3125 64.8281,243.8906 L64.8281,242.4688 C64.8281,242.0313 64.8125,241.9063 64.7188,241.75 C64.5625,241.4844 64.2813,241.3438 63.9844,241.3438 C63.6875,241.3438 63.4844,241.4375 63.2656,241.75 L63.0938,241.6719 Z " fill="#000000"/><text fill="#000000" font-family="sans-serif" font-size="14" lengthAdjust="spacing" textLength="89" x="81.25" y="250.8467">TutorialSlice</text><line style="stroke:#181818;stroke-width:0.5;" x1="8" x2="211" y1="262" y2="262"/><ellipse cx="18" cy="275.6484" fill="none" rx="3" ry="3" style="stroke:#038048;stroke-width:1.0;"/><text fill="#000000" font-family="sans-serif" font-size="14" lengthAdjust="spacing" textLength="121" x="27" y="278.9951">tutorialStep : int</text><ellipse cx="18" cy="291.9453" fill="none" rx="3" ry="3" style="stroke:#038048;stroke-width:1.0;"/><text fill="#000000" font-family="sans-serif" font-size="14" lengthAdjust="spacing" textLength="179" x="27" y="295.292">tutorialCompleted : bool</text><line style="stroke:#181818;stroke-width:0.5;" x1="8" x2="211" y1="302.5938" y2="302.5938"/><ellipse cx="18" cy="316.2422" fill="#84BE84" rx="3" ry="3" style="stroke:#038048;stroke-width:1.0;"/><text fill="#000000" font-family="sans-serif" font-size="14" lengthAdjust="spacing" textLength="157" x="27" y="319.5889">setCompleted() : void</text><ellipse cx="18" cy="332.5391" fill="#84BE84" rx="3" ry="3" style="stroke:#038048;stroke-width:1.0;"/><text fill="#000000" font-family="sans-serif" font-size="14" lengthAdjust="spacing" textLength="121" x="27" y="335.8857">nextStep() : void</text><ellipse cx="18" cy="348.8359" fill="#84BE84" rx="3" ry="3" style="stroke:#038048;stroke-width:1.0;"/><text fill="#000000" font-family="sans-serif" font-size="14" lengthAdjust="spacing" textLength="149" x="27" y="352.1826">previousStep() : void</text></g><!--class TutorialResetButton--><g id="elem_TutorialResetButton"><rect codeLine="22" fill="#F1F1F1" height="80.5938" id="TutorialResetButton" rx="2.5" ry="2.5" style="stroke:#181818;stroke-width:0.5;" width="190" x="17.5" y="39.5"/><ellipse cx="37.45" cy="55.5" fill="#ADD1B2" rx="11" ry="11" style="stroke:#181818;stroke-width:1.0;"/><path d="M39.7938,51.1719 C38.8563,50.7344 38.2625,50.5938 37.3875,50.5938 C34.7625,50.5938 32.7625,52.6719 32.7625,55.3906 L32.7625,56.5156 C32.7625,59.0938 34.8719,60.9844 37.7625,60.9844 C38.9813,60.9844 40.1375,60.6875 40.8875,60.1406 C41.4656,59.7344 41.7938,59.2813 41.7938,58.8906 C41.7938,58.4375 41.4031,58.0469 40.9344,58.0469 C40.7156,58.0469 40.5125,58.125 40.325,58.3125 C39.8719,58.7969 39.8719,58.7969 39.6844,58.8906 C39.2625,59.1563 38.575,59.2813 37.8094,59.2813 C35.7625,59.2813 34.4656,58.1875 34.4656,56.4844 L34.4656,55.3906 C34.4656,53.6094 35.7156,52.2969 37.45,52.2969 C38.0281,52.2969 38.6375,52.4531 39.1063,52.7031 C39.5906,52.9844 39.7625,53.2031 39.8563,53.6094 C39.9188,54.0156 39.95,54.1406 40.0906,54.2656 C40.2313,54.4063 40.4656,54.5156 40.6844,54.5156 C40.95,54.5156 41.2156,54.375 41.3875,54.1563 C41.4969,54 41.5281,53.8125 41.5281,53.3906 L41.5281,51.9688 C41.5281,51.5313 41.5125,51.4063 41.4188,51.25 C41.2625,50.9844 40.9813,50.8438 40.6844,50.8438 C40.3875,50.8438 40.1844,50.9375 39.9656,51.25 L39.7938,51.1719 Z " fill="#000000"/><text fill="#000000" font-family="sans-serif" font-size="14" lengthAdjust="spacing" textLength="147" x="52.55" y="60.3467">TutorialResetButton</text><line style="stroke:#181818;stroke-width:0.5;" x1="18.5" x2="206.5" y1="71.5" y2="71.5"/><rect fill="none" height="6" style="stroke:#C82930;stroke-width:1.0;" width="6" x="25.5" y="82.1484"/><text fill="#000000" font-family="sans-serif" font-size="14" lengthAdjust="spacing" textLength="164" x="37.5" y="88.4951">navigation : Navigation</text><line style="stroke:#181818;stroke-width:0.5;" x1="18.5" x2="206.5" y1="95.7969" y2="95.7969"/><ellipse cx="28.5" cy="109.4453" fill="#84BE84" rx="3" ry="3" style="stroke:#038048;stroke-width:1.0;"/><text fill="#000000" font-family="sans-serif" font-size="14" lengthAdjust="spacing" textLength="143" x="37.5" y="112.792">handleReset() : void</text></g><!--class TutorialData--><g id="elem_TutorialData"><rect codeLine="28" fill="#F1F1F1" height="113.1875" id="TutorialData" rx="2.5" ry="2.5" style="stroke:#181818;stroke-width:0.5;" width="176" x="569.5" y="238"/><ellipse cx="609.25" cy="254" fill="#ADD1B2" rx="11" ry="11" style="stroke:#181818;stroke-width:1.0;"/><path d="M611.5938,249.6719 C610.6563,249.2344 610.0625,249.0938 609.1875,249.0938 C606.5625,249.0938 604.5625,251.1719 604.5625,253.8906 L604.5625,255.0156 C604.5625,257.5938 606.6719,259.4844 609.5625,259.4844 C610.7813,259.4844 611.9375,259.1875 612.6875,258.6406 C613.2656,258.2344 613.5938,257.7813 613.5938,257.3906 C613.5938,256.9375 613.2031,256.5469 612.7344,256.5469 C612.5156,256.5469 612.3125,256.625 612.125,256.8125 C611.6719,257.2969 611.6719,257.2969 611.4844,257.3906 C611.0625,257.6563 610.375,257.7813 609.6094,257.7813 C607.5625,257.7813 606.2656,256.6875 606.2656,254.9844 L606.2656,253.8906 C606.2656,252.1094 607.5156,250.7969 609.25,250.7969 C609.8281,250.7969 610.4375,250.9531 610.9063,251.2031 C611.3906,251.4844 611.5625,251.7031 611.6563,252.1094 C611.7188,252.5156 611.75,252.6406 611.8906,252.7656 C612.0313,252.9063 612.2656,253.0156 612.4844,253.0156 C612.75,253.0156 613.0156,252.875 613.1875,252.6563 C613.2969,252.5 613.3281,252.3125 613.3281,251.8906 L613.3281,250.4688 C613.3281,250.0313 613.3125,249.9063 613.2188,249.75 C613.0625,249.4844 612.7813,249.3438 612.4844,249.3438 C612.1875,249.3438 611.9844,249.4375 611.7656,249.75 L611.5938,249.6719 Z " fill="#000000"/><text fill="#000000" font-family="sans-serif" font-size="14" lengthAdjust="spacing" textLength="89" x="628.75" y="258.8467">TutorialData</text><line style="stroke:#181818;stroke-width:0.5;" x1="570.5" x2="744.5" y1="270" y2="270"/><ellipse cx="580.5" cy="283.6484" fill="none" rx="3" ry="3" style="stroke:#038048;stroke-width:1.0;"/><text fill="#000000" font-family="sans-serif" font-size="14" lengthAdjust="spacing" textLength="86" x="589.5" y="286.9951">title : string</text><ellipse cx="580.5" cy="299.9453" fill="none" rx="3" ry="3" style="stroke:#038048;stroke-width:1.0;"/><text fill="#000000" font-family="sans-serif" font-size="14" lengthAdjust="spacing" textLength="137" x="589.5" y="303.292">description : string</text><ellipse cx="580.5" cy="316.2422" fill="none" rx="3" ry="3" style="stroke:#038048;stroke-width:1.0;"/><text fill="#000000" font-family="sans-serif" font-size="14" lengthAdjust="spacing" textLength="124" x="589.5" y="319.5889">NextPage : string</text><ellipse cx="580.5" cy="332.5391" fill="none" rx="3" ry="3" style="stroke:#038048;stroke-width:1.0;"/><text fill="#000000" font-family="sans-serif" font-size="14" lengthAdjust="spacing" textLength="150" x="589.5" y="335.8857">PreviousPage : string</text><line style="stroke:#181818;stroke-width:0.5;" x1="570.5" x2="744.5" y1="343.1875" y2="343.1875"/></g><!--class Redux--><g id="elem_Redux"><rect fill="#F1F1F1" height="48" id="Redux" rx="2.5" ry="2.5" style="stroke:#181818;stroke-width:0.5;" width="76" x="71.5" y="436"/><ellipse cx="86.5" cy="452" fill="#ADD1B2" rx="11" ry="11" style="stroke:#181818;stroke-width:1.0;"/><path d="M88.8438,447.6719 C87.9063,447.2344 87.3125,447.0938 86.4375,447.0938 C83.8125,447.0938 81.8125,449.1719 81.8125,451.8906 L81.8125,453.0156 C81.8125,455.5938 83.9219,457.4844 86.8125,457.4844 C88.0313,457.4844 89.1875,457.1875 89.9375,456.6406 C90.5156,456.2344 90.8438,455.7813 90.8438,455.3906 C90.8438,454.9375 90.4531,454.5469 89.9844,454.5469 C89.7656,454.5469 89.5625,454.625 89.375,454.8125 C88.9219,455.2969 88.9219,455.2969 88.7344,455.3906 C88.3125,455.6563 87.625,455.7813 86.8594,455.7813 C84.8125,455.7813 83.5156,454.6875 83.5156,452.9844 L83.5156,451.8906 C83.5156,450.1094 84.7656,448.7969 86.5,448.7969 C87.0781,448.7969 87.6875,448.9531 88.1563,449.2031 C88.6406,449.4844 88.8125,449.7031 88.9063,450.1094 C88.9688,450.5156 89,450.6406 89.1406,450.7656 C89.2813,450.9063 89.5156,451.0156 89.7344,451.0156 C90,451.0156 90.2656,450.875 90.4375,450.6563 C90.5469,450.5 90.5781,450.3125 90.5781,449.8906 L90.5781,448.4688 C90.5781,448.0313 90.5625,447.9063 90.4688,447.75 C90.3125,447.4844 90.0313,447.3438 89.7344,447.3438 C89.4375,447.3438 89.2344,447.4375 89.0156,447.75 L88.8438,447.6719 Z " fill="#000000"/><text fill="#000000" font-family="sans-serif" font-size="14" lengthAdjust="spacing" textLength="44" x="100.5" y="456.8467">Redux</text><line style="stroke:#181818;stroke-width:0.5;" x1="72.5" x2="146.5" y1="468" y2="468"/><line style="stroke:#181818;stroke-width:0.5;" x1="72.5" x2="146.5" y1="476" y2="476"/></g><!--link Tutorial to TutorialSlice--><g id="link_Tutorial_TutorialSlice"><path codeLine="34" d="M405.5279,134.3201 C373.2689,150.4861 342.965,165.927 310.5,183 C278.339,199.913 248.8224,215.913 217.3884,233.229 " fill="none" id="Tutorial-TutorialSlice" style="stroke:#181818;stroke-width:1.0;"/><polygon fill="#181818" points="410.892,131.632,401.0537,132.0881,406.4219,133.8721,404.6379,139.2403,410.892,131.632" style="stroke:#181818;stroke-width:1.0;"/><polygon fill="#181818" points="212.133,236.124,221.9461,235.2851,216.5125,233.7115,218.086,228.2779,212.133,236.124" style="stroke:#181818;stroke-width:1.0;"/><text fill="#000000" font-family="sans-serif" font-size="13" lengthAdjust="spacing" textLength="154" x="311.5" y="196.0669">Reads and handles step</text></g><!--link Tutorial to Navigation--><g id="link_Tutorial_Navigation"><path codeLine="35" d="M492.557,153.017 C487.254,168.735 481.152,185.113 474.5,200 C463.335,224.987 450.5445,246.8118 438.8615,265.3138 " fill="none" id="Tutorial-to-Navigation" style="stroke:#181818;stroke-width:1.0;"/><polygon fill="#181818" points="435.658,270.387,443.8454,264.9128,438.3276,266.1593,437.081,260.6415,435.658,270.387" style="stroke:#181818;stroke-width:1.0;"/><text fill="#000000" font-family="sans-serif" font-size="13" lengthAdjust="spacing" textLength="102" x="482.5" y="196.0669">Navigates using</text></g><!--link Tutorial to TutorialData--><g id="link_Tutorial_TutorialData"><path codeLine="36" d="M572.02,153.061 C579.467,162.963 586.814,173.122 593.5,183 C605.243,200.349 614.0562,214.7404 624.2632,232.5634 " fill="none" id="Tutorial-to-TutorialData" style="stroke:#181818;stroke-width:1.0;"/><polygon fill="#181818" points="627.245,237.77,626.2434,227.9722,624.7602,233.4311,619.3013,231.9479,627.245,237.77" style="stroke:#181818;stroke-width:1.0;"/><text fill="#000000" font-family="sans-serif" font-size="13" lengthAdjust="spacing" textLength="135" x="604.5" y="196.0669">Reads step info from</text></g><!--link TutorialSlice to Redux--><g id="link_TutorialSlice_Redux"><path codeLine="37" d="M109.5,359.182 C109.5,386.0808 109.5,409.7274 109.5,429.6667 " fill="none" id="TutorialSlice-to-Redux" style="stroke:#181818;stroke-width:1.0;"/><polygon fill="#181818" points="109.5,435.6667,113.5,426.6667,109.5,430.6667,105.5,426.6667,109.5,435.6667" style="stroke:#181818;stroke-width:1.0;"/><text fill="#000000" font-family="sans-serif" font-size="13" lengthAdjust="spacing" textLength="56" x="110.5" y="402.0669">Stores in</text></g><!--link TutorialResetButton to Navigation--><g id="link_TutorialResetButton_Navigation"><path codeLine="38" d="M123.34,120.509 C132.225,146.233 147.197,178.825 170.5,200 C185.547,213.673 291.7681,250.6351 360.6611,273.7271 " fill="none" id="TutorialResetButton-to-Navigation" style="stroke:#181818;stroke-width:1.0;"/><polygon fill="#181818" points="366.35,275.634,359.0878,268.9811,361.6092,274.045,356.5454,276.5663,366.35,275.634" style="stroke:#181818;stroke-width:1.0;"/><text fill="#000000" font-family="sans-serif" font-size="13" lengthAdjust="spacing" textLength="102" x="171.5" y="196.0669">Navigates using</text></g><!--link TutorialResetButton to TutorialSlice--><g id="link_TutorialResetButton_TutorialSlice"><path codeLine="39" d="M79.8422,120.564 C67.1104,138.475 54.0238,160.623 47.5,183 C42.8515,198.944 43.7119,209.7 50.9388,224.549 " fill="none" id="TutorialResetButton-to-TutorialSlice" style="stroke:#181818;stroke-width:1.0;"/><polygon fill="#181818" points="53.5645,229.944,53.2226,220.1011,51.3764,225.4482,46.0293,223.602,53.5645,229.944" style="stroke:#181818;stroke-width:1.0;"/><text fill="#000000" font-family="sans-serif" font-size="13" lengthAdjust="spacing" textLength="81" x="48.5" y="196.0669">Resets state</text></g><!--SRC=[ZPB1ReCm44JlV8MFhI9-05Kzj3r7KQXwT_26hcHiX1SKASg_TsqPKqCJbHlxcF7CcaPBvyJdI7P0gSMr4FoKWkAW9kX59T3G2hpRhjT0e9YUhDKHTrP9_OKEJnfoOkI4hIIqXkVxz1BeJdnBepJiuK9FpymdYoeZXm4cjADRwAqecf1zyUBqQJetgZKsS8rUTrhjxhUAt04bj0veEBGtNC_x63bdcu17OFEtaIZaVxohR2L1-C3uGv9CnP72VJWQqBHngC0r0_Rnc0pvYpZ8TYEPho5djoBzFozb-PhllX97aCe9pXo3EzP1lsYyP2cP2lDte_FssOU_sytMteulysp5UR1TaHqVH4TGuwKIDS_P5Ktnr_B_6sEjsRHbx3Enz0S0]--></g></svg>