<?xml version="1.0" encoding="us-ascii" standalone="no"?><svg xmlns="http://www.w3.org/2000/svg" xmlns:xlink="http://www.w3.org/1999/xlink" contentStyleType="text/css" height="1173px" preserveAspectRatio="none" style="width:484px;height:1173px;background:#FFFFFF;" version="1.1" viewBox="0 0 484 1173" width="484px" zoomAndPan="magnify"><defs/><g><!--cluster WINsight--><g id="cluster_WINsight"><rect fill="none" height="1160" rx="2.5" ry="2.5" style="stroke:#181818;stroke-width:1.0;" width="273" x="205" y="7"/><text fill="#000000" font-family="sans-serif" font-size="14" font-weight="bold" lengthAdjust="spacing" textLength="73" x="305" y="21.9951">WINsight</text></g><g id="elem_UC2"><ellipse cx="341.6678" cy="146.8336" fill="#F1F1F1" rx="67.1678" ry="15.8336" style="stroke:#181818;stroke-width:0.5;"/><text fill="#000000" font-family="sans-serif" font-size="14" lengthAdjust="spacing" textLength="85" x="296.1678" y="150.5811">View Profile</text></g><g id="elem_UC3"><ellipse cx="341.42" cy="213.984" fill="#F1F1F1" rx="65.42" ry="15.484" style="stroke:#181818;stroke-width:0.5;"/><text fill="#000000" font-family="sans-serif" font-size="14" lengthAdjust="spacing" textLength="80" x="298.42" y="217.7316">Edit Profile</text></g><g id="elem_UC4"><ellipse cx="341.3761" cy="279.1644" fill="#F1F1F1" rx="47.3761" ry="14.6644" style="stroke:#181818;stroke-width:0.5;"/><text fill="#000000" font-family="sans-serif" font-size="14" lengthAdjust="spacing" textLength="50" x="313.3761" y="282.9119">Logout</text></g><g id="elem_UC1"><ellipse cx="341.4293" cy="345.7859" fill="#F1F1F1" rx="71.9293" ry="16.7859" style="stroke:#181818;stroke-width:0.5;"/><text fill="#000000" font-family="sans-serif" font-size="14" lengthAdjust="spacing" textLength="98" x="289.4293" y="349.5334">View Content</text></g><g id="elem_UC8"><ellipse cx="341.3197" cy="412.7671" fill="#F1F1F1" rx="59.3197" ry="14.7671" style="stroke:#181818;stroke-width:0.5;"/><text fill="#000000" font-family="sans-serif" font-size="14" lengthAdjust="spacing" textLength="66" x="305.3197" y="416.5147">View CoP</text></g><g id="elem_UC9"><ellipse cx="341.6728" cy="483.8346" fill="#F1F1F1" rx="89.6728" ry="20.3346" style="stroke:#181818;stroke-width:0.5;"/><text fill="#000000" font-family="sans-serif" font-size="14" lengthAdjust="spacing" textLength="141" x="271.1728" y="486.6812">View Study Material</text></g><g id="elem_UC10"><ellipse cx="341.4563" cy="557.7913" fill="#F1F1F1" rx="76.9563" ry="17.7913" style="stroke:#181818;stroke-width:0.5;"/><text fill="#000000" font-family="sans-serif" font-size="14" lengthAdjust="spacing" textLength="111" x="283.0675" y="561.5101">View Workshop</text></g><g id="elem_UC11"><ellipse cx="341.4096" cy="625.8819" fill="#F1F1F1" rx="62.4096" ry="14.8819" style="stroke:#181818;stroke-width:0.5;"/><text fill="#000000" font-family="sans-serif" font-size="14" lengthAdjust="spacing" textLength="71" x="302.9096" y="629.6295">View WTR</text></g><g id="elem_UC12"><ellipse cx="341.4293" cy="692.7859" fill="#F1F1F1" rx="71.9293" ry="16.7859" style="stroke:#181818;stroke-width:0.5;"/><text fill="#000000" font-family="sans-serif" font-size="14" lengthAdjust="spacing" textLength="98" x="289.4293" y="696.5334">Create in CoP</text></g><g id="elem_UC13"><ellipse cx="341.5567" cy="766.0113" fill="#F1F1F1" rx="90.5567" ry="20.5113" style="stroke:#181818;stroke-width:0.5;"/><text fill="#000000" font-family="sans-serif" font-size="14" lengthAdjust="spacing" textLength="143" x="270.0567" y="768.858">Read Study Material</text></g><g id="elem_UC14"><ellipse cx="341.6869" cy="836.0634" fill="#F1F1F1" rx="39.1869" ry="14.5634" style="stroke:#181818;stroke-width:0.5;"/><text fill="#000000" font-family="sans-serif" font-size="14" lengthAdjust="spacing" textLength="39" x="320.0666" y="839.5876">Login</text></g><g id="elem_UC15"><ellipse cx="341.709" cy="1127.0418" fill="#F1F1F1" rx="108.209" ry="24.0418" style="stroke:#181818;stroke-width:0.5;"/><text fill="#000000" font-family="sans-serif" font-size="14" lengthAdjust="spacing" textLength="182" x="250.709" y="1129.8885">Moderate Content in CoP</text></g><g id="elem_UC16"><ellipse cx="341.712" cy="904.9424" fill="#F1F1F1" rx="82.712" ry="18.9424" style="stroke:#181818;stroke-width:0.5;"/><text fill="#000000" font-family="sans-serif" font-size="14" lengthAdjust="spacing" textLength="125" x="278.5208" y="908.0215">Change Font Size</text></g><g id="elem_UC17"><ellipse cx="341.2754" cy="977.0551" fill="#F1F1F1" rx="75.7754" ry="17.5551" style="stroke:#181818;stroke-width:0.5;"/><text fill="#000000" font-family="sans-serif" font-size="14" lengthAdjust="spacing" textLength="108" x="284.2754" y="980.8026">Change Theme</text></g><g id="elem_UC18"><ellipse cx="341.6379" cy="1049.0276" fill="#F1F1F1" rx="83.1379" ry="19.0276" style="stroke:#181818;stroke-width:0.5;"/><text fill="#000000" font-family="sans-serif" font-size="14" lengthAdjust="spacing" textLength="126" x="278.0914" y="1052.0594">Change Language</text></g><g id="elem_UC19"><ellipse cx="341.3027" cy="68.9605" fill="#F1F1F1" rx="120.3027" ry="26.4605" style="stroke:#181818;stroke-width:0.5;"/><text fill="#000000" font-family="sans-serif" font-size="14" lengthAdjust="spacing" textLength="208" x="237.3027" y="71.8072">Change Notification Settings</text></g><!--entity User--><g id="elem_User"><ellipse cx="136.5" cy="562.5" fill="#F1F1F1" rx="8" ry="8" style="stroke:#181818;stroke-width:0.5;"/><path d="M136.5,570.5 L136.5,597.5 M123.5,578.5 L149.5,578.5 M136.5,597.5 L123.5,612.5 M136.5,597.5 L149.5,612.5 " fill="none" style="stroke:#181818;stroke-width:0.5;"/><text fill="#000000" font-family="sans-serif" font-size="14" lengthAdjust="spacing" textLength="49" x="112" y="626.9951">Person</text></g><!--entity Admin--><g id="elem_Admin"><ellipse cx="29" cy="710.5" fill="#F1F1F1" rx="8" ry="8" style="stroke:#181818;stroke-width:0.5;"/><path d="M29,718.5 L29,745.5 M16,726.5 L42,726.5 M29,745.5 L16,760.5 M29,745.5 L42,760.5 " fill="none" style="stroke:#181818;stroke-width:0.5;"/><text fill="#000000" font-family="sans-serif" font-size="14" lengthAdjust="spacing" textLength="46" x="6" y="774.9951">Admin</text></g><!--link User to UC1--><g id="link_User_UC1"><path d="M137.177,553.624 C138.95,506.046 149.426,425.663 197,380 C216.395,361.384 238.0983,353.2851 263.9403,349.0691 " fill="none" id="User-to-UC1" style="stroke:#181818;stroke-width:1.0;"/><polygon fill="#181818" points="269.862,348.103,260.3354,345.6043,264.9272,348.9081,261.6235,353.5,269.862,348.103" style="stroke:#181818;stroke-width:1.0;"/></g><!--link User to UC2--><g id="link_User_UC2"><path d="M137.738,553.726 C139.113,462.352 147.543,235.06 197,181 C216.529,159.65 240.8254,151.2906 268.5244,147.7506 " fill="none" id="User-to-UC2" style="stroke:#181818;stroke-width:1.0;"/><polygon fill="#181818" points="274.476,146.99,265.0415,144.1632,269.5163,147.6239,266.0557,152.0987,274.476,146.99" style="stroke:#181818;stroke-width:1.0;"/></g><!--link User to UC3--><g id="link_User_UC3"><path d="M138.896,553.932 C142.634,473.647 155.591,290.762 197,247 C217.118,225.739 241.987,217.5949 269.921,214.3139 " fill="none" id="User-to-UC3" style="stroke:#181818;stroke-width:1.0;"/><polygon fill="#181818" points="275.88,213.614,266.4748,210.6912,270.9141,214.1973,267.4081,218.6366,275.88,213.614" style="stroke:#181818;stroke-width:1.0;"/></g><!--link User to UC4--><g id="link_User_UC4"><path d="M140.533,553.939 C146.784,485.345 163.42,344.943 197,311 C222.132,285.596 256.6981,278.6533 288.2961,277.3553 " fill="none" id="User-to-UC4" style="stroke:#181818;stroke-width:1.0;"/><polygon fill="#181818" points="294.291,277.109,285.1344,273.4818,289.2952,277.3142,285.4628,281.475,294.291,277.109" style="stroke:#181818;stroke-width:1.0;"/></g><!--link User to UC8--><g id="link_User_UC8"><path d="M143.02,553.944 C149.884,520.599 164.895,473.313 197,446 C220.462,426.04 247.6728,418.2659 276.2118,414.8799 " fill="none" id="User-to-UC8" style="stroke:#181818;stroke-width:1.0;"/><polygon fill="#181818" points="282.17,414.173,272.7614,411.2612,277.2048,414.7621,273.704,419.2055,282.17,414.173" style="stroke:#181818;stroke-width:1.0;"/></g><!--link User to UC9--><g id="link_User_UC9"><path d="M161.25,555.903 C170.997,543.553 183.239,530.677 197,522 C217.492,509.079 236.454,501.9454 259.624,496.2914 " fill="none" id="User-to-UC9" style="stroke:#181818;stroke-width:1.0;"/><polygon fill="#181818" points="265.453,494.869,255.7613,493.1166,260.5955,496.0543,257.6578,500.8886,265.453,494.869" style="stroke:#181818;stroke-width:1.0;"/></g><!--link User to UC10--><g id="link_User_UC10"><path d="M161.184,588.033 C189.737,583.251 232.9034,576.0211 272.5064,569.3881 " fill="none" id="User-to-UC10" style="stroke:#181818;stroke-width:1.0;"/><polygon fill="#181818" points="278.424,568.397,268.8869,565.9386,273.4927,569.2229,270.2084,573.8287,278.424,568.397" style="stroke:#181818;stroke-width:1.0;"/></g><!--link User to UC11--><g id="link_User_UC11"><path d="M161.184,595.967 C192.56,601.222 242.8134,609.6389 283.9504,616.5289 " fill="none" id="User-to-UC11" style="stroke:#181818;stroke-width:1.0;"/><polygon fill="#181818" points="289.868,617.52,281.6524,612.0883,284.9367,616.6941,280.3309,619.9784,289.868,617.52" style="stroke:#181818;stroke-width:1.0;"/></g><!--link User to UC12--><g id="link_User_UC12"><path d="M161.235,625.817 C171.059,637.58 183.356,649.855 197,658 C220.89,672.262 244.4158,679.5835 270.3828,684.5975 " fill="none" id="User-to-UC12" style="stroke:#181818;stroke-width:1.0;"/><polygon fill="#181818" points="276.274,685.735,268.1956,680.1012,271.3647,684.7871,266.6789,687.9562,276.274,685.735" style="stroke:#181818;stroke-width:1.0;"/></g><!--link User to UC13--><g id="link_User_UC13"><path d="M144.912,630.3 C152.765,660.739 168.168,702.192 197,727 C214.515,742.07 231.5119,749.8762 253.7709,755.5982 " fill="none" id="User-to-UC13" style="stroke:#181818;stroke-width:1.0;"/><polygon fill="#181818" points="259.582,757.092,251.8613,750.9772,254.7394,755.8472,249.8695,758.7253,259.582,757.092" style="stroke:#181818;stroke-width:1.0;"/></g><!--link User to UC14--><g id="link_User_UC14"><path d="M137.066,630.063 C138.693,677.693 148.986,758.521 197,804 C225.168,830.681 264.4774,836.8288 296.6414,837.5268 " fill="none" id="User-to-UC14" style="stroke:#181818;stroke-width:1.0;"/><polygon fill="#181818" points="302.64,837.657,293.7289,833.4627,297.6412,837.5485,293.5553,841.4608,302.64,837.657" style="stroke:#181818;stroke-width:1.0;"/></g><!--link Admin to UC15--><g id="link_Admin_UC15"><path d="M37.5966,778.042 C53.8421,849.339 98.7716,1003.312 197,1086 C212.362,1098.9316 225.8496,1105.9936 245.1736,1112.0614 " fill="none" id="Admin-to-UC15" style="stroke:#181818;stroke-width:1.0;"/><polygon fill="#181818" points="250.898,1113.8589,243.5097,1107.3464,246.1276,1112.361,241.113,1114.979,250.898,1113.8589" style="stroke:#181818;stroke-width:1.0;"/></g><!--link User to UC16--><g id="link_User_UC16"><path d="M140.813,630.081 C147.455,697.58 164.61,834.288 197,868 C213.844,885.532 231.9469,893.8747 255.4769,899.0477 " fill="none" id="User-to-UC16" style="stroke:#181818;stroke-width:1.0;"/><polygon fill="#181818" points="261.337,900.336,253.4058,894.4968,256.4536,899.2624,251.688,902.3102,261.337,900.336" style="stroke:#181818;stroke-width:1.0;"/></g><!--link User to UC17--><g id="link_User_UC17"><path d="M138.884,630.136 C142.609,711.062 155.555,896.237 197,941 C214.712,960.13 235.0363,968.6629 260.2393,973.3059 " fill="none" id="User-to-UC17" style="stroke:#181818;stroke-width:1.0;"/><polygon fill="#181818" points="266.14,974.393,258.0136,968.8286,261.2227,973.4871,256.5642,976.6962,266.14,974.393" style="stroke:#181818;stroke-width:1.0;"/></g><!--link User to UC18--><g id="link_User_UC18"><path d="M140.5,630.214 C148.541,728.378 171.688,983.693 197,1012 C213.12,1030.028 230.8899,1038.5168 254.3409,1043.6718 " fill="none" id="User-to-UC18" style="stroke:#181818;stroke-width:1.0;"/><polygon fill="#181818" points="260.201,1044.96,252.2696,1039.121,255.3176,1043.8865,250.5521,1046.9345,260.201,1044.96" style="stroke:#181818;stroke-width:1.0;"/></g><!--link User to UC19--><g id="link_User_UC19"><path d="M137.077,553.74 C136.737,452.267 141.163,179.5 197,113 C208.31,99.53 218.0608,92.3274 234.4938,85.7574 " fill="none" id="User-to-UC19" style="stroke:#181818;stroke-width:1.0;"/><polygon fill="#181818" points="240.065,83.53,230.2232,83.157,235.4223,85.3862,233.1931,90.5853,240.065,83.53" style="stroke:#181818;stroke-width:1.0;"/></g><!--link Admin to User--><g id="link_Admin_User"><path d="M52.1163,708.974 C69.6386,684.393 83.614,664.7882 101.4998,639.6972 " fill="none" id="Admin-to-User" style="stroke:#181818;stroke-width:1.0;"/><polygon fill="none" points="111.948,625.04,96.614,636.2145,106.3855,643.18,111.948,625.04" style="stroke:#181818;stroke-width:1.0;"/></g><!--SRC=[RPDDYy8m48Rl-HM35q-2LLlr8eZime9AiUxkERHZ6wnDIL8Mz-E_Rwoj934UnBVppCphpBJ4amB5GR2yK90nWQbYl2BopAgQ2dg1cgPdccEYhYN2BKohl4H2QAguW46CGl9g05J2kqJHFrvd5tP_sluYv949dszxsNRx8Q0_ZSIKIeJ11yClY0K_iHBlzJOJctZ9c7A8gKriUSuRrSLcdleRNYciUYBm4d4NNNYYYMgoA-oeGi5esO5B3_Z9nLaMlEuxZNtCyT277ISRWRe5iCgm4pZJE23D_7w2vwbqoz0nPoexdg6uzUecu_GC7L-5tY72gsOXOT_z5eB8YnqBl3oGkHVPwkz6drTFBRpKdYjsOYczdIOag1IhSjcdBCaV8KCm3gmRlJwm8LZbrah_nSpTJQWnjyJny9pT3jm-eCXbOYeKIrdzjBtvlSdj7O7HQDKUdo4cffYQOgOJ3HdQChBbtCnSc69fjHvRod8IM5O2oui-dlPrxcLe1IDBMLO2oujUsQFExwhr_my0]--></g></svg>